<svg id="container" width="1100.62109375" xmlns="http://www.w3.org/2000/svg" class="erDiagram" height="758.25" viewBox="0 0 1100.62109375 758.25" role="graphics-document document" aria-roledescription="er"><style>#container{font-family:"trebuchet ms",verdana,arial,sans-serif;font-size:16px;fill:#333;}@keyframes edge-animation-frame{from{stroke-dashoffset:0;}}@keyframes dash{to{stroke-dashoffset:0;}}#container .edge-animation-slow{stroke-dasharray:9,5!important;stroke-dashoffset:900;animation:dash 50s linear infinite;stroke-linecap:round;}#container .edge-animation-fast{stroke-dasharray:9,5!important;stroke-dashoffset:900;animation:dash 20s linear infinite;stroke-linecap:round;}#container .error-icon{fill:#552222;}#container .error-text{fill:#552222;stroke:#552222;}#container .edge-thickness-normal{stroke-width:1px;}#container .edge-thickness-thick{stroke-width:3.5px;}#container .edge-pattern-solid{stroke-dasharray:0;}#container .edge-thickness-invisible{stroke-width:0;fill:none;}#container .edge-pattern-dashed{stroke-dasharray:3;}#container .edge-pattern-dotted{stroke-dasharray:2;}#container .marker{fill:#333333;stroke:#333333;}#container .marker.cross{stroke:#333333;}#container svg{font-family:"trebuchet ms",verdana,arial,sans-serif;font-size:16px;}#container p{margin:0;}#container .entityBox{fill:#ECECFF;stroke:#9370DB;}#container .relationshipLabelBox{fill:hsl(80, 100%, 96.2745098039%);opacity:0.7;background-color:hsl(80, 100%, 96.2745098039%);}#container .relationshipLabelBox rect{opacity:0.5;}#container .labelBkg{background-color:rgba(248.6666666666, 255, 235.9999999999, 0.5);}#container .edgeLabel .label{fill:#9370DB;font-size:14px;}#container .label{font-family:"trebuchet ms",verdana,arial,sans-serif;color:#333;}#container .edge-pattern-dashed{stroke-dasharray:8,8;}#container .node rect,#container .node circle,#container .node ellipse,#container .node polygon{fill:#ECECFF;stroke:#9370DB;stroke-width:1px;}#container .relationshipLine{stroke:#333333;stroke-width:1;fill:none;}#container .marker{fill:none!important;stroke:#333333!important;stroke-width:1;}#container :root{--mermaid-font-family:"trebuchet ms",verdana,arial,sans-serif;}</style><g><defs><marker id="container_er-onlyOneStart" class="marker onlyOne er" refX="0" refY="9" markerWidth="18" markerHeight="18" orient="auto"><path d="M9,0 L9,18 M15,0 L15,18"></path></marker></defs><defs><marker id="container_er-onlyOneEnd" class="marker onlyOne er" refX="18" refY="9" markerWidth="18" markerHeight="18" orient="auto"><path d="M3,0 L3,18 M9,0 L9,18"></path></marker></defs><defs><marker id="container_er-zeroOrOneStart" class="marker zeroOrOne er" refX="0" refY="9" markerWidth="30" markerHeight="18" orient="auto"><circle fill="white" cx="21" cy="9" r="6"></circle><path d="M9,0 L9,18"></path></marker></defs><defs><marker id="container_er-zeroOrOneEnd" class="marker zeroOrOne er" refX="30" refY="9" markerWidth="30" markerHeight="18" orient="auto"><circle fill="white" cx="9" cy="9" r="6"></circle><path d="M21,0 L21,18"></path></marker></defs><defs><marker id="container_er-oneOrMoreStart" class="marker oneOrMore er" refX="18" refY="18" markerWidth="45" markerHeight="36" orient="auto"><path d="M0,18 Q 18,0 36,18 Q 18,36 0,18 M42,9 L42,27"></path></marker></defs><defs><marker id="container_er-oneOrMoreEnd" class="marker oneOrMore er" refX="27" refY="18" markerWidth="45" markerHeight="36" orient="auto"><path d="M3,9 L3,27 M9,18 Q27,0 45,18 Q27,36 9,18"></path></marker></defs><defs><marker id="container_er-zeroOrMoreStart" class="marker zeroOrMore er" refX="18" refY="18" markerWidth="57" markerHeight="36" orient="auto"><circle fill="white" cx="48" cy="18" r="6"></circle><path d="M0,18 Q18,0 36,18 Q18,36 0,18"></path></marker></defs><defs><marker id="container_er-zeroOrMoreEnd" class="marker zeroOrMore er" refX="39" refY="18" markerWidth="57" markerHeight="36" orient="auto"><circle fill="white" cx="9" cy="18" r="6"></circle><path d="M21,18 Q39,0 57,18 Q39,36 21,18"></path></marker></defs><g class="root"><g class="clusters"></g><g class="edgePaths"><path d="M187.539,452.647L178.789,465.331C170.039,478.015,152.539,503.382,143.789,528.045C135.039,552.708,135.039,576.667,135.039,588.646L135.039,600.625" id="id_entity-user_profiles-0_entity-user_global_roles-1_0" class="edge-thickness-normal edge-pattern-solid relationshipLine" style="undefined;;;undefined" data-edge="true" data-et="edge" data-id="id_entity-user_profiles-0_entity-user_global_roles-1_0" data-points="W3sieCI6MTg3LjUzOTA2MjUsInkiOjQ1Mi42NDY3NTI3MDYwNzgyNX0seyJ4IjoxMzUuMDM5MDYyNSwieSI6NTI4Ljc1fSx7IngiOjEzNS4wMzkwNjI1LCJ5Ijo2MDAuNjI1fV0=" marker-start="url(#container_er-onlyOneStart)" marker-end="url(#container_er-zeroOrMoreEnd)"></path><path d="M476.617,452.647L485.367,465.331C494.117,478.015,511.617,503.382,520.367,524.483C529.117,545.583,529.117,562.417,529.117,570.833L529.117,579.25" id="id_entity-user_profiles-0_entity-user_tenant_memberships-2_1" class="edge-thickness-normal edge-pattern-solid relationshipLine" style="undefined;;;undefined" data-edge="true" data-et="edge" data-id="id_entity-user_profiles-0_entity-user_tenant_memberships-2_1" data-points="W3sieCI6NDc2LjYxNzE4NzUsInkiOjQ1Mi42NDY3NTI3MDYwNzgyNX0seyJ4Ijo1MjkuMTE3MTg3NSwieSI6NTI4Ljc1fSx7IngiOjUyOS4xMTcxODc1LCJ5Ijo1NzkuMjV9XQ==" marker-start="url(#container_er-onlyOneStart)" marker-end="url(#container_er-zeroOrMoreEnd)"></path><path d="M946.754,392.75L946.754,415.417C946.754,438.083,946.754,483.417,946.754,518.063C946.754,552.708,946.754,576.667,946.754,588.646L946.754,600.625" id="id_entity-tenant_settings-3_entity-tenant_auto_approve_domains-4_2" class="edge-thickness-normal edge-pattern-solid relationshipLine" style="undefined;;;undefined" data-edge="true" data-et="edge" data-id="id_entity-tenant_settings-3_entity-tenant_auto_approve_domains-4_2" data-points="W3sieCI6OTQ2Ljc1MzkwNjI1LCJ5IjozOTIuNzV9LHsieCI6OTQ2Ljc1MzkwNjI1LCJ5Ijo1MjguNzV9LHsieCI6OTQ2Ljc1MzkwNjI1LCJ5Ijo2MDAuNjI1fV0=" marker-start="url(#container_er-onlyOneStart)" marker-end="url(#container_er-zeroOrMoreEnd)"></path></g><g class="edgeLabels"><g class="edgeLabel" transform="translate(135.0390625, 528.75)"><g class="label" data-id="id_entity-user_profiles-0_entity-user_global_roles-1_0" transform="translate(-11.109375, -10.5)"><foreignObject width="22.21875" height="21"><div xmlns="http://www.w3.org/1999/xhtml" class="labelBkg" style="display: table-cell; white-space: nowrap; line-height: 1.5; max-width: 200px; text-align: center;"><span class="edgeLabel"><p>has</p></span></div></foreignObject></g></g><g class="edgeLabel" transform="translate(529.1171875, 528.75)"><g class="label" data-id="id_entity-user_profiles-0_entity-user_tenant_memberships-2_1" transform="translate(-11.109375, -10.5)"><foreignObject width="22.21875" height="21"><div xmlns="http://www.w3.org/1999/xhtml" class="labelBkg" style="display: table-cell; white-space: nowrap; line-height: 1.5; max-width: 200px; text-align: center;"><span class="edgeLabel"><p>has</p></span></div></foreignObject></g></g><g class="edgeLabel" transform="translate(946.75390625, 528.75)"><g class="label" data-id="id_entity-tenant_settings-3_entity-tenant_auto_approve_domains-4_2" transform="translate(-11.109375, -10.5)"><foreignObject width="22.21875" height="21"><div xmlns="http://www.w3.org/1999/xhtml" class="labelBkg" style="display: table-cell; white-space: nowrap; line-height: 1.5; max-width: 200px; text-align: center;"><span class="edgeLabel"><p>has</p></span></div></foreignObject></g></g></g><g class="nodes"><g class="node default" id="entity-user_profiles-0" transform="translate(332.078125, 243.125)"><g style=""><path d="M-144.5390625 -235.125 L144.5390625 -235.125 L144.5390625 235.125 L-144.5390625 235.125" stroke="none" stroke-width="0" fill="#ECECFF"></path><path d="M-144.5390625 -235.125 C-42.38431087445235 -235.125, 59.77044075109529 -235.125, 144.5390625 -235.125 M-144.5390625 -235.125 C-70.30965024243494 -235.125, 3.919762015130118 -235.125, 144.5390625 -235.125 M144.5390625 -235.125 C144.5390625 -108.32081264523325, 144.5390625 18.483374709533507, 144.5390625 235.125 M144.5390625 -235.125 C144.5390625 -125.58249806299928, 144.5390625 -16.039996125998556, 144.5390625 235.125 M144.5390625 235.125 C77.15335901339672 235.125, 9.767655526793448 235.125, -144.5390625 235.125 M144.5390625 235.125 C62.34363478360983 235.125, -19.85179293278034 235.125, -144.5390625 235.125 M-144.5390625 235.125 C-144.5390625 72.2795616571506, -144.5390625 -90.56587668569881, -144.5390625 -235.125 M-144.5390625 235.125 C-144.5390625 135.80075308420936, -144.5390625 36.47650616841872, -144.5390625 -235.125" stroke="#9370DB" stroke-width="1.3" fill="none" stroke-dasharray="0 0"></path></g><g style="" class="row-rect-odd"><path d="M-144.5390625 -192.375 L144.5390625 -192.375 L144.5390625 -149.625 L-144.5390625 -149.625" stroke="none" stroke-width="0" fill="hsl(240, 100%, 100%)"></path><path d="M-144.5390625 -192.375 C-73.88638226629409 -192.375, -3.233702032588184 -192.375, 144.5390625 -192.375 M-144.5390625 -192.375 C-53.68985631372554 -192.375, 37.159349872548916 -192.375, 144.5390625 -192.375 M144.5390625 -192.375 C144.5390625 -176.02073404619694, 144.5390625 -159.66646809239384, 144.5390625 -149.625 M144.5390625 -192.375 C144.5390625 -182.10720598761836, 144.5390625 -171.83941197523674, 144.5390625 -149.625 M144.5390625 -149.625 C31.632248613630935 -149.625, -81.27456527273813 -149.625, -144.5390625 -149.625 M144.5390625 -149.625 C73.47565560518132 -149.625, 2.4122487103626327 -149.625, -144.5390625 -149.625 M-144.5390625 -149.625 C-144.5390625 -159.43956688130885, -144.5390625 -169.2541337626177, -144.5390625 -192.375 M-144.5390625 -149.625 C-144.5390625 -159.31252548704134, -144.5390625 -169.00005097408265, -144.5390625 -192.375" stroke="#9370DB" stroke-width="1.3" fill="none" stroke-dasharray="0 0"></path></g><g style="" class="row-rect-even"><path d="M-144.5390625 -149.625 L144.5390625 -149.625 L144.5390625 -106.875 L-144.5390625 -106.875" stroke="none" stroke-width="0" fill="hsl(240, 100%, 97.2745098039%)"></path><path d="M-144.5390625 -149.625 C-83.27041668607728 -149.625, -22.00177087215455 -149.625, 144.5390625 -149.625 M-144.5390625 -149.625 C-86.49539387517277 -149.625, -28.451725250345532 -149.625, 144.5390625 -149.625 M144.5390625 -149.625 C144.5390625 -133.2960695374222, 144.5390625 -116.96713907484441, 144.5390625 -106.875 M144.5390625 -149.625 C144.5390625 -136.03351726479286, 144.5390625 -122.44203452958573, 144.5390625 -106.875 M144.5390625 -106.875 C57.67752512958543 -106.875, -29.184012240829134 -106.875, -144.5390625 -106.875 M144.5390625 -106.875 C66.65783531467231 -106.875, -11.223391870655377 -106.875, -144.5390625 -106.875 M-144.5390625 -106.875 C-144.5390625 -118.80164397809891, -144.5390625 -130.72828795619782, -144.5390625 -149.625 M-144.5390625 -106.875 C-144.5390625 -117.6220753376806, -144.5390625 -128.3691506753612, -144.5390625 -149.625" stroke="#9370DB" stroke-width="1.3" fill="none" stroke-dasharray="0 0"></path></g><g style="" class="row-rect-odd"><path d="M-144.5390625 -106.875 L144.5390625 -106.875 L144.5390625 -64.125 L-144.5390625 -64.125" stroke="none" stroke-width="0" fill="hsl(240, 100%, 100%)"></path><path d="M-144.5390625 -106.875 C-40.296742842011085 -106.875, 63.94557681597783 -106.875, 144.5390625 -106.875 M-144.5390625 -106.875 C-58.19005277642472 -106.875, 28.158956947150557 -106.875, 144.5390625 -106.875 M144.5390625 -106.875 C144.5390625 -92.4415564119304, 144.5390625 -78.00811282386081, 144.5390625 -64.125 M144.5390625 -106.875 C144.5390625 -96.5558216474915, 144.5390625 -86.236643294983, 144.5390625 -64.125 M144.5390625 -64.125 C39.47253741386986 -64.125, -65.59398767226028 -64.125, -144.5390625 -64.125 M144.5390625 -64.125 C82.91125295057009 -64.125, 21.28344340114016 -64.125, -144.5390625 -64.125 M-144.5390625 -64.125 C-144.5390625 -75.71003010891849, -144.5390625 -87.29506021783698, -144.5390625 -106.875 M-144.5390625 -64.125 C-144.5390625 -76.3208408521882, -144.5390625 -88.5166817043764, -144.5390625 -106.875" stroke="#9370DB" stroke-width="1.3" fill="none" stroke-dasharray="0 0"></path></g><g style="" class="row-rect-even"><path d="M-144.5390625 -64.125 L144.5390625 -64.125 L144.5390625 -21.375 L-144.5390625 -21.375" stroke="none" stroke-width="0" fill="hsl(240, 100%, 97.2745098039%)"></path><path d="M-144.5390625 -64.125 C-42.2099331772809 -64.125, 60.119196145438195 -64.125, 144.5390625 -64.125 M-144.5390625 -64.125 C-42.61849136419721 -64.125, 59.30207977160558 -64.125, 144.5390625 -64.125 M144.5390625 -64.125 C144.5390625 -47.33207298477265, 144.5390625 -30.539145969545302, 144.5390625 -21.375 M144.5390625 -64.125 C144.5390625 -49.87729580916574, 144.5390625 -35.629591618331474, 144.5390625 -21.375 M144.5390625 -21.375 C46.048848078113465 -21.375, -52.44136634377307 -21.375, -144.5390625 -21.375 M144.5390625 -21.375 C80.97816605891077 -21.375, 17.417269617821546 -21.375, -144.5390625 -21.375 M-144.5390625 -21.375 C-144.5390625 -31.10403944318587, -144.5390625 -40.83307888637174, -144.5390625 -64.125 M-144.5390625 -21.375 C-144.5390625 -35.093743473584404, -144.5390625 -48.81248694716881, -144.5390625 -64.125" stroke="#9370DB" stroke-width="1.3" fill="none" stroke-dasharray="0 0"></path></g><g style="" class="row-rect-odd"><path d="M-144.5390625 -21.375 L144.5390625 -21.375 L144.5390625 21.375 L-144.5390625 21.375" stroke="none" stroke-width="0" fill="hsl(240, 100%, 100%)"></path><path d="M-144.5390625 -21.375 C-51.33308496132804 -21.375, 41.87289257734392 -21.375, 144.5390625 -21.375 M-144.5390625 -21.375 C-60.30429351570942 -21.375, 23.930475468581164 -21.375, 144.5390625 -21.375 M144.5390625 -21.375 C144.5390625 -9.551611552237008, 144.5390625 2.271776895525985, 144.5390625 21.375 M144.5390625 -21.375 C144.5390625 -7.818737166705558, 144.5390625 5.737525666588883, 144.5390625 21.375 M144.5390625 21.375 C60.07538483797357 21.375, -24.388292824052854 21.375, -144.5390625 21.375 M144.5390625 21.375 C53.44622248726134 21.375, -37.646617525477325 21.375, -144.5390625 21.375 M-144.5390625 21.375 C-144.5390625 12.771688698174634, -144.5390625 4.168377396349268, -144.5390625 -21.375 M-144.5390625 21.375 C-144.5390625 11.526039866835188, -144.5390625 1.677079733670375, -144.5390625 -21.375" stroke="#9370DB" stroke-width="1.3" fill="none" stroke-dasharray="0 0"></path></g><g style="" class="row-rect-even"><path d="M-144.5390625 21.375 L144.5390625 21.375 L144.5390625 64.125 L-144.5390625 64.125" stroke="none" stroke-width="0" fill="hsl(240, 100%, 97.2745098039%)"></path><path d="M-144.5390625 21.375 C-77.39444437156881 21.375, -10.249826243137619 21.375, 144.5390625 21.375 M-144.5390625 21.375 C-52.41801082882429 21.375, 39.70304084235141 21.375, 144.5390625 21.375 M144.5390625 21.375 C144.5390625 38.191796377181056, 144.5390625 55.00859275436211, 144.5390625 64.125 M144.5390625 21.375 C144.5390625 31.037654447200374, 144.5390625 40.70030889440075, 144.5390625 64.125 M144.5390625 64.125 C52.68879577096277 64.125, -39.16147095807446 64.125, -144.5390625 64.125 M144.5390625 64.125 C46.37566763602449 64.125, -51.787727227951024 64.125, -144.5390625 64.125 M-144.5390625 64.125 C-144.5390625 54.94392051860807, -144.5390625 45.762841037216134, -144.5390625 21.375 M-144.5390625 64.125 C-144.5390625 53.93552064586903, -144.5390625 43.746041291738074, -144.5390625 21.375" stroke="#9370DB" stroke-width="1.3" fill="none" stroke-dasharray="0 0"></path></g><g style="" class="row-rect-odd"><path d="M-144.5390625 64.125 L144.5390625 64.125 L144.5390625 106.875 L-144.5390625 106.875" stroke="none" stroke-width="0" fill="hsl(240, 100%, 100%)"></path><path d="M-144.5390625 64.125 C-86.32720685717871 64.125, -28.115351214357403 64.125, 144.5390625 64.125 M-144.5390625 64.125 C-83.55407458577804 64.125, -22.569086671556093 64.125, 144.5390625 64.125 M144.5390625 64.125 C144.5390625 75.66979501925914, 144.5390625 87.21459003851828, 144.5390625 106.875 M144.5390625 64.125 C144.5390625 79.12620553254452, 144.5390625 94.12741106508903, 144.5390625 106.875 M144.5390625 106.875 C58.04818116798326 106.875, -28.442700164033482 106.875, -144.5390625 106.875 M144.5390625 106.875 C61.22295899508819 106.875, -22.093144509823617 106.875, -144.5390625 106.875 M-144.5390625 106.875 C-144.5390625 97.13090867716465, -144.5390625 87.38681735432931, -144.5390625 64.125 M-144.5390625 106.875 C-144.5390625 91.15239503796951, -144.5390625 75.42979007593901, -144.5390625 64.125" stroke="#9370DB" stroke-width="1.3" fill="none" stroke-dasharray="0 0"></path></g><g style="" class="row-rect-even"><path d="M-144.5390625 106.875 L144.5390625 106.875 L144.5390625 149.625 L-144.5390625 149.625" stroke="none" stroke-width="0" fill="hsl(240, 100%, 97.2745098039%)"></path><path d="M-144.5390625 106.875 C-44.148852364046334 106.875, 56.24135777190733 106.875, 144.5390625 106.875 M-144.5390625 106.875 C-56.456128546827 106.875, 31.626805406345994 106.875, 144.5390625 106.875 M144.5390625 106.875 C144.5390625 118.67626128935235, 144.5390625 130.4775225787047, 144.5390625 149.625 M144.5390625 106.875 C144.5390625 120.30042841324776, 144.5390625 133.72585682649552, 144.5390625 149.625 M144.5390625 149.625 C33.53239362554645 149.625, -77.4742752489071 149.625, -144.5390625 149.625 M144.5390625 149.625 C33.80053050480795 149.625, -76.9380014903841 149.625, -144.5390625 149.625 M-144.5390625 149.625 C-144.5390625 138.65431055235987, -144.5390625 127.68362110471976, -144.5390625 106.875 M-144.5390625 149.625 C-144.5390625 137.20195094735695, -144.5390625 124.77890189471387, -144.5390625 106.875" stroke="#9370DB" stroke-width="1.3" fill="none" stroke-dasharray="0 0"></path></g><g style="" class="row-rect-odd"><path d="M-144.5390625 149.625 L144.5390625 149.625 L144.5390625 192.375 L-144.5390625 192.375" stroke="none" stroke-width="0" fill="hsl(240, 100%, 100%)"></path><path d="M-144.5390625 149.625 C-55.809643101367755 149.625, 32.91977629726449 149.625, 144.5390625 149.625 M-144.5390625 149.625 C-75.52511361377586 149.625, -6.511164727551716 149.625, 144.5390625 149.625 M144.5390625 149.625 C144.5390625 162.16140195228115, 144.5390625 174.6978039045623, 144.5390625 192.375 M144.5390625 149.625 C144.5390625 160.02435341376884, 144.5390625 170.42370682753767, 144.5390625 192.375 M144.5390625 192.375 C84.59802487057723 192.375, 24.656987241154468 192.375, -144.5390625 192.375 M144.5390625 192.375 C43.80708681406399 192.375, -56.924888871872014 192.375, -144.5390625 192.375 M-144.5390625 192.375 C-144.5390625 181.3492502439078, -144.5390625 170.32350048781555, -144.5390625 149.625 M-144.5390625 192.375 C-144.5390625 175.72942688631395, -144.5390625 159.08385377262792, -144.5390625 149.625" stroke="#9370DB" stroke-width="1.3" fill="none" stroke-dasharray="0 0"></path></g><g style="" class="row-rect-even"><path d="M-144.5390625 192.375 L144.5390625 192.375 L144.5390625 235.125 L-144.5390625 235.125" stroke="none" stroke-width="0" fill="hsl(240, 100%, 97.2745098039%)"></path><path d="M-144.5390625 192.375 C-80.84407170671446 192.375, -17.149080913428904 192.375, 144.5390625 192.375 M-144.5390625 192.375 C-42.21488116039767 192.375, 60.109300179204666 192.375, 144.5390625 192.375 M144.5390625 192.375 C144.5390625 207.73772405321182, 144.5390625 223.10044810642364, 144.5390625 235.125 M144.5390625 192.375 C144.5390625 201.50686078184526, 144.5390625 210.63872156369055, 144.5390625 235.125 M144.5390625 235.125 C86.2891401692555 235.125, 28.039217838511007 235.125, -144.5390625 235.125 M144.5390625 235.125 C53.003770950506194 235.125, -38.53152059898761 235.125, -144.5390625 235.125 M-144.5390625 235.125 C-144.5390625 223.95293158902257, -144.5390625 212.78086317804517, -144.5390625 192.375 M-144.5390625 235.125 C-144.5390625 224.29465739465792, -144.5390625 213.46431478931584, -144.5390625 192.375" stroke="#9370DB" stroke-width="1.3" fill="none" stroke-dasharray="0 0"></path></g><g class="label name" transform="translate(-46.6328125, -225.75)" style=""><foreignObject width="93.265625" height="24"><div xmlns="http://www.w3.org/1999/xhtml" style="display: table-cell; white-space: nowrap; line-height: 1.5; max-width: 193px; text-align: start;"><span class="nodeLabel"><p>user_profiles</p></span></div></foreignObject></g><g class="label attribute-type" transform="translate(-132.0390625, -183)" style=""><foreignObject width="32.71875" height="24"><div xmlns="http://www.w3.org/1999/xhtml" style="display: table-cell; white-space: nowrap; line-height: 1.5; max-width: 133px; text-align: start;"><span class="nodeLabel"><p>uuid</p></span></div></foreignObject></g><g class="label attribute-name" transform="translate(-29.2578125, -183)" style=""><foreignObject width="14.09375" height="24"><div xmlns="http://www.w3.org/1999/xhtml" style="display: table-cell; white-space: nowrap; line-height: 1.5; max-width: 114px; text-align: start;"><span class="nodeLabel"><p>id</p></span></div></foreignObject></g><g class="label attribute-keys" transform="translate(112.0078125, -183)" style=""><foreignObject width="18.734375" height="24"><div xmlns="http://www.w3.org/1999/xhtml" style="display: table-cell; white-space: nowrap; line-height: 1.5; max-width: 119px; text-align: start;"><span class="nodeLabel"><p>PK</p></span></div></foreignObject></g><g class="label attribute-comment" transform="translate(157.0390625, -183)" style=""><foreignObject width="0" height="0"><div xmlns="http://www.w3.org/1999/xhtml" style="display: table-cell; white-space: nowrap; line-height: 1.5; max-width: 100px; text-align: start;"><span class="nodeLabel"></span></div></foreignObject></g><g class="label attribute-type" transform="translate(-132.0390625, -140.25)" style=""><foreignObject width="53.921875" height="24"><div xmlns="http://www.w3.org/1999/xhtml" style="display: table-cell; white-space: nowrap; line-height: 1.5; max-width: 155px; text-align: start;"><span class="nodeLabel"><p>varchar</p></span></div></foreignObject></g><g class="label attribute-name" transform="translate(-29.2578125, -140.25)" style=""><foreignObject width="92.3125" height="24"><div xmlns="http://www.w3.org/1999/xhtml" style="display: table-cell; white-space: nowrap; line-height: 1.5; max-width: 193px; text-align: start;"><span class="nodeLabel"><p>oidc_subject</p></span></div></foreignObject></g><g class="label attribute-keys" transform="translate(112.0078125, -140.25)" style=""><foreignObject width="20.03125" height="24"><div xmlns="http://www.w3.org/1999/xhtml" style="display: table-cell; white-space: nowrap; line-height: 1.5; max-width: 121px; text-align: start;"><span class="nodeLabel"><p>UK</p></span></div></foreignObject></g><g class="label attribute-comment" transform="translate(157.0390625, -140.25)" style=""><foreignObject width="0" height="0"><div xmlns="http://www.w3.org/1999/xhtml" style="display: table-cell; white-space: nowrap; line-height: 1.5; max-width: 100px; text-align: start;"><span class="nodeLabel"></span></div></foreignObject></g><g class="label attribute-type" transform="translate(-132.0390625, -97.5)" style=""><foreignObject width="53.921875" height="24"><div xmlns="http://www.w3.org/1999/xhtml" style="display: table-cell; white-space: nowrap; line-height: 1.5; max-width: 155px; text-align: start;"><span class="nodeLabel"><p>varchar</p></span></div></foreignObject></g><g class="label attribute-name" transform="translate(-29.2578125, -97.5)" style=""><foreignObject width="72.203125" height="24"><div xmlns="http://www.w3.org/1999/xhtml" style="display: table-cell; white-space: nowrap; line-height: 1.5; max-width: 172px; text-align: start;"><span class="nodeLabel"><p>username</p></span></div></foreignObject></g><g class="label attribute-keys" transform="translate(112.0078125, -97.5)" style=""><foreignObject width="20.03125" height="24"><div xmlns="http://www.w3.org/1999/xhtml" style="display: table-cell; white-space: nowrap; line-height: 1.5; max-width: 121px; text-align: start;"><span class="nodeLabel"><p>UK</p></span></div></foreignObject></g><g class="label attribute-comment" transform="translate(157.0390625, -97.5)" style=""><foreignObject width="0" height="0"><div xmlns="http://www.w3.org/1999/xhtml" style="display: table-cell; white-space: nowrap; line-height: 1.5; max-width: 100px; text-align: start;"><span class="nodeLabel"></span></div></foreignObject></g><g class="label attribute-type" transform="translate(-132.0390625, -54.75)" style=""><foreignObject width="53.921875" height="24"><div xmlns="http://www.w3.org/1999/xhtml" style="display: table-cell; white-space: nowrap; line-height: 1.5; max-width: 155px; text-align: start;"><span class="nodeLabel"><p>varchar</p></span></div></foreignObject></g><g class="label attribute-name" transform="translate(-29.2578125, -54.75)" style=""><foreignObject width="111.734375" height="24"><div xmlns="http://www.w3.org/1999/xhtml" style="display: table-cell; white-space: nowrap; line-height: 1.5; max-width: 212px; text-align: start;"><span class="nodeLabel"><p>password_hash</p></span></div></foreignObject></g><g class="label attribute-keys" transform="translate(112.0078125, -54.75)" style=""><foreignObject width="0" height="0"><div xmlns="http://www.w3.org/1999/xhtml" style="display: table-cell; white-space: nowrap; line-height: 1.5; max-width: 100px; text-align: start;"><span class="nodeLabel"></span></div></foreignObject></g><g class="label attribute-comment" transform="translate(157.0390625, -54.75)" style=""><foreignObject width="0" height="0"><div xmlns="http://www.w3.org/1999/xhtml" style="display: table-cell; white-space: nowrap; line-height: 1.5; max-width: 100px; text-align: start;"><span class="nodeLabel"></span></div></foreignObject></g><g class="label attribute-type" transform="translate(-132.0390625, -12)" style=""><foreignObject width="53.921875" height="24"><div xmlns="http://www.w3.org/1999/xhtml" style="display: table-cell; white-space: nowrap; line-height: 1.5; max-width: 155px; text-align: start;"><span class="nodeLabel"><p>varchar</p></span></div></foreignObject></g><g class="label attribute-name" transform="translate(-29.2578125, -12)" style=""><foreignObject width="89.375" height="24"><div xmlns="http://www.w3.org/1999/xhtml" style="display: table-cell; white-space: nowrap; line-height: 1.5; max-width: 189px; text-align: start;"><span class="nodeLabel"><p>auth_source</p></span></div></foreignObject></g><g class="label attribute-keys" transform="translate(112.0078125, -12)" style=""><foreignObject width="0" height="0"><div xmlns="http://www.w3.org/1999/xhtml" style="display: table-cell; white-space: nowrap; line-height: 1.5; max-width: 100px; text-align: start;"><span class="nodeLabel"></span></div></foreignObject></g><g class="label attribute-comment" transform="translate(157.0390625, -12)" style=""><foreignObject width="0" height="0"><div xmlns="http://www.w3.org/1999/xhtml" style="display: table-cell; white-space: nowrap; line-height: 1.5; max-width: 100px; text-align: start;"><span class="nodeLabel"></span></div></foreignObject></g><g class="label attribute-type" transform="translate(-132.0390625, 30.75)" style=""><foreignObject width="53.921875" height="24"><div xmlns="http://www.w3.org/1999/xhtml" style="display: table-cell; white-space: nowrap; line-height: 1.5; max-width: 155px; text-align: start;"><span class="nodeLabel"><p>varchar</p></span></div></foreignObject></g><g class="label attribute-name" transform="translate(-29.2578125, 30.75)" style=""><foreignObject width="40.34375" height="24"><div xmlns="http://www.w3.org/1999/xhtml" style="display: table-cell; white-space: nowrap; line-height: 1.5; max-width: 141px; text-align: start;"><span class="nodeLabel"><p>email</p></span></div></foreignObject></g><g class="label attribute-keys" transform="translate(112.0078125, 30.75)" style=""><foreignObject width="0" height="0"><div xmlns="http://www.w3.org/1999/xhtml" style="display: table-cell; white-space: nowrap; line-height: 1.5; max-width: 100px; text-align: start;"><span class="nodeLabel"></span></div></foreignObject></g><g class="label attribute-comment" transform="translate(157.0390625, 30.75)" style=""><foreignObject width="0" height="0"><div xmlns="http://www.w3.org/1999/xhtml" style="display: table-cell; white-space: nowrap; line-height: 1.5; max-width: 100px; text-align: start;"><span class="nodeLabel"></span></div></foreignObject></g><g class="label attribute-type" transform="translate(-132.0390625, 73.5)" style=""><foreignObject width="53.921875" height="24"><div xmlns="http://www.w3.org/1999/xhtml" style="display: table-cell; white-space: nowrap; line-height: 1.5; max-width: 155px; text-align: start;"><span class="nodeLabel"><p>varchar</p></span></div></foreignObject></g><g class="label attribute-name" transform="translate(-29.2578125, 73.5)" style=""><foreignObject width="100.359375" height="24"><div xmlns="http://www.w3.org/1999/xhtml" style="display: table-cell; white-space: nowrap; line-height: 1.5; max-width: 200px; text-align: start;"><span class="nodeLabel"><p>display_name</p></span></div></foreignObject></g><g class="label attribute-keys" transform="translate(112.0078125, 73.5)" style=""><foreignObject width="0" height="0"><div xmlns="http://www.w3.org/1999/xhtml" style="display: table-cell; white-space: nowrap; line-height: 1.5; max-width: 100px; text-align: start;"><span class="nodeLabel"></span></div></foreignObject></g><g class="label attribute-comment" transform="translate(157.0390625, 73.5)" style=""><foreignObject width="0" height="0"><div xmlns="http://www.w3.org/1999/xhtml" style="display: table-cell; white-space: nowrap; line-height: 1.5; max-width: 100px; text-align: start;"><span class="nodeLabel"></span></div></foreignObject></g><g class="label attribute-type" transform="translate(-132.0390625, 116.25)" style=""><foreignObject width="53.921875" height="24"><div xmlns="http://www.w3.org/1999/xhtml" style="display: table-cell; white-space: nowrap; line-height: 1.5; max-width: 155px; text-align: start;"><span class="nodeLabel"><p>varchar</p></span></div></foreignObject></g><g class="label attribute-name" transform="translate(-29.2578125, 116.25)" style=""><foreignObject width="116.265625" height="24"><div xmlns="http://www.w3.org/1999/xhtml" style="display: table-cell; white-space: nowrap; line-height: 1.5; max-width: 216px; text-align: start;"><span class="nodeLabel"><p>approval_status</p></span></div></foreignObject></g><g class="label attribute-keys" transform="translate(112.0078125, 116.25)" style=""><foreignObject width="0" height="0"><div xmlns="http://www.w3.org/1999/xhtml" style="display: table-cell; white-space: nowrap; line-height: 1.5; max-width: 100px; text-align: start;"><span class="nodeLabel"></span></div></foreignObject></g><g class="label attribute-comment" transform="translate(157.0390625, 116.25)" style=""><foreignObject width="0" height="0"><div xmlns="http://www.w3.org/1999/xhtml" style="display: table-cell; white-space: nowrap; line-height: 1.5; max-width: 100px; text-align: start;"><span class="nodeLabel"></span></div></foreignObject></g><g class="label attribute-type" transform="translate(-132.0390625, 159)" style=""><foreignObject width="77.78125" height="24"><div xmlns="http://www.w3.org/1999/xhtml" style="display: table-cell; white-space: nowrap; line-height: 1.5; max-width: 178px; text-align: start;"><span class="nodeLabel"><p>timestamp</p></span></div></foreignObject></g><g class="label attribute-name" transform="translate(-29.2578125, 159)" style=""><foreignObject width="76.921875" height="24"><div xmlns="http://www.w3.org/1999/xhtml" style="display: table-cell; white-space: nowrap; line-height: 1.5; max-width: 177px; text-align: start;"><span class="nodeLabel"><p>created_at</p></span></div></foreignObject></g><g class="label attribute-keys" transform="translate(112.0078125, 159)" style=""><foreignObject width="0" height="0"><div xmlns="http://www.w3.org/1999/xhtml" style="display: table-cell; white-space: nowrap; line-height: 1.5; max-width: 100px; text-align: start;"><span class="nodeLabel"></span></div></foreignObject></g><g class="label attribute-comment" transform="translate(157.0390625, 159)" style=""><foreignObject width="0" height="0"><div xmlns="http://www.w3.org/1999/xhtml" style="display: table-cell; white-space: nowrap; line-height: 1.5; max-width: 100px; text-align: start;"><span class="nodeLabel"></span></div></foreignObject></g><g class="label attribute-type" transform="translate(-132.0390625, 201.75)" style=""><foreignObject width="77.78125" height="24"><div xmlns="http://www.w3.org/1999/xhtml" style="display: table-cell; white-space: nowrap; line-height: 1.5; max-width: 178px; text-align: start;"><span class="nodeLabel"><p>timestamp</p></span></div></foreignObject></g><g class="label attribute-name" transform="translate(-29.2578125, 201.75)" style=""><foreignObject width="93.203125" height="24"><div xmlns="http://www.w3.org/1999/xhtml" style="display: table-cell; white-space: nowrap; line-height: 1.5; max-width: 193px; text-align: start;"><span class="nodeLabel"><p>last_login_at</p></span></div></foreignObject></g><g class="label attribute-keys" transform="translate(112.0078125, 201.75)" style=""><foreignObject width="0" height="0"><div xmlns="http://www.w3.org/1999/xhtml" style="display: table-cell; white-space: nowrap; line-height: 1.5; max-width: 100px; text-align: start;"><span class="nodeLabel"></span></div></foreignObject></g><g class="label attribute-comment" transform="translate(157.0390625, 201.75)" style=""><foreignObject width="0" height="0"><div xmlns="http://www.w3.org/1999/xhtml" style="display: table-cell; white-space: nowrap; line-height: 1.5; max-width: 100px; text-align: start;"><span class="nodeLabel"></span></div></foreignObject></g><g class="divider"><path d="M-144.5390625 -192.375 C-37.575148779882255 -192.375, 69.38876494023549 -192.375, 144.5390625 -192.375 M-144.5390625 -192.375 C-40.66453694040386 -192.375, 63.20998861919227 -192.375, 144.5390625 -192.375" stroke="#9370DB" stroke-width="1.3" fill="none" stroke-dasharray="0 0"></path></g><g class="divider"><path d="M-41.7578125 -192.375 C-41.7578125 -53.20244491019457, -41.7578125 85.97011017961086, -41.7578125 235.125 M-41.7578125 -192.375 C-41.7578125 -37.303042538418396, -41.7578125 117.76891492316321, -41.7578125 235.125" stroke="#9370DB" stroke-width="1.3" fill="none" stroke-dasharray="0 0"></path></g><g class="divider"><path d="M99.5078125 -192.375 C99.5078125 -72.09798096640482, 99.5078125 48.17903806719036, 99.5078125 235.125 M99.5078125 -192.375 C99.5078125 -40.56727753825717, 99.5078125 111.24044492348565, 99.5078125 235.125" stroke="#9370DB" stroke-width="1.3" fill="none" stroke-dasharray="0 0"></path></g><g class="divider"><path d="M-144.5390625 -192.375 C-86.58353985266437 -192.375, -28.628017205328746 -192.375, 144.5390625 -192.375 M-144.5390625 -192.375 C-51.14570507414885 -192.375, 42.2476523517023 -192.375, 144.5390625 -192.375" stroke="#9370DB" stroke-width="1.3" fill="none" stroke-dasharray="0 0"></path></g></g><g class="node default" id="entity-user_global_roles-1" transform="translate(135.0390625, 664.75)"><g style=""><path d="M-127.0390625 -64.125 L127.0390625 -64.125 L127.0390625 64.125 L-127.0390625 64.125" stroke="none" stroke-width="0" fill="#ECECFF"></path><path d="M-127.0390625 -64.125 C-70.41765233431857 -64.125, -13.79624216863715 -64.125, 127.0390625 -64.125 M-127.0390625 -64.125 C-55.58332368340824 -64.125, 15.872415133183523 -64.125, 127.0390625 -64.125 M127.0390625 -64.125 C127.0390625 -18.937394537363943, 127.0390625 26.250210925272114, 127.0390625 64.125 M127.0390625 -64.125 C127.0390625 -33.26513257925369, 127.0390625 -2.405265158507376, 127.0390625 64.125 M127.0390625 64.125 C69.4418405896422 64.125, 11.844618679284395 64.125, -127.0390625 64.125 M127.0390625 64.125 C26.57278723381073 64.125, -73.89348803237854 64.125, -127.0390625 64.125 M-127.0390625 64.125 C-127.0390625 27.093907596668366, -127.0390625 -9.937184806663268, -127.0390625 -64.125 M-127.0390625 64.125 C-127.0390625 27.556887259021053, -127.0390625 -9.011225481957894, -127.0390625 -64.125" stroke="#9370DB" stroke-width="1.3" fill="none" stroke-dasharray="0 0"></path></g><g style="" class="row-rect-odd"><path d="M-127.0390625 -21.375 L127.0390625 -21.375 L127.0390625 21.375 L-127.0390625 21.375" stroke="none" stroke-width="0" fill="hsl(240, 100%, 100%)"></path><path d="M-127.0390625 -21.375 C-40.57264728024599 -21.375, 45.893767939508024 -21.375, 127.0390625 -21.375 M-127.0390625 -21.375 C-44.33021646956337 -21.375, 38.378629560873264 -21.375, 127.0390625 -21.375 M127.0390625 -21.375 C127.0390625 -12.419007990107175, 127.0390625 -3.463015980214351, 127.0390625 21.375 M127.0390625 -21.375 C127.0390625 -9.383026638464987, 127.0390625 2.6089467230700265, 127.0390625 21.375 M127.0390625 21.375 C64.60497174456103 21.375, 2.170880989122054 21.375, -127.0390625 21.375 M127.0390625 21.375 C27.513319030981762 21.375, -72.01242443803648 21.375, -127.0390625 21.375 M-127.0390625 21.375 C-127.0390625 8.223581865194673, -127.0390625 -4.927836269610655, -127.0390625 -21.375 M-127.0390625 21.375 C-127.0390625 9.955398579919747, -127.0390625 -1.4642028401605067, -127.0390625 -21.375" stroke="#9370DB" stroke-width="1.3" fill="none" stroke-dasharray="0 0"></path></g><g style="" class="row-rect-even"><path d="M-127.0390625 21.375 L127.0390625 21.375 L127.0390625 64.125 L-127.0390625 64.125" stroke="none" stroke-width="0" fill="hsl(240, 100%, 97.2745098039%)"></path><path d="M-127.0390625 21.375 C-50.42574002489965 21.375, 26.187582450200694 21.375, 127.0390625 21.375 M-127.0390625 21.375 C-37.88405933850795 21.375, 51.270943822984094 21.375, 127.0390625 21.375 M127.0390625 21.375 C127.0390625 30.868228002916467, 127.0390625 40.361456005832935, 127.0390625 64.125 M127.0390625 21.375 C127.0390625 31.92319699115354, 127.0390625 42.47139398230708, 127.0390625 64.125 M127.0390625 64.125 C51.676898715690385 64.125, -23.68526506861923 64.125, -127.0390625 64.125 M127.0390625 64.125 C49.91611360355222 64.125, -27.206835292895562 64.125, -127.0390625 64.125 M-127.0390625 64.125 C-127.0390625 53.97834172894862, -127.0390625 43.83168345789724, -127.0390625 21.375 M-127.0390625 64.125 C-127.0390625 50.717383072259935, -127.0390625 37.30976614451987, -127.0390625 21.375" stroke="#9370DB" stroke-width="1.3" fill="none" stroke-dasharray="0 0"></path></g><g class="label name" transform="translate(-63.9375, -54.75)" style=""><foreignObject width="127.875" height="24"><div xmlns="http://www.w3.org/1999/xhtml" style="display: table-cell; white-space: nowrap; line-height: 1.5; max-width: 228px; text-align: start;"><span class="nodeLabel"><p>user_global_roles</p></span></div></foreignObject></g><g class="label attribute-type" transform="translate(-114.5390625, -12)" style=""><foreignObject width="32.71875" height="24"><div xmlns="http://www.w3.org/1999/xhtml" style="display: table-cell; white-space: nowrap; line-height: 1.5; max-width: 133px; text-align: start;"><span class="nodeLabel"><p>uuid</p></span></div></foreignObject></g><g class="label attribute-name" transform="translate(-35.6171875, -12)" style=""><foreignObject width="107.875" height="24"><div xmlns="http://www.w3.org/1999/xhtml" style="display: table-cell; white-space: nowrap; line-height: 1.5; max-width: 208px; text-align: start;"><span class="nodeLabel"><p>user_profile_id</p></span></div></foreignObject></g><g class="label attribute-keys" transform="translate(97.2578125, -12)" style=""><foreignObject width="17.28125" height="24"><div xmlns="http://www.w3.org/1999/xhtml" style="display: table-cell; white-space: nowrap; line-height: 1.5; max-width: 118px; text-align: start;"><span class="nodeLabel"><p>FK</p></span></div></foreignObject></g><g class="label attribute-comment" transform="translate(139.5390625, -12)" style=""><foreignObject width="0" height="0"><div xmlns="http://www.w3.org/1999/xhtml" style="display: table-cell; white-space: nowrap; line-height: 1.5; max-width: 100px; text-align: start;"><span class="nodeLabel"></span></div></foreignObject></g><g class="label attribute-type" transform="translate(-114.5390625, 30.75)" style=""><foreignObject width="53.921875" height="24"><div xmlns="http://www.w3.org/1999/xhtml" style="display: table-cell; white-space: nowrap; line-height: 1.5; max-width: 155px; text-align: start;"><span class="nodeLabel"><p>varchar</p></span></div></foreignObject></g><g class="label attribute-name" transform="translate(-35.6171875, 30.75)" style=""><foreignObject width="28.375" height="24"><div xmlns="http://www.w3.org/1999/xhtml" style="display: table-cell; white-space: nowrap; line-height: 1.5; max-width: 128px; text-align: start;"><span class="nodeLabel"><p>role</p></span></div></foreignObject></g><g class="label attribute-keys" transform="translate(97.2578125, 30.75)" style=""><foreignObject width="0" height="0"><div xmlns="http://www.w3.org/1999/xhtml" style="display: table-cell; white-space: nowrap; line-height: 1.5; max-width: 100px; text-align: start;"><span class="nodeLabel"></span></div></foreignObject></g><g class="label attribute-comment" transform="translate(139.5390625, 30.75)" style=""><foreignObject width="0" height="0"><div xmlns="http://www.w3.org/1999/xhtml" style="display: table-cell; white-space: nowrap; line-height: 1.5; max-width: 100px; text-align: start;"><span class="nodeLabel"></span></div></foreignObject></g><g class="divider"><path d="M-127.0390625 -21.375 C-45.33562823145736 -21.375, 36.36780603708527 -21.375, 127.0390625 -21.375 M-127.0390625 -21.375 C-68.00153542445098 -21.375, -8.964008348901956 -21.375, 127.0390625 -21.375" stroke="#9370DB" stroke-width="1.3" fill="none" stroke-dasharray="0 0"></path></g><g class="divider"><path d="M-48.1171875 -21.375 C-48.1171875 11.089187355385398, -48.1171875 43.5533747107708, -48.1171875 64.125 M-48.1171875 -21.375 C-48.1171875 -3.3691671645552255, -48.1171875 14.636665670889549, -48.1171875 64.125" stroke="#9370DB" stroke-width="1.3" fill="none" stroke-dasharray="0 0"></path></g><g class="divider"><path d="M84.7578125 -21.375 C84.7578125 5.413640635820961, 84.7578125 32.20228127164192, 84.7578125 64.125 M84.7578125 -21.375 C84.7578125 3.8923993153224146, 84.7578125 29.15979863064483, 84.7578125 64.125" stroke="#9370DB" stroke-width="1.3" fill="none" stroke-dasharray="0 0"></path></g><g class="divider"><path d="M-127.0390625 -21.375 C-57.78964340202465 -21.375, 11.459775695950697 -21.375, 127.0390625 -21.375 M-127.0390625 -21.375 C-31.598676630376943 -21.375, 63.841709239246114 -21.375, 127.0390625 -21.375" stroke="#9370DB" stroke-width="1.3" fill="none" stroke-dasharray="0 0"></path></g></g><g class="node default" id="entity-user_tenant_memberships-2" transform="translate(529.1171875, 664.75)"><g style=""><path d="M-127.0390625 -85.5 L127.0390625 -85.5 L127.0390625 85.5 L-127.0390625 85.5" stroke="none" stroke-width="0" fill="#ECECFF"></path><path d="M-127.0390625 -85.5 C-53.26098424180094 -85.5, 20.51709401639812 -85.5, 127.0390625 -85.5 M-127.0390625 -85.5 C-60.76693975334345 -85.5, 5.505182993313099 -85.5, 127.0390625 -85.5 M127.0390625 -85.5 C127.0390625 -43.046132007578706, 127.0390625 -0.5922640151574114, 127.0390625 85.5 M127.0390625 -85.5 C127.0390625 -37.904295433018994, 127.0390625 9.691409133962011, 127.0390625 85.5 M127.0390625 85.5 C48.31879989375051 85.5, -30.401462712498983 85.5, -127.0390625 85.5 M127.0390625 85.5 C53.53600059458607 85.5, -19.96706131082786 85.5, -127.0390625 85.5 M-127.0390625 85.5 C-127.0390625 17.587724741639605, -127.0390625 -50.32455051672079, -127.0390625 -85.5 M-127.0390625 85.5 C-127.0390625 24.612534950187687, -127.0390625 -36.274930099624626, -127.0390625 -85.5" stroke="#9370DB" stroke-width="1.3" fill="none" stroke-dasharray="0 0"></path></g><g style="" class="row-rect-odd"><path d="M-127.0390625 -42.75 L127.0390625 -42.75 L127.0390625 0 L-127.0390625 0" stroke="none" stroke-width="0" fill="hsl(240, 100%, 100%)"></path><path d="M-127.0390625 -42.75 C-43.35109691007041 -42.75, 40.33686867985918 -42.75, 127.0390625 -42.75 M-127.0390625 -42.75 C-32.47497726699581 -42.75, 62.089107966008385 -42.75, 127.0390625 -42.75 M127.0390625 -42.75 C127.0390625 -31.114707909511665, 127.0390625 -19.479415819023327, 127.0390625 0 M127.0390625 -42.75 C127.0390625 -26.546113170340032, 127.0390625 -10.342226340680064, 127.0390625 0 M127.0390625 0 C56.07601598346767 0, -14.88703053306466 0, -127.0390625 0 M127.0390625 0 C72.3818222977078 0, 17.7245820954156 0, -127.0390625 0 M-127.0390625 0 C-127.0390625 -12.43781517368216, -127.0390625 -24.87563034736432, -127.0390625 -42.75 M-127.0390625 0 C-127.0390625 -13.053120905812554, -127.0390625 -26.106241811625107, -127.0390625 -42.75" stroke="#9370DB" stroke-width="1.3" fill="none" stroke-dasharray="0 0"></path></g><g style="" class="row-rect-even"><path d="M-127.0390625 0 L127.0390625 0 L127.0390625 42.75 L-127.0390625 42.75" stroke="none" stroke-width="0" fill="hsl(240, 100%, 97.2745098039%)"></path><path d="M-127.0390625 0 C-63.85674613977511 0, -0.6744297795502234 0, 127.0390625 0 M-127.0390625 0 C-42.138715609647875 0, 42.76163128070425 0, 127.0390625 0 M127.0390625 0 C127.0390625 14.96736222267048, 127.0390625 29.93472444534096, 127.0390625 42.75 M127.0390625 0 C127.0390625 12.210987999450003, 127.0390625 24.421975998900006, 127.0390625 42.75 M127.0390625 42.75 C69.8626108957341 42.75, 12.686159291468172 42.75, -127.0390625 42.75 M127.0390625 42.75 C42.13472284150552 42.75, -42.76961681698896 42.75, -127.0390625 42.75 M-127.0390625 42.75 C-127.0390625 27.6479340318984, -127.0390625 12.545868063796807, -127.0390625 0 M-127.0390625 42.75 C-127.0390625 30.965410371742447, -127.0390625 19.180820743484894, -127.0390625 0" stroke="#9370DB" stroke-width="1.3" fill="none" stroke-dasharray="0 0"></path></g><g style="" class="row-rect-odd"><path d="M-127.0390625 42.75 L127.0390625 42.75 L127.0390625 85.5 L-127.0390625 85.5" stroke="none" stroke-width="0" fill="hsl(240, 100%, 100%)"></path><path d="M-127.0390625 42.75 C-31.263566563633532 42.75, 64.51192937273294 42.75, 127.0390625 42.75 M-127.0390625 42.75 C-58.99171694989488 42.75, 9.055628600210241 42.75, 127.0390625 42.75 M127.0390625 42.75 C127.0390625 55.05234545208876, 127.0390625 67.35469090417752, 127.0390625 85.5 M127.0390625 42.75 C127.0390625 54.32780468167573, 127.0390625 65.90560936335146, 127.0390625 85.5 M127.0390625 85.5 C29.130951655071 85.5, -68.777159189858 85.5, -127.0390625 85.5 M127.0390625 85.5 C73.61263279991606 85.5, 20.186203099832113 85.5, -127.0390625 85.5 M-127.0390625 85.5 C-127.0390625 71.08934286383526, -127.0390625 56.67868572767051, -127.0390625 42.75 M-127.0390625 85.5 C-127.0390625 74.19961268019603, -127.0390625 62.899225360392045, -127.0390625 42.75" stroke="#9370DB" stroke-width="1.3" fill="none" stroke-dasharray="0 0"></path></g><g class="label name" transform="translate(-96.4296875, -76.125)" style=""><foreignObject width="192.859375" height="24"><div xmlns="http://www.w3.org/1999/xhtml" style="display: table-cell; white-space: nowrap; line-height: 1.5; max-width: 293px; text-align: start;"><span class="nodeLabel"><p>user_tenant_memberships</p></span></div></foreignObject></g><g class="label attribute-type" transform="translate(-114.5390625, -33.375)" style=""><foreignObject width="32.71875" height="24"><div xmlns="http://www.w3.org/1999/xhtml" style="display: table-cell; white-space: nowrap; line-height: 1.5; max-width: 133px; text-align: start;"><span class="nodeLabel"><p>uuid</p></span></div></foreignObject></g><g class="label attribute-name" transform="translate(-35.6171875, -33.375)" style=""><foreignObject width="107.875" height="24"><div xmlns="http://www.w3.org/1999/xhtml" style="display: table-cell; white-space: nowrap; line-height: 1.5; max-width: 208px; text-align: start;"><span class="nodeLabel"><p>user_profile_id</p></span></div></foreignObject></g><g class="label attribute-keys" transform="translate(97.2578125, -33.375)" style=""><foreignObject width="17.28125" height="24"><div xmlns="http://www.w3.org/1999/xhtml" style="display: table-cell; white-space: nowrap; line-height: 1.5; max-width: 118px; text-align: start;"><span class="nodeLabel"><p>FK</p></span></div></foreignObject></g><g class="label attribute-comment" transform="translate(139.5390625, -33.375)" style=""><foreignObject width="0" height="0"><div xmlns="http://www.w3.org/1999/xhtml" style="display: table-cell; white-space: nowrap; line-height: 1.5; max-width: 100px; text-align: start;"><span class="nodeLabel"></span></div></foreignObject></g><g class="label attribute-type" transform="translate(-114.5390625, 9.375)" style=""><foreignObject width="32.71875" height="24"><div xmlns="http://www.w3.org/1999/xhtml" style="display: table-cell; white-space: nowrap; line-height: 1.5; max-width: 133px; text-align: start;"><span class="nodeLabel"><p>uuid</p></span></div></foreignObject></g><g class="label attribute-name" transform="translate(-35.6171875, 9.375)" style=""><foreignObject width="69.890625" height="24"><div xmlns="http://www.w3.org/1999/xhtml" style="display: table-cell; white-space: nowrap; line-height: 1.5; max-width: 170px; text-align: start;"><span class="nodeLabel"><p>tenant_id</p></span></div></foreignObject></g><g class="label attribute-keys" transform="translate(97.2578125, 9.375)" style=""><foreignObject width="0" height="0"><div xmlns="http://www.w3.org/1999/xhtml" style="display: table-cell; white-space: nowrap; line-height: 1.5; max-width: 100px; text-align: start;"><span class="nodeLabel"></span></div></foreignObject></g><g class="label attribute-comment" transform="translate(139.5390625, 9.375)" style=""><foreignObject width="0" height="0"><div xmlns="http://www.w3.org/1999/xhtml" style="display: table-cell; white-space: nowrap; line-height: 1.5; max-width: 100px; text-align: start;"><span class="nodeLabel"></span></div></foreignObject></g><g class="label attribute-type" transform="translate(-114.5390625, 52.125)" style=""><foreignObject width="53.921875" height="24"><div xmlns="http://www.w3.org/1999/xhtml" style="display: table-cell; white-space: nowrap; line-height: 1.5; max-width: 155px; text-align: start;"><span class="nodeLabel"><p>varchar</p></span></div></foreignObject></g><g class="label attribute-name" transform="translate(-35.6171875, 52.125)" style=""><foreignObject width="28.375" height="24"><div xmlns="http://www.w3.org/1999/xhtml" style="display: table-cell; white-space: nowrap; line-height: 1.5; max-width: 128px; text-align: start;"><span class="nodeLabel"><p>role</p></span></div></foreignObject></g><g class="label attribute-keys" transform="translate(97.2578125, 52.125)" style=""><foreignObject width="0" height="0"><div xmlns="http://www.w3.org/1999/xhtml" style="display: table-cell; white-space: nowrap; line-height: 1.5; max-width: 100px; text-align: start;"><span class="nodeLabel"></span></div></foreignObject></g><g class="label attribute-comment" transform="translate(139.5390625, 52.125)" style=""><foreignObject width="0" height="0"><div xmlns="http://www.w3.org/1999/xhtml" style="display: table-cell; white-space: nowrap; line-height: 1.5; max-width: 100px; text-align: start;"><span class="nodeLabel"></span></div></foreignObject></g><g class="divider"><path d="M-127.0390625 -42.75 C-75.14576278261748 -42.75, -23.252463065234963 -42.75, 127.0390625 -42.75 M-127.0390625 -42.75 C-46.71935914942672 -42.75, 33.600344201146555 -42.75, 127.0390625 -42.75" stroke="#9370DB" stroke-width="1.3" fill="none" stroke-dasharray="0 0"></path></g><g class="divider"><path d="M-48.1171875 -42.75 C-48.1171875 8.427184144041526, -48.1171875 59.60436828808305, -48.1171875 85.5 M-48.1171875 -42.75 C-48.1171875 -4.439244079739147, -48.1171875 33.871511840521705, -48.1171875 85.5" stroke="#9370DB" stroke-width="1.3" fill="none" stroke-dasharray="0 0"></path></g><g class="divider"><path d="M84.7578125 -42.75 C84.7578125 4.279548193640281, 84.7578125 51.30909638728056, 84.7578125 85.5 M84.7578125 -42.75 C84.7578125 -5.292318172550864, 84.7578125 32.16536365489827, 84.7578125 85.5" stroke="#9370DB" stroke-width="1.3" fill="none" stroke-dasharray="0 0"></path></g><g class="divider"><path d="M-127.0390625 -42.75 C-35.24428831908253 -42.75, 56.55048586183494 -42.75, 127.0390625 -42.75 M-127.0390625 -42.75 C-73.02890477460609 -42.75, -19.01874704921218 -42.75, 127.0390625 -42.75" stroke="#9370DB" stroke-width="1.3" fill="none" stroke-dasharray="0 0"></path></g></g><g class="node default" id="entity-tenant_settings-3" transform="translate(946.75390625, 243.125)"><g style=""><path d="M-145.8671875 -149.625 L145.8671875 -149.625 L145.8671875 149.625 L-145.8671875 149.625" stroke="none" stroke-width="0" fill="#ECECFF"></path><path d="M-145.8671875 -149.625 C-69.75969880966868 -149.625, 6.347789880662646 -149.625, 145.8671875 -149.625 M-145.8671875 -149.625 C-38.888025442377895 -149.625, 68.09113661524421 -149.625, 145.8671875 -149.625 M145.8671875 -149.625 C145.8671875 -64.35492315626664, 145.8671875 20.915153687466727, 145.8671875 149.625 M145.8671875 -149.625 C145.8671875 -40.68067332393406, 145.8671875 68.26365335213188, 145.8671875 149.625 M145.8671875 149.625 C57.946216047558906 149.625, -29.97475540488219 149.625, -145.8671875 149.625 M145.8671875 149.625 C73.75995122827517 149.625, 1.6527149565503407 149.625, -145.8671875 149.625 M-145.8671875 149.625 C-145.8671875 59.234064357058884, -145.8671875 -31.156871285882232, -145.8671875 -149.625 M-145.8671875 149.625 C-145.8671875 37.8297229342386, -145.8671875 -73.9655541315228, -145.8671875 -149.625" stroke="#9370DB" stroke-width="1.3" fill="none" stroke-dasharray="0 0"></path></g><g style="" class="row-rect-odd"><path d="M-145.8671875 -106.875 L145.8671875 -106.875 L145.8671875 -64.125 L-145.8671875 -64.125" stroke="none" stroke-width="0" fill="hsl(240, 100%, 100%)"></path><path d="M-145.8671875 -106.875 C-69.32453981845373 -106.875, 7.218107863092541 -106.875, 145.8671875 -106.875 M-145.8671875 -106.875 C-41.91353826862229 -106.875, 62.04011096275542 -106.875, 145.8671875 -106.875 M145.8671875 -106.875 C145.8671875 -93.31173239478308, 145.8671875 -79.74846478956616, 145.8671875 -64.125 M145.8671875 -106.875 C145.8671875 -91.21681340597186, 145.8671875 -75.55862681194371, 145.8671875 -64.125 M145.8671875 -64.125 C78.7108733782312 -64.125, 11.554559256462397 -64.125, -145.8671875 -64.125 M145.8671875 -64.125 C62.06244779328807 -64.125, -21.742291913423855 -64.125, -145.8671875 -64.125 M-145.8671875 -64.125 C-145.8671875 -76.25419706457858, -145.8671875 -88.38339412915715, -145.8671875 -106.875 M-145.8671875 -64.125 C-145.8671875 -80.5815775271068, -145.8671875 -97.0381550542136, -145.8671875 -106.875" stroke="#9370DB" stroke-width="1.3" fill="none" stroke-dasharray="0 0"></path></g><g style="" class="row-rect-even"><path d="M-145.8671875 -64.125 L145.8671875 -64.125 L145.8671875 -21.375 L-145.8671875 -21.375" stroke="none" stroke-width="0" fill="hsl(240, 100%, 97.2745098039%)"></path><path d="M-145.8671875 -64.125 C-46.969812942372926 -64.125, 51.92756161525415 -64.125, 145.8671875 -64.125 M-145.8671875 -64.125 C-41.5612903111754 -64.125, 62.744606877649204 -64.125, 145.8671875 -64.125 M145.8671875 -64.125 C145.8671875 -47.25451749402565, 145.8671875 -30.384034988051305, 145.8671875 -21.375 M145.8671875 -64.125 C145.8671875 -52.39530036231274, 145.8671875 -40.665600724625484, 145.8671875 -21.375 M145.8671875 -21.375 C69.63216160462372 -21.375, -6.602864290752564 -21.375, -145.8671875 -21.375 M145.8671875 -21.375 C57.87602645021043 -21.375, -30.115134599579136 -21.375, -145.8671875 -21.375 M-145.8671875 -21.375 C-145.8671875 -37.96477834997647, -145.8671875 -54.55455669995293, -145.8671875 -64.125 M-145.8671875 -21.375 C-145.8671875 -31.453207790628085, -145.8671875 -41.53141558125617, -145.8671875 -64.125" stroke="#9370DB" stroke-width="1.3" fill="none" stroke-dasharray="0 0"></path></g><g style="" class="row-rect-odd"><path d="M-145.8671875 -21.375 L145.8671875 -21.375 L145.8671875 21.375 L-145.8671875 21.375" stroke="none" stroke-width="0" fill="hsl(240, 100%, 100%)"></path><path d="M-145.8671875 -21.375 C-75.89720570560453 -21.375, -5.927223911209069 -21.375, 145.8671875 -21.375 M-145.8671875 -21.375 C-47.410082363998086 -21.375, 51.04702277200383 -21.375, 145.8671875 -21.375 M145.8671875 -21.375 C145.8671875 -4.760800346081378, 145.8671875 11.853399307837243, 145.8671875 21.375 M145.8671875 -21.375 C145.8671875 -6.1580088267337345, 145.8671875 9.058982346532531, 145.8671875 21.375 M145.8671875 21.375 C39.22555196927878 21.375, -67.41608356144243 21.375, -145.8671875 21.375 M145.8671875 21.375 C62.030128873657716 21.375, -21.806929752684567 21.375, -145.8671875 21.375 M-145.8671875 21.375 C-145.8671875 11.734354698702973, -145.8671875 2.093709397405945, -145.8671875 -21.375 M-145.8671875 21.375 C-145.8671875 8.528034166633262, -145.8671875 -4.3189316667334765, -145.8671875 -21.375" stroke="#9370DB" stroke-width="1.3" fill="none" stroke-dasharray="0 0"></path></g><g style="" class="row-rect-even"><path d="M-145.8671875 21.375 L145.8671875 21.375 L145.8671875 64.125 L-145.8671875 64.125" stroke="none" stroke-width="0" fill="hsl(240, 100%, 97.2745098039%)"></path><path d="M-145.8671875 21.375 C-67.16340674872166 21.375, 11.540374002556689 21.375, 145.8671875 21.375 M-145.8671875 21.375 C-30.348946475613857 21.375, 85.16929454877229 21.375, 145.8671875 21.375 M145.8671875 21.375 C145.8671875 30.343473817911004, 145.8671875 39.31194763582201, 145.8671875 64.125 M145.8671875 21.375 C145.8671875 30.4509599978538, 145.8671875 39.5269199957076, 145.8671875 64.125 M145.8671875 64.125 C80.55026565128392 64.125, 15.233343802567845 64.125, -145.8671875 64.125 M145.8671875 64.125 C46.51589113405139 64.125, -52.83540523189723 64.125, -145.8671875 64.125 M-145.8671875 64.125 C-145.8671875 53.8977006092515, -145.8671875 43.670401218502995, -145.8671875 21.375 M-145.8671875 64.125 C-145.8671875 54.58086420063972, -145.8671875 45.03672840127945, -145.8671875 21.375" stroke="#9370DB" stroke-width="1.3" fill="none" stroke-dasharray="0 0"></path></g><g style="" class="row-rect-odd"><path d="M-145.8671875 64.125 L145.8671875 64.125 L145.8671875 106.875 L-145.8671875 106.875" stroke="none" stroke-width="0" fill="hsl(240, 100%, 100%)"></path><path d="M-145.8671875 64.125 C-72.87951515264814 64.125, 0.10815719470372187 64.125, 145.8671875 64.125 M-145.8671875 64.125 C-71.67253567461022 64.125, 2.522116150779567 64.125, 145.8671875 64.125 M145.8671875 64.125 C145.8671875 78.82501309462624, 145.8671875 93.52502618925249, 145.8671875 106.875 M145.8671875 64.125 C145.8671875 72.75063675653907, 145.8671875 81.37627351307813, 145.8671875 106.875 M145.8671875 106.875 C38.161399554337905 106.875, -69.54438839132419 106.875, -145.8671875 106.875 M145.8671875 106.875 C86.21601149939099 106.875, 26.56483549878196 106.875, -145.8671875 106.875 M-145.8671875 106.875 C-145.8671875 90.44427596217577, -145.8671875 74.01355192435152, -145.8671875 64.125 M-145.8671875 106.875 C-145.8671875 93.17090372895957, -145.8671875 79.46680745791915, -145.8671875 64.125" stroke="#9370DB" stroke-width="1.3" fill="none" stroke-dasharray="0 0"></path></g><g style="" class="row-rect-even"><path d="M-145.8671875 106.875 L145.8671875 106.875 L145.8671875 149.625 L-145.8671875 149.625" stroke="none" stroke-width="0" fill="hsl(240, 100%, 97.2745098039%)"></path><path d="M-145.8671875 106.875 C-82.77770448738417 106.875, -19.688221474768355 106.875, 145.8671875 106.875 M-145.8671875 106.875 C-33.9722302564885 106.875, 77.922726987023 106.875, 145.8671875 106.875 M145.8671875 106.875 C145.8671875 119.35625935273346, 145.8671875 131.83751870546692, 145.8671875 149.625 M145.8671875 106.875 C145.8671875 116.52041212638801, 145.8671875 126.165824252776, 145.8671875 149.625 M145.8671875 149.625 C53.03064445994859 149.625, -39.80589858010282 149.625, -145.8671875 149.625 M145.8671875 149.625 C63.479565730908845 149.625, -18.90805603818231 149.625, -145.8671875 149.625 M-145.8671875 149.625 C-145.8671875 136.62804331867224, -145.8671875 123.63108663734447, -145.8671875 106.875 M-145.8671875 149.625 C-145.8671875 133.77786122007083, -145.8671875 117.93072244014164, -145.8671875 106.875" stroke="#9370DB" stroke-width="1.3" fill="none" stroke-dasharray="0 0"></path></g><g class="label name" transform="translate(-56.5625, -140.25)" style=""><foreignObject width="113.125" height="24"><div xmlns="http://www.w3.org/1999/xhtml" style="display: table-cell; white-space: nowrap; line-height: 1.5; max-width: 213px; text-align: start;"><span class="nodeLabel"><p>tenant_settings</p></span></div></foreignObject></g><g class="label attribute-type" transform="translate(-133.3671875, -97.5)" style=""><foreignObject width="32.71875" height="24"><div xmlns="http://www.w3.org/1999/xhtml" style="display: table-cell; white-space: nowrap; line-height: 1.5; max-width: 133px; text-align: start;"><span class="nodeLabel"><p>uuid</p></span></div></foreignObject></g><g class="label attribute-name" transform="translate(-48.9140625, -97.5)" style=""><foreignObject width="69.890625" height="24"><div xmlns="http://www.w3.org/1999/xhtml" style="display: table-cell; white-space: nowrap; line-height: 1.5; max-width: 170px; text-align: start;"><span class="nodeLabel"><p>tenant_id</p></span></div></foreignObject></g><g class="label attribute-keys" transform="translate(114.6328125, -97.5)" style=""><foreignObject width="18.734375" height="24"><div xmlns="http://www.w3.org/1999/xhtml" style="display: table-cell; white-space: nowrap; line-height: 1.5; max-width: 119px; text-align: start;"><span class="nodeLabel"><p>PK</p></span></div></foreignObject></g><g class="label attribute-comment" transform="translate(158.3671875, -97.5)" style=""><foreignObject width="0" height="0"><div xmlns="http://www.w3.org/1999/xhtml" style="display: table-cell; white-space: nowrap; line-height: 1.5; max-width: 100px; text-align: start;"><span class="nodeLabel"></span></div></foreignObject></g><g class="label attribute-type" transform="translate(-133.3671875, -54.75)" style=""><foreignObject width="53.921875" height="24"><div xmlns="http://www.w3.org/1999/xhtml" style="display: table-cell; white-space: nowrap; line-height: 1.5; max-width: 155px; text-align: start;"><span class="nodeLabel"><p>varchar</p></span></div></foreignObject></g><g class="label attribute-name" transform="translate(-48.9140625, -54.75)" style=""><foreignObject width="85.828125" height="24"><div xmlns="http://www.w3.org/1999/xhtml" style="display: table-cell; white-space: nowrap; line-height: 1.5; max-width: 186px; text-align: start;"><span class="nodeLabel"><p>login_mode</p></span></div></foreignObject></g><g class="label attribute-keys" transform="translate(114.6328125, -54.75)" style=""><foreignObject width="0" height="0"><div xmlns="http://www.w3.org/1999/xhtml" style="display: table-cell; white-space: nowrap; line-height: 1.5; max-width: 100px; text-align: start;"><span class="nodeLabel"></span></div></foreignObject></g><g class="label attribute-comment" transform="translate(158.3671875, -54.75)" style=""><foreignObject width="0" height="0"><div xmlns="http://www.w3.org/1999/xhtml" style="display: table-cell; white-space: nowrap; line-height: 1.5; max-width: 100px; text-align: start;"><span class="nodeLabel"></span></div></foreignObject></g><g class="label attribute-type" transform="translate(-133.3671875, -12)" style=""><foreignObject width="59.453125" height="24"><div xmlns="http://www.w3.org/1999/xhtml" style="display: table-cell; white-space: nowrap; line-height: 1.5; max-width: 159px; text-align: start;"><span class="nodeLabel"><p>boolean</p></span></div></foreignObject></g><g class="label attribute-name" transform="translate(-48.9140625, -12)" style=""><foreignObject width="138.546875" height="24"><div xmlns="http://www.w3.org/1999/xhtml" style="display: table-cell; white-space: nowrap; line-height: 1.5; max-width: 239px; text-align: start;"><span class="nodeLabel"><p>auto_approve_oidc</p></span></div></foreignObject></g><g class="label attribute-keys" transform="translate(114.6328125, -12)" style=""><foreignObject width="0" height="0"><div xmlns="http://www.w3.org/1999/xhtml" style="display: table-cell; white-space: nowrap; line-height: 1.5; max-width: 100px; text-align: start;"><span class="nodeLabel"></span></div></foreignObject></g><g class="label attribute-comment" transform="translate(158.3671875, -12)" style=""><foreignObject width="0" height="0"><div xmlns="http://www.w3.org/1999/xhtml" style="display: table-cell; white-space: nowrap; line-height: 1.5; max-width: 100px; text-align: start;"><span class="nodeLabel"></span></div></foreignObject></g><g class="label attribute-type" transform="translate(-133.3671875, 30.75)" style=""><foreignObject width="53.921875" height="24"><div xmlns="http://www.w3.org/1999/xhtml" style="display: table-cell; white-space: nowrap; line-height: 1.5; max-width: 155px; text-align: start;"><span class="nodeLabel"><p>varchar</p></span></div></foreignObject></g><g class="label attribute-name" transform="translate(-48.9140625, 30.75)" style=""><foreignObject width="109.796875" height="24"><div xmlns="http://www.w3.org/1999/xhtml" style="display: table-cell; white-space: nowrap; line-height: 1.5; max-width: 210px; text-align: start;"><span class="nodeLabel"><p>oidc_issuer_url</p></span></div></foreignObject></g><g class="label attribute-keys" transform="translate(114.6328125, 30.75)" style=""><foreignObject width="0" height="0"><div xmlns="http://www.w3.org/1999/xhtml" style="display: table-cell; white-space: nowrap; line-height: 1.5; max-width: 100px; text-align: start;"><span class="nodeLabel"></span></div></foreignObject></g><g class="label attribute-comment" transform="translate(158.3671875, 30.75)" style=""><foreignObject width="0" height="0"><div xmlns="http://www.w3.org/1999/xhtml" style="display: table-cell; white-space: nowrap; line-height: 1.5; max-width: 100px; text-align: start;"><span class="nodeLabel"></span></div></foreignObject></g><g class="label attribute-type" transform="translate(-133.3671875, 73.5)" style=""><foreignObject width="53.921875" height="24"><div xmlns="http://www.w3.org/1999/xhtml" style="display: table-cell; white-space: nowrap; line-height: 1.5; max-width: 155px; text-align: start;"><span class="nodeLabel"><p>varchar</p></span></div></foreignObject></g><g class="label attribute-name" transform="translate(-48.9140625, 73.5)" style=""><foreignObject width="102.203125" height="24"><div xmlns="http://www.w3.org/1999/xhtml" style="display: table-cell; white-space: nowrap; line-height: 1.5; max-width: 202px; text-align: start;"><span class="nodeLabel"><p>oidc_client_id</p></span></div></foreignObject></g><g class="label attribute-keys" transform="translate(114.6328125, 73.5)" style=""><foreignObject width="0" height="0"><div xmlns="http://www.w3.org/1999/xhtml" style="display: table-cell; white-space: nowrap; line-height: 1.5; max-width: 100px; text-align: start;"><span class="nodeLabel"></span></div></foreignObject></g><g class="label attribute-comment" transform="translate(158.3671875, 73.5)" style=""><foreignObject width="0" height="0"><div xmlns="http://www.w3.org/1999/xhtml" style="display: table-cell; white-space: nowrap; line-height: 1.5; max-width: 100px; text-align: start;"><span class="nodeLabel"></span></div></foreignObject></g><g class="label attribute-type" transform="translate(-133.3671875, 116.25)" style=""><foreignObject width="53.921875" height="24"><div xmlns="http://www.w3.org/1999/xhtml" style="display: table-cell; white-space: nowrap; line-height: 1.5; max-width: 155px; text-align: start;"><span class="nodeLabel"><p>varchar</p></span></div></foreignObject></g><g class="label attribute-name" transform="translate(-48.9140625, 116.25)" style=""><foreignObject width="132.15625" height="24"><div xmlns="http://www.w3.org/1999/xhtml" style="display: table-cell; white-space: nowrap; line-height: 1.5; max-width: 232px; text-align: start;"><span class="nodeLabel"><p>oidc_client_secret</p></span></div></foreignObject></g><g class="label attribute-keys" transform="translate(114.6328125, 116.25)" style=""><foreignObject width="0" height="0"><div xmlns="http://www.w3.org/1999/xhtml" style="display: table-cell; white-space: nowrap; line-height: 1.5; max-width: 100px; text-align: start;"><span class="nodeLabel"></span></div></foreignObject></g><g class="label attribute-comment" transform="translate(158.3671875, 116.25)" style=""><foreignObject width="0" height="0"><div xmlns="http://www.w3.org/1999/xhtml" style="display: table-cell; white-space: nowrap; line-height: 1.5; max-width: 100px; text-align: start;"><span class="nodeLabel"></span></div></foreignObject></g><g class="divider"><path d="M-145.8671875 -106.875 C-37.60415482291461 -106.875, 70.65887785417078 -106.875, 145.8671875 -106.875 M-145.8671875 -106.875 C-72.29235936937289 -106.875, 1.282468761254222 -106.875, 145.8671875 -106.875" stroke="#9370DB" stroke-width="1.3" fill="none" stroke-dasharray="0 0"></path></g><g class="divider"><path d="M-61.4140625 -106.875 C-61.4140625 -15.097183171277962, -61.4140625 76.68063365744408, -61.4140625 149.625 M-61.4140625 -106.875 C-61.4140625 -53.784038563994265, -61.4140625 -0.6930771279885306, -61.4140625 149.625" stroke="#9370DB" stroke-width="1.3" fill="none" stroke-dasharray="0 0"></path></g><g class="divider"><path d="M102.1328125 -106.875 C102.1328125 -29.983942999687756, 102.1328125 46.90711400062449, 102.1328125 149.625 M102.1328125 -106.875 C102.1328125 -33.37719314021217, 102.1328125 40.12061371957566, 102.1328125 149.625" stroke="#9370DB" stroke-width="1.3" fill="none" stroke-dasharray="0 0"></path></g><g class="divider"><path d="M-145.8671875 -106.875 C-33.72872201585555 -106.875, 78.4097434682889 -106.875, 145.8671875 -106.875 M-145.8671875 -106.875 C-38.513981147303866 -106.875, 68.83922520539227 -106.875, 145.8671875 -106.875" stroke="#9370DB" stroke-width="1.3" fill="none" stroke-dasharray="0 0"></path></g></g><g class="node default" id="entity-tenant_auto_approve_domains-4" transform="translate(946.75390625, 664.75)"><g style=""><path d="M-137.828125 -64.125 L137.828125 -64.125 L137.828125 64.125 L-137.828125 64.125" stroke="none" stroke-width="0" fill="#ECECFF"></path><path d="M-137.828125 -64.125 C-77.52387321095196 -64.125, -17.219621421903938 -64.125, 137.828125 -64.125 M-137.828125 -64.125 C-75.21812136423111 -64.125, -12.608117728462204 -64.125, 137.828125 -64.125 M137.828125 -64.125 C137.828125 -34.28447156913899, 137.828125 -4.443943138277966, 137.828125 64.125 M137.828125 -64.125 C137.828125 -14.714793046661235, 137.828125 34.69541390667753, 137.828125 64.125 M137.828125 64.125 C79.61171005157922 64.125, 21.39529510315846 64.125, -137.828125 64.125 M137.828125 64.125 C66.40784159618202 64.125, -5.012441807635952 64.125, -137.828125 64.125 M-137.828125 64.125 C-137.828125 31.34954740052683, -137.828125 -1.4259051989463387, -137.828125 -64.125 M-137.828125 64.125 C-137.828125 18.73047004062608, -137.828125 -26.66405991874784, -137.828125 -64.125" stroke="#9370DB" stroke-width="1.3" fill="none" stroke-dasharray="0 0"></path></g><g style="" class="row-rect-odd"><path d="M-137.828125 -21.375 L137.828125 -21.375 L137.828125 21.375 L-137.828125 21.375" stroke="none" stroke-width="0" fill="hsl(240, 100%, 100%)"></path><path d="M-137.828125 -21.375 C-34.05430169067333 -21.375, 69.71952161865335 -21.375, 137.828125 -21.375 M-137.828125 -21.375 C-41.0034397600071 -21.375, 55.821245479985805 -21.375, 137.828125 -21.375 M137.828125 -21.375 C137.828125 -10.915701142680003, 137.828125 -0.4564022853600065, 137.828125 21.375 M137.828125 -21.375 C137.828125 -5.072105344100706, 137.828125 11.230789311798588, 137.828125 21.375 M137.828125 21.375 C40.71838755949662 21.375, -56.39134988100676 21.375, -137.828125 21.375 M137.828125 21.375 C56.3915616643103 21.375, -25.045001671379396 21.375, -137.828125 21.375 M-137.828125 21.375 C-137.828125 6.417104871522964, -137.828125 -8.540790256954072, -137.828125 -21.375 M-137.828125 21.375 C-137.828125 6.112930864719921, -137.828125 -9.149138270560158, -137.828125 -21.375" stroke="#9370DB" stroke-width="1.3" fill="none" stroke-dasharray="0 0"></path></g><g style="" class="row-rect-even"><path d="M-137.828125 21.375 L137.828125 21.375 L137.828125 64.125 L-137.828125 64.125" stroke="none" stroke-width="0" fill="hsl(240, 100%, 97.2745098039%)"></path><path d="M-137.828125 21.375 C-43.57411607908456 21.375, 50.67989284183088 21.375, 137.828125 21.375 M-137.828125 21.375 C-49.753022405983785 21.375, 38.32208018803243 21.375, 137.828125 21.375 M137.828125 21.375 C137.828125 31.98967273589207, 137.828125 42.60434547178414, 137.828125 64.125 M137.828125 21.375 C137.828125 32.43392779958561, 137.828125 43.49285559917122, 137.828125 64.125 M137.828125 64.125 C45.17325645768467 64.125, -47.481612084630655 64.125, -137.828125 64.125 M137.828125 64.125 C31.187341975814704 64.125, -75.45344104837059 64.125, -137.828125 64.125 M-137.828125 64.125 C-137.828125 50.12513070962621, -137.828125 36.125261419252425, -137.828125 21.375 M-137.828125 64.125 C-137.828125 51.418431946170244, -137.828125 38.71186389234049, -137.828125 21.375" stroke="#9370DB" stroke-width="1.3" fill="none" stroke-dasharray="0 0"></path></g><g class="label name" transform="translate(-112.828125, -54.75)" style=""><foreignObject width="225.65625" height="24"><div xmlns="http://www.w3.org/1999/xhtml" style="display: table-cell; white-space: nowrap; line-height: 1.5; max-width: 326px; text-align: start;"><span class="nodeLabel"><p>tenant_auto_approve_domains</p></span></div></foreignObject></g><g class="label attribute-type" transform="translate(-125.328125, -12)" style=""><foreignObject width="32.71875" height="24"><div xmlns="http://www.w3.org/1999/xhtml" style="display: table-cell; white-space: nowrap; line-height: 1.5; max-width: 133px; text-align: start;"><span class="nodeLabel"><p>uuid</p></span></div></foreignObject></g><g class="label attribute-name" transform="translate(-37.77604166666667, -12)" style=""><foreignObject width="69.890625" height="24"><div xmlns="http://www.w3.org/1999/xhtml" style="display: table-cell; white-space: nowrap; line-height: 1.5; max-width: 170px; text-align: start;"><span class="nodeLabel"><p>tenant_id</p></span></div></foreignObject></g><g class="label attribute-keys" transform="translate(99.41666666666669, -12)" style=""><foreignObject width="17.28125" height="24"><div xmlns="http://www.w3.org/1999/xhtml" style="display: table-cell; white-space: nowrap; line-height: 1.5; max-width: 118px; text-align: start;"><span class="nodeLabel"><p>FK</p></span></div></foreignObject></g><g class="label attribute-comment" transform="translate(150.328125, -12)" style=""><foreignObject width="0" height="0"><div xmlns="http://www.w3.org/1999/xhtml" style="display: table-cell; white-space: nowrap; line-height: 1.5; max-width: 100px; text-align: start;"><span class="nodeLabel"></span></div></foreignObject></g><g class="label attribute-type" transform="translate(-125.328125, 30.75)" style=""><foreignObject width="53.921875" height="24"><div xmlns="http://www.w3.org/1999/xhtml" style="display: table-cell; white-space: nowrap; line-height: 1.5; max-width: 155px; text-align: start;"><span class="nodeLabel"><p>varchar</p></span></div></foreignObject></g><g class="label attribute-name" transform="translate(-37.77604166666667, 30.75)" style=""><foreignObject width="103.5625" height="24"><div xmlns="http://www.w3.org/1999/xhtml" style="display: table-cell; white-space: nowrap; line-height: 1.5; max-width: 204px; text-align: start;"><span class="nodeLabel"><p>email_domain</p></span></div></foreignObject></g><g class="label attribute-keys" transform="translate(99.41666666666669, 30.75)" style=""><foreignObject width="0" height="0"><div xmlns="http://www.w3.org/1999/xhtml" style="display: table-cell; white-space: nowrap; line-height: 1.5; max-width: 100px; text-align: start;"><span class="nodeLabel"></span></div></foreignObject></g><g class="label attribute-comment" transform="translate(150.328125, 30.75)" style=""><foreignObject width="0" height="0"><div xmlns="http://www.w3.org/1999/xhtml" style="display: table-cell; white-space: nowrap; line-height: 1.5; max-width: 100px; text-align: start;"><span class="nodeLabel"></span></div></foreignObject></g><g class="divider"><path d="M-137.828125 -21.375 C-31.25639055625608 -21.375, 75.31534388748784 -21.375, 137.828125 -21.375 M-137.828125 -21.375 C-59.6564141819417 -21.375, 18.515296636116602 -21.375, 137.828125 -21.375" stroke="#9370DB" stroke-width="1.3" fill="none" stroke-dasharray="0 0"></path></g><g class="divider"><path d="M-50.27604166666667 -21.375 C-50.27604166666667 9.360986368752663, -50.27604166666667 40.096972737505325, -50.27604166666667 64.125 M-50.27604166666667 -21.375 C-50.27604166666667 10.147091232002698, -50.27604166666667 41.669182464005395, -50.27604166666667 64.125" stroke="#9370DB" stroke-width="1.3" fill="none" stroke-dasharray="0 0"></path></g><g class="divider"><path d="M86.91666666666669 -21.375 C86.91666666666669 5.298574838721333, 86.91666666666669 31.972149677442665, 86.91666666666669 64.125 M86.91666666666669 -21.375 C86.91666666666669 12.18675648985451, 86.91666666666669 45.74851297970902, 86.91666666666669 64.125" stroke="#9370DB" stroke-width="1.3" fill="none" stroke-dasharray="0 0"></path></g><g class="divider"><path d="M-137.828125 -21.375 C-32.57785539053924 -21.375, 72.67241421892152 -21.375, 137.828125 -21.375 M-137.828125 -21.375 C-71.4586470449367 -21.375, -5.089169089873394 -21.375, 137.828125 -21.375" stroke="#9370DB" stroke-width="1.3" fill="none" stroke-dasharray="0 0"></path></g></g></g></g></g></svg>