<svg id="container" width="1100.62109375" xmlns="http://www.w3.org/2000/svg" class="erDiagram" height="758.25" viewBox="0 0 1100.62109375 758.25" role="graphics-document document" aria-roledescription="er"><style>#container{font-family:"trebuchet ms",verdana,arial,sans-serif;font-size:16px;fill:#333;}@keyframes edge-animation-frame{from{stroke-dashoffset:0;}}@keyframes dash{to{stroke-dashoffset:0;}}#container .edge-animation-slow{stroke-dasharray:9,5!important;stroke-dashoffset:900;animation:dash 50s linear infinite;stroke-linecap:round;}#container .edge-animation-fast{stroke-dasharray:9,5!important;stroke-dashoffset:900;animation:dash 20s linear infinite;stroke-linecap:round;}#container .error-icon{fill:#552222;}#container .error-text{fill:#552222;stroke:#552222;}#container .edge-thickness-normal{stroke-width:1px;}#container .edge-thickness-thick{stroke-width:3.5px;}#container .edge-pattern-solid{stroke-dasharray:0;}#container .edge-thickness-invisible{stroke-width:0;fill:none;}#container .edge-pattern-dashed{stroke-dasharray:3;}#container .edge-pattern-dotted{stroke-dasharray:2;}#container .marker{fill:#333333;stroke:#333333;}#container .marker.cross{stroke:#333333;}#container svg{font-family:"trebuchet ms",verdana,arial,sans-serif;font-size:16px;}#container p{margin:0;}#container .entityBox{fill:#ECECFF;stroke:#9370DB;}#container .relationshipLabelBox{fill:hsl(80, 100%, 96.2745098039%);opacity:0.7;background-color:hsl(80, 100%, 96.2745098039%);}#container .relationshipLabelBox rect{opacity:0.5;}#container .labelBkg{background-color:rgba(248.6666666666, 255, 235.9999999999, 0.5);}#container .edgeLabel .label{fill:#9370DB;font-size:14px;}#container .label{font-family:"trebuchet ms",verdana,arial,sans-serif;color:#333;}#container .edge-pattern-dashed{stroke-dasharray:8,8;}#container .node rect,#container .node circle,#container .node ellipse,#container .node polygon{fill:#ECECFF;stroke:#9370DB;stroke-width:1px;}#container .relationshipLine{stroke:#333333;stroke-width:1;fill:none;}#container .marker{fill:none!important;stroke:#333333!important;stroke-width:1;}#container :root{--mermaid-font-family:"trebuchet ms",verdana,arial,sans-serif;}</style><g><defs><marker id="container_er-onlyOneStart" class="marker onlyOne er" refX="0" refY="9" markerWidth="18" markerHeight="18" orient="auto"><path d="M9,0 L9,18 M15,0 L15,18"></path></marker></defs><defs><marker id="container_er-onlyOneEnd" class="marker onlyOne er" refX="18" refY="9" markerWidth="18" markerHeight="18" orient="auto"><path d="M3,0 L3,18 M9,0 L9,18"></path></marker></defs><defs><marker id="container_er-zeroOrOneStart" class="marker zeroOrOne er" refX="0" refY="9" markerWidth="30" markerHeight="18" orient="auto"><circle fill="white" cx="21" cy="9" r="6"></circle><path d="M9,0 L9,18"></path></marker></defs><defs><marker id="container_er-zeroOrOneEnd" class="marker zeroOrOne er" refX="30" refY="9" markerWidth="30" markerHeight="18" orient="auto"><circle fill="white" cx="9" cy="9" r="6"></circle><path d="M21,0 L21,18"></path></marker></defs><defs><marker id="container_er-oneOrMoreStart" class="marker oneOrMore er" refX="18" refY="18" markerWidth="45" markerHeight="36" orient="auto"><path d="M0,18 Q 18,0 36,18 Q 18,36 0,18 M42,9 L42,27"></path></marker></defs><defs><marker id="container_er-oneOrMoreEnd" class="marker oneOrMore er" refX="27" refY="18" markerWidth="45" markerHeight="36" orient="auto"><path d="M3,9 L3,27 M9,18 Q27,0 45,18 Q27,36 9,18"></path></marker></defs><defs><marker id="container_er-zeroOrMoreStart" class="marker zeroOrMore er" refX="18" refY="18" markerWidth="57" markerHeight="36" orient="auto"><circle fill="white" cx="48" cy="18" r="6"></circle><path d="M0,18 Q18,0 36,18 Q18,36 0,18"></path></marker></defs><defs><marker id="container_er-zeroOrMoreEnd" class="marker zeroOrMore er" refX="39" refY="18" markerWidth="57" markerHeight="36" orient="auto"><circle fill="white" cx="9" cy="18" r="6"></circle><path d="M21,18 Q39,0 57,18 Q39,36 21,18"></path></marker></defs><g class="root"><g class="clusters"></g><g class="edgePaths"><path d="M187.539,452.647L178.789,465.331C170.039,478.015,152.539,503.382,143.789,528.045C135.039,552.708,135.039,576.667,135.039,588.646L135.039,600.625" id="id_entity-user_profiles-0_entity-user_global_roles-1_0" class="edge-thickness-normal edge-pattern-solid relationshipLine" style="undefined;;;undefined" data-edge="true" data-et="edge" data-id="id_entity-user_profiles-0_entity-user_global_roles-1_0" data-points="W3sieCI6MTg3LjUzOTA2MjUsInkiOjQ1Mi42NDY3NTI3MDYwNzgyNX0seyJ4IjoxMzUuMDM5MDYyNSwieSI6NTI4Ljc1fSx7IngiOjEzNS4wMzkwNjI1LCJ5Ijo2MDAuNjI1fV0=" marker-start="url(#container_er-onlyOneStart)" marker-end="url(#container_er-zeroOrMoreEnd)"></path><path d="M476.617,452.647L485.367,465.331C494.117,478.015,511.617,503.382,520.367,524.483C529.117,545.583,529.117,562.417,529.117,570.833L529.117,579.25" id="id_entity-user_profiles-0_entity-user_tenant_memberships-2_1" class="edge-thickness-normal edge-pattern-solid relationshipLine" style="undefined;;;undefined" data-edge="true" data-et="edge" data-id="id_entity-user_profiles-0_entity-user_tenant_memberships-2_1" data-points="W3sieCI6NDc2LjYxNzE4NzUsInkiOjQ1Mi42NDY3NTI3MDYwNzgyNX0seyJ4Ijo1MjkuMTE3MTg3NSwieSI6NTI4Ljc1fSx7IngiOjUyOS4xMTcxODc1LCJ5Ijo1NzkuMjV9XQ==" marker-start="url(#container_er-onlyOneStart)" marker-end="url(#container_er-zeroOrMoreEnd)"></path><path d="M946.754,392.75L946.754,415.417C946.754,438.083,946.754,483.417,946.754,518.063C946.754,552.708,946.754,576.667,946.754,588.646L946.754,600.625" id="id_entity-tenant_settings-3_entity-tenant_auto_approve_domains-4_2" class="edge-thickness-normal edge-pattern-solid relationshipLine" style="undefined;;;undefined" data-edge="true" data-et="edge" data-id="id_entity-tenant_settings-3_entity-tenant_auto_approve_domains-4_2" data-points="W3sieCI6OTQ2Ljc1MzkwNjI1LCJ5IjozOTIuNzV9LHsieCI6OTQ2Ljc1MzkwNjI1LCJ5Ijo1MjguNzV9LHsieCI6OTQ2Ljc1MzkwNjI1LCJ5Ijo2MDAuNjI1fV0=" marker-start="url(#container_er-onlyOneStart)" marker-end="url(#container_er-zeroOrMoreEnd)"></path></g><g class="edgeLabels"><g class="edgeLabel" transform="translate(135.0390625, 528.75)"><g class="label" data-id="id_entity-user_profiles-0_entity-user_global_roles-1_0" transform="translate(-11.109375, -10.5)"><foreignObject width="22.21875" height="21"><div xmlns="http://www.w3.org/1999/xhtml" class="labelBkg" style="display: table-cell; white-space: nowrap; line-height: 1.5; max-width: 200px; text-align: center;"><span class="edgeLabel"><p>has</p></span></div></foreignObject></g></g><g class="edgeLabel" transform="translate(529.1171875, 528.75)"><g class="label" data-id="id_entity-user_profiles-0_entity-user_tenant_memberships-2_1" transform="translate(-11.109375, -10.5)"><foreignObject width="22.21875" height="21"><div xmlns="http://www.w3.org/1999/xhtml" class="labelBkg" style="display: table-cell; white-space: nowrap; line-height: 1.5; max-width: 200px; text-align: center;"><span class="edgeLabel"><p>has</p></span></div></foreignObject></g></g><g class="edgeLabel" transform="translate(946.75390625, 528.75)"><g class="label" data-id="id_entity-tenant_settings-3_entity-tenant_auto_approve_domains-4_2" transform="translate(-11.109375, -10.5)"><foreignObject width="22.21875" height="21"><div xmlns="http://www.w3.org/1999/xhtml" class="labelBkg" style="display: table-cell; white-space: nowrap; line-height: 1.5; max-width: 200px; text-align: center;"><span class="edgeLabel"><p>has</p></span></div></foreignObject></g></g></g><g class="nodes"><g class="node default" id="entity-user_profiles-0" transform="translate(332.078125, 243.125)"><g style=""><path d="M-144.5390625 -235.125 L144.5390625 -235.125 L144.5390625 235.125 L-144.5390625 235.125" stroke="none" stroke-width="0" fill="#ECECFF"></path><path d="M-144.5390625 -235.125 C-82.00862142428905 -235.125, -19.478180348578093 -235.125, 144.5390625 -235.125 M-144.5390625 -235.125 C-43.82694475049297 -235.125, 56.88517299901406 -235.125, 144.5390625 -235.125 M144.5390625 -235.125 C144.5390625 -52.36817420876554, 144.5390625 130.38865158246892, 144.5390625 235.125 M144.5390625 -235.125 C144.5390625 -69.5536890044448, 144.5390625 96.01762199111039, 144.5390625 235.125 M144.5390625 235.125 C70.81363364257761 235.125, -2.9117952148447728 235.125, -144.5390625 235.125 M144.5390625 235.125 C66.11909258512073 235.125, -12.30087732975855 235.125, -144.5390625 235.125 M-144.5390625 235.125 C-144.5390625 56.493276401245566, -144.5390625 -122.13844719750887, -144.5390625 -235.125 M-144.5390625 235.125 C-144.5390625 112.66188690734248, -144.5390625 -9.801226185315045, -144.5390625 -235.125" stroke="#9370DB" stroke-width="1.3" fill="none" stroke-dasharray="0 0"></path></g><g style="" class="row-rect-odd"><path d="M-144.5390625 -192.375 L144.5390625 -192.375 L144.5390625 -149.625 L-144.5390625 -149.625" stroke="none" stroke-width="0" fill="hsl(240, 100%, 100%)"></path><path d="M-144.5390625 -192.375 C-31.96660061399467 -192.375, 80.60586127201066 -192.375, 144.5390625 -192.375 M-144.5390625 -192.375 C-35.234231130992285 -192.375, 74.07060023801543 -192.375, 144.5390625 -192.375 M144.5390625 -192.375 C144.5390625 -177.7139121439816, 144.5390625 -163.05282428796318, 144.5390625 -149.625 M144.5390625 -192.375 C144.5390625 -177.1978454490547, 144.5390625 -162.02069089810942, 144.5390625 -149.625 M144.5390625 -149.625 C69.9023849115937 -149.625, -4.734292676812601 -149.625, -144.5390625 -149.625 M144.5390625 -149.625 C49.200539995354376 -149.625, -46.13798250929125 -149.625, -144.5390625 -149.625 M-144.5390625 -149.625 C-144.5390625 -160.25112855557882, -144.5390625 -170.8772571111576, -144.5390625 -192.375 M-144.5390625 -149.625 C-144.5390625 -165.9424061554076, -144.5390625 -182.2598123108152, -144.5390625 -192.375" stroke="#9370DB" stroke-width="1.3" fill="none" stroke-dasharray="0 0"></path></g><g style="" class="row-rect-even"><path d="M-144.5390625 -149.625 L144.5390625 -149.625 L144.5390625 -106.875 L-144.5390625 -106.875" stroke="none" stroke-width="0" fill="hsl(240, 100%, 97.2745098039%)"></path><path d="M-144.5390625 -149.625 C-29.419651348093183 -149.625, 85.69975980381363 -149.625, 144.5390625 -149.625 M-144.5390625 -149.625 C-49.735102993502224 -149.625, 45.06885651299555 -149.625, 144.5390625 -149.625 M144.5390625 -149.625 C144.5390625 -138.86960619845294, 144.5390625 -128.11421239690586, 144.5390625 -106.875 M144.5390625 -149.625 C144.5390625 -140.71823867549543, 144.5390625 -131.81147735099086, 144.5390625 -106.875 M144.5390625 -106.875 C39.89803393070831 -106.875, -64.74299463858338 -106.875, -144.5390625 -106.875 M144.5390625 -106.875 C84.13205646162459 -106.875, 23.725050423249158 -106.875, -144.5390625 -106.875 M-144.5390625 -106.875 C-144.5390625 -117.15073919729896, -144.5390625 -127.42647839459792, -144.5390625 -149.625 M-144.5390625 -106.875 C-144.5390625 -119.08985354044506, -144.5390625 -131.30470708089013, -144.5390625 -149.625" stroke="#9370DB" stroke-width="1.3" fill="none" stroke-dasharray="0 0"></path></g><g style="" class="row-rect-odd"><path d="M-144.5390625 -106.875 L144.5390625 -106.875 L144.5390625 -64.125 L-144.5390625 -64.125" stroke="none" stroke-width="0" fill="hsl(240, 100%, 100%)"></path><path d="M-144.5390625 -106.875 C-76.9709937303564 -106.875, -9.402924960712795 -106.875, 144.5390625 -106.875 M-144.5390625 -106.875 C-58.49428619526553 -106.875, 27.55049010946894 -106.875, 144.5390625 -106.875 M144.5390625 -106.875 C144.5390625 -90.35697435826185, 144.5390625 -73.8389487165237, 144.5390625 -64.125 M144.5390625 -106.875 C144.5390625 -90.96416653044297, 144.5390625 -75.05333306088595, 144.5390625 -64.125 M144.5390625 -64.125 C30.884410357007965 -64.125, -82.77024178598407 -64.125, -144.5390625 -64.125 M144.5390625 -64.125 C75.7083414991996 -64.125, 6.87762049839921 -64.125, -144.5390625 -64.125 M-144.5390625 -64.125 C-144.5390625 -74.38633077957459, -144.5390625 -84.6476615591492, -144.5390625 -106.875 M-144.5390625 -64.125 C-144.5390625 -77.98111614381642, -144.5390625 -91.83723228763286, -144.5390625 -106.875" stroke="#9370DB" stroke-width="1.3" fill="none" stroke-dasharray="0 0"></path></g><g style="" class="row-rect-even"><path d="M-144.5390625 -64.125 L144.5390625 -64.125 L144.5390625 -21.375 L-144.5390625 -21.375" stroke="none" stroke-width="0" fill="hsl(240, 100%, 97.2745098039%)"></path><path d="M-144.5390625 -64.125 C-49.06447265543949 -64.125, 46.410117189121024 -64.125, 144.5390625 -64.125 M-144.5390625 -64.125 C-33.480861158484515 -64.125, 77.57734018303097 -64.125, 144.5390625 -64.125 M144.5390625 -64.125 C144.5390625 -52.22867037686677, 144.5390625 -40.33234075373354, 144.5390625 -21.375 M144.5390625 -64.125 C144.5390625 -48.51488765461861, 144.5390625 -32.90477530923722, 144.5390625 -21.375 M144.5390625 -21.375 C63.36728445534651 -21.375, -17.804493589306986 -21.375, -144.5390625 -21.375 M144.5390625 -21.375 C73.25297241638629 -21.375, 1.9668823327725704 -21.375, -144.5390625 -21.375 M-144.5390625 -21.375 C-144.5390625 -36.4008958921832, -144.5390625 -51.426791784366394, -144.5390625 -64.125 M-144.5390625 -21.375 C-144.5390625 -33.24517842969303, -144.5390625 -45.115356859386054, -144.5390625 -64.125" stroke="#9370DB" stroke-width="1.3" fill="none" stroke-dasharray="0 0"></path></g><g style="" class="row-rect-odd"><path d="M-144.5390625 -21.375 L144.5390625 -21.375 L144.5390625 21.375 L-144.5390625 21.375" stroke="none" stroke-width="0" fill="hsl(240, 100%, 100%)"></path><path d="M-144.5390625 -21.375 C-83.65247141651676 -21.375, -22.765880333033536 -21.375, 144.5390625 -21.375 M-144.5390625 -21.375 C-82.78985150546913 -21.375, -21.040640510938246 -21.375, 144.5390625 -21.375 M144.5390625 -21.375 C144.5390625 -10.72104498289259, 144.5390625 -0.06708996578517912, 144.5390625 21.375 M144.5390625 -21.375 C144.5390625 -8.291741798491259, 144.5390625 4.791516403017482, 144.5390625 21.375 M144.5390625 21.375 C58.71644458447581 21.375, -27.10617333104838 21.375, -144.5390625 21.375 M144.5390625 21.375 C48.00422907812414 21.375, -48.53060434375172 21.375, -144.5390625 21.375 M-144.5390625 21.375 C-144.5390625 11.272097895765768, -144.5390625 1.1691957915315356, -144.5390625 -21.375 M-144.5390625 21.375 C-144.5390625 10.134676090990032, -144.5390625 -1.1056478180199356, -144.5390625 -21.375" stroke="#9370DB" stroke-width="1.3" fill="none" stroke-dasharray="0 0"></path></g><g style="" class="row-rect-even"><path d="M-144.5390625 21.375 L144.5390625 21.375 L144.5390625 64.125 L-144.5390625 64.125" stroke="none" stroke-width="0" fill="hsl(240, 100%, 97.2745098039%)"></path><path d="M-144.5390625 21.375 C-57.06398027689208 21.375, 30.411101946215837 21.375, 144.5390625 21.375 M-144.5390625 21.375 C-62.75572148981844 21.375, 19.027619520363118 21.375, 144.5390625 21.375 M144.5390625 21.375 C144.5390625 33.07389696635808, 144.5390625 44.772793932716155, 144.5390625 64.125 M144.5390625 21.375 C144.5390625 36.86020007878946, 144.5390625 52.34540015757892, 144.5390625 64.125 M144.5390625 64.125 C64.235893105241 64.125, -16.06727628951799 64.125, -144.5390625 64.125 M144.5390625 64.125 C77.15607088789878 64.125, 9.773079275797556 64.125, -144.5390625 64.125 M-144.5390625 64.125 C-144.5390625 51.036083961535304, -144.5390625 37.94716792307061, -144.5390625 21.375 M-144.5390625 64.125 C-144.5390625 51.60214853719671, -144.5390625 39.07929707439342, -144.5390625 21.375" stroke="#9370DB" stroke-width="1.3" fill="none" stroke-dasharray="0 0"></path></g><g style="" class="row-rect-odd"><path d="M-144.5390625 64.125 L144.5390625 64.125 L144.5390625 106.875 L-144.5390625 106.875" stroke="none" stroke-width="0" fill="hsl(240, 100%, 100%)"></path><path d="M-144.5390625 64.125 C-45.76102456585383 64.125, 53.01701336829234 64.125, 144.5390625 64.125 M-144.5390625 64.125 C-34.67837159737837 64.125, 75.18231930524325 64.125, 144.5390625 64.125 M144.5390625 64.125 C144.5390625 77.90712037558652, 144.5390625 91.68924075117305, 144.5390625 106.875 M144.5390625 64.125 C144.5390625 73.13236256211205, 144.5390625 82.13972512422411, 144.5390625 106.875 M144.5390625 106.875 C50.500872950244016 106.875, -43.53731659951197 106.875, -144.5390625 106.875 M144.5390625 106.875 C65.78949781245271 106.875, -12.960066875094583 106.875, -144.5390625 106.875 M-144.5390625 106.875 C-144.5390625 93.22030494854775, -144.5390625 79.5656098970955, -144.5390625 64.125 M-144.5390625 106.875 C-144.5390625 89.95561428842244, -144.5390625 73.03622857684488, -144.5390625 64.125" stroke="#9370DB" stroke-width="1.3" fill="none" stroke-dasharray="0 0"></path></g><g style="" class="row-rect-even"><path d="M-144.5390625 106.875 L144.5390625 106.875 L144.5390625 149.625 L-144.5390625 149.625" stroke="none" stroke-width="0" fill="hsl(240, 100%, 97.2745098039%)"></path><path d="M-144.5390625 106.875 C-45.1117240776514 106.875, 54.315614344697195 106.875, 144.5390625 106.875 M-144.5390625 106.875 C-53.997971184071005 106.875, 36.54312013185799 106.875, 144.5390625 106.875 M144.5390625 106.875 C144.5390625 118.10621625954357, 144.5390625 129.33743251908714, 144.5390625 149.625 M144.5390625 106.875 C144.5390625 121.80823766390236, 144.5390625 136.74147532780472, 144.5390625 149.625 M144.5390625 149.625 C75.21987603338286 149.625, 5.90068956676572 149.625, -144.5390625 149.625 M144.5390625 149.625 C51.7304634498761 149.625, -41.078135600247805 149.625, -144.5390625 149.625 M-144.5390625 149.625 C-144.5390625 138.3644588372576, -144.5390625 127.10391767451516, -144.5390625 106.875 M-144.5390625 149.625 C-144.5390625 139.7077122977349, -144.5390625 129.79042459546977, -144.5390625 106.875" stroke="#9370DB" stroke-width="1.3" fill="none" stroke-dasharray="0 0"></path></g><g style="" class="row-rect-odd"><path d="M-144.5390625 149.625 L144.5390625 149.625 L144.5390625 192.375 L-144.5390625 192.375" stroke="none" stroke-width="0" fill="hsl(240, 100%, 100%)"></path><path d="M-144.5390625 149.625 C-51.41561736471209 149.625, 41.70782777057582 149.625, 144.5390625 149.625 M-144.5390625 149.625 C-59.32931584107749 149.625, 25.880430817845024 149.625, 144.5390625 149.625 M144.5390625 149.625 C144.5390625 158.9307140463198, 144.5390625 168.23642809263958, 144.5390625 192.375 M144.5390625 149.625 C144.5390625 158.2534997126961, 144.5390625 166.8819994253922, 144.5390625 192.375 M144.5390625 192.375 C83.11966132348492 192.375, 21.70026014696984 192.375, -144.5390625 192.375 M144.5390625 192.375 C84.69760618413162 192.375, 24.856149868263216 192.375, -144.5390625 192.375 M-144.5390625 192.375 C-144.5390625 182.66634515416447, -144.5390625 172.95769030832898, -144.5390625 149.625 M-144.5390625 192.375 C-144.5390625 178.6144213362712, -144.5390625 164.85384267254236, -144.5390625 149.625" stroke="#9370DB" stroke-width="1.3" fill="none" stroke-dasharray="0 0"></path></g><g style="" class="row-rect-even"><path d="M-144.5390625 192.375 L144.5390625 192.375 L144.5390625 235.125 L-144.5390625 235.125" stroke="none" stroke-width="0" fill="hsl(240, 100%, 97.2745098039%)"></path><path d="M-144.5390625 192.375 C-76.30433825617902 192.375, -8.069614012358045 192.375, 144.5390625 192.375 M-144.5390625 192.375 C-58.2126818438951 192.375, 28.113698812209805 192.375, 144.5390625 192.375 M144.5390625 192.375 C144.5390625 208.9911426362854, 144.5390625 225.60728527257078, 144.5390625 235.125 M144.5390625 192.375 C144.5390625 201.8473416675093, 144.5390625 211.31968333501862, 144.5390625 235.125 M144.5390625 235.125 C85.60220056251126 235.125, 26.665338625022514 235.125, -144.5390625 235.125 M144.5390625 235.125 C34.85559049512901 235.125, -74.82788150974199 235.125, -144.5390625 235.125 M-144.5390625 235.125 C-144.5390625 226.03098673750046, -144.5390625 216.93697347500094, -144.5390625 192.375 M-144.5390625 235.125 C-144.5390625 222.96466303124154, -144.5390625 210.80432606248309, -144.5390625 192.375" stroke="#9370DB" stroke-width="1.3" fill="none" stroke-dasharray="0 0"></path></g><g class="label name" transform="translate(-46.6328125, -225.75)" style=""><foreignObject width="93.265625" height="24"><div xmlns="http://www.w3.org/1999/xhtml" style="display: table-cell; white-space: nowrap; line-height: 1.5; max-width: 193px; text-align: start;"><span class="nodeLabel"><p>user_profiles</p></span></div></foreignObject></g><g class="label attribute-type" transform="translate(-132.0390625, -183)" style=""><foreignObject width="32.71875" height="24"><div xmlns="http://www.w3.org/1999/xhtml" style="display: table-cell; white-space: nowrap; line-height: 1.5; max-width: 133px; text-align: start;"><span class="nodeLabel"><p>uuid</p></span></div></foreignObject></g><g class="label attribute-name" transform="translate(-29.2578125, -183)" style=""><foreignObject width="14.09375" height="24"><div xmlns="http://www.w3.org/1999/xhtml" style="display: table-cell; white-space: nowrap; line-height: 1.5; max-width: 114px; text-align: start;"><span class="nodeLabel"><p>id</p></span></div></foreignObject></g><g class="label attribute-keys" transform="translate(112.0078125, -183)" style=""><foreignObject width="18.734375" height="24"><div xmlns="http://www.w3.org/1999/xhtml" style="display: table-cell; white-space: nowrap; line-height: 1.5; max-width: 119px; text-align: start;"><span class="nodeLabel"><p>PK</p></span></div></foreignObject></g><g class="label attribute-comment" transform="translate(157.0390625, -183)" style=""><foreignObject width="0" height="0"><div xmlns="http://www.w3.org/1999/xhtml" style="display: table-cell; white-space: nowrap; line-height: 1.5; max-width: 100px; text-align: start;"><span class="nodeLabel"></span></div></foreignObject></g><g class="label attribute-type" transform="translate(-132.0390625, -140.25)" style=""><foreignObject width="53.921875" height="24"><div xmlns="http://www.w3.org/1999/xhtml" style="display: table-cell; white-space: nowrap; line-height: 1.5; max-width: 155px; text-align: start;"><span class="nodeLabel"><p>varchar</p></span></div></foreignObject></g><g class="label attribute-name" transform="translate(-29.2578125, -140.25)" style=""><foreignObject width="92.3125" height="24"><div xmlns="http://www.w3.org/1999/xhtml" style="display: table-cell; white-space: nowrap; line-height: 1.5; max-width: 193px; text-align: start;"><span class="nodeLabel"><p>oidc_subject</p></span></div></foreignObject></g><g class="label attribute-keys" transform="translate(112.0078125, -140.25)" style=""><foreignObject width="20.03125" height="24"><div xmlns="http://www.w3.org/1999/xhtml" style="display: table-cell; white-space: nowrap; line-height: 1.5; max-width: 121px; text-align: start;"><span class="nodeLabel"><p>UK</p></span></div></foreignObject></g><g class="label attribute-comment" transform="translate(157.0390625, -140.25)" style=""><foreignObject width="0" height="0"><div xmlns="http://www.w3.org/1999/xhtml" style="display: table-cell; white-space: nowrap; line-height: 1.5; max-width: 100px; text-align: start;"><span class="nodeLabel"></span></div></foreignObject></g><g class="label attribute-type" transform="translate(-132.0390625, -97.5)" style=""><foreignObject width="53.921875" height="24"><div xmlns="http://www.w3.org/1999/xhtml" style="display: table-cell; white-space: nowrap; line-height: 1.5; max-width: 155px; text-align: start;"><span class="nodeLabel"><p>varchar</p></span></div></foreignObject></g><g class="label attribute-name" transform="translate(-29.2578125, -97.5)" style=""><foreignObject width="72.203125" height="24"><div xmlns="http://www.w3.org/1999/xhtml" style="display: table-cell; white-space: nowrap; line-height: 1.5; max-width: 172px; text-align: start;"><span class="nodeLabel"><p>username</p></span></div></foreignObject></g><g class="label attribute-keys" transform="translate(112.0078125, -97.5)" style=""><foreignObject width="20.03125" height="24"><div xmlns="http://www.w3.org/1999/xhtml" style="display: table-cell; white-space: nowrap; line-height: 1.5; max-width: 121px; text-align: start;"><span class="nodeLabel"><p>UK</p></span></div></foreignObject></g><g class="label attribute-comment" transform="translate(157.0390625, -97.5)" style=""><foreignObject width="0" height="0"><div xmlns="http://www.w3.org/1999/xhtml" style="display: table-cell; white-space: nowrap; line-height: 1.5; max-width: 100px; text-align: start;"><span class="nodeLabel"></span></div></foreignObject></g><g class="label attribute-type" transform="translate(-132.0390625, -54.75)" style=""><foreignObject width="53.921875" height="24"><div xmlns="http://www.w3.org/1999/xhtml" style="display: table-cell; white-space: nowrap; line-height: 1.5; max-width: 155px; text-align: start;"><span class="nodeLabel"><p>varchar</p></span></div></foreignObject></g><g class="label attribute-name" transform="translate(-29.2578125, -54.75)" style=""><foreignObject width="111.734375" height="24"><div xmlns="http://www.w3.org/1999/xhtml" style="display: table-cell; white-space: nowrap; line-height: 1.5; max-width: 212px; text-align: start;"><span class="nodeLabel"><p>password_hash</p></span></div></foreignObject></g><g class="label attribute-keys" transform="translate(112.0078125, -54.75)" style=""><foreignObject width="0" height="0"><div xmlns="http://www.w3.org/1999/xhtml" style="display: table-cell; white-space: nowrap; line-height: 1.5; max-width: 100px; text-align: start;"><span class="nodeLabel"></span></div></foreignObject></g><g class="label attribute-comment" transform="translate(157.0390625, -54.75)" style=""><foreignObject width="0" height="0"><div xmlns="http://www.w3.org/1999/xhtml" style="display: table-cell; white-space: nowrap; line-height: 1.5; max-width: 100px; text-align: start;"><span class="nodeLabel"></span></div></foreignObject></g><g class="label attribute-type" transform="translate(-132.0390625, -12)" style=""><foreignObject width="53.921875" height="24"><div xmlns="http://www.w3.org/1999/xhtml" style="display: table-cell; white-space: nowrap; line-height: 1.5; max-width: 155px; text-align: start;"><span class="nodeLabel"><p>varchar</p></span></div></foreignObject></g><g class="label attribute-name" transform="translate(-29.2578125, -12)" style=""><foreignObject width="89.375" height="24"><div xmlns="http://www.w3.org/1999/xhtml" style="display: table-cell; white-space: nowrap; line-height: 1.5; max-width: 189px; text-align: start;"><span class="nodeLabel"><p>auth_source</p></span></div></foreignObject></g><g class="label attribute-keys" transform="translate(112.0078125, -12)" style=""><foreignObject width="0" height="0"><div xmlns="http://www.w3.org/1999/xhtml" style="display: table-cell; white-space: nowrap; line-height: 1.5; max-width: 100px; text-align: start;"><span class="nodeLabel"></span></div></foreignObject></g><g class="label attribute-comment" transform="translate(157.0390625, -12)" style=""><foreignObject width="0" height="0"><div xmlns="http://www.w3.org/1999/xhtml" style="display: table-cell; white-space: nowrap; line-height: 1.5; max-width: 100px; text-align: start;"><span class="nodeLabel"></span></div></foreignObject></g><g class="label attribute-type" transform="translate(-132.0390625, 30.75)" style=""><foreignObject width="53.921875" height="24"><div xmlns="http://www.w3.org/1999/xhtml" style="display: table-cell; white-space: nowrap; line-height: 1.5; max-width: 155px; text-align: start;"><span class="nodeLabel"><p>varchar</p></span></div></foreignObject></g><g class="label attribute-name" transform="translate(-29.2578125, 30.75)" style=""><foreignObject width="40.34375" height="24"><div xmlns="http://www.w3.org/1999/xhtml" style="display: table-cell; white-space: nowrap; line-height: 1.5; max-width: 141px; text-align: start;"><span class="nodeLabel"><p>email</p></span></div></foreignObject></g><g class="label attribute-keys" transform="translate(112.0078125, 30.75)" style=""><foreignObject width="0" height="0"><div xmlns="http://www.w3.org/1999/xhtml" style="display: table-cell; white-space: nowrap; line-height: 1.5; max-width: 100px; text-align: start;"><span class="nodeLabel"></span></div></foreignObject></g><g class="label attribute-comment" transform="translate(157.0390625, 30.75)" style=""><foreignObject width="0" height="0"><div xmlns="http://www.w3.org/1999/xhtml" style="display: table-cell; white-space: nowrap; line-height: 1.5; max-width: 100px; text-align: start;"><span class="nodeLabel"></span></div></foreignObject></g><g class="label attribute-type" transform="translate(-132.0390625, 73.5)" style=""><foreignObject width="53.921875" height="24"><div xmlns="http://www.w3.org/1999/xhtml" style="display: table-cell; white-space: nowrap; line-height: 1.5; max-width: 155px; text-align: start;"><span class="nodeLabel"><p>varchar</p></span></div></foreignObject></g><g class="label attribute-name" transform="translate(-29.2578125, 73.5)" style=""><foreignObject width="100.359375" height="24"><div xmlns="http://www.w3.org/1999/xhtml" style="display: table-cell; white-space: nowrap; line-height: 1.5; max-width: 200px; text-align: start;"><span class="nodeLabel"><p>display_name</p></span></div></foreignObject></g><g class="label attribute-keys" transform="translate(112.0078125, 73.5)" style=""><foreignObject width="0" height="0"><div xmlns="http://www.w3.org/1999/xhtml" style="display: table-cell; white-space: nowrap; line-height: 1.5; max-width: 100px; text-align: start;"><span class="nodeLabel"></span></div></foreignObject></g><g class="label attribute-comment" transform="translate(157.0390625, 73.5)" style=""><foreignObject width="0" height="0"><div xmlns="http://www.w3.org/1999/xhtml" style="display: table-cell; white-space: nowrap; line-height: 1.5; max-width: 100px; text-align: start;"><span class="nodeLabel"></span></div></foreignObject></g><g class="label attribute-type" transform="translate(-132.0390625, 116.25)" style=""><foreignObject width="53.921875" height="24"><div xmlns="http://www.w3.org/1999/xhtml" style="display: table-cell; white-space: nowrap; line-height: 1.5; max-width: 155px; text-align: start;"><span class="nodeLabel"><p>varchar</p></span></div></foreignObject></g><g class="label attribute-name" transform="translate(-29.2578125, 116.25)" style=""><foreignObject width="116.265625" height="24"><div xmlns="http://www.w3.org/1999/xhtml" style="display: table-cell; white-space: nowrap; line-height: 1.5; max-width: 216px; text-align: start;"><span class="nodeLabel"><p>approval_status</p></span></div></foreignObject></g><g class="label attribute-keys" transform="translate(112.0078125, 116.25)" style=""><foreignObject width="0" height="0"><div xmlns="http://www.w3.org/1999/xhtml" style="display: table-cell; white-space: nowrap; line-height: 1.5; max-width: 100px; text-align: start;"><span class="nodeLabel"></span></div></foreignObject></g><g class="label attribute-comment" transform="translate(157.0390625, 116.25)" style=""><foreignObject width="0" height="0"><div xmlns="http://www.w3.org/1999/xhtml" style="display: table-cell; white-space: nowrap; line-height: 1.5; max-width: 100px; text-align: start;"><span class="nodeLabel"></span></div></foreignObject></g><g class="label attribute-type" transform="translate(-132.0390625, 159)" style=""><foreignObject width="77.78125" height="24"><div xmlns="http://www.w3.org/1999/xhtml" style="display: table-cell; white-space: nowrap; line-height: 1.5; max-width: 178px; text-align: start;"><span class="nodeLabel"><p>timestamp</p></span></div></foreignObject></g><g class="label attribute-name" transform="translate(-29.2578125, 159)" style=""><foreignObject width="76.921875" height="24"><div xmlns="http://www.w3.org/1999/xhtml" style="display: table-cell; white-space: nowrap; line-height: 1.5; max-width: 177px; text-align: start;"><span class="nodeLabel"><p>created_at</p></span></div></foreignObject></g><g class="label attribute-keys" transform="translate(112.0078125, 159)" style=""><foreignObject width="0" height="0"><div xmlns="http://www.w3.org/1999/xhtml" style="display: table-cell; white-space: nowrap; line-height: 1.5; max-width: 100px; text-align: start;"><span class="nodeLabel"></span></div></foreignObject></g><g class="label attribute-comment" transform="translate(157.0390625, 159)" style=""><foreignObject width="0" height="0"><div xmlns="http://www.w3.org/1999/xhtml" style="display: table-cell; white-space: nowrap; line-height: 1.5; max-width: 100px; text-align: start;"><span class="nodeLabel"></span></div></foreignObject></g><g class="label attribute-type" transform="translate(-132.0390625, 201.75)" style=""><foreignObject width="77.78125" height="24"><div xmlns="http://www.w3.org/1999/xhtml" style="display: table-cell; white-space: nowrap; line-height: 1.5; max-width: 178px; text-align: start;"><span class="nodeLabel"><p>timestamp</p></span></div></foreignObject></g><g class="label attribute-name" transform="translate(-29.2578125, 201.75)" style=""><foreignObject width="93.203125" height="24"><div xmlns="http://www.w3.org/1999/xhtml" style="display: table-cell; white-space: nowrap; line-height: 1.5; max-width: 193px; text-align: start;"><span class="nodeLabel"><p>last_login_at</p></span></div></foreignObject></g><g class="label attribute-keys" transform="translate(112.0078125, 201.75)" style=""><foreignObject width="0" height="0"><div xmlns="http://www.w3.org/1999/xhtml" style="display: table-cell; white-space: nowrap; line-height: 1.5; max-width: 100px; text-align: start;"><span class="nodeLabel"></span></div></foreignObject></g><g class="label attribute-comment" transform="translate(157.0390625, 201.75)" style=""><foreignObject width="0" height="0"><div xmlns="http://www.w3.org/1999/xhtml" style="display: table-cell; white-space: nowrap; line-height: 1.5; max-width: 100px; text-align: start;"><span class="nodeLabel"></span></div></foreignObject></g><g class="divider"><path d="M-144.5390625 -192.375 C-39.714922038637695 -192.375, 65.10921842272461 -192.375, 144.5390625 -192.375 M-144.5390625 -192.375 C-34.15278551520947 -192.375, 76.23349146958105 -192.375, 144.5390625 -192.375" stroke="#9370DB" stroke-width="1.3" fill="none" stroke-dasharray="0 0"></path></g><g class="divider"><path d="M-41.7578125 -192.375 C-41.7578125 -54.254189700449416, -41.7578125 83.86662059910117, -41.7578125 235.125 M-41.7578125 -192.375 C-41.7578125 -36.467297241970584, -41.7578125 119.44040551605883, -41.7578125 235.125" stroke="#9370DB" stroke-width="1.3" fill="none" stroke-dasharray="0 0"></path></g><g class="divider"><path d="M99.5078125 -192.375 C99.5078125 -100.30134490770783, 99.5078125 -8.227689815415658, 99.5078125 235.125 M99.5078125 -192.375 C99.5078125 -89.34422255783547, 99.5078125 13.68655488432907, 99.5078125 235.125" stroke="#9370DB" stroke-width="1.3" fill="none" stroke-dasharray="0 0"></path></g><g class="divider"><path d="M-144.5390625 -192.375 C-35.42370384990248 -192.375, 73.69165480019504 -192.375, 144.5390625 -192.375 M-144.5390625 -192.375 C-50.14902779289609 -192.375, 44.241006914207816 -192.375, 144.5390625 -192.375" stroke="#9370DB" stroke-width="1.3" fill="none" stroke-dasharray="0 0"></path></g></g><g class="node default" id="entity-user_global_roles-1" transform="translate(135.0390625, 664.75)"><g style=""><path d="M-127.0390625 -64.125 L127.0390625 -64.125 L127.0390625 64.125 L-127.0390625 64.125" stroke="none" stroke-width="0" fill="#ECECFF"></path><path d="M-127.0390625 -64.125 C-41.40395733412434 -64.125, 44.231147831751315 -64.125, 127.0390625 -64.125 M-127.0390625 -64.125 C-50.24875352692578 -64.125, 26.541555446148436 -64.125, 127.0390625 -64.125 M127.0390625 -64.125 C127.0390625 -23.97581139160821, 127.0390625 16.173377216783578, 127.0390625 64.125 M127.0390625 -64.125 C127.0390625 -36.69375590514484, 127.0390625 -9.26251181028968, 127.0390625 64.125 M127.0390625 64.125 C45.349547480902956 64.125, -36.33996753819409 64.125, -127.0390625 64.125 M127.0390625 64.125 C64.45108205985395 64.125, 1.8631016197078765 64.125, -127.0390625 64.125 M-127.0390625 64.125 C-127.0390625 25.387331492943545, -127.0390625 -13.35033701411291, -127.0390625 -64.125 M-127.0390625 64.125 C-127.0390625 24.470218636602624, -127.0390625 -15.184562726794752, -127.0390625 -64.125" stroke="#9370DB" stroke-width="1.3" fill="none" stroke-dasharray="0 0"></path></g><g style="" class="row-rect-odd"><path d="M-127.0390625 -21.375 L127.0390625 -21.375 L127.0390625 21.375 L-127.0390625 21.375" stroke="none" stroke-width="0" fill="hsl(240, 100%, 100%)"></path><path d="M-127.0390625 -21.375 C-75.26527103476482 -21.375, -23.49147956952963 -21.375, 127.0390625 -21.375 M-127.0390625 -21.375 C-61.63269314045773 -21.375, 3.7736762190845354 -21.375, 127.0390625 -21.375 M127.0390625 -21.375 C127.0390625 -12.760646955218448, 127.0390625 -4.146293910436896, 127.0390625 21.375 M127.0390625 -21.375 C127.0390625 -9.195932775371885, 127.0390625 2.98313444925623, 127.0390625 21.375 M127.0390625 21.375 C33.31497353953738 21.375, -60.40911542092525 21.375, -127.0390625 21.375 M127.0390625 21.375 C47.23204624046461 21.375, -32.574970019070776 21.375, -127.0390625 21.375 M-127.0390625 21.375 C-127.0390625 8.371530795817886, -127.0390625 -4.631938408364228, -127.0390625 -21.375 M-127.0390625 21.375 C-127.0390625 8.963574354786848, -127.0390625 -3.4478512904263034, -127.0390625 -21.375" stroke="#9370DB" stroke-width="1.3" fill="none" stroke-dasharray="0 0"></path></g><g style="" class="row-rect-even"><path d="M-127.0390625 21.375 L127.0390625 21.375 L127.0390625 64.125 L-127.0390625 64.125" stroke="none" stroke-width="0" fill="hsl(240, 100%, 97.2745098039%)"></path><path d="M-127.0390625 21.375 C-71.53333374356058 21.375, -16.027604987121165 21.375, 127.0390625 21.375 M-127.0390625 21.375 C-51.40669186435164 21.375, 24.225678771296714 21.375, 127.0390625 21.375 M127.0390625 21.375 C127.0390625 35.88188337148102, 127.0390625 50.388766742962034, 127.0390625 64.125 M127.0390625 21.375 C127.0390625 35.60810533005481, 127.0390625 49.84121066010963, 127.0390625 64.125 M127.0390625 64.125 C59.71077169438169 64.125, -7.617519111236618 64.125, -127.0390625 64.125 M127.0390625 64.125 C66.7175017141472 64.125, 6.395940928294394 64.125, -127.0390625 64.125 M-127.0390625 64.125 C-127.0390625 54.37155485366927, -127.0390625 44.61810970733853, -127.0390625 21.375 M-127.0390625 64.125 C-127.0390625 49.38407906425167, -127.0390625 34.643158128503345, -127.0390625 21.375" stroke="#9370DB" stroke-width="1.3" fill="none" stroke-dasharray="0 0"></path></g><g class="label name" transform="translate(-63.9375, -54.75)" style=""><foreignObject width="127.875" height="24"><div xmlns="http://www.w3.org/1999/xhtml" style="display: table-cell; white-space: nowrap; line-height: 1.5; max-width: 228px; text-align: start;"><span class="nodeLabel"><p>user_global_roles</p></span></div></foreignObject></g><g class="label attribute-type" transform="translate(-114.5390625, -12)" style=""><foreignObject width="32.71875" height="24"><div xmlns="http://www.w3.org/1999/xhtml" style="display: table-cell; white-space: nowrap; line-height: 1.5; max-width: 133px; text-align: start;"><span class="nodeLabel"><p>uuid</p></span></div></foreignObject></g><g class="label attribute-name" transform="translate(-35.6171875, -12)" style=""><foreignObject width="107.875" height="24"><div xmlns="http://www.w3.org/1999/xhtml" style="display: table-cell; white-space: nowrap; line-height: 1.5; max-width: 208px; text-align: start;"><span class="nodeLabel"><p>user_profile_id</p></span></div></foreignObject></g><g class="label attribute-keys" transform="translate(97.2578125, -12)" style=""><foreignObject width="17.28125" height="24"><div xmlns="http://www.w3.org/1999/xhtml" style="display: table-cell; white-space: nowrap; line-height: 1.5; max-width: 118px; text-align: start;"><span class="nodeLabel"><p>FK</p></span></div></foreignObject></g><g class="label attribute-comment" transform="translate(139.5390625, -12)" style=""><foreignObject width="0" height="0"><div xmlns="http://www.w3.org/1999/xhtml" style="display: table-cell; white-space: nowrap; line-height: 1.5; max-width: 100px; text-align: start;"><span class="nodeLabel"></span></div></foreignObject></g><g class="label attribute-type" transform="translate(-114.5390625, 30.75)" style=""><foreignObject width="53.921875" height="24"><div xmlns="http://www.w3.org/1999/xhtml" style="display: table-cell; white-space: nowrap; line-height: 1.5; max-width: 155px; text-align: start;"><span class="nodeLabel"><p>varchar</p></span></div></foreignObject></g><g class="label attribute-name" transform="translate(-35.6171875, 30.75)" style=""><foreignObject width="28.375" height="24"><div xmlns="http://www.w3.org/1999/xhtml" style="display: table-cell; white-space: nowrap; line-height: 1.5; max-width: 128px; text-align: start;"><span class="nodeLabel"><p>role</p></span></div></foreignObject></g><g class="label attribute-keys" transform="translate(97.2578125, 30.75)" style=""><foreignObject width="0" height="0"><div xmlns="http://www.w3.org/1999/xhtml" style="display: table-cell; white-space: nowrap; line-height: 1.5; max-width: 100px; text-align: start;"><span class="nodeLabel"></span></div></foreignObject></g><g class="label attribute-comment" transform="translate(139.5390625, 30.75)" style=""><foreignObject width="0" height="0"><div xmlns="http://www.w3.org/1999/xhtml" style="display: table-cell; white-space: nowrap; line-height: 1.5; max-width: 100px; text-align: start;"><span class="nodeLabel"></span></div></foreignObject></g><g class="divider"><path d="M-127.0390625 -21.375 C-42.58658919136171 -21.375, 41.86588411727658 -21.375, 127.0390625 -21.375 M-127.0390625 -21.375 C-60.27373705457684 -21.375, 6.491588390846317 -21.375, 127.0390625 -21.375" stroke="#9370DB" stroke-width="1.3" fill="none" stroke-dasharray="0 0"></path></g><g class="divider"><path d="M-48.1171875 -21.375 C-48.1171875 -1.9808951958272552, -48.1171875 17.41320960834549, -48.1171875 64.125 M-48.1171875 -21.375 C-48.1171875 6.819558972635505, -48.1171875 35.01411794527101, -48.1171875 64.125" stroke="#9370DB" stroke-width="1.3" fill="none" stroke-dasharray="0 0"></path></g><g class="divider"><path d="M84.7578125 -21.375 C84.7578125 6.681533175401807, 84.7578125 34.738066350803614, 84.7578125 64.125 M84.7578125 -21.375 C84.7578125 10.689430408830965, 84.7578125 42.75386081766193, 84.7578125 64.125" stroke="#9370DB" stroke-width="1.3" fill="none" stroke-dasharray="0 0"></path></g><g class="divider"><path d="M-127.0390625 -21.375 C-40.3629754907287 -21.375, 46.3131115185426 -21.375, 127.0390625 -21.375 M-127.0390625 -21.375 C-68.23651225635263 -21.375, -9.433962012705251 -21.375, 127.0390625 -21.375" stroke="#9370DB" stroke-width="1.3" fill="none" stroke-dasharray="0 0"></path></g></g><g class="node default" id="entity-user_tenant_memberships-2" transform="translate(529.1171875, 664.75)"><g style=""><path d="M-127.0390625 -85.5 L127.0390625 -85.5 L127.0390625 85.5 L-127.0390625 85.5" stroke="none" stroke-width="0" fill="#ECECFF"></path><path d="M-127.0390625 -85.5 C-28.391062796854413 -85.5, 70.25693690629117 -85.5, 127.0390625 -85.5 M-127.0390625 -85.5 C-40.85161026723701 -85.5, 45.33584196552599 -85.5, 127.0390625 -85.5 M127.0390625 -85.5 C127.0390625 -34.820532784380816, 127.0390625 15.858934431238367, 127.0390625 85.5 M127.0390625 -85.5 C127.0390625 -33.30911830312173, 127.0390625 18.881763393756543, 127.0390625 85.5 M127.0390625 85.5 C30.10315487344485 85.5, -66.8327527531103 85.5, -127.0390625 85.5 M127.0390625 85.5 C60.312231929233874 85.5, -6.414598641532251 85.5, -127.0390625 85.5 M-127.0390625 85.5 C-127.0390625 35.4801117273557, -127.0390625 -14.539776545288603, -127.0390625 -85.5 M-127.0390625 85.5 C-127.0390625 46.55340408029433, -127.0390625 7.606808160588656, -127.0390625 -85.5" stroke="#9370DB" stroke-width="1.3" fill="none" stroke-dasharray="0 0"></path></g><g style="" class="row-rect-odd"><path d="M-127.0390625 -42.75 L127.0390625 -42.75 L127.0390625 0 L-127.0390625 0" stroke="none" stroke-width="0" fill="hsl(240, 100%, 100%)"></path><path d="M-127.0390625 -42.75 C-33.34292416916449 -42.75, 60.35321416167102 -42.75, 127.0390625 -42.75 M-127.0390625 -42.75 C-27.54588927673879 -42.75, 71.94728394652242 -42.75, 127.0390625 -42.75 M127.0390625 -42.75 C127.0390625 -31.428922234205963, 127.0390625 -20.107844468411923, 127.0390625 0 M127.0390625 -42.75 C127.0390625 -29.35147251845129, 127.0390625 -15.952945036902573, 127.0390625 0 M127.0390625 0 C46.522378178920235 0, -33.99430614215953 0, -127.0390625 0 M127.0390625 0 C69.49200360800278 0, 11.944944716005551 0, -127.0390625 0 M-127.0390625 0 C-127.0390625 -11.206563778600218, -127.0390625 -22.413127557200436, -127.0390625 -42.75 M-127.0390625 0 C-127.0390625 -16.351310521664796, -127.0390625 -32.70262104332959, -127.0390625 -42.75" stroke="#9370DB" stroke-width="1.3" fill="none" stroke-dasharray="0 0"></path></g><g style="" class="row-rect-even"><path d="M-127.0390625 0 L127.0390625 0 L127.0390625 42.75 L-127.0390625 42.75" stroke="none" stroke-width="0" fill="hsl(240, 100%, 97.2745098039%)"></path><path d="M-127.0390625 0 C-75.40446576561372 0, -23.769869031227444 0, 127.0390625 0 M-127.0390625 0 C-48.61367958262953 0, 29.81170333474094 0, 127.0390625 0 M127.0390625 0 C127.0390625 12.748165207572683, 127.0390625 25.496330415145366, 127.0390625 42.75 M127.0390625 0 C127.0390625 12.501513684321317, 127.0390625 25.003027368642634, 127.0390625 42.75 M127.0390625 42.75 C71.68119650952816 42.75, 16.323330519056327 42.75, -127.0390625 42.75 M127.0390625 42.75 C29.084399402585518 42.75, -68.87026369482896 42.75, -127.0390625 42.75 M-127.0390625 42.75 C-127.0390625 32.27865206930887, -127.0390625 21.807304138617738, -127.0390625 0 M-127.0390625 42.75 C-127.0390625 26.973475154273956, -127.0390625 11.196950308547915, -127.0390625 0" stroke="#9370DB" stroke-width="1.3" fill="none" stroke-dasharray="0 0"></path></g><g style="" class="row-rect-odd"><path d="M-127.0390625 42.75 L127.0390625 42.75 L127.0390625 85.5 L-127.0390625 85.5" stroke="none" stroke-width="0" fill="hsl(240, 100%, 100%)"></path><path d="M-127.0390625 42.75 C-59.29044793354116 42.75, 8.458166632917681 42.75, 127.0390625 42.75 M-127.0390625 42.75 C-63.19127236897805 42.75, 0.6565177620439044 42.75, 127.0390625 42.75 M127.0390625 42.75 C127.0390625 57.40130363956156, 127.0390625 72.05260727912312, 127.0390625 85.5 M127.0390625 42.75 C127.0390625 55.50657981204302, 127.0390625 68.26315962408604, 127.0390625 85.5 M127.0390625 85.5 C73.90034916550701 85.5, 20.761635831014004 85.5, -127.0390625 85.5 M127.0390625 85.5 C32.47198300892882 85.5, -62.09509648214237 85.5, -127.0390625 85.5 M-127.0390625 85.5 C-127.0390625 74.32496038682528, -127.0390625 63.149920773650564, -127.0390625 42.75 M-127.0390625 85.5 C-127.0390625 76.44940253434416, -127.0390625 67.39880506868832, -127.0390625 42.75" stroke="#9370DB" stroke-width="1.3" fill="none" stroke-dasharray="0 0"></path></g><g class="label name" transform="translate(-96.4296875, -76.125)" style=""><foreignObject width="192.859375" height="24"><div xmlns="http://www.w3.org/1999/xhtml" style="display: table-cell; white-space: nowrap; line-height: 1.5; max-width: 293px; text-align: start;"><span class="nodeLabel"><p>user_tenant_memberships</p></span></div></foreignObject></g><g class="label attribute-type" transform="translate(-114.5390625, -33.375)" style=""><foreignObject width="32.71875" height="24"><div xmlns="http://www.w3.org/1999/xhtml" style="display: table-cell; white-space: nowrap; line-height: 1.5; max-width: 133px; text-align: start;"><span class="nodeLabel"><p>uuid</p></span></div></foreignObject></g><g class="label attribute-name" transform="translate(-35.6171875, -33.375)" style=""><foreignObject width="107.875" height="24"><div xmlns="http://www.w3.org/1999/xhtml" style="display: table-cell; white-space: nowrap; line-height: 1.5; max-width: 208px; text-align: start;"><span class="nodeLabel"><p>user_profile_id</p></span></div></foreignObject></g><g class="label attribute-keys" transform="translate(97.2578125, -33.375)" style=""><foreignObject width="17.28125" height="24"><div xmlns="http://www.w3.org/1999/xhtml" style="display: table-cell; white-space: nowrap; line-height: 1.5; max-width: 118px; text-align: start;"><span class="nodeLabel"><p>FK</p></span></div></foreignObject></g><g class="label attribute-comment" transform="translate(139.5390625, -33.375)" style=""><foreignObject width="0" height="0"><div xmlns="http://www.w3.org/1999/xhtml" style="display: table-cell; white-space: nowrap; line-height: 1.5; max-width: 100px; text-align: start;"><span class="nodeLabel"></span></div></foreignObject></g><g class="label attribute-type" transform="translate(-114.5390625, 9.375)" style=""><foreignObject width="32.71875" height="24"><div xmlns="http://www.w3.org/1999/xhtml" style="display: table-cell; white-space: nowrap; line-height: 1.5; max-width: 133px; text-align: start;"><span class="nodeLabel"><p>uuid</p></span></div></foreignObject></g><g class="label attribute-name" transform="translate(-35.6171875, 9.375)" style=""><foreignObject width="69.890625" height="24"><div xmlns="http://www.w3.org/1999/xhtml" style="display: table-cell; white-space: nowrap; line-height: 1.5; max-width: 170px; text-align: start;"><span class="nodeLabel"><p>tenant_id</p></span></div></foreignObject></g><g class="label attribute-keys" transform="translate(97.2578125, 9.375)" style=""><foreignObject width="0" height="0"><div xmlns="http://www.w3.org/1999/xhtml" style="display: table-cell; white-space: nowrap; line-height: 1.5; max-width: 100px; text-align: start;"><span class="nodeLabel"></span></div></foreignObject></g><g class="label attribute-comment" transform="translate(139.5390625, 9.375)" style=""><foreignObject width="0" height="0"><div xmlns="http://www.w3.org/1999/xhtml" style="display: table-cell; white-space: nowrap; line-height: 1.5; max-width: 100px; text-align: start;"><span class="nodeLabel"></span></div></foreignObject></g><g class="label attribute-type" transform="translate(-114.5390625, 52.125)" style=""><foreignObject width="53.921875" height="24"><div xmlns="http://www.w3.org/1999/xhtml" style="display: table-cell; white-space: nowrap; line-height: 1.5; max-width: 155px; text-align: start;"><span class="nodeLabel"><p>varchar</p></span></div></foreignObject></g><g class="label attribute-name" transform="translate(-35.6171875, 52.125)" style=""><foreignObject width="28.375" height="24"><div xmlns="http://www.w3.org/1999/xhtml" style="display: table-cell; white-space: nowrap; line-height: 1.5; max-width: 128px; text-align: start;"><span class="nodeLabel"><p>role</p></span></div></foreignObject></g><g class="label attribute-keys" transform="translate(97.2578125, 52.125)" style=""><foreignObject width="0" height="0"><div xmlns="http://www.w3.org/1999/xhtml" style="display: table-cell; white-space: nowrap; line-height: 1.5; max-width: 100px; text-align: start;"><span class="nodeLabel"></span></div></foreignObject></g><g class="label attribute-comment" transform="translate(139.5390625, 52.125)" style=""><foreignObject width="0" height="0"><div xmlns="http://www.w3.org/1999/xhtml" style="display: table-cell; white-space: nowrap; line-height: 1.5; max-width: 100px; text-align: start;"><span class="nodeLabel"></span></div></foreignObject></g><g class="divider"><path d="M-127.0390625 -42.75 C-45.77265597738399 -42.75, 35.49375054523202 -42.75, 127.0390625 -42.75 M-127.0390625 -42.75 C-43.26807201100628 -42.75, 40.502918477987436 -42.75, 127.0390625 -42.75" stroke="#9370DB" stroke-width="1.3" fill="none" stroke-dasharray="0 0"></path></g><g class="divider"><path d="M-48.1171875 -42.75 C-48.1171875 -15.29268133178418, -48.1171875 12.164637336431639, -48.1171875 85.5 M-48.1171875 -42.75 C-48.1171875 3.3354095384853863, -48.1171875 49.42081907697077, -48.1171875 85.5" stroke="#9370DB" stroke-width="1.3" fill="none" stroke-dasharray="0 0"></path></g><g class="divider"><path d="M84.7578125 -42.75 C84.7578125 6.92522708249318, 84.7578125 56.60045416498636, 84.7578125 85.5 M84.7578125 -42.75 C84.7578125 6.018961149181251, 84.7578125 54.7879222983625, 84.7578125 85.5" stroke="#9370DB" stroke-width="1.3" fill="none" stroke-dasharray="0 0"></path></g><g class="divider"><path d="M-127.0390625 -42.75 C-72.26338150153096 -42.75, -17.487700503061916 -42.75, 127.0390625 -42.75 M-127.0390625 -42.75 C-34.008055879466625 -42.75, 59.02295074106675 -42.75, 127.0390625 -42.75" stroke="#9370DB" stroke-width="1.3" fill="none" stroke-dasharray="0 0"></path></g></g><g class="node default" id="entity-tenant_settings-3" transform="translate(946.75390625, 243.125)"><g style=""><path d="M-145.8671875 -149.625 L145.8671875 -149.625 L145.8671875 149.625 L-145.8671875 149.625" stroke="none" stroke-width="0" fill="#ECECFF"></path><path d="M-145.8671875 -149.625 C-73.78239346614875 -149.625, -1.697599432297494 -149.625, 145.8671875 -149.625 M-145.8671875 -149.625 C-78.78118722150923 -149.625, -11.695186943018456 -149.625, 145.8671875 -149.625 M145.8671875 -149.625 C145.8671875 -45.97882393266539, 145.8671875 57.667352134669216, 145.8671875 149.625 M145.8671875 -149.625 C145.8671875 -85.74583214326668, 145.8671875 -21.86666428653338, 145.8671875 149.625 M145.8671875 149.625 C71.11731119923098 149.625, -3.6325651015380345 149.625, -145.8671875 149.625 M145.8671875 149.625 C64.99554294633096 149.625, -15.876101607338086 149.625, -145.8671875 149.625 M-145.8671875 149.625 C-145.8671875 71.92763086662123, -145.8671875 -5.7697382667575425, -145.8671875 -149.625 M-145.8671875 149.625 C-145.8671875 71.8449076149936, -145.8671875 -5.935184770012796, -145.8671875 -149.625" stroke="#9370DB" stroke-width="1.3" fill="none" stroke-dasharray="0 0"></path></g><g style="" class="row-rect-odd"><path d="M-145.8671875 -106.875 L145.8671875 -106.875 L145.8671875 -64.125 L-145.8671875 -64.125" stroke="none" stroke-width="0" fill="hsl(240, 100%, 100%)"></path><path d="M-145.8671875 -106.875 C-71.99345013135529 -106.875, 1.8802872372894228 -106.875, 145.8671875 -106.875 M-145.8671875 -106.875 C-79.29971695503369 -106.875, -12.732246410067376 -106.875, 145.8671875 -106.875 M145.8671875 -106.875 C145.8671875 -95.50680235058499, 145.8671875 -84.13860470117, 145.8671875 -64.125 M145.8671875 -106.875 C145.8671875 -91.43029964388514, 145.8671875 -75.98559928777027, 145.8671875 -64.125 M145.8671875 -64.125 C85.53901485210768 -64.125, 25.210842204215368 -64.125, -145.8671875 -64.125 M145.8671875 -64.125 C45.719110312196776 -64.125, -54.42896687560645 -64.125, -145.8671875 -64.125 M-145.8671875 -64.125 C-145.8671875 -74.19963555875124, -145.8671875 -84.27427111750248, -145.8671875 -106.875 M-145.8671875 -64.125 C-145.8671875 -78.88344804865476, -145.8671875 -93.64189609730951, -145.8671875 -106.875" stroke="#9370DB" stroke-width="1.3" fill="none" stroke-dasharray="0 0"></path></g><g style="" class="row-rect-even"><path d="M-145.8671875 -64.125 L145.8671875 -64.125 L145.8671875 -21.375 L-145.8671875 -21.375" stroke="none" stroke-width="0" fill="hsl(240, 100%, 97.2745098039%)"></path><path d="M-145.8671875 -64.125 C-34.66130673134717 -64.125, 76.54457403730567 -64.125, 145.8671875 -64.125 M-145.8671875 -64.125 C-69.30763038441452 -64.125, 7.251926731170954 -64.125, 145.8671875 -64.125 M145.8671875 -64.125 C145.8671875 -55.491663787027505, 145.8671875 -46.85832757405501, 145.8671875 -21.375 M145.8671875 -64.125 C145.8671875 -50.58676692767715, 145.8671875 -37.04853385535429, 145.8671875 -21.375 M145.8671875 -21.375 C73.44482541977031 -21.375, 1.0224633395406215 -21.375, -145.8671875 -21.375 M145.8671875 -21.375 C37.2874885830461 -21.375, -71.2922103339078 -21.375, -145.8671875 -21.375 M-145.8671875 -21.375 C-145.8671875 -31.180256729119932, -145.8671875 -40.985513458239865, -145.8671875 -64.125 M-145.8671875 -21.375 C-145.8671875 -37.93280834465301, -145.8671875 -54.49061668930603, -145.8671875 -64.125" stroke="#9370DB" stroke-width="1.3" fill="none" stroke-dasharray="0 0"></path></g><g style="" class="row-rect-odd"><path d="M-145.8671875 -21.375 L145.8671875 -21.375 L145.8671875 21.375 L-145.8671875 21.375" stroke="none" stroke-width="0" fill="hsl(240, 100%, 100%)"></path><path d="M-145.8671875 -21.375 C-49.96886726899926 -21.375, 45.92945296200148 -21.375, 145.8671875 -21.375 M-145.8671875 -21.375 C-86.00970873446074 -21.375, -26.15222996892149 -21.375, 145.8671875 -21.375 M145.8671875 -21.375 C145.8671875 -4.763473385878008, 145.8671875 11.848053228243984, 145.8671875 21.375 M145.8671875 -21.375 C145.8671875 -8.386758533217124, 145.8671875 4.601482933565752, 145.8671875 21.375 M145.8671875 21.375 C49.9112356049894 21.375, -46.0447162900212 21.375, -145.8671875 21.375 M145.8671875 21.375 C49.68608231971639 21.375, -46.49502286056722 21.375, -145.8671875 21.375 M-145.8671875 21.375 C-145.8671875 11.778291168946788, -145.8671875 2.181582337893577, -145.8671875 -21.375 M-145.8671875 21.375 C-145.8671875 4.937849870864877, -145.8671875 -11.499300258270246, -145.8671875 -21.375" stroke="#9370DB" stroke-width="1.3" fill="none" stroke-dasharray="0 0"></path></g><g style="" class="row-rect-even"><path d="M-145.8671875 21.375 L145.8671875 21.375 L145.8671875 64.125 L-145.8671875 64.125" stroke="none" stroke-width="0" fill="hsl(240, 100%, 97.2745098039%)"></path><path d="M-145.8671875 21.375 C-36.863166366376134 21.375, 72.14085476724773 21.375, 145.8671875 21.375 M-145.8671875 21.375 C-45.65523683619803 21.375, 54.55671382760394 21.375, 145.8671875 21.375 M145.8671875 21.375 C145.8671875 33.72526181047868, 145.8671875 46.075523620957355, 145.8671875 64.125 M145.8671875 21.375 C145.8671875 36.91125446249116, 145.8671875 52.44750892498231, 145.8671875 64.125 M145.8671875 64.125 C35.395814071845265 64.125, -75.07555935630947 64.125, -145.8671875 64.125 M145.8671875 64.125 C40.72938084724525 64.125, -64.4084258055095 64.125, -145.8671875 64.125 M-145.8671875 64.125 C-145.8671875 54.113769198659504, -145.8671875 44.10253839731901, -145.8671875 21.375 M-145.8671875 64.125 C-145.8671875 54.10218828143774, -145.8671875 44.07937656287548, -145.8671875 21.375" stroke="#9370DB" stroke-width="1.3" fill="none" stroke-dasharray="0 0"></path></g><g style="" class="row-rect-odd"><path d="M-145.8671875 64.125 L145.8671875 64.125 L145.8671875 106.875 L-145.8671875 106.875" stroke="none" stroke-width="0" fill="hsl(240, 100%, 100%)"></path><path d="M-145.8671875 64.125 C-33.19682389745567 64.125, 79.47353970508865 64.125, 145.8671875 64.125 M-145.8671875 64.125 C-79.31884222202348 64.125, -12.770496944046954 64.125, 145.8671875 64.125 M145.8671875 64.125 C145.8671875 80.35940098900468, 145.8671875 96.59380197800937, 145.8671875 106.875 M145.8671875 64.125 C145.8671875 72.81060309002274, 145.8671875 81.49620618004546, 145.8671875 106.875 M145.8671875 106.875 C72.32211792351492 106.875, -1.2229516529701527 106.875, -145.8671875 106.875 M145.8671875 106.875 C48.34431684834156 106.875, -49.17855380331687 106.875, -145.8671875 106.875 M-145.8671875 106.875 C-145.8671875 92.26499558150348, -145.8671875 77.65499116300697, -145.8671875 64.125 M-145.8671875 106.875 C-145.8671875 96.67116571883662, -145.8671875 86.46733143767324, -145.8671875 64.125" stroke="#9370DB" stroke-width="1.3" fill="none" stroke-dasharray="0 0"></path></g><g style="" class="row-rect-even"><path d="M-145.8671875 106.875 L145.8671875 106.875 L145.8671875 149.625 L-145.8671875 149.625" stroke="none" stroke-width="0" fill="hsl(240, 100%, 97.2745098039%)"></path><path d="M-145.8671875 106.875 C-76.90998861250162 106.875, -7.952789725003242 106.875, 145.8671875 106.875 M-145.8671875 106.875 C-73.24367074643105 106.875, -0.6201539928621003 106.875, 145.8671875 106.875 M145.8671875 106.875 C145.8671875 123.91461361217135, 145.8671875 140.9542272243427, 145.8671875 149.625 M145.8671875 106.875 C145.8671875 122.12843917055265, 145.8671875 137.3818783411053, 145.8671875 149.625 M145.8671875 149.625 C53.99207423979644 149.625, -37.883039020407125 149.625, -145.8671875 149.625 M145.8671875 149.625 C67.28350687036091 149.625, -11.30017375927818 149.625, -145.8671875 149.625 M-145.8671875 149.625 C-145.8671875 138.93682097127396, -145.8671875 128.24864194254792, -145.8671875 106.875 M-145.8671875 149.625 C-145.8671875 140.58107949895873, -145.8671875 131.53715899791746, -145.8671875 106.875" stroke="#9370DB" stroke-width="1.3" fill="none" stroke-dasharray="0 0"></path></g><g class="label name" transform="translate(-56.5625, -140.25)" style=""><foreignObject width="113.125" height="24"><div xmlns="http://www.w3.org/1999/xhtml" style="display: table-cell; white-space: nowrap; line-height: 1.5; max-width: 213px; text-align: start;"><span class="nodeLabel"><p>tenant_settings</p></span></div></foreignObject></g><g class="label attribute-type" transform="translate(-133.3671875, -97.5)" style=""><foreignObject width="32.71875" height="24"><div xmlns="http://www.w3.org/1999/xhtml" style="display: table-cell; white-space: nowrap; line-height: 1.5; max-width: 133px; text-align: start;"><span class="nodeLabel"><p>uuid</p></span></div></foreignObject></g><g class="label attribute-name" transform="translate(-48.9140625, -97.5)" style=""><foreignObject width="69.890625" height="24"><div xmlns="http://www.w3.org/1999/xhtml" style="display: table-cell; white-space: nowrap; line-height: 1.5; max-width: 170px; text-align: start;"><span class="nodeLabel"><p>tenant_id</p></span></div></foreignObject></g><g class="label attribute-keys" transform="translate(114.6328125, -97.5)" style=""><foreignObject width="18.734375" height="24"><div xmlns="http://www.w3.org/1999/xhtml" style="display: table-cell; white-space: nowrap; line-height: 1.5; max-width: 119px; text-align: start;"><span class="nodeLabel"><p>PK</p></span></div></foreignObject></g><g class="label attribute-comment" transform="translate(158.3671875, -97.5)" style=""><foreignObject width="0" height="0"><div xmlns="http://www.w3.org/1999/xhtml" style="display: table-cell; white-space: nowrap; line-height: 1.5; max-width: 100px; text-align: start;"><span class="nodeLabel"></span></div></foreignObject></g><g class="label attribute-type" transform="translate(-133.3671875, -54.75)" style=""><foreignObject width="53.921875" height="24"><div xmlns="http://www.w3.org/1999/xhtml" style="display: table-cell; white-space: nowrap; line-height: 1.5; max-width: 155px; text-align: start;"><span class="nodeLabel"><p>varchar</p></span></div></foreignObject></g><g class="label attribute-name" transform="translate(-48.9140625, -54.75)" style=""><foreignObject width="85.828125" height="24"><div xmlns="http://www.w3.org/1999/xhtml" style="display: table-cell; white-space: nowrap; line-height: 1.5; max-width: 186px; text-align: start;"><span class="nodeLabel"><p>login_mode</p></span></div></foreignObject></g><g class="label attribute-keys" transform="translate(114.6328125, -54.75)" style=""><foreignObject width="0" height="0"><div xmlns="http://www.w3.org/1999/xhtml" style="display: table-cell; white-space: nowrap; line-height: 1.5; max-width: 100px; text-align: start;"><span class="nodeLabel"></span></div></foreignObject></g><g class="label attribute-comment" transform="translate(158.3671875, -54.75)" style=""><foreignObject width="0" height="0"><div xmlns="http://www.w3.org/1999/xhtml" style="display: table-cell; white-space: nowrap; line-height: 1.5; max-width: 100px; text-align: start;"><span class="nodeLabel"></span></div></foreignObject></g><g class="label attribute-type" transform="translate(-133.3671875, -12)" style=""><foreignObject width="59.453125" height="24"><div xmlns="http://www.w3.org/1999/xhtml" style="display: table-cell; white-space: nowrap; line-height: 1.5; max-width: 159px; text-align: start;"><span class="nodeLabel"><p>boolean</p></span></div></foreignObject></g><g class="label attribute-name" transform="translate(-48.9140625, -12)" style=""><foreignObject width="138.546875" height="24"><div xmlns="http://www.w3.org/1999/xhtml" style="display: table-cell; white-space: nowrap; line-height: 1.5; max-width: 239px; text-align: start;"><span class="nodeLabel"><p>auto_approve_oidc</p></span></div></foreignObject></g><g class="label attribute-keys" transform="translate(114.6328125, -12)" style=""><foreignObject width="0" height="0"><div xmlns="http://www.w3.org/1999/xhtml" style="display: table-cell; white-space: nowrap; line-height: 1.5; max-width: 100px; text-align: start;"><span class="nodeLabel"></span></div></foreignObject></g><g class="label attribute-comment" transform="translate(158.3671875, -12)" style=""><foreignObject width="0" height="0"><div xmlns="http://www.w3.org/1999/xhtml" style="display: table-cell; white-space: nowrap; line-height: 1.5; max-width: 100px; text-align: start;"><span class="nodeLabel"></span></div></foreignObject></g><g class="label attribute-type" transform="translate(-133.3671875, 30.75)" style=""><foreignObject width="53.921875" height="24"><div xmlns="http://www.w3.org/1999/xhtml" style="display: table-cell; white-space: nowrap; line-height: 1.5; max-width: 155px; text-align: start;"><span class="nodeLabel"><p>varchar</p></span></div></foreignObject></g><g class="label attribute-name" transform="translate(-48.9140625, 30.75)" style=""><foreignObject width="109.796875" height="24"><div xmlns="http://www.w3.org/1999/xhtml" style="display: table-cell; white-space: nowrap; line-height: 1.5; max-width: 210px; text-align: start;"><span class="nodeLabel"><p>oidc_issuer_url</p></span></div></foreignObject></g><g class="label attribute-keys" transform="translate(114.6328125, 30.75)" style=""><foreignObject width="0" height="0"><div xmlns="http://www.w3.org/1999/xhtml" style="display: table-cell; white-space: nowrap; line-height: 1.5; max-width: 100px; text-align: start;"><span class="nodeLabel"></span></div></foreignObject></g><g class="label attribute-comment" transform="translate(158.3671875, 30.75)" style=""><foreignObject width="0" height="0"><div xmlns="http://www.w3.org/1999/xhtml" style="display: table-cell; white-space: nowrap; line-height: 1.5; max-width: 100px; text-align: start;"><span class="nodeLabel"></span></div></foreignObject></g><g class="label attribute-type" transform="translate(-133.3671875, 73.5)" style=""><foreignObject width="53.921875" height="24"><div xmlns="http://www.w3.org/1999/xhtml" style="display: table-cell; white-space: nowrap; line-height: 1.5; max-width: 155px; text-align: start;"><span class="nodeLabel"><p>varchar</p></span></div></foreignObject></g><g class="label attribute-name" transform="translate(-48.9140625, 73.5)" style=""><foreignObject width="102.203125" height="24"><div xmlns="http://www.w3.org/1999/xhtml" style="display: table-cell; white-space: nowrap; line-height: 1.5; max-width: 202px; text-align: start;"><span class="nodeLabel"><p>oidc_client_id</p></span></div></foreignObject></g><g class="label attribute-keys" transform="translate(114.6328125, 73.5)" style=""><foreignObject width="0" height="0"><div xmlns="http://www.w3.org/1999/xhtml" style="display: table-cell; white-space: nowrap; line-height: 1.5; max-width: 100px; text-align: start;"><span class="nodeLabel"></span></div></foreignObject></g><g class="label attribute-comment" transform="translate(158.3671875, 73.5)" style=""><foreignObject width="0" height="0"><div xmlns="http://www.w3.org/1999/xhtml" style="display: table-cell; white-space: nowrap; line-height: 1.5; max-width: 100px; text-align: start;"><span class="nodeLabel"></span></div></foreignObject></g><g class="label attribute-type" transform="translate(-133.3671875, 116.25)" style=""><foreignObject width="53.921875" height="24"><div xmlns="http://www.w3.org/1999/xhtml" style="display: table-cell; white-space: nowrap; line-height: 1.5; max-width: 155px; text-align: start;"><span class="nodeLabel"><p>varchar</p></span></div></foreignObject></g><g class="label attribute-name" transform="translate(-48.9140625, 116.25)" style=""><foreignObject width="132.15625" height="24"><div xmlns="http://www.w3.org/1999/xhtml" style="display: table-cell; white-space: nowrap; line-height: 1.5; max-width: 232px; text-align: start;"><span class="nodeLabel"><p>oidc_client_secret</p></span></div></foreignObject></g><g class="label attribute-keys" transform="translate(114.6328125, 116.25)" style=""><foreignObject width="0" height="0"><div xmlns="http://www.w3.org/1999/xhtml" style="display: table-cell; white-space: nowrap; line-height: 1.5; max-width: 100px; text-align: start;"><span class="nodeLabel"></span></div></foreignObject></g><g class="label attribute-comment" transform="translate(158.3671875, 116.25)" style=""><foreignObject width="0" height="0"><div xmlns="http://www.w3.org/1999/xhtml" style="display: table-cell; white-space: nowrap; line-height: 1.5; max-width: 100px; text-align: start;"><span class="nodeLabel"></span></div></foreignObject></g><g class="divider"><path d="M-145.8671875 -106.875 C-65.81772223668428 -106.875, 14.231743026631449 -106.875, 145.8671875 -106.875 M-145.8671875 -106.875 C-79.5142044845091 -106.875, -13.161221469018187 -106.875, 145.8671875 -106.875" stroke="#9370DB" stroke-width="1.3" fill="none" stroke-dasharray="0 0"></path></g><g class="divider"><path d="M-61.4140625 -106.875 C-61.4140625 -12.056418196956926, -61.4140625 82.76216360608615, -61.4140625 149.625 M-61.4140625 -106.875 C-61.4140625 -11.859695230862897, -61.4140625 83.1556095382742, -61.4140625 149.625" stroke="#9370DB" stroke-width="1.3" fill="none" stroke-dasharray="0 0"></path></g><g class="divider"><path d="M102.1328125 -106.875 C102.1328125 -45.8803178545634, 102.1328125 15.114364290873198, 102.1328125 149.625 M102.1328125 -106.875 C102.1328125 -51.50626925013522, 102.1328125 3.8624614997295623, 102.1328125 149.625" stroke="#9370DB" stroke-width="1.3" fill="none" stroke-dasharray="0 0"></path></g><g class="divider"><path d="M-145.8671875 -106.875 C-72.15364868307213 -106.875, 1.5598901338557312 -106.875, 145.8671875 -106.875 M-145.8671875 -106.875 C-61.30038532951593 -106.875, 23.266416840968134 -106.875, 145.8671875 -106.875" stroke="#9370DB" stroke-width="1.3" fill="none" stroke-dasharray="0 0"></path></g></g><g class="node default" id="entity-tenant_auto_approve_domains-4" transform="translate(946.75390625, 664.75)"><g style=""><path d="M-137.828125 -64.125 L137.828125 -64.125 L137.828125 64.125 L-137.828125 64.125" stroke="none" stroke-width="0" fill="#ECECFF"></path><path d="M-137.828125 -64.125 C-40.98385579967797 -64.125, 55.86041340064406 -64.125, 137.828125 -64.125 M-137.828125 -64.125 C-48.18281714311317 -64.125, 41.46249071377366 -64.125, 137.828125 -64.125 M137.828125 -64.125 C137.828125 -30.622508735476238, 137.828125 2.879982529047524, 137.828125 64.125 M137.828125 -64.125 C137.828125 -19.6263141014011, 137.828125 24.8723717971978, 137.828125 64.125 M137.828125 64.125 C66.87854882262371 64.125, -4.071027354752573 64.125, -137.828125 64.125 M137.828125 64.125 C31.893730171553074 64.125, -74.04066465689385 64.125, -137.828125 64.125 M-137.828125 64.125 C-137.828125 27.397458625211037, -137.828125 -9.330082749577926, -137.828125 -64.125 M-137.828125 64.125 C-137.828125 22.236059888637755, -137.828125 -19.65288022272449, -137.828125 -64.125" stroke="#9370DB" stroke-width="1.3" fill="none" stroke-dasharray="0 0"></path></g><g style="" class="row-rect-odd"><path d="M-137.828125 -21.375 L137.828125 -21.375 L137.828125 21.375 L-137.828125 21.375" stroke="none" stroke-width="0" fill="hsl(240, 100%, 100%)"></path><path d="M-137.828125 -21.375 C-51.25457991029906 -21.375, 35.318965179401886 -21.375, 137.828125 -21.375 M-137.828125 -21.375 C-68.87100591987753 -21.375, 0.08611316024493476 -21.375, 137.828125 -21.375 M137.828125 -21.375 C137.828125 -5.154662115984159, 137.828125 11.065675768031682, 137.828125 21.375 M137.828125 -21.375 C137.828125 -9.187164525710237, 137.828125 3.0006709485795255, 137.828125 21.375 M137.828125 21.375 C71.70332405676278 21.375, 5.578523113525563 21.375, -137.828125 21.375 M137.828125 21.375 C54.49543850492974 21.375, -28.837247990140526 21.375, -137.828125 21.375 M-137.828125 21.375 C-137.828125 4.790594491120125, -137.828125 -11.79381101775975, -137.828125 -21.375 M-137.828125 21.375 C-137.828125 6.279870666101145, -137.828125 -8.81525866779771, -137.828125 -21.375" stroke="#9370DB" stroke-width="1.3" fill="none" stroke-dasharray="0 0"></path></g><g style="" class="row-rect-even"><path d="M-137.828125 21.375 L137.828125 21.375 L137.828125 64.125 L-137.828125 64.125" stroke="none" stroke-width="0" fill="hsl(240, 100%, 97.2745098039%)"></path><path d="M-137.828125 21.375 C-33.91327253618125 21.375, 70.0015799276375 21.375, 137.828125 21.375 M-137.828125 21.375 C-28.687758152509062 21.375, 80.45260869498188 21.375, 137.828125 21.375 M137.828125 21.375 C137.828125 37.68414939420816, 137.828125 53.99329878841633, 137.828125 64.125 M137.828125 21.375 C137.828125 31.8635103147519, 137.828125 42.3520206295038, 137.828125 64.125 M137.828125 64.125 C34.971130424345446 64.125, -67.88586415130911 64.125, -137.828125 64.125 M137.828125 64.125 C44.363225702854834 64.125, -49.10167359429033 64.125, -137.828125 64.125 M-137.828125 64.125 C-137.828125 53.20921965569204, -137.828125 42.293439311384084, -137.828125 21.375 M-137.828125 64.125 C-137.828125 49.68320977167182, -137.828125 35.24141954334364, -137.828125 21.375" stroke="#9370DB" stroke-width="1.3" fill="none" stroke-dasharray="0 0"></path></g><g class="label name" transform="translate(-112.828125, -54.75)" style=""><foreignObject width="225.65625" height="24"><div xmlns="http://www.w3.org/1999/xhtml" style="display: table-cell; white-space: nowrap; line-height: 1.5; max-width: 326px; text-align: start;"><span class="nodeLabel"><p>tenant_auto_approve_domains</p></span></div></foreignObject></g><g class="label attribute-type" transform="translate(-125.328125, -12)" style=""><foreignObject width="32.71875" height="24"><div xmlns="http://www.w3.org/1999/xhtml" style="display: table-cell; white-space: nowrap; line-height: 1.5; max-width: 133px; text-align: start;"><span class="nodeLabel"><p>uuid</p></span></div></foreignObject></g><g class="label attribute-name" transform="translate(-37.77604166666667, -12)" style=""><foreignObject width="69.890625" height="24"><div xmlns="http://www.w3.org/1999/xhtml" style="display: table-cell; white-space: nowrap; line-height: 1.5; max-width: 170px; text-align: start;"><span class="nodeLabel"><p>tenant_id</p></span></div></foreignObject></g><g class="label attribute-keys" transform="translate(99.41666666666669, -12)" style=""><foreignObject width="17.28125" height="24"><div xmlns="http://www.w3.org/1999/xhtml" style="display: table-cell; white-space: nowrap; line-height: 1.5; max-width: 118px; text-align: start;"><span class="nodeLabel"><p>FK</p></span></div></foreignObject></g><g class="label attribute-comment" transform="translate(150.328125, -12)" style=""><foreignObject width="0" height="0"><div xmlns="http://www.w3.org/1999/xhtml" style="display: table-cell; white-space: nowrap; line-height: 1.5; max-width: 100px; text-align: start;"><span class="nodeLabel"></span></div></foreignObject></g><g class="label attribute-type" transform="translate(-125.328125, 30.75)" style=""><foreignObject width="53.921875" height="24"><div xmlns="http://www.w3.org/1999/xhtml" style="display: table-cell; white-space: nowrap; line-height: 1.5; max-width: 155px; text-align: start;"><span class="nodeLabel"><p>varchar</p></span></div></foreignObject></g><g class="label attribute-name" transform="translate(-37.77604166666667, 30.75)" style=""><foreignObject width="103.5625" height="24"><div xmlns="http://www.w3.org/1999/xhtml" style="display: table-cell; white-space: nowrap; line-height: 1.5; max-width: 204px; text-align: start;"><span class="nodeLabel"><p>email_domain</p></span></div></foreignObject></g><g class="label attribute-keys" transform="translate(99.41666666666669, 30.75)" style=""><foreignObject width="0" height="0"><div xmlns="http://www.w3.org/1999/xhtml" style="display: table-cell; white-space: nowrap; line-height: 1.5; max-width: 100px; text-align: start;"><span class="nodeLabel"></span></div></foreignObject></g><g class="label attribute-comment" transform="translate(150.328125, 30.75)" style=""><foreignObject width="0" height="0"><div xmlns="http://www.w3.org/1999/xhtml" style="display: table-cell; white-space: nowrap; line-height: 1.5; max-width: 100px; text-align: start;"><span class="nodeLabel"></span></div></foreignObject></g><g class="divider"><path d="M-137.828125 -21.375 C-60.187695587698386 -21.375, 17.45273382460323 -21.375, 137.828125 -21.375 M-137.828125 -21.375 C-48.4418177309621 -21.375, 40.9444895380758 -21.375, 137.828125 -21.375" stroke="#9370DB" stroke-width="1.3" fill="none" stroke-dasharray="0 0"></path></g><g class="divider"><path d="M-50.27604166666667 -21.375 C-50.27604166666667 -0.8988972280433103, -50.27604166666667 19.57720554391338, -50.27604166666667 64.125 M-50.27604166666667 -21.375 C-50.27604166666667 1.535723517056688, -50.27604166666667 24.446447034113376, -50.27604166666667 64.125" stroke="#9370DB" stroke-width="1.3" fill="none" stroke-dasharray="0 0"></path></g><g class="divider"><path d="M86.91666666666669 -21.375 C86.91666666666669 5.40665207725084, 86.91666666666669 32.18830415450168, 86.91666666666669 64.125 M86.91666666666669 -21.375 C86.91666666666669 1.9289257373048372, 86.91666666666669 25.232851474609674, 86.91666666666669 64.125" stroke="#9370DB" stroke-width="1.3" fill="none" stroke-dasharray="0 0"></path></g><g class="divider"><path d="M-137.828125 -21.375 C-51.51977266551873 -21.375, 34.78857966896254 -21.375, 137.828125 -21.375 M-137.828125 -21.375 C-45.67244295115674 -21.375, 46.48323909768652 -21.375, 137.828125 -21.375" stroke="#9370DB" stroke-width="1.3" fill="none" stroke-dasharray="0 0"></path></g></g></g></g></g></svg>