<svg id="container" width="1392.193359375" xmlns="http://www.w3.org/2000/svg" class="classDiagram" height="648" viewBox="0 0 1392.193359375 648" role="graphics-document document" aria-roledescription="class"><style>#container{font-family:"trebuchet ms",verdana,arial,sans-serif;font-size:16px;fill:#333;}@keyframes edge-animation-frame{from{stroke-dashoffset:0;}}@keyframes dash{to{stroke-dashoffset:0;}}#container .edge-animation-slow{stroke-dasharray:9,5!important;stroke-dashoffset:900;animation:dash 50s linear infinite;stroke-linecap:round;}#container .edge-animation-fast{stroke-dasharray:9,5!important;stroke-dashoffset:900;animation:dash 20s linear infinite;stroke-linecap:round;}#container .error-icon{fill:#552222;}#container .error-text{fill:#552222;stroke:#552222;}#container .edge-thickness-normal{stroke-width:1px;}#container .edge-thickness-thick{stroke-width:3.5px;}#container .edge-pattern-solid{stroke-dasharray:0;}#container .edge-thickness-invisible{stroke-width:0;fill:none;}#container .edge-pattern-dashed{stroke-dasharray:3;}#container .edge-pattern-dotted{stroke-dasharray:2;}#container .marker{fill:#333333;stroke:#333333;}#container .marker.cross{stroke:#333333;}#container svg{font-family:"trebuchet ms",verdana,arial,sans-serif;font-size:16px;}#container p{margin:0;}#container g.classGroup text{fill:#9370DB;stroke:none;font-family:"trebuchet ms",verdana,arial,sans-serif;font-size:10px;}#container g.classGroup text .title{font-weight:bolder;}#container .nodeLabel,#container .edgeLabel{color:#131300;}#container .edgeLabel .label rect{fill:#ECECFF;}#container .label text{fill:#131300;}#container .labelBkg{background:#ECECFF;}#container .edgeLabel .label span{background:#ECECFF;}#container .classTitle{font-weight:bolder;}#container .node rect,#container .node circle,#container .node ellipse,#container .node polygon,#container .node path{fill:#ECECFF;stroke:#9370DB;stroke-width:1px;}#container .divider{stroke:#9370DB;stroke-width:1;}#container g.clickable{cursor:pointer;}#container g.classGroup rect{fill:#ECECFF;stroke:#9370DB;}#container g.classGroup line{stroke:#9370DB;stroke-width:1;}#container .classLabel .box{stroke:none;stroke-width:0;fill:#ECECFF;opacity:0.5;}#container .classLabel .label{fill:#9370DB;font-size:10px;}#container .relation{stroke:#333333;stroke-width:1;fill:none;}#container .dashed-line{stroke-dasharray:3;}#container .dotted-line{stroke-dasharray:1 2;}#container #compositionStart,#container .composition{fill:#333333!important;stroke:#333333!important;stroke-width:1;}#container #compositionEnd,#container .composition{fill:#333333!important;stroke:#333333!important;stroke-width:1;}#container #dependencyStart,#container .dependency{fill:#333333!important;stroke:#333333!important;stroke-width:1;}#container #dependencyStart,#container .dependency{fill:#333333!important;stroke:#333333!important;stroke-width:1;}#container #extensionStart,#container .extension{fill:transparent!important;stroke:#333333!important;stroke-width:1;}#container #extensionEnd,#container .extension{fill:transparent!important;stroke:#333333!important;stroke-width:1;}#container #aggregationStart,#container .aggregation{fill:transparent!important;stroke:#333333!important;stroke-width:1;}#container #aggregationEnd,#container .aggregation{fill:transparent!important;stroke:#333333!important;stroke-width:1;}#container #lollipopStart,#container .lollipop{fill:#ECECFF!important;stroke:#333333!important;stroke-width:1;}#container #lollipopEnd,#container .lollipop{fill:#ECECFF!important;stroke:#333333!important;stroke-width:1;}#container .edgeTerminals{font-size:11px;line-height:initial;}#container .classTitleText{text-anchor:middle;font-size:18px;fill:#333;}#container .label-icon{display:inline-block;height:1em;overflow:visible;vertical-align:-0.125em;}#container .node .label-icon path{fill:currentColor;stroke:revert;stroke-width:revert;}#container :root{--mermaid-font-family:"trebuchet ms",verdana,arial,sans-serif;}</style><g><defs><marker id="container_class-aggregationStart" class="marker aggregation class" refX="18" refY="7" markerWidth="190" markerHeight="240" orient="auto"><path d="M 18,7 L9,13 L1,7 L9,1 Z"></path></marker></defs><defs><marker id="container_class-aggregationEnd" class="marker aggregation class" refX="1" refY="7" markerWidth="20" markerHeight="28" orient="auto"><path d="M 18,7 L9,13 L1,7 L9,1 Z"></path></marker></defs><defs><marker id="container_class-extensionStart" class="marker extension class" refX="18" refY="7" markerWidth="190" markerHeight="240" orient="auto"><path d="M 1,7 L18,13 V 1 Z"></path></marker></defs><defs><marker id="container_class-extensionEnd" class="marker extension class" refX="1" refY="7" markerWidth="20" markerHeight="28" orient="auto"><path d="M 1,1 V 13 L18,7 Z"></path></marker></defs><defs><marker id="container_class-compositionStart" class="marker composition class" refX="18" refY="7" markerWidth="190" markerHeight="240" orient="auto"><path d="M 18,7 L9,13 L1,7 L9,1 Z"></path></marker></defs><defs><marker id="container_class-compositionEnd" class="marker composition class" refX="1" refY="7" markerWidth="20" markerHeight="28" orient="auto"><path d="M 18,7 L9,13 L1,7 L9,1 Z"></path></marker></defs><defs><marker id="container_class-dependencyStart" class="marker dependency class" refX="6" refY="7" markerWidth="190" markerHeight="240" orient="auto"><path d="M 5,7 L9,13 L1,7 L9,1 Z"></path></marker></defs><defs><marker id="container_class-dependencyEnd" class="marker dependency class" refX="13" refY="7" markerWidth="20" markerHeight="28" orient="auto"><path d="M 18,7 L9,13 L14,7 L9,1 Z"></path></marker></defs><defs><marker id="container_class-lollipopStart" class="marker lollipop class" refX="13" refY="7" markerWidth="190" markerHeight="240" orient="auto"><circle stroke="black" fill="transparent" cx="7" cy="7" r="6"></circle></marker></defs><defs><marker id="container_class-lollipopEnd" class="marker lollipop class" refX="1" refY="7" markerWidth="190" markerHeight="240" orient="auto"><circle stroke="black" fill="transparent" cx="7" cy="7" r="6"></circle></marker></defs><g class="root"><g class="clusters"></g><g class="edgePaths"><path d="M669.369,200L652.08,208.167C634.791,216.333,600.213,232.667,582.924,242.125C565.635,251.583,565.635,254.167,565.635,255.458L565.635,256.75" id="id_UserProfileService_UserProfileUseCase_1" class="edge-thickness-normal edge-pattern-dashed relation" style=";;;" data-edge="true" data-et="edge" data-id="id_UserProfileService_UserProfileUseCase_1" data-points="W3sieCI6NjY5LjM2OTAzNzgyODk0NzQsInkiOjIwMH0seyJ4Ijo1NjUuNjM0NzY1NjI1LCJ5IjoyNDl9LHsieCI6NTY1LjYzNDc2NTYyNSwieSI6Mjc0fV0=" marker-end="url(#container_class-extensionEnd)"></path><path d="M1025.029,200L1042.318,208.167C1059.607,216.333,1094.186,232.667,1111.475,258C1128.764,283.333,1128.764,317.667,1128.764,334.833L1128.764,352" id="id_UserProfileService_UserProfileRepository_2" class="edge-thickness-normal edge-pattern-solid relation" style=";;;" data-edge="true" data-et="edge" data-id="id_UserProfileService_UserProfileRepository_2" data-points="W3sieCI6MTAyNS4wMjkzOTk2NzEwNTI3LCJ5IjoyMDB9LHsieCI6MTEyOC43NjM2NzE4NzUsInkiOjI0OX0seyJ4IjoxMTI4Ljc2MzY3MTg3NSwieSI6MzU4fV0=" marker-end="url(#container_class-dependencyEnd)"></path></g><g class="edgeLabels"><g class="edgeLabel"><g class="label" data-id="id_UserProfileService_UserProfileUseCase_1" transform="translate(0, 0)"><foreignObject width="0" height="0"><div xmlns="http://www.w3.org/1999/xhtml" class="labelBkg" style="display: table-cell; white-space: nowrap; line-height: 1.5; max-width: 200px; text-align: center;"><span class="edgeLabel"></span></div></foreignObject></g></g><g class="edgeLabel"><g class="label" data-id="id_UserProfileService_UserProfileRepository_2" transform="translate(0, 0)"><foreignObject width="0" height="0"><div xmlns="http://www.w3.org/1999/xhtml" class="labelBkg" style="display: table-cell; white-space: nowrap; line-height: 1.5; max-width: 200px; text-align: center;"><span class="edgeLabel"></span></div></foreignObject></g></g></g><g class="nodes"><g class="node default" id="classId-UserProfileUseCase-0" transform="translate(565.634765625, 457)"><g class="basic label-container"><path d="M-257.69921875 -183 L257.69921875 -183 L257.69921875 183 L-257.69921875 183" stroke="none" stroke-width="0" fill="#ECECFF" style=""></path><path d="M-257.69921875 -183 C-101.96361444334528 -183, 53.77198986330944 -183, 257.69921875 -183 M-257.69921875 -183 C-66.05073869666737 -183, 125.59774135666527 -183, 257.69921875 -183 M257.69921875 -183 C257.69921875 -91.34436063276677, 257.69921875 0.3112787344664696, 257.69921875 183 M257.69921875 -183 C257.69921875 -50.49761212288186, 257.69921875 82.00477575423628, 257.69921875 183 M257.69921875 183 C64.53339069455518 183, -128.63243736088964 183, -257.69921875 183 M257.69921875 183 C145.7112003508545 183, 33.72318195170902 183, -257.69921875 183 M-257.69921875 183 C-257.69921875 47.18357244652097, -257.69921875 -88.63285510695806, -257.69921875 -183 M-257.69921875 183 C-257.69921875 86.84224915148197, -257.69921875 -9.31550169703607, -257.69921875 -183" stroke="#9370DB" stroke-width="1.3" fill="none" stroke-dasharray="0 0" style=""></path></g><g class="annotation-group text" transform="translate(-41.015625, -159)"><g class="label" style="" transform="translate(0,-12)"><foreignObject width="82.03125" height="24"><div xmlns="http://www.w3.org/1999/xhtml" style="display: table-cell; white-space: nowrap; line-height: 1.5; max-width: 132px; text-align: center;"><span class="nodeLabel markdown-node-label" style=""><p>«interface»</p></span></div></foreignObject></g></g><g class="label-group text" transform="translate(-71.0390625, -135)"><g class="label" style="font-weight: bolder" transform="translate(0,-12)"><foreignObject width="142.078125" height="24"><div xmlns="http://www.w3.org/1999/xhtml" style="display: table-cell; white-space: nowrap; line-height: 1.5; max-width: 190px; text-align: center;"><span class="nodeLabel markdown-node-label" style=""><p>UserProfileUseCase</p></span></div></foreignObject></g></g><g class="members-group text" transform="translate(-245.69921875, -87)"></g><g class="methods-group text" transform="translate(-245.69921875, -57)"><g class="label" style="" transform="translate(0,-12)"><foreignObject width="282.796875" height="24"><div xmlns="http://www.w3.org/1999/xhtml" style="display: table-cell; white-space: nowrap; line-height: 1.5; max-width: 340px; text-align: center;"><span class="nodeLabel markdown-node-label" style=""><p>+syncFromOidc(command) : UserProfile</p></span></div></foreignObject></g><g class="label" style="" transform="translate(0,12)"><foreignObject width="307.125" height="24"><div xmlns="http://www.w3.org/1999/xhtml" style="display: table-cell; white-space: nowrap; line-height: 1.5; max-width: 364px; text-align: center;"><span class="nodeLabel markdown-node-label" style=""><p>+syncFromInternal(command) : UserProfile</p></span></div></foreignObject></g><g class="label" style="" transform="translate(0,36)"><foreignObject width="327.796875" height="24"><div xmlns="http://www.w3.org/1999/xhtml" style="display: table-cell; white-space: nowrap; line-height: 1.5; max-width: 385px; text-align: center;"><span class="nodeLabel markdown-node-label" style=""><p>+findByOidcSubject(oidcSubject) : UserProfile</p></span></div></foreignObject></g><g class="label" style="" transform="translate(0,60)"><foreignObject width="301.1875" height="24"><div xmlns="http://www.w3.org/1999/xhtml" style="display: table-cell; white-space: nowrap; line-height: 1.5; max-width: 359px; text-align: center;"><span class="nodeLabel markdown-node-label" style=""><p>+findByUsername(username) : UserProfile</p></span></div></foreignObject></g><g class="label" style="" transform="translate(0,84)"><foreignObject width="239" height="24"><div xmlns="http://www.w3.org/1999/xhtml" style="display: table-cell; white-space: nowrap; line-height: 1.5; max-width: 296px; text-align: center;"><span class="nodeLabel markdown-node-label" style=""><p>+approveUser(oidcSubject) : void</p></span></div></foreignObject></g><g class="label" style="" transform="translate(0,108)"><foreignObject width="221.0625" height="24"><div xmlns="http://www.w3.org/1999/xhtml" style="display: table-cell; white-space: nowrap; line-height: 1.5; max-width: 278px; text-align: center;"><span class="nodeLabel markdown-node-label" style=""><p>+rejectUser(oidcSubject) : void</p></span></div></foreignObject></g><g class="label" style="" transform="translate(0,132)"><foreignObject width="307.6875" height="24"><div xmlns="http://www.w3.org/1999/xhtml" style="display: table-cell; white-space: nowrap; line-height: 1.5; max-width: 365px; text-align: center;"><span class="nodeLabel markdown-node-label" style=""><p>+assignGlobalRole(oidcSubject, role) : void</p></span></div></foreignObject></g><g class="label" style="" transform="translate(0,156)"><foreignObject width="316.328125" height="24"><div xmlns="http://www.w3.org/1999/xhtml" style="display: table-cell; white-space: nowrap; line-height: 1.5; max-width: 374px; text-align: center;"><span class="nodeLabel markdown-node-label" style=""><p>+removeGlobalRole(oidcSubject, role) : void</p></span></div></foreignObject></g><g class="label" style="" transform="translate(0,180)"><foreignObject width="420.359375" height="24"><div xmlns="http://www.w3.org/1999/xhtml" style="display: table-cell; white-space: nowrap; line-height: 1.5; max-width: 478px; text-align: center;"><span class="nodeLabel markdown-node-label" style=""><p>+addTenantMembership(oidcSubject, tenantId, role) : void</p></span></div></foreignObject></g><g class="label" style="" transform="translate(0,204)"><foreignObject width="410.25" height="24"><div xmlns="http://www.w3.org/1999/xhtml" style="display: table-cell; white-space: nowrap; line-height: 1.5; max-width: 468px; text-align: center;"><span class="nodeLabel markdown-node-label" style=""><p>+removeTenantMembership(oidcSubject, tenantId) : void</p></span></div></foreignObject></g></g><g class="divider" style=""><path d="M-257.69921875 -111 C-100.47082088274814 -111, 56.757576984503714 -111, 257.69921875 -111 M-257.69921875 -111 C-114.45317081940036 -111, 28.79287711119929 -111, 257.69921875 -111" stroke="#9370DB" stroke-width="1.3" fill="none" stroke-dasharray="0 0" style=""></path></g><g class="divider" style=""><path d="M-257.69921875 -87 C-63.588627058994035 -87, 130.52196463201193 -87, 257.69921875 -87 M-257.69921875 -87 C-151.12979848022582 -87, -44.56037821045166 -87, 257.69921875 -87" stroke="#9370DB" stroke-width="1.3" fill="none" stroke-dasharray="0 0" style=""></path></g></g><g class="node default" id="classId-SyncUserCommand-1" transform="translate(140.76953125, 116)"><g class="basic label-container"><path d="M-132.76953125 -108 L132.76953125 -108 L132.76953125 108 L-132.76953125 108" stroke="none" stroke-width="0" fill="#ECECFF" style=""></path><path d="M-132.76953125 -108 C-77.27610081712189 -108, -21.782670384243787 -108, 132.76953125 -108 M-132.76953125 -108 C-57.95691687282296 -108, 16.855697504354083 -108, 132.76953125 -108 M132.76953125 -108 C132.76953125 -55.41105100246902, 132.76953125 -2.8221020049380456, 132.76953125 108 M132.76953125 -108 C132.76953125 -55.417331471044776, 132.76953125 -2.834662942089551, 132.76953125 108 M132.76953125 108 C53.644857040865915 108, -25.47981716826817 108, -132.76953125 108 M132.76953125 108 C57.452103137147105 108, -17.86532497570579 108, -132.76953125 108 M-132.76953125 108 C-132.76953125 35.84341790968122, -132.76953125 -36.31316418063756, -132.76953125 -108 M-132.76953125 108 C-132.76953125 52.46073757365769, -132.76953125 -3.078524852684623, -132.76953125 -108" stroke="#9370DB" stroke-width="1.3" fill="none" stroke-dasharray="0 0" style=""></path></g><g class="annotation-group text" transform="translate(-32.3046875, -84)"><g class="label" style="" transform="translate(0,-12)"><foreignObject width="64.609375" height="24"><div xmlns="http://www.w3.org/1999/xhtml" style="display: table-cell; white-space: nowrap; line-height: 1.5; max-width: 115px; text-align: center;"><span class="nodeLabel markdown-node-label" style=""><p>«record»</p></span></div></foreignObject></g></g><g class="label-group text" transform="translate(-70.1796875, -60)"><g class="label" style="font-weight: bolder" transform="translate(0,-12)"><foreignObject width="140.359375" height="24"><div xmlns="http://www.w3.org/1999/xhtml" style="display: table-cell; white-space: nowrap; line-height: 1.5; max-width: 189px; text-align: center;"><span class="nodeLabel markdown-node-label" style=""><p>SyncUserCommand</p></span></div></foreignObject></g></g><g class="members-group text" transform="translate(-120.76953125, -12)"><g class="label" style="" transform="translate(0,-12)"><foreignObject width="132.359375" height="24"><div xmlns="http://www.w3.org/1999/xhtml" style="display: table-cell; white-space: nowrap; line-height: 1.5; max-width: 183px; text-align: center;"><span class="nodeLabel markdown-node-label" style=""><p>String oidcSubject</p></span></div></foreignObject></g><g class="label" style="" transform="translate(0,12)"><foreignObject width="87.46875" height="24"><div xmlns="http://www.w3.org/1999/xhtml" style="display: table-cell; white-space: nowrap; line-height: 1.5; max-width: 138px; text-align: center;"><span class="nodeLabel markdown-node-label" style=""><p>String email</p></span></div></foreignObject></g><g class="label" style="" transform="translate(0,36)"><foreignObject width="141.1875" height="24"><div xmlns="http://www.w3.org/1999/xhtml" style="display: table-cell; white-space: nowrap; line-height: 1.5; max-width: 191px; text-align: center;"><span class="nodeLabel markdown-node-label" style=""><p>String displayName</p></span></div></foreignObject></g><g class="label" style="" transform="translate(0,60)"><foreignObject width="171.359375" height="24"><div xmlns="http://www.w3.org/1999/xhtml" style="display: table-cell; white-space: nowrap; line-height: 1.5; max-width: 261px; text-align: center;"><span class="nodeLabel markdown-node-label" style=""><p>List&lt;String&gt; oidcGroups</p></span></div></foreignObject></g></g><g class="methods-group text" transform="translate(-120.76953125, 108)"></g><g class="divider" style=""><path d="M-132.76953125 -36 C-38.52367435446956 -36, 55.722182541060874 -36, 132.76953125 -36 M-132.76953125 -36 C-67.41653845155012 -36, -2.063545653100249 -36, 132.76953125 -36" stroke="#9370DB" stroke-width="1.3" fill="none" stroke-dasharray="0 0" style=""></path></g><g class="divider" style=""><path d="M-132.76953125 84 C-35.83857318521727 84, 61.09238487956546 84, 132.76953125 84 M-132.76953125 84 C-59.15010972912252 84, 14.469311791754961 84, 132.76953125 84" stroke="#9370DB" stroke-width="1.3" fill="none" stroke-dasharray="0 0" style=""></path></g></g><g class="node default" id="classId-SyncInternalUserCommand-2" transform="translate(455.63671875, 116)"><g class="basic label-container"><path d="M-132.09765625 -96 L132.09765625 -96 L132.09765625 96 L-132.09765625 96" stroke="none" stroke-width="0" fill="#ECECFF" style=""></path><path d="M-132.09765625 -96 C-70.38432460180303 -96, -8.67099295360606 -96, 132.09765625 -96 M-132.09765625 -96 C-53.50629438499516 -96, 25.085067480009684 -96, 132.09765625 -96 M132.09765625 -96 C132.09765625 -43.79026121611314, 132.09765625 8.419477567773725, 132.09765625 96 M132.09765625 -96 C132.09765625 -29.75355073295475, 132.09765625 36.4928985340905, 132.09765625 96 M132.09765625 96 C79.14774882121714 96, 26.19784139243427 96, -132.09765625 96 M132.09765625 96 C72.9583310074652 96, 13.81900576493041 96, -132.09765625 96 M-132.09765625 96 C-132.09765625 20.02204177011339, -132.09765625 -55.95591645977322, -132.09765625 -96 M-132.09765625 96 C-132.09765625 52.22638539750819, -132.09765625 8.452770795016377, -132.09765625 -96" stroke="#9370DB" stroke-width="1.3" fill="none" stroke-dasharray="0 0" style=""></path></g><g class="annotation-group text" transform="translate(-32.3046875, -72)"><g class="label" style="" transform="translate(0,-12)"><foreignObject width="64.609375" height="24"><div xmlns="http://www.w3.org/1999/xhtml" style="display: table-cell; white-space: nowrap; line-height: 1.5; max-width: 115px; text-align: center;"><span class="nodeLabel markdown-node-label" style=""><p>«record»</p></span></div></foreignObject></g></g><g class="label-group text" transform="translate(-99.0078125, -48)"><g class="label" style="font-weight: bolder" transform="translate(0,-12)"><foreignObject width="198.015625" height="24"><div xmlns="http://www.w3.org/1999/xhtml" style="display: table-cell; white-space: nowrap; line-height: 1.5; max-width: 247px; text-align: center;"><span class="nodeLabel markdown-node-label" style=""><p>SyncInternalUserCommand</p></span></div></foreignObject></g></g><g class="members-group text" transform="translate(-120.09765625, 0)"><g class="label" style="" transform="translate(0,-12)"><foreignObject width="119.3125" height="24"><div xmlns="http://www.w3.org/1999/xhtml" style="display: table-cell; white-space: nowrap; line-height: 1.5; max-width: 169px; text-align: center;"><span class="nodeLabel markdown-node-label" style=""><p>String username</p></span></div></foreignObject></g><g class="label" style="" transform="translate(0,12)"><foreignObject width="87.46875" height="24"><div xmlns="http://www.w3.org/1999/xhtml" style="display: table-cell; white-space: nowrap; line-height: 1.5; max-width: 138px; text-align: center;"><span class="nodeLabel markdown-node-label" style=""><p>String email</p></span></div></foreignObject></g><g class="label" style="" transform="translate(0,36)"><foreignObject width="141.1875" height="24"><div xmlns="http://www.w3.org/1999/xhtml" style="display: table-cell; white-space: nowrap; line-height: 1.5; max-width: 191px; text-align: center;"><span class="nodeLabel markdown-node-label" style=""><p>String displayName</p></span></div></foreignObject></g></g><g class="methods-group text" transform="translate(-120.09765625, 96)"></g><g class="divider" style=""><path d="M-132.09765625 -24 C-74.05137399774418 -24, -16.005091745488357 -24, 132.09765625 -24 M-132.09765625 -24 C-60.599982036262816 -24, 10.897692177474369 -24, 132.09765625 -24" stroke="#9370DB" stroke-width="1.3" fill="none" stroke-dasharray="0 0" style=""></path></g><g class="divider" style=""><path d="M-132.09765625 72 C-77.01717625671625 72, -21.93669626343251 72, 132.09765625 72 M-132.09765625 72 C-36.33643549784979 72, 59.42478525430042 72, 132.09765625 72" stroke="#9370DB" stroke-width="1.3" fill="none" stroke-dasharray="0 0" style=""></path></g></g><g class="node default" id="classId-UserProfileRepository-3" transform="translate(1128.763671875, 457)"><g class="basic label-container"><path d="M-255.4296875 -99 L255.4296875 -99 L255.4296875 99 L-255.4296875 99" stroke="none" stroke-width="0" fill="#ECECFF" style=""></path><path d="M-255.4296875 -99 C-139.98550399663418 -99, -24.541320493268387 -99, 255.4296875 -99 M-255.4296875 -99 C-102.84127316229271 -99, 49.74714117541458 -99, 255.4296875 -99 M255.4296875 -99 C255.4296875 -44.66235668758975, 255.4296875 9.675286624820501, 255.4296875 99 M255.4296875 -99 C255.4296875 -24.83310516911385, 255.4296875 49.3337896617723, 255.4296875 99 M255.4296875 99 C128.25748412770315 99, 1.0852807554063304 99, -255.4296875 99 M255.4296875 99 C120.62568630531527 99, -14.17831488936946 99, -255.4296875 99 M-255.4296875 99 C-255.4296875 52.83155255607734, -255.4296875 6.663105112154682, -255.4296875 -99 M-255.4296875 99 C-255.4296875 52.15997529879715, -255.4296875 5.3199505975943, -255.4296875 -99" stroke="#9370DB" stroke-width="1.3" fill="none" stroke-dasharray="0 0" style=""></path></g><g class="annotation-group text" transform="translate(-41.015625, -75)"><g class="label" style="" transform="translate(0,-12)"><foreignObject width="82.03125" height="24"><div xmlns="http://www.w3.org/1999/xhtml" style="display: table-cell; white-space: nowrap; line-height: 1.5; max-width: 132px; text-align: center;"><span class="nodeLabel markdown-node-label" style=""><p>«interface»</p></span></div></foreignObject></g></g><g class="label-group text" transform="translate(-80.25, -51)"><g class="label" style="font-weight: bolder" transform="translate(0,-12)"><foreignObject width="160.5" height="24"><div xmlns="http://www.w3.org/1999/xhtml" style="display: table-cell; white-space: nowrap; line-height: 1.5; max-width: 207px; text-align: center;"><span class="nodeLabel markdown-node-label" style=""><p>UserProfileRepository</p></span></div></foreignObject></g></g><g class="members-group text" transform="translate(-243.4296875, -3)"></g><g class="methods-group text" transform="translate(-243.4296875, 27)"><g class="label" style="" transform="translate(0,-12)"><foreignObject width="220.625" height="24"><div xmlns="http://www.w3.org/1999/xhtml" style="display: table-cell; white-space: nowrap; line-height: 1.5; max-width: 278px; text-align: center;"><span class="nodeLabel markdown-node-label" style=""><p>+save(userProfile) : UserProfile</p></span></div></foreignObject></g><g class="label" style="" transform="translate(0,12)"><foreignObject width="406.609375" height="24"><div xmlns="http://www.w3.org/1999/xhtml" style="display: table-cell; white-space: nowrap; line-height: 1.5; max-width: 504px; text-align: center;"><span class="nodeLabel markdown-node-label" style=""><p>+findByOidcSubject(oidcSubject) : Optional&lt;UserProfile&gt;</p></span></div></foreignObject></g><g class="label" style="" transform="translate(0,36)"><foreignObject width="321.484375" height="24"><div xmlns="http://www.w3.org/1999/xhtml" style="display: table-cell; white-space: nowrap; line-height: 1.5; max-width: 379px; text-align: center;"><span class="nodeLabel markdown-node-label" style=""><p>+existsByOidcSubject(oidcSubject) : boolean</p></span></div></foreignObject></g></g><g class="divider" style=""><path d="M-255.4296875 -27 C-129.57828761484336 -27, -3.7268877296867515 -27, 255.4296875 -27 M-255.4296875 -27 C-111.91253928475987 -27, 31.604608930480254 -27, 255.4296875 -27" stroke="#9370DB" stroke-width="1.3" fill="none" stroke-dasharray="0 0" style=""></path></g><g class="divider" style=""><path d="M-255.4296875 -3 C-65.00758849136372 -3, 125.41451051727256 -3, 255.4296875 -3 M-255.4296875 -3 C-100.37421763068949 -3, 54.68125223862103 -3, 255.4296875 -3" stroke="#9370DB" stroke-width="1.3" fill="none" stroke-dasharray="0 0" style=""></path></g></g><g class="node default" id="classId-UserProfileService-4" transform="translate(847.19921875, 116)"><g class="basic label-container"><path d="M-209.46484375 -84 L209.46484375 -84 L209.46484375 84 L-209.46484375 84" stroke="none" stroke-width="0" fill="#ECECFF" style=""></path><path d="M-209.46484375 -84 C-45.41905829123533 -84, 118.62672716752934 -84, 209.46484375 -84 M-209.46484375 -84 C-124.21597390074284 -84, -38.96710405148568 -84, 209.46484375 -84 M209.46484375 -84 C209.46484375 -17.55808393005212, 209.46484375 48.88383213989576, 209.46484375 84 M209.46484375 -84 C209.46484375 -29.058203720097914, 209.46484375 25.88359255980417, 209.46484375 84 M209.46484375 84 C104.9476557274325 84, 0.4304677048650092 84, -209.46484375 84 M209.46484375 84 C86.24038835105513 84, -36.98406704788974 84, -209.46484375 84 M-209.46484375 84 C-209.46484375 48.79888296425889, -209.46484375 13.597765928517774, -209.46484375 -84 M-209.46484375 84 C-209.46484375 43.24693167538376, -209.46484375 2.4938633507675263, -209.46484375 -84" stroke="#9370DB" stroke-width="1.3" fill="none" stroke-dasharray="0 0" style=""></path></g><g class="annotation-group text" transform="translate(0, -60)"></g><g class="label-group text" transform="translate(-67.1328125, -60)"><g class="label" style="font-weight: bolder" transform="translate(0,-12)"><foreignObject width="134.265625" height="24"><div xmlns="http://www.w3.org/1999/xhtml" style="display: table-cell; white-space: nowrap; line-height: 1.5; max-width: 181px; text-align: center;"><span class="nodeLabel markdown-node-label" style=""><p>UserProfileService</p></span></div></foreignObject></g></g><g class="members-group text" transform="translate(-197.46484375, -12)"><g class="label" style="" transform="translate(0,-12)"><foreignObject width="242.21875" height="24"><div xmlns="http://www.w3.org/1999/xhtml" style="display: table-cell; white-space: nowrap; line-height: 1.5; max-width: 300px; text-align: center;"><span class="nodeLabel markdown-node-label" style=""><p>-UserProfileRepository repository</p></span></div></foreignObject></g></g><g class="methods-group text" transform="translate(-197.46484375, 36)"><g class="label" style="" transform="translate(0,-12)"><foreignObject width="282.796875" height="24"><div xmlns="http://www.w3.org/1999/xhtml" style="display: table-cell; white-space: nowrap; line-height: 1.5; max-width: 340px; text-align: center;"><span class="nodeLabel markdown-node-label" style=""><p>+syncFromOidc(command) : UserProfile</p></span></div></foreignObject></g><g class="label" style="" transform="translate(0,12)"><foreignObject width="327.796875" height="24"><div xmlns="http://www.w3.org/1999/xhtml" style="display: table-cell; white-space: nowrap; line-height: 1.5; max-width: 385px; text-align: center;"><span class="nodeLabel markdown-node-label" style=""><p>+findByOidcSubject(oidcSubject) : UserProfile</p></span></div></foreignObject></g></g><g class="divider" style=""><path d="M-209.46484375 -36 C-52.87032640153518 -36, 103.72419094692964 -36, 209.46484375 -36 M-209.46484375 -36 C-104.78579440977829 -36, -0.10674506955658103 -36, 209.46484375 -36" stroke="#9370DB" stroke-width="1.3" fill="none" stroke-dasharray="0 0" style=""></path></g><g class="divider" style=""><path d="M-209.46484375 12 C-81.55478255442087 12, 46.355278641158264 12, 209.46484375 12 M-209.46484375 12 C-61.93750077756587 12, 85.58984219486825 12, 209.46484375 12" stroke="#9370DB" stroke-width="1.3" fill="none" stroke-dasharray="0 0" style=""></path></g></g></g></g></g></svg>