<svg id="container" width="900.9609375" xmlns="http://www.w3.org/2000/svg" class="classDiagram" height="494" viewBox="0 0 900.9609375 494" role="graphics-document document" aria-roledescription="class"><style>#container{font-family:"trebuchet ms",verdana,arial,sans-serif;font-size:16px;fill:#333;}@keyframes edge-animation-frame{from{stroke-dashoffset:0;}}@keyframes dash{to{stroke-dashoffset:0;}}#container .edge-animation-slow{stroke-dasharray:9,5!important;stroke-dashoffset:900;animation:dash 50s linear infinite;stroke-linecap:round;}#container .edge-animation-fast{stroke-dasharray:9,5!important;stroke-dashoffset:900;animation:dash 20s linear infinite;stroke-linecap:round;}#container .error-icon{fill:#552222;}#container .error-text{fill:#552222;stroke:#552222;}#container .edge-thickness-normal{stroke-width:1px;}#container .edge-thickness-thick{stroke-width:3.5px;}#container .edge-pattern-solid{stroke-dasharray:0;}#container .edge-thickness-invisible{stroke-width:0;fill:none;}#container .edge-pattern-dashed{stroke-dasharray:3;}#container .edge-pattern-dotted{stroke-dasharray:2;}#container .marker{fill:#333333;stroke:#333333;}#container .marker.cross{stroke:#333333;}#container svg{font-family:"trebuchet ms",verdana,arial,sans-serif;font-size:16px;}#container p{margin:0;}#container g.classGroup text{fill:#9370DB;stroke:none;font-family:"trebuchet ms",verdana,arial,sans-serif;font-size:10px;}#container g.classGroup text .title{font-weight:bolder;}#container .nodeLabel,#container .edgeLabel{color:#131300;}#container .edgeLabel .label rect{fill:#ECECFF;}#container .label text{fill:#131300;}#container .labelBkg{background:#ECECFF;}#container .edgeLabel .label span{background:#ECECFF;}#container .classTitle{font-weight:bolder;}#container .node rect,#container .node circle,#container .node ellipse,#container .node polygon,#container .node path{fill:#ECECFF;stroke:#9370DB;stroke-width:1px;}#container .divider{stroke:#9370DB;stroke-width:1;}#container g.clickable{cursor:pointer;}#container g.classGroup rect{fill:#ECECFF;stroke:#9370DB;}#container g.classGroup line{stroke:#9370DB;stroke-width:1;}#container .classLabel .box{stroke:none;stroke-width:0;fill:#ECECFF;opacity:0.5;}#container .classLabel .label{fill:#9370DB;font-size:10px;}#container .relation{stroke:#333333;stroke-width:1;fill:none;}#container .dashed-line{stroke-dasharray:3;}#container .dotted-line{stroke-dasharray:1 2;}#container #compositionStart,#container .composition{fill:#333333!important;stroke:#333333!important;stroke-width:1;}#container #compositionEnd,#container .composition{fill:#333333!important;stroke:#333333!important;stroke-width:1;}#container #dependencyStart,#container .dependency{fill:#333333!important;stroke:#333333!important;stroke-width:1;}#container #dependencyStart,#container .dependency{fill:#333333!important;stroke:#333333!important;stroke-width:1;}#container #extensionStart,#container .extension{fill:transparent!important;stroke:#333333!important;stroke-width:1;}#container #extensionEnd,#container .extension{fill:transparent!important;stroke:#333333!important;stroke-width:1;}#container #aggregationStart,#container .aggregation{fill:transparent!important;stroke:#333333!important;stroke-width:1;}#container #aggregationEnd,#container .aggregation{fill:transparent!important;stroke:#333333!important;stroke-width:1;}#container #lollipopStart,#container .lollipop{fill:#ECECFF!important;stroke:#333333!important;stroke-width:1;}#container #lollipopEnd,#container .lollipop{fill:#ECECFF!important;stroke:#333333!important;stroke-width:1;}#container .edgeTerminals{font-size:11px;line-height:initial;}#container .classTitleText{text-anchor:middle;font-size:18px;fill:#333;}#container .label-icon{display:inline-block;height:1em;overflow:visible;vertical-align:-0.125em;}#container .node .label-icon path{fill:currentColor;stroke:revert;stroke-width:revert;}#container :root{--mermaid-font-family:"trebuchet ms",verdana,arial,sans-serif;}</style><g><defs><marker id="container_class-aggregationStart" class="marker aggregation class" refX="18" refY="7" markerWidth="190" markerHeight="240" orient="auto"><path d="M 18,7 L9,13 L1,7 L9,1 Z"></path></marker></defs><defs><marker id="container_class-aggregationEnd" class="marker aggregation class" refX="1" refY="7" markerWidth="20" markerHeight="28" orient="auto"><path d="M 18,7 L9,13 L1,7 L9,1 Z"></path></marker></defs><defs><marker id="container_class-extensionStart" class="marker extension class" refX="18" refY="7" markerWidth="190" markerHeight="240" orient="auto"><path d="M 1,7 L18,13 V 1 Z"></path></marker></defs><defs><marker id="container_class-extensionEnd" class="marker extension class" refX="1" refY="7" markerWidth="20" markerHeight="28" orient="auto"><path d="M 1,1 V 13 L18,7 Z"></path></marker></defs><defs><marker id="container_class-compositionStart" class="marker composition class" refX="18" refY="7" markerWidth="190" markerHeight="240" orient="auto"><path d="M 18,7 L9,13 L1,7 L9,1 Z"></path></marker></defs><defs><marker id="container_class-compositionEnd" class="marker composition class" refX="1" refY="7" markerWidth="20" markerHeight="28" orient="auto"><path d="M 18,7 L9,13 L1,7 L9,1 Z"></path></marker></defs><defs><marker id="container_class-dependencyStart" class="marker dependency class" refX="6" refY="7" markerWidth="190" markerHeight="240" orient="auto"><path d="M 5,7 L9,13 L1,7 L9,1 Z"></path></marker></defs><defs><marker id="container_class-dependencyEnd" class="marker dependency class" refX="13" refY="7" markerWidth="20" markerHeight="28" orient="auto"><path d="M 18,7 L9,13 L14,7 L9,1 Z"></path></marker></defs><defs><marker id="container_class-lollipopStart" class="marker lollipop class" refX="13" refY="7" markerWidth="190" markerHeight="240" orient="auto"><circle stroke="black" fill="transparent" cx="7" cy="7" r="6"></circle></marker></defs><defs><marker id="container_class-lollipopEnd" class="marker lollipop class" refX="1" refY="7" markerWidth="190" markerHeight="240" orient="auto"><circle stroke="black" fill="transparent" cx="7" cy="7" r="6"></circle></marker></defs><g class="root"><g class="clusters"></g><g class="edgePaths"><path d="M650.379,44L650.379,48.167C650.379,52.333,650.379,60.667,650.379,69C650.379,77.333,650.379,85.667,650.379,89.833L650.379,94" id="edgeNote1" class="edge-thickness-normal edge-pattern-dotted relation" style="fill: none;;;fill: none" data-edge="true" data-et="edge" data-id="edgeNote1" data-points="W3sieCI6NjUwLjM3ODkwNjI1LCJ5Ijo0NH0seyJ4Ijo2NTAuMzc4OTA2MjUsInkiOjY5fSx7IngiOjY1MC4zNzg5MDYyNSwieSI6OTR9XQ=="></path><path d="M182.898,199L182.898,216.667C182.898,234.333,182.898,269.667,185.232,293.5C187.565,317.333,192.232,329.667,194.565,335.833L196.898,342" id="edgeNote2" class="edge-thickness-normal edge-pattern-dotted relation" style="fill: none;;;fill: none" data-edge="true" data-et="edge" data-id="edgeNote2" data-points="W3sieCI6MTgyLjg5ODQzNzUsInkiOjE5OX0seyJ4IjoxODIuODk4NDM3NSwieSI6MzA1fSx7IngiOjE5Ni44OTgwNzkxMjg0NDAzNywieSI6MzQyfV0="></path><path d="M515.32,268L505.747,274.167C496.173,280.333,477.027,292.667,446.952,308.394C416.878,324.121,375.875,343.242,355.373,352.802L334.871,362.363" id="id_SecurityConfiguration_AdminProperties_1" class="edge-thickness-normal edge-pattern-solid relation" style=";;;" data-edge="true" data-et="edge" data-id="id_SecurityConfiguration_AdminProperties_1" data-points="W3sieCI6NTE1LjMxOTc5MjcxNjczMzksInkiOjI2OH0seyJ4Ijo0NTcuODgwODU5Mzc1LCJ5IjozMDV9LHsieCI6MzI5LjQzMzU5Mzc1LCJ5IjozNjQuODk4NzY3NDk1Mjk5NzV9XQ==" marker-end="url(#container_class-dependencyEnd)"></path><path d="M692.402,268L695.38,274.167C698.359,280.333,704.316,292.667,707.295,309C710.273,325.333,710.273,345.667,710.273,355.833L710.273,366" id="id_SecurityConfiguration_SecurityFilterChain_2" class="edge-thickness-normal edge-pattern-solid relation" style=";;;" data-edge="true" data-et="edge" data-id="id_SecurityConfiguration_SecurityFilterChain_2" data-points="W3sieCI6NjkyLjQwMTY4MjIwNzY2MTMsInkiOjI2OH0seyJ4Ijo3MTAuMjczNDM3NSwieSI6MzA1fSx7IngiOjcxMC4yNzM0Mzc1LCJ5IjozNzJ9XQ==" marker-end="url(#container_class-dependencyEnd)"></path></g><g class="edgeLabels"><g class="edgeLabel"><g class="label" data-id="edgeNote1" transform="translate(0, 0)"><foreignObject width="0" height="0"><div xmlns="http://www.w3.org/1999/xhtml" class="labelBkg" style="display: table-cell; white-space: nowrap; line-height: 1.5; max-width: 200px; text-align: center;"><span class="edgeLabel"></span></div></foreignObject></g></g><g class="edgeLabel"><g class="label" data-id="edgeNote2" transform="translate(0, 0)"><foreignObject width="0" height="0"><div xmlns="http://www.w3.org/1999/xhtml" class="labelBkg" style="display: table-cell; white-space: nowrap; line-height: 1.5; max-width: 200px; text-align: center;"><span class="edgeLabel"></span></div></foreignObject></g></g><g class="edgeLabel" transform="translate(424.61846, 320.51124)"><g class="label" data-id="id_SecurityConfiguration_AdminProperties_1" transform="translate(-62.484375, -12)"><foreignObject width="124.96875" height="24"><div xmlns="http://www.w3.org/1999/xhtml" class="labelBkg" style="display: table-cell; white-space: nowrap; line-height: 1.5; max-width: 200px; text-align: center;"><span class="edgeLabel"><p>reads credentials</p></span></div></foreignObject></g></g><g class="edgeLabel" transform="translate(710.2734375, 305)"><g class="label" data-id="id_SecurityConfiguration_SecurityFilterChain_2" transform="translate(-37.3046875, -12)"><foreignObject width="74.609375" height="24"><div xmlns="http://www.w3.org/1999/xhtml" class="labelBkg" style="display: table-cell; white-space: nowrap; line-height: 1.5; max-width: 200px; text-align: center;"><span class="edgeLabel"><p>configures</p></span></div></foreignObject></g></g></g><g class="nodes"><g class="node default" id="classId-SecurityConfiguration-0" transform="translate(650.37890625, 181)"><g class="basic label-container"><path d="M-242.58203125 -87 L242.58203125 -87 L242.58203125 87 L-242.58203125 87" stroke="none" stroke-width="0" fill="#ECECFF" style=""></path><path d="M-242.58203125 -87 C-81.87313037072454 -87, 78.83577050855092 -87, 242.58203125 -87 M-242.58203125 -87 C-71.14633591375366 -87, 100.28935942249268 -87, 242.58203125 -87 M242.58203125 -87 C242.58203125 -44.14666725522108, 242.58203125 -1.2933345104421647, 242.58203125 87 M242.58203125 -87 C242.58203125 -26.015575372020898, 242.58203125 34.968849255958204, 242.58203125 87 M242.58203125 87 C60.33653143334689 87, -121.90896838330622 87, -242.58203125 87 M242.58203125 87 C63.93297530428791 87, -114.71608064142418 87, -242.58203125 87 M-242.58203125 87 C-242.58203125 51.93199969474978, -242.58203125 16.863999389499554, -242.58203125 -87 M-242.58203125 87 C-242.58203125 20.522103158647027, -242.58203125 -45.955793682705945, -242.58203125 -87" stroke="#9370DB" stroke-width="1.3" fill="none" stroke-dasharray="0 0" style=""></path></g><g class="annotation-group text" transform="translate(0, -63)"></g><g class="label-group text" transform="translate(-79.3515625, -63)"><g class="label" style="font-weight: bolder" transform="translate(0,-12)"><foreignObject width="158.703125" height="24"><div xmlns="http://www.w3.org/1999/xhtml" style="display: table-cell; white-space: nowrap; line-height: 1.5; max-width: 206px; text-align: center;"><span class="nodeLabel markdown-node-label" style=""><p>SecurityConfiguration</p></span></div></foreignObject></g></g><g class="members-group text" transform="translate(-230.58203125, -15)"></g><g class="methods-group text" transform="translate(-230.58203125, 15)"><g class="label" style="" transform="translate(0,-12)"><foreignObject width="332.25" height="24"><div xmlns="http://www.w3.org/1999/xhtml" style="display: table-cell; white-space: nowrap; line-height: 1.5; max-width: 390px; text-align: center;"><span class="nodeLabel markdown-node-label" style=""><p>+securityFilterChain(http) : SecurityFilterChain</p></span></div></foreignObject></g><g class="label" style="" transform="translate(0,12)"><foreignObject width="381.8125" height="24"><div xmlns="http://www.w3.org/1999/xhtml" style="display: table-cell; white-space: nowrap; line-height: 1.5; max-width: 440px; text-align: center;"><span class="nodeLabel markdown-node-label" style=""><p>+userDetailsService() : InMemoryUserDetailsManager</p></span></div></foreignObject></g><g class="label" style="" transform="translate(0,36)"><foreignObject width="284.859375" height="24"><div xmlns="http://www.w3.org/1999/xhtml" style="display: table-cell; white-space: nowrap; line-height: 1.5; max-width: 343px; text-align: center;"><span class="nodeLabel markdown-node-label" style=""><p>+passwordEncoder() : PasswordEncoder</p></span></div></foreignObject></g></g><g class="divider" style=""><path d="M-242.58203125 -39 C-109.47850512438282 -39, 23.62502100123436 -39, 242.58203125 -39 M-242.58203125 -39 C-97.19357716410329 -39, 48.19487692179342 -39, 242.58203125 -39" stroke="#9370DB" stroke-width="1.3" fill="none" stroke-dasharray="0 0" style=""></path></g><g class="divider" style=""><path d="M-242.58203125 -15 C-115.21314665994264 -15, 12.155737930114725 -15, 242.58203125 -15 M-242.58203125 -15 C-109.08534416745164 -15, 24.411342915096725 -15, 242.58203125 -15" stroke="#9370DB" stroke-width="1.3" fill="none" stroke-dasharray="0 0" style=""></path></g></g><g class="node default" id="classId-AdminProperties-1" transform="translate(224.140625, 414)"><g class="basic label-container"><path d="M-105.29296875 -72 L105.29296875 -72 L105.29296875 72 L-105.29296875 72" stroke="none" stroke-width="0" fill="#ECECFF" style=""></path><path d="M-105.29296875 -72 C-54.480058694155524 -72, -3.6671486383110476 -72, 105.29296875 -72 M-105.29296875 -72 C-39.077202355619704 -72, 27.13856403876059 -72, 105.29296875 -72 M105.29296875 -72 C105.29296875 -33.51109420639266, 105.29296875 4.977811587214674, 105.29296875 72 M105.29296875 -72 C105.29296875 -42.869832353291926, 105.29296875 -13.739664706583852, 105.29296875 72 M105.29296875 72 C32.87368597902285 72, -39.545596791954296 72, -105.29296875 72 M105.29296875 72 C53.37531198005611 72, 1.4576552101122218 72, -105.29296875 72 M-105.29296875 72 C-105.29296875 18.59788086885314, -105.29296875 -34.80423826229372, -105.29296875 -72 M-105.29296875 72 C-105.29296875 21.60507374753925, -105.29296875 -28.789852504921498, -105.29296875 -72" stroke="#9370DB" stroke-width="1.3" fill="none" stroke-dasharray="0 0" style=""></path></g><g class="annotation-group text" transform="translate(0, -48)"></g><g class="label-group text" transform="translate(-61.4609375, -48)"><g class="label" style="font-weight: bolder" transform="translate(0,-12)"><foreignObject width="122.921875" height="24"><div xmlns="http://www.w3.org/1999/xhtml" style="display: table-cell; white-space: nowrap; line-height: 1.5; max-width: 171px; text-align: center;"><span class="nodeLabel markdown-node-label" style=""><p>AdminProperties</p></span></div></foreignObject></g></g><g class="members-group text" transform="translate(-93.29296875, 0)"><g class="label" style="" transform="translate(0,-12)"><foreignObject width="125.125" height="24"><div xmlns="http://www.w3.org/1999/xhtml" style="display: table-cell; white-space: nowrap; line-height: 1.5; max-width: 182px; text-align: center;"><span class="nodeLabel markdown-node-label" style=""><p>-String username</p></span></div></foreignObject></g><g class="label" style="" transform="translate(0,12)"><foreignObject width="121.578125" height="24"><div xmlns="http://www.w3.org/1999/xhtml" style="display: table-cell; white-space: nowrap; line-height: 1.5; max-width: 179px; text-align: center;"><span class="nodeLabel markdown-node-label" style=""><p>-String password</p></span></div></foreignObject></g></g><g class="methods-group text" transform="translate(-93.29296875, 72)"></g><g class="divider" style=""><path d="M-105.29296875 -24 C-61.28646168687449 -24, -17.279954623748978 -24, 105.29296875 -24 M-105.29296875 -24 C-30.189608632917626 -24, 44.91375148416475 -24, 105.29296875 -24" stroke="#9370DB" stroke-width="1.3" fill="none" stroke-dasharray="0 0" style=""></path></g><g class="divider" style=""><path d="M-105.29296875 48 C-56.72530405447133 48, -8.15763935894266 48, 105.29296875 48 M-105.29296875 48 C-57.162118914221615 48, -9.03126907844323 48, 105.29296875 48" stroke="#9370DB" stroke-width="1.3" fill="none" stroke-dasharray="0 0" style=""></path></g></g><g class="node default" id="classId-SecurityFilterChain-2" transform="translate(710.2734375, 414)"><g class="basic label-container"><path d="M-81.234375 -42 L81.234375 -42 L81.234375 42 L-81.234375 42" stroke="none" stroke-width="0" fill="#ECECFF" style=""></path><path d="M-81.234375 -42 C-28.253410438701934 -42, 24.727554122596132 -42, 81.234375 -42 M-81.234375 -42 C-28.262481311975215 -42, 24.70941237604957 -42, 81.234375 -42 M81.234375 -42 C81.234375 -16.435759047163025, 81.234375 9.12848190567395, 81.234375 42 M81.234375 -42 C81.234375 -16.698702687939786, 81.234375 8.602594624120428, 81.234375 42 M81.234375 42 C35.09882670270634 42, -11.03672159458732 42, -81.234375 42 M81.234375 42 C25.962957898003104 42, -29.30845920399379 42, -81.234375 42 M-81.234375 42 C-81.234375 22.377052726895197, -81.234375 2.7541054537903946, -81.234375 -42 M-81.234375 42 C-81.234375 14.40977247151531, -81.234375 -13.180455056969379, -81.234375 -42" stroke="#9370DB" stroke-width="1.3" fill="none" stroke-dasharray="0 0" style=""></path></g><g class="annotation-group text" transform="translate(0, -18)"></g><g class="label-group text" transform="translate(-69.234375, -18)"><g class="label" style="font-weight: bolder" transform="translate(0,-12)"><foreignObject width="138.46875" height="24"><div xmlns="http://www.w3.org/1999/xhtml" style="display: table-cell; white-space: nowrap; line-height: 1.5; max-width: 186px; text-align: center;"><span class="nodeLabel markdown-node-label" style=""><p>SecurityFilterChain</p></span></div></foreignObject></g></g><g class="members-group text" transform="translate(-69.234375, 30)"></g><g class="methods-group text" transform="translate(-69.234375, 60)"></g><g class="divider" style=""><path d="M-81.234375 6 C-45.484522054649716 6, -9.734669109299432 6, 81.234375 6 M-81.234375 6 C-30.09117846954654 6, 21.052018060906917 6, 81.234375 6" stroke="#9370DB" stroke-width="1.3" fill="none" stroke-dasharray="0 0" style=""></path></g><g class="divider" style=""><path d="M-81.234375 24 C-30.213240063219125 24, 20.80789487356175 24, 81.234375 24 M-81.234375 24 C-22.73530728469737 24, 35.76376043060526 24, 81.234375 24" stroke="#9370DB" stroke-width="1.3" fill="none" stroke-dasharray="0 0" style=""></path></g></g><g class="node undefined" id="note0" transform="translate(650.37890625, 26)"><g class="basic label-container"><path d="M-115.90625 -18 L115.90625 -18 L115.90625 18 L-115.90625 18" stroke="none" stroke-width="0" fill="#fff5ad" style="fill:#fff5ad !important;stroke:#aaaa33 !important"></path><path d="M-115.90625 -18 C-37.14673644990805 -18, 41.612777100183905 -18, 115.90625 -18 M-115.90625 -18 C-41.385064997078985 -18, 33.13612000584203 -18, 115.90625 -18 M115.90625 -18 C115.90625 -10.44000435207766, 115.90625 -2.880008704155319, 115.90625 18 M115.90625 -18 C115.90625 -7.86789246923129, 115.90625 2.2642150615374206, 115.90625 18 M115.90625 18 C48.248553188744395 18, -19.40914362251121 18, -115.90625 18 M115.90625 18 C61.41900755004946 18, 6.9317651000989144 18, -115.90625 18 M-115.90625 18 C-115.90625 4.913112988011367, -115.90625 -8.173774023977266, -115.90625 -18 M-115.90625 18 C-115.90625 4.34771295036043, -115.90625 -9.30457409927914, -115.90625 -18" stroke="#aaaa33" stroke-width="1.3" fill="none" stroke-dasharray="0 0" style="fill:#fff5ad !important;stroke:#aaaa33 !important"></path></g><g class="label" style="text-align:left !important;white-space:nowrap !important" transform="translate(-109.90625, -12)"><rect></rect><foreignObject width="219.8125" height="24"><div style="text-align: center; white-space: break-spaces; display: table; line-height: 1.5; max-width: 200px; width: 200px;" xmlns="http://www.w3.org/1999/xhtml"><span style="text-align:left !important;white-space:nowrap !important" class="nodeLabel"><p>Package: adapter.inbound.web</p></span></div></foreignObject></g></g><g class="node undefined" id="note1" transform="translate(182.8984375, 181)"><g class="basic label-container"><path d="M-174.8984375 -18 L174.8984375 -18 L174.8984375 18 L-174.8984375 18" stroke="none" stroke-width="0" fill="#fff5ad" style="fill:#fff5ad !important;stroke:#aaaa33 !important"></path><path d="M-174.8984375 -18 C-66.8589237240206 -18, 41.1805900519588 -18, 174.8984375 -18 M-174.8984375 -18 C-65.61241924829844 -18, 43.673599003403126 -18, 174.8984375 -18 M174.8984375 -18 C174.8984375 -8.138952927184175, 174.8984375 1.722094145631651, 174.8984375 18 M174.8984375 -18 C174.8984375 -9.107389491389496, 174.8984375 -0.21477898277899143, 174.8984375 18 M174.8984375 18 C46.214651313717894 18, -82.46913487256421 18, -174.8984375 18 M174.8984375 18 C89.2062947370069 18, 3.5141519740137994 18, -174.8984375 18 M-174.8984375 18 C-174.8984375 10.69951687589619, -174.8984375 3.3990337517923788, -174.8984375 -18 M-174.8984375 18 C-174.8984375 8.732656211067628, -174.8984375 -0.5346875778647444, -174.8984375 -18" stroke="#aaaa33" stroke-width="1.3" fill="none" stroke-dasharray="0 0" style="fill:#fff5ad !important;stroke:#aaaa33 !important"></path></g><g class="label" style="text-align:left !important;white-space:nowrap !important" transform="translate(-168.8984375, -12)"><rect></rect><foreignObject width="337.796875" height="24"><div style="text-align: center; white-space: break-spaces; display: table; line-height: 1.5; max-width: 200px; width: 200px;" xmlns="http://www.w3.org/1999/xhtml"><span style="text-align:left !important;white-space:nowrap !important" class="nodeLabel"><p>@ConfigurationProperties(prefix = blog.admin)</p></span></div></foreignObject></g></g></g></g></g></svg>