<svg id="container" width="1392.193359375" xmlns="http://www.w3.org/2000/svg" class="classDiagram" height="648" viewBox="0 0 1392.193359375 648" role="graphics-document document" aria-roledescription="class"><style>#container{font-family:"trebuchet ms",verdana,arial,sans-serif;font-size:16px;fill:#333;}@keyframes edge-animation-frame{from{stroke-dashoffset:0;}}@keyframes dash{to{stroke-dashoffset:0;}}#container .edge-animation-slow{stroke-dasharray:9,5!important;stroke-dashoffset:900;animation:dash 50s linear infinite;stroke-linecap:round;}#container .edge-animation-fast{stroke-dasharray:9,5!important;stroke-dashoffset:900;animation:dash 20s linear infinite;stroke-linecap:round;}#container .error-icon{fill:#552222;}#container .error-text{fill:#552222;stroke:#552222;}#container .edge-thickness-normal{stroke-width:1px;}#container .edge-thickness-thick{stroke-width:3.5px;}#container .edge-pattern-solid{stroke-dasharray:0;}#container .edge-thickness-invisible{stroke-width:0;fill:none;}#container .edge-pattern-dashed{stroke-dasharray:3;}#container .edge-pattern-dotted{stroke-dasharray:2;}#container .marker{fill:#333333;stroke:#333333;}#container .marker.cross{stroke:#333333;}#container svg{font-family:"trebuchet ms",verdana,arial,sans-serif;font-size:16px;}#container p{margin:0;}#container g.classGroup text{fill:#9370DB;stroke:none;font-family:"trebuchet ms",verdana,arial,sans-serif;font-size:10px;}#container g.classGroup text .title{font-weight:bolder;}#container .nodeLabel,#container .edgeLabel{color:#131300;}#container .edgeLabel .label rect{fill:#ECECFF;}#container .label text{fill:#131300;}#container .labelBkg{background:#ECECFF;}#container .edgeLabel .label span{background:#ECECFF;}#container .classTitle{font-weight:bolder;}#container .node rect,#container .node circle,#container .node ellipse,#container .node polygon,#container .node path{fill:#ECECFF;stroke:#9370DB;stroke-width:1px;}#container .divider{stroke:#9370DB;stroke-width:1;}#container g.clickable{cursor:pointer;}#container g.classGroup rect{fill:#ECECFF;stroke:#9370DB;}#container g.classGroup line{stroke:#9370DB;stroke-width:1;}#container .classLabel .box{stroke:none;stroke-width:0;fill:#ECECFF;opacity:0.5;}#container .classLabel .label{fill:#9370DB;font-size:10px;}#container .relation{stroke:#333333;stroke-width:1;fill:none;}#container .dashed-line{stroke-dasharray:3;}#container .dotted-line{stroke-dasharray:1 2;}#container #compositionStart,#container .composition{fill:#333333!important;stroke:#333333!important;stroke-width:1;}#container #compositionEnd,#container .composition{fill:#333333!important;stroke:#333333!important;stroke-width:1;}#container #dependencyStart,#container .dependency{fill:#333333!important;stroke:#333333!important;stroke-width:1;}#container #dependencyStart,#container .dependency{fill:#333333!important;stroke:#333333!important;stroke-width:1;}#container #extensionStart,#container .extension{fill:transparent!important;stroke:#333333!important;stroke-width:1;}#container #extensionEnd,#container .extension{fill:transparent!important;stroke:#333333!important;stroke-width:1;}#container #aggregationStart,#container .aggregation{fill:transparent!important;stroke:#333333!important;stroke-width:1;}#container #aggregationEnd,#container .aggregation{fill:transparent!important;stroke:#333333!important;stroke-width:1;}#container #lollipopStart,#container .lollipop{fill:#ECECFF!important;stroke:#333333!important;stroke-width:1;}#container #lollipopEnd,#container .lollipop{fill:#ECECFF!important;stroke:#333333!important;stroke-width:1;}#container .edgeTerminals{font-size:11px;line-height:initial;}#container .classTitleText{text-anchor:middle;font-size:18px;fill:#333;}#container .label-icon{display:inline-block;height:1em;overflow:visible;vertical-align:-0.125em;}#container .node .label-icon path{fill:currentColor;stroke:revert;stroke-width:revert;}#container :root{--mermaid-font-family:"trebuchet ms",verdana,arial,sans-serif;}</style><g><defs><marker id="container_class-aggregationStart" class="marker aggregation class" refX="18" refY="7" markerWidth="190" markerHeight="240" orient="auto"><path d="M 18,7 L9,13 L1,7 L9,1 Z"></path></marker></defs><defs><marker id="container_class-aggregationEnd" class="marker aggregation class" refX="1" refY="7" markerWidth="20" markerHeight="28" orient="auto"><path d="M 18,7 L9,13 L1,7 L9,1 Z"></path></marker></defs><defs><marker id="container_class-extensionStart" class="marker extension class" refX="18" refY="7" markerWidth="190" markerHeight="240" orient="auto"><path d="M 1,7 L18,13 V 1 Z"></path></marker></defs><defs><marker id="container_class-extensionEnd" class="marker extension class" refX="1" refY="7" markerWidth="20" markerHeight="28" orient="auto"><path d="M 1,1 V 13 L18,7 Z"></path></marker></defs><defs><marker id="container_class-compositionStart" class="marker composition class" refX="18" refY="7" markerWidth="190" markerHeight="240" orient="auto"><path d="M 18,7 L9,13 L1,7 L9,1 Z"></path></marker></defs><defs><marker id="container_class-compositionEnd" class="marker composition class" refX="1" refY="7" markerWidth="20" markerHeight="28" orient="auto"><path d="M 18,7 L9,13 L1,7 L9,1 Z"></path></marker></defs><defs><marker id="container_class-dependencyStart" class="marker dependency class" refX="6" refY="7" markerWidth="190" markerHeight="240" orient="auto"><path d="M 5,7 L9,13 L1,7 L9,1 Z"></path></marker></defs><defs><marker id="container_class-dependencyEnd" class="marker dependency class" refX="13" refY="7" markerWidth="20" markerHeight="28" orient="auto"><path d="M 18,7 L9,13 L14,7 L9,1 Z"></path></marker></defs><defs><marker id="container_class-lollipopStart" class="marker lollipop class" refX="13" refY="7" markerWidth="190" markerHeight="240" orient="auto"><circle stroke="black" fill="transparent" cx="7" cy="7" r="6"></circle></marker></defs><defs><marker id="container_class-lollipopEnd" class="marker lollipop class" refX="1" refY="7" markerWidth="190" markerHeight="240" orient="auto"><circle stroke="black" fill="transparent" cx="7" cy="7" r="6"></circle></marker></defs><g class="root"><g class="clusters"></g><g class="edgePaths"><path d="M669.369,200L652.08,208.167C634.791,216.333,600.213,232.667,582.924,242.125C565.635,251.583,565.635,254.167,565.635,255.458L565.635,256.75" id="id_UserProfileService_UserProfileUseCase_1" class="edge-thickness-normal edge-pattern-dashed relation" style=";;;" data-edge="true" data-et="edge" data-id="id_UserProfileService_UserProfileUseCase_1" data-points="W3sieCI6NjY5LjM2OTAzNzgyODk0NzQsInkiOjIwMH0seyJ4Ijo1NjUuNjM0NzY1NjI1LCJ5IjoyNDl9LHsieCI6NTY1LjYzNDc2NTYyNSwieSI6Mjc0fV0=" marker-end="url(#container_class-extensionEnd)"></path><path d="M1025.029,200L1042.318,208.167C1059.607,216.333,1094.186,232.667,1111.475,258C1128.764,283.333,1128.764,317.667,1128.764,334.833L1128.764,352" id="id_UserProfileService_UserProfileRepository_2" class="edge-thickness-normal edge-pattern-solid relation" style=";;;" data-edge="true" data-et="edge" data-id="id_UserProfileService_UserProfileRepository_2" data-points="W3sieCI6MTAyNS4wMjkzOTk2NzEwNTI3LCJ5IjoyMDB9LHsieCI6MTEyOC43NjM2NzE4NzUsInkiOjI0OX0seyJ4IjoxMTI4Ljc2MzY3MTg3NSwieSI6MzU4fV0=" marker-end="url(#container_class-dependencyEnd)"></path></g><g class="edgeLabels"><g class="edgeLabel"><g class="label" data-id="id_UserProfileService_UserProfileUseCase_1" transform="translate(0, 0)"><foreignObject width="0" height="0"><div xmlns="http://www.w3.org/1999/xhtml" class="labelBkg" style="display: table-cell; white-space: nowrap; line-height: 1.5; max-width: 200px; text-align: center;"><span class="edgeLabel"></span></div></foreignObject></g></g><g class="edgeLabel"><g class="label" data-id="id_UserProfileService_UserProfileRepository_2" transform="translate(0, 0)"><foreignObject width="0" height="0"><div xmlns="http://www.w3.org/1999/xhtml" class="labelBkg" style="display: table-cell; white-space: nowrap; line-height: 1.5; max-width: 200px; text-align: center;"><span class="edgeLabel"></span></div></foreignObject></g></g></g><g class="nodes"><g class="node default" id="classId-UserProfileUseCase-0" transform="translate(565.634765625, 457)"><g class="basic label-container"><path d="M-257.69921875 -183 L257.69921875 -183 L257.69921875 183 L-257.69921875 183" stroke="none" stroke-width="0" fill="#ECECFF" style=""></path><path d="M-257.69921875 -183 C-85.82537066777934 -183, 86.04847741444132 -183, 257.69921875 -183 M-257.69921875 -183 C-91.37552220863009 -183, 74.94817433273982 -183, 257.69921875 -183 M257.69921875 -183 C257.69921875 -40.692939422941635, 257.69921875 101.61412115411673, 257.69921875 183 M257.69921875 -183 C257.69921875 -90.42557655019432, 257.69921875 2.1488468996113568, 257.69921875 183 M257.69921875 183 C54.88586539359855 183, -147.9274879628029 183, -257.69921875 183 M257.69921875 183 C143.48883351436453 183, 29.27844827872906 183, -257.69921875 183 M-257.69921875 183 C-257.69921875 100.8585527482598, -257.69921875 18.717105496519594, -257.69921875 -183 M-257.69921875 183 C-257.69921875 79.95643141135584, -257.69921875 -23.087137177288326, -257.69921875 -183" stroke="#9370DB" stroke-width="1.3" fill="none" stroke-dasharray="0 0" style=""></path></g><g class="annotation-group text" transform="translate(-41.015625, -159)"><g class="label" style="" transform="translate(0,-12)"><foreignObject width="82.03125" height="24"><div xmlns="http://www.w3.org/1999/xhtml" style="display: table-cell; white-space: nowrap; line-height: 1.5; max-width: 132px; text-align: center;"><span class="nodeLabel markdown-node-label" style=""><p>«interface»</p></span></div></foreignObject></g></g><g class="label-group text" transform="translate(-71.0390625, -135)"><g class="label" style="font-weight: bolder" transform="translate(0,-12)"><foreignObject width="142.078125" height="24"><div xmlns="http://www.w3.org/1999/xhtml" style="display: table-cell; white-space: nowrap; line-height: 1.5; max-width: 190px; text-align: center;"><span class="nodeLabel markdown-node-label" style=""><p>UserProfileUseCase</p></span></div></foreignObject></g></g><g class="members-group text" transform="translate(-245.69921875, -87)"></g><g class="methods-group text" transform="translate(-245.69921875, -57)"><g class="label" style="" transform="translate(0,-12)"><foreignObject width="282.796875" height="24"><div xmlns="http://www.w3.org/1999/xhtml" style="display: table-cell; white-space: nowrap; line-height: 1.5; max-width: 340px; text-align: center;"><span class="nodeLabel markdown-node-label" style=""><p>+syncFromOidc(command) : UserProfile</p></span></div></foreignObject></g><g class="label" style="" transform="translate(0,12)"><foreignObject width="307.125" height="24"><div xmlns="http://www.w3.org/1999/xhtml" style="display: table-cell; white-space: nowrap; line-height: 1.5; max-width: 364px; text-align: center;"><span class="nodeLabel markdown-node-label" style=""><p>+syncFromInternal(command) : UserProfile</p></span></div></foreignObject></g><g class="label" style="" transform="translate(0,36)"><foreignObject width="327.796875" height="24"><div xmlns="http://www.w3.org/1999/xhtml" style="display: table-cell; white-space: nowrap; line-height: 1.5; max-width: 385px; text-align: center;"><span class="nodeLabel markdown-node-label" style=""><p>+findByOidcSubject(oidcSubject) : UserProfile</p></span></div></foreignObject></g><g class="label" style="" transform="translate(0,60)"><foreignObject width="301.1875" height="24"><div xmlns="http://www.w3.org/1999/xhtml" style="display: table-cell; white-space: nowrap; line-height: 1.5; max-width: 359px; text-align: center;"><span class="nodeLabel markdown-node-label" style=""><p>+findByUsername(username) : UserProfile</p></span></div></foreignObject></g><g class="label" style="" transform="translate(0,84)"><foreignObject width="239" height="24"><div xmlns="http://www.w3.org/1999/xhtml" style="display: table-cell; white-space: nowrap; line-height: 1.5; max-width: 296px; text-align: center;"><span class="nodeLabel markdown-node-label" style=""><p>+approveUser(oidcSubject) : void</p></span></div></foreignObject></g><g class="label" style="" transform="translate(0,108)"><foreignObject width="221.0625" height="24"><div xmlns="http://www.w3.org/1999/xhtml" style="display: table-cell; white-space: nowrap; line-height: 1.5; max-width: 278px; text-align: center;"><span class="nodeLabel markdown-node-label" style=""><p>+rejectUser(oidcSubject) : void</p></span></div></foreignObject></g><g class="label" style="" transform="translate(0,132)"><foreignObject width="307.6875" height="24"><div xmlns="http://www.w3.org/1999/xhtml" style="display: table-cell; white-space: nowrap; line-height: 1.5; max-width: 365px; text-align: center;"><span class="nodeLabel markdown-node-label" style=""><p>+assignGlobalRole(oidcSubject, role) : void</p></span></div></foreignObject></g><g class="label" style="" transform="translate(0,156)"><foreignObject width="316.328125" height="24"><div xmlns="http://www.w3.org/1999/xhtml" style="display: table-cell; white-space: nowrap; line-height: 1.5; max-width: 374px; text-align: center;"><span class="nodeLabel markdown-node-label" style=""><p>+removeGlobalRole(oidcSubject, role) : void</p></span></div></foreignObject></g><g class="label" style="" transform="translate(0,180)"><foreignObject width="420.359375" height="24"><div xmlns="http://www.w3.org/1999/xhtml" style="display: table-cell; white-space: nowrap; line-height: 1.5; max-width: 478px; text-align: center;"><span class="nodeLabel markdown-node-label" style=""><p>+addTenantMembership(oidcSubject, tenantId, role) : void</p></span></div></foreignObject></g><g class="label" style="" transform="translate(0,204)"><foreignObject width="410.25" height="24"><div xmlns="http://www.w3.org/1999/xhtml" style="display: table-cell; white-space: nowrap; line-height: 1.5; max-width: 468px; text-align: center;"><span class="nodeLabel markdown-node-label" style=""><p>+removeTenantMembership(oidcSubject, tenantId) : void</p></span></div></foreignObject></g></g><g class="divider" style=""><path d="M-257.69921875 -111 C-76.75209229812415 -111, 104.19503415375169 -111, 257.69921875 -111 M-257.69921875 -111 C-57.240614273391316 -111, 143.21799020321737 -111, 257.69921875 -111" stroke="#9370DB" stroke-width="1.3" fill="none" stroke-dasharray="0 0" style=""></path></g><g class="divider" style=""><path d="M-257.69921875 -87 C-109.49530954051016 -87, 38.70859966897967 -87, 257.69921875 -87 M-257.69921875 -87 C-124.53997736283111 -87, 8.619264024337781 -87, 257.69921875 -87" stroke="#9370DB" stroke-width="1.3" fill="none" stroke-dasharray="0 0" style=""></path></g></g><g class="node default" id="classId-SyncUserCommand-1" transform="translate(140.76953125, 116)"><g class="basic label-container"><path d="M-132.76953125 -108 L132.76953125 -108 L132.76953125 108 L-132.76953125 108" stroke="none" stroke-width="0" fill="#ECECFF" style=""></path><path d="M-132.76953125 -108 C-76.07231488000369 -108, -19.375098510007376 -108, 132.76953125 -108 M-132.76953125 -108 C-72.49863060139677 -108, -12.227729952793524 -108, 132.76953125 -108 M132.76953125 -108 C132.76953125 -50.07945172496735, 132.76953125 7.841096550065302, 132.76953125 108 M132.76953125 -108 C132.76953125 -30.452921220054208, 132.76953125 47.094157559891585, 132.76953125 108 M132.76953125 108 C39.6886182052465 108, -53.392294839507 108, -132.76953125 108 M132.76953125 108 C68.0330306285837 108, 3.296530007167405 108, -132.76953125 108 M-132.76953125 108 C-132.76953125 41.814174551703076, -132.76953125 -24.37165089659385, -132.76953125 -108 M-132.76953125 108 C-132.76953125 60.707257156975565, -132.76953125 13.41451431395113, -132.76953125 -108" stroke="#9370DB" stroke-width="1.3" fill="none" stroke-dasharray="0 0" style=""></path></g><g class="annotation-group text" transform="translate(-32.3046875, -84)"><g class="label" style="" transform="translate(0,-12)"><foreignObject width="64.609375" height="24"><div xmlns="http://www.w3.org/1999/xhtml" style="display: table-cell; white-space: nowrap; line-height: 1.5; max-width: 115px; text-align: center;"><span class="nodeLabel markdown-node-label" style=""><p>«record»</p></span></div></foreignObject></g></g><g class="label-group text" transform="translate(-70.1796875, -60)"><g class="label" style="font-weight: bolder" transform="translate(0,-12)"><foreignObject width="140.359375" height="24"><div xmlns="http://www.w3.org/1999/xhtml" style="display: table-cell; white-space: nowrap; line-height: 1.5; max-width: 189px; text-align: center;"><span class="nodeLabel markdown-node-label" style=""><p>SyncUserCommand</p></span></div></foreignObject></g></g><g class="members-group text" transform="translate(-120.76953125, -12)"><g class="label" style="" transform="translate(0,-12)"><foreignObject width="132.359375" height="24"><div xmlns="http://www.w3.org/1999/xhtml" style="display: table-cell; white-space: nowrap; line-height: 1.5; max-width: 183px; text-align: center;"><span class="nodeLabel markdown-node-label" style=""><p>String oidcSubject</p></span></div></foreignObject></g><g class="label" style="" transform="translate(0,12)"><foreignObject width="87.46875" height="24"><div xmlns="http://www.w3.org/1999/xhtml" style="display: table-cell; white-space: nowrap; line-height: 1.5; max-width: 138px; text-align: center;"><span class="nodeLabel markdown-node-label" style=""><p>String email</p></span></div></foreignObject></g><g class="label" style="" transform="translate(0,36)"><foreignObject width="141.1875" height="24"><div xmlns="http://www.w3.org/1999/xhtml" style="display: table-cell; white-space: nowrap; line-height: 1.5; max-width: 191px; text-align: center;"><span class="nodeLabel markdown-node-label" style=""><p>String displayName</p></span></div></foreignObject></g><g class="label" style="" transform="translate(0,60)"><foreignObject width="171.359375" height="24"><div xmlns="http://www.w3.org/1999/xhtml" style="display: table-cell; white-space: nowrap; line-height: 1.5; max-width: 261px; text-align: center;"><span class="nodeLabel markdown-node-label" style=""><p>List&lt;String&gt; oidcGroups</p></span></div></foreignObject></g></g><g class="methods-group text" transform="translate(-120.76953125, 108)"></g><g class="divider" style=""><path d="M-132.76953125 -36 C-71.48340022459394 -36, -10.197269199187858 -36, 132.76953125 -36 M-132.76953125 -36 C-69.21408763459087 -36, -5.658644019181736 -36, 132.76953125 -36" stroke="#9370DB" stroke-width="1.3" fill="none" stroke-dasharray="0 0" style=""></path></g><g class="divider" style=""><path d="M-132.76953125 84 C-74.09265296667132 84, -15.415774683342647 84, 132.76953125 84 M-132.76953125 84 C-44.97293952292408 84, 42.82365220415184 84, 132.76953125 84" stroke="#9370DB" stroke-width="1.3" fill="none" stroke-dasharray="0 0" style=""></path></g></g><g class="node default" id="classId-SyncInternalUserCommand-2" transform="translate(455.63671875, 116)"><g class="basic label-container"><path d="M-132.09765625 -96 L132.09765625 -96 L132.09765625 96 L-132.09765625 96" stroke="none" stroke-width="0" fill="#ECECFF" style=""></path><path d="M-132.09765625 -96 C-58.10767930096766 -96, 15.882297648064679 -96, 132.09765625 -96 M-132.09765625 -96 C-62.83639305167431 -96, 6.4248701466513864 -96, 132.09765625 -96 M132.09765625 -96 C132.09765625 -34.308957232944344, 132.09765625 27.38208553411131, 132.09765625 96 M132.09765625 -96 C132.09765625 -29.987199974211023, 132.09765625 36.02560005157795, 132.09765625 96 M132.09765625 96 C28.523886548864112 96, -75.04988315227178 96, -132.09765625 96 M132.09765625 96 C65.33234401840414 96, -1.4329682131917139 96, -132.09765625 96 M-132.09765625 96 C-132.09765625 19.91995944136474, -132.09765625 -56.16008111727052, -132.09765625 -96 M-132.09765625 96 C-132.09765625 33.78045391427041, -132.09765625 -28.43909217145918, -132.09765625 -96" stroke="#9370DB" stroke-width="1.3" fill="none" stroke-dasharray="0 0" style=""></path></g><g class="annotation-group text" transform="translate(-32.3046875, -72)"><g class="label" style="" transform="translate(0,-12)"><foreignObject width="64.609375" height="24"><div xmlns="http://www.w3.org/1999/xhtml" style="display: table-cell; white-space: nowrap; line-height: 1.5; max-width: 115px; text-align: center;"><span class="nodeLabel markdown-node-label" style=""><p>«record»</p></span></div></foreignObject></g></g><g class="label-group text" transform="translate(-99.0078125, -48)"><g class="label" style="font-weight: bolder" transform="translate(0,-12)"><foreignObject width="198.015625" height="24"><div xmlns="http://www.w3.org/1999/xhtml" style="display: table-cell; white-space: nowrap; line-height: 1.5; max-width: 247px; text-align: center;"><span class="nodeLabel markdown-node-label" style=""><p>SyncInternalUserCommand</p></span></div></foreignObject></g></g><g class="members-group text" transform="translate(-120.09765625, 0)"><g class="label" style="" transform="translate(0,-12)"><foreignObject width="119.3125" height="24"><div xmlns="http://www.w3.org/1999/xhtml" style="display: table-cell; white-space: nowrap; line-height: 1.5; max-width: 169px; text-align: center;"><span class="nodeLabel markdown-node-label" style=""><p>String username</p></span></div></foreignObject></g><g class="label" style="" transform="translate(0,12)"><foreignObject width="87.46875" height="24"><div xmlns="http://www.w3.org/1999/xhtml" style="display: table-cell; white-space: nowrap; line-height: 1.5; max-width: 138px; text-align: center;"><span class="nodeLabel markdown-node-label" style=""><p>String email</p></span></div></foreignObject></g><g class="label" style="" transform="translate(0,36)"><foreignObject width="141.1875" height="24"><div xmlns="http://www.w3.org/1999/xhtml" style="display: table-cell; white-space: nowrap; line-height: 1.5; max-width: 191px; text-align: center;"><span class="nodeLabel markdown-node-label" style=""><p>String displayName</p></span></div></foreignObject></g></g><g class="methods-group text" transform="translate(-120.09765625, 96)"></g><g class="divider" style=""><path d="M-132.09765625 -24 C-41.172285566063636 -24, 49.75308511787273 -24, 132.09765625 -24 M-132.09765625 -24 C-75.57810524874782 -24, -19.058554247495636 -24, 132.09765625 -24" stroke="#9370DB" stroke-width="1.3" fill="none" stroke-dasharray="0 0" style=""></path></g><g class="divider" style=""><path d="M-132.09765625 72 C-44.756757017445565 72, 42.58414221510887 72, 132.09765625 72 M-132.09765625 72 C-28.02873361620742 72, 76.04018901758516 72, 132.09765625 72" stroke="#9370DB" stroke-width="1.3" fill="none" stroke-dasharray="0 0" style=""></path></g></g><g class="node default" id="classId-UserProfileRepository-3" transform="translate(1128.763671875, 457)"><g class="basic label-container"><path d="M-255.4296875 -99 L255.4296875 -99 L255.4296875 99 L-255.4296875 99" stroke="none" stroke-width="0" fill="#ECECFF" style=""></path><path d="M-255.4296875 -99 C-123.52209864003058 -99, 8.385490219938845 -99, 255.4296875 -99 M-255.4296875 -99 C-96.13534109346818 -99, 63.15900531306363 -99, 255.4296875 -99 M255.4296875 -99 C255.4296875 -49.560426073603075, 255.4296875 -0.12085214720615056, 255.4296875 99 M255.4296875 -99 C255.4296875 -35.46952873229206, 255.4296875 28.060942535415876, 255.4296875 99 M255.4296875 99 C117.29549856677889 99, -20.838690366442222 99, -255.4296875 99 M255.4296875 99 C60.955881204003475 99, -133.51792509199305 99, -255.4296875 99 M-255.4296875 99 C-255.4296875 36.71400455052673, -255.4296875 -25.571990898946538, -255.4296875 -99 M-255.4296875 99 C-255.4296875 34.156371278231006, -255.4296875 -30.687257443537987, -255.4296875 -99" stroke="#9370DB" stroke-width="1.3" fill="none" stroke-dasharray="0 0" style=""></path></g><g class="annotation-group text" transform="translate(-41.015625, -75)"><g class="label" style="" transform="translate(0,-12)"><foreignObject width="82.03125" height="24"><div xmlns="http://www.w3.org/1999/xhtml" style="display: table-cell; white-space: nowrap; line-height: 1.5; max-width: 132px; text-align: center;"><span class="nodeLabel markdown-node-label" style=""><p>«interface»</p></span></div></foreignObject></g></g><g class="label-group text" transform="translate(-80.25, -51)"><g class="label" style="font-weight: bolder" transform="translate(0,-12)"><foreignObject width="160.5" height="24"><div xmlns="http://www.w3.org/1999/xhtml" style="display: table-cell; white-space: nowrap; line-height: 1.5; max-width: 207px; text-align: center;"><span class="nodeLabel markdown-node-label" style=""><p>UserProfileRepository</p></span></div></foreignObject></g></g><g class="members-group text" transform="translate(-243.4296875, -3)"></g><g class="methods-group text" transform="translate(-243.4296875, 27)"><g class="label" style="" transform="translate(0,-12)"><foreignObject width="220.625" height="24"><div xmlns="http://www.w3.org/1999/xhtml" style="display: table-cell; white-space: nowrap; line-height: 1.5; max-width: 278px; text-align: center;"><span class="nodeLabel markdown-node-label" style=""><p>+save(userProfile) : UserProfile</p></span></div></foreignObject></g><g class="label" style="" transform="translate(0,12)"><foreignObject width="406.609375" height="24"><div xmlns="http://www.w3.org/1999/xhtml" style="display: table-cell; white-space: nowrap; line-height: 1.5; max-width: 504px; text-align: center;"><span class="nodeLabel markdown-node-label" style=""><p>+findByOidcSubject(oidcSubject) : Optional&lt;UserProfile&gt;</p></span></div></foreignObject></g><g class="label" style="" transform="translate(0,36)"><foreignObject width="321.484375" height="24"><div xmlns="http://www.w3.org/1999/xhtml" style="display: table-cell; white-space: nowrap; line-height: 1.5; max-width: 379px; text-align: center;"><span class="nodeLabel markdown-node-label" style=""><p>+existsByOidcSubject(oidcSubject) : boolean</p></span></div></foreignObject></g></g><g class="divider" style=""><path d="M-255.4296875 -27 C-65.28526157782164 -27, 124.85916434435671 -27, 255.4296875 -27 M-255.4296875 -27 C-72.98594347124049 -27, 109.45780055751902 -27, 255.4296875 -27" stroke="#9370DB" stroke-width="1.3" fill="none" stroke-dasharray="0 0" style=""></path></g><g class="divider" style=""><path d="M-255.4296875 -3 C-101.8706270942647 -3, 51.68843331147059 -3, 255.4296875 -3 M-255.4296875 -3 C-127.37103722027089 -3, 0.687613059458215 -3, 255.4296875 -3" stroke="#9370DB" stroke-width="1.3" fill="none" stroke-dasharray="0 0" style=""></path></g></g><g class="node default" id="classId-UserProfileService-4" transform="translate(847.19921875, 116)"><g class="basic label-container"><path d="M-209.46484375 -84 L209.46484375 -84 L209.46484375 84 L-209.46484375 84" stroke="none" stroke-width="0" fill="#ECECFF" style=""></path><path d="M-209.46484375 -84 C-56.92884341107069 -84, 95.60715692785863 -84, 209.46484375 -84 M-209.46484375 -84 C-102.9057891297101 -84, 3.6532654905797983 -84, 209.46484375 -84 M209.46484375 -84 C209.46484375 -34.74176289427068, 209.46484375 14.516474211458643, 209.46484375 84 M209.46484375 -84 C209.46484375 -38.20103151214547, 209.46484375 7.597936975709061, 209.46484375 84 M209.46484375 84 C109.07609247050874 84, 8.687341191017481 84, -209.46484375 84 M209.46484375 84 C69.48594489478774 84, -70.49295396042453 84, -209.46484375 84 M-209.46484375 84 C-209.46484375 32.079353136313024, -209.46484375 -19.84129372737395, -209.46484375 -84 M-209.46484375 84 C-209.46484375 49.82984938975701, -209.46484375 15.659698779514017, -209.46484375 -84" stroke="#9370DB" stroke-width="1.3" fill="none" stroke-dasharray="0 0" style=""></path></g><g class="annotation-group text" transform="translate(0, -60)"></g><g class="label-group text" transform="translate(-67.1328125, -60)"><g class="label" style="font-weight: bolder" transform="translate(0,-12)"><foreignObject width="134.265625" height="24"><div xmlns="http://www.w3.org/1999/xhtml" style="display: table-cell; white-space: nowrap; line-height: 1.5; max-width: 181px; text-align: center;"><span class="nodeLabel markdown-node-label" style=""><p>UserProfileService</p></span></div></foreignObject></g></g><g class="members-group text" transform="translate(-197.46484375, -12)"><g class="label" style="" transform="translate(0,-12)"><foreignObject width="242.21875" height="24"><div xmlns="http://www.w3.org/1999/xhtml" style="display: table-cell; white-space: nowrap; line-height: 1.5; max-width: 300px; text-align: center;"><span class="nodeLabel markdown-node-label" style=""><p>-UserProfileRepository repository</p></span></div></foreignObject></g></g><g class="methods-group text" transform="translate(-197.46484375, 36)"><g class="label" style="" transform="translate(0,-12)"><foreignObject width="282.796875" height="24"><div xmlns="http://www.w3.org/1999/xhtml" style="display: table-cell; white-space: nowrap; line-height: 1.5; max-width: 340px; text-align: center;"><span class="nodeLabel markdown-node-label" style=""><p>+syncFromOidc(command) : UserProfile</p></span></div></foreignObject></g><g class="label" style="" transform="translate(0,12)"><foreignObject width="327.796875" height="24"><div xmlns="http://www.w3.org/1999/xhtml" style="display: table-cell; white-space: nowrap; line-height: 1.5; max-width: 385px; text-align: center;"><span class="nodeLabel markdown-node-label" style=""><p>+findByOidcSubject(oidcSubject) : UserProfile</p></span></div></foreignObject></g></g><g class="divider" style=""><path d="M-209.46484375 -36 C-111.84045316934802 -36, -14.216062588696047 -36, 209.46484375 -36 M-209.46484375 -36 C-43.50542080304646 -36, 122.45400214390708 -36, 209.46484375 -36" stroke="#9370DB" stroke-width="1.3" fill="none" stroke-dasharray="0 0" style=""></path></g><g class="divider" style=""><path d="M-209.46484375 12 C-108.51031542229723 12, -7.55578709459445 12, 209.46484375 12 M-209.46484375 12 C-73.79972376497074 12, 61.86539622005853 12, 209.46484375 12" stroke="#9370DB" stroke-width="1.3" fill="none" stroke-dasharray="0 0" style=""></path></g></g></g></g></g></svg>