<svg id="container" width="1017.84375" xmlns="http://www.w3.org/2000/svg" class="classDiagram" height="982" viewBox="0 0 1017.84375 982" role="graphics-document document" aria-roledescription="class"><style>#container{font-family:"trebuchet ms",verdana,arial,sans-serif;font-size:16px;fill:#333;}@keyframes edge-animation-frame{from{stroke-dashoffset:0;}}@keyframes dash{to{stroke-dashoffset:0;}}#container .edge-animation-slow{stroke-dasharray:9,5!important;stroke-dashoffset:900;animation:dash 50s linear infinite;stroke-linecap:round;}#container .edge-animation-fast{stroke-dasharray:9,5!important;stroke-dashoffset:900;animation:dash 20s linear infinite;stroke-linecap:round;}#container .error-icon{fill:#552222;}#container .error-text{fill:#552222;stroke:#552222;}#container .edge-thickness-normal{stroke-width:1px;}#container .edge-thickness-thick{stroke-width:3.5px;}#container .edge-pattern-solid{stroke-dasharray:0;}#container .edge-thickness-invisible{stroke-width:0;fill:none;}#container .edge-pattern-dashed{stroke-dasharray:3;}#container .edge-pattern-dotted{stroke-dasharray:2;}#container .marker{fill:#333333;stroke:#333333;}#container .marker.cross{stroke:#333333;}#container svg{font-family:"trebuchet ms",verdana,arial,sans-serif;font-size:16px;}#container p{margin:0;}#container g.classGroup text{fill:#9370DB;stroke:none;font-family:"trebuchet ms",verdana,arial,sans-serif;font-size:10px;}#container g.classGroup text .title{font-weight:bolder;}#container .nodeLabel,#container .edgeLabel{color:#131300;}#container .edgeLabel .label rect{fill:#ECECFF;}#container .label text{fill:#131300;}#container .labelBkg{background:#ECECFF;}#container .edgeLabel .label span{background:#ECECFF;}#container .classTitle{font-weight:bolder;}#container .node rect,#container .node circle,#container .node ellipse,#container .node polygon,#container .node path{fill:#ECECFF;stroke:#9370DB;stroke-width:1px;}#container .divider{stroke:#9370DB;stroke-width:1;}#container g.clickable{cursor:pointer;}#container g.classGroup rect{fill:#ECECFF;stroke:#9370DB;}#container g.classGroup line{stroke:#9370DB;stroke-width:1;}#container .classLabel .box{stroke:none;stroke-width:0;fill:#ECECFF;opacity:0.5;}#container .classLabel .label{fill:#9370DB;font-size:10px;}#container .relation{stroke:#333333;stroke-width:1;fill:none;}#container .dashed-line{stroke-dasharray:3;}#container .dotted-line{stroke-dasharray:1 2;}#container #compositionStart,#container .composition{fill:#333333!important;stroke:#333333!important;stroke-width:1;}#container #compositionEnd,#container .composition{fill:#333333!important;stroke:#333333!important;stroke-width:1;}#container #dependencyStart,#container .dependency{fill:#333333!important;stroke:#333333!important;stroke-width:1;}#container #dependencyStart,#container .dependency{fill:#333333!important;stroke:#333333!important;stroke-width:1;}#container #extensionStart,#container .extension{fill:transparent!important;stroke:#333333!important;stroke-width:1;}#container #extensionEnd,#container .extension{fill:transparent!important;stroke:#333333!important;stroke-width:1;}#container #aggregationStart,#container .aggregation{fill:transparent!important;stroke:#333333!important;stroke-width:1;}#container #aggregationEnd,#container .aggregation{fill:transparent!important;stroke:#333333!important;stroke-width:1;}#container #lollipopStart,#container .lollipop{fill:#ECECFF!important;stroke:#333333!important;stroke-width:1;}#container #lollipopEnd,#container .lollipop{fill:#ECECFF!important;stroke:#333333!important;stroke-width:1;}#container .edgeTerminals{font-size:11px;line-height:initial;}#container .classTitleText{text-anchor:middle;font-size:18px;fill:#333;}#container .label-icon{display:inline-block;height:1em;overflow:visible;vertical-align:-0.125em;}#container .node .label-icon path{fill:currentColor;stroke:revert;stroke-width:revert;}#container :root{--mermaid-font-family:"trebuchet ms",verdana,arial,sans-serif;}</style><g><defs><marker id="container_class-aggregationStart" class="marker aggregation class" refX="18" refY="7" markerWidth="190" markerHeight="240" orient="auto"><path d="M 18,7 L9,13 L1,7 L9,1 Z"></path></marker></defs><defs><marker id="container_class-aggregationEnd" class="marker aggregation class" refX="1" refY="7" markerWidth="20" markerHeight="28" orient="auto"><path d="M 18,7 L9,13 L1,7 L9,1 Z"></path></marker></defs><defs><marker id="container_class-extensionStart" class="marker extension class" refX="18" refY="7" markerWidth="190" markerHeight="240" orient="auto"><path d="M 1,7 L18,13 V 1 Z"></path></marker></defs><defs><marker id="container_class-extensionEnd" class="marker extension class" refX="1" refY="7" markerWidth="20" markerHeight="28" orient="auto"><path d="M 1,1 V 13 L18,7 Z"></path></marker></defs><defs><marker id="container_class-compositionStart" class="marker composition class" refX="18" refY="7" markerWidth="190" markerHeight="240" orient="auto"><path d="M 18,7 L9,13 L1,7 L9,1 Z"></path></marker></defs><defs><marker id="container_class-compositionEnd" class="marker composition class" refX="1" refY="7" markerWidth="20" markerHeight="28" orient="auto"><path d="M 18,7 L9,13 L1,7 L9,1 Z"></path></marker></defs><defs><marker id="container_class-dependencyStart" class="marker dependency class" refX="6" refY="7" markerWidth="190" markerHeight="240" orient="auto"><path d="M 5,7 L9,13 L1,7 L9,1 Z"></path></marker></defs><defs><marker id="container_class-dependencyEnd" class="marker dependency class" refX="13" refY="7" markerWidth="20" markerHeight="28" orient="auto"><path d="M 18,7 L9,13 L14,7 L9,1 Z"></path></marker></defs><defs><marker id="container_class-lollipopStart" class="marker lollipop class" refX="13" refY="7" markerWidth="190" markerHeight="240" orient="auto"><circle stroke="black" fill="transparent" cx="7" cy="7" r="6"></circle></marker></defs><defs><marker id="container_class-lollipopEnd" class="marker lollipop class" refX="1" refY="7" markerWidth="190" markerHeight="240" orient="auto"><circle stroke="black" fill="transparent" cx="7" cy="7" r="6"></circle></marker></defs><g class="root"><g class="clusters"></g><g class="edgePaths"><path d="M657.039,585.25L657.039,586.542C657.039,587.833,657.039,590.417,657.039,595.875C657.039,601.333,657.039,609.667,657.039,613.833L657.039,618" id="id_AuditLogQueryUseCase_AuditLogQueryService_1" class="edge-thickness-normal edge-pattern-dashed relation" style=";;;" data-edge="true" data-et="edge" data-id="id_AuditLogQueryUseCase_AuditLogQueryService_1" data-points="W3sieCI6NjU3LjAzOTA2MjUsInkiOjU2OH0seyJ4Ijo2NTcuMDM5MDYyNSwieSI6NTkzfSx7IngiOjY1Ny4wMzkwNjI1LCJ5Ijo2MTh9XQ==" marker-start="url(#container_class-extensionStart)"></path><path d="M657.039,203L657.039,218.667C657.039,234.333,657.039,265.667,657.039,284.5C657.039,303.333,657.039,309.667,657.039,312.833L657.039,316" id="id_AuditLogAdminController_AuditLogQueryUseCase_2" class="edge-thickness-normal edge-pattern-solid relation" style=";;;" data-edge="true" data-et="edge" data-id="id_AuditLogAdminController_AuditLogQueryUseCase_2" data-points="W3sieCI6NjU3LjAzOTA2MjUsInkiOjIwM30seyJ4Ijo2NTcuMDM5MDYyNSwieSI6Mjk3fSx7IngiOjY1Ny4wMzkwNjI1LCJ5IjozMjJ9XQ==" marker-end="url(#container_class-dependencyEnd)"></path><path d="M657.039,840L657.039,844.167C657.039,848.333,657.039,856.667,657.039,864C657.039,871.333,657.039,877.667,657.039,880.833L657.039,884" id="id_AuditLogQueryService_AuditLogRepository_3" class="edge-thickness-normal edge-pattern-solid relation" style=";;;" data-edge="true" data-et="edge" data-id="id_AuditLogQueryService_AuditLogRepository_3" data-points="W3sieCI6NjU3LjAzOTA2MjUsInkiOjg0MH0seyJ4Ijo2NTcuMDM5MDYyNSwieSI6ODY1fSx7IngiOjY1Ny4wMzkwNjI1LCJ5Ijo4OTB9XQ==" marker-end="url(#container_class-dependencyEnd)"></path></g><g class="edgeLabels"><g class="edgeLabel"><g class="label" data-id="id_AuditLogQueryUseCase_AuditLogQueryService_1" transform="translate(0, 0)"><foreignObject width="0" height="0"><div xmlns="http://www.w3.org/1999/xhtml" class="labelBkg" style="display: table-cell; white-space: nowrap; line-height: 1.5; max-width: 200px; text-align: center;"><span class="edgeLabel"></span></div></foreignObject></g></g><g class="edgeLabel"><g class="label" data-id="id_AuditLogAdminController_AuditLogQueryUseCase_2" transform="translate(0, 0)"><foreignObject width="0" height="0"><div xmlns="http://www.w3.org/1999/xhtml" class="labelBkg" style="display: table-cell; white-space: nowrap; line-height: 1.5; max-width: 200px; text-align: center;"><span class="edgeLabel"></span></div></foreignObject></g></g><g class="edgeLabel"><g class="label" data-id="id_AuditLogQueryService_AuditLogRepository_3" transform="translate(0, 0)"><foreignObject width="0" height="0"><div xmlns="http://www.w3.org/1999/xhtml" class="labelBkg" style="display: table-cell; white-space: nowrap; line-height: 1.5; max-width: 200px; text-align: center;"><span class="edgeLabel"></span></div></foreignObject></g></g></g><g class="nodes"><g class="node default" id="classId-AuditLogQueryUseCase-0" transform="translate(657.0390625, 445)"><g class="basic label-container"><path d="M-324.0625 -123 L324.0625 -123 L324.0625 123 L-324.0625 123" stroke="none" stroke-width="0" fill="#ECECFF" style=""></path><path d="M-324.0625 -123 C-83.04352166833087 -123, 157.97545666333826 -123, 324.0625 -123 M-324.0625 -123 C-144.50067778214262 -123, 35.061144435714766 -123, 324.0625 -123 M324.0625 -123 C324.0625 -62.099384944553535, 324.0625 -1.1987698891070693, 324.0625 123 M324.0625 -123 C324.0625 -49.64094708118343, 324.0625 23.718105837633146, 324.0625 123 M324.0625 123 C182.54618922746383 123, 41.029878454927655 123, -324.0625 123 M324.0625 123 C168.61033291047218 123, 13.158165820944362 123, -324.0625 123 M-324.0625 123 C-324.0625 26.62115013420531, -324.0625 -69.75769973158938, -324.0625 -123 M-324.0625 123 C-324.0625 26.924104779724786, -324.0625 -69.15179044055043, -324.0625 -123" stroke="#9370DB" stroke-width="1.3" fill="none" stroke-dasharray="0 0" style=""></path></g><g class="annotation-group text" transform="translate(-41.015625, -99)"><g class="label" style="" transform="translate(0,-12)"><foreignObject width="82.03125" height="24"><div xmlns="http://www.w3.org/1999/xhtml" style="display: table-cell; white-space: nowrap; line-height: 1.5; max-width: 132px; text-align: center;"><span class="nodeLabel markdown-node-label" style=""><p>«interface»</p></span></div></foreignObject></g></g><g class="label-group text" transform="translate(-84.84375, -75)"><g class="label" style="font-weight: bolder" transform="translate(0,-12)"><foreignObject width="169.6875" height="24"><div xmlns="http://www.w3.org/1999/xhtml" style="display: table-cell; white-space: nowrap; line-height: 1.5; max-width: 217px; text-align: center;"><span class="nodeLabel markdown-node-label" style=""><p>AuditLogQueryUseCase</p></span></div></foreignObject></g></g><g class="members-group text" transform="translate(-312.0625, -27)"></g><g class="methods-group text" transform="translate(-312.0625, 3)"><g class="label" style="" transform="translate(0,-12)"><foreignObject width="364.875" height="24"><div xmlns="http://www.w3.org/1999/xhtml" style="display: table-cell; white-space: nowrap; line-height: 1.5; max-width: 462px; text-align: center;"><span class="nodeLabel markdown-node-label" style=""><p>+findAll(TenantId, Pageable) : Page&lt;AuditLogEntry&gt;</p></span></div></foreignObject></g><g class="label" style="" transform="translate(0,12)"><foreignObject width="539.28125" height="24"><div xmlns="http://www.w3.org/1999/xhtml" style="display: table-cell; white-space: nowrap; line-height: 1.5; max-width: 636px; text-align: center;"><span class="nodeLabel markdown-node-label" style=""><p>+search(TenantId, AuditLogSearchCriteria, Pageable) : Page&lt;AuditLogEntry&gt;</p></span></div></foreignObject></g><g class="label" style="" transform="translate(0,36)"><foreignObject width="310.15625" height="24"><div xmlns="http://www.w3.org/1999/xhtml" style="display: table-cell; white-space: nowrap; line-height: 1.5; max-width: 407px; text-align: center;"><span class="nodeLabel markdown-node-label" style=""><p>+getDistinctActions(TenantId) : List&lt;String&gt;</p></span></div></foreignObject></g><g class="label" style="" transform="translate(0,60)"><foreignObject width="339.6875" height="24"><div xmlns="http://www.w3.org/1999/xhtml" style="display: table-cell; white-space: nowrap; line-height: 1.5; max-width: 437px; text-align: center;"><span class="nodeLabel markdown-node-label" style=""><p>+getDistinctEntityTypes(TenantId) : List&lt;String&gt;</p></span></div></foreignObject></g><g class="label" style="" transform="translate(0,84)"><foreignObject width="301.953125" height="24"><div xmlns="http://www.w3.org/1999/xhtml" style="display: table-cell; white-space: nowrap; line-height: 1.5; max-width: 399px; text-align: center;"><span class="nodeLabel markdown-node-label" style=""><p>+getDistinctActors(TenantId) : List&lt;String&gt;</p></span></div></foreignObject></g></g><g class="divider" style=""><path d="M-324.0625 -51 C-173.03710430487243 -51, -22.011708609744858 -51, 324.0625 -51 M-324.0625 -51 C-70.68957838710728 -51, 182.68334322578545 -51, 324.0625 -51" stroke="#9370DB" stroke-width="1.3" fill="none" stroke-dasharray="0 0" style=""></path></g><g class="divider" style=""><path d="M-324.0625 -27 C-95.06095226005542 -27, 133.94059547988917 -27, 324.0625 -27 M-324.0625 -27 C-146.50320699817325 -27, 31.05608600365349 -27, 324.0625 -27" stroke="#9370DB" stroke-width="1.3" fill="none" stroke-dasharray="0 0" style=""></path></g></g><g class="node default" id="classId-AuditLogSearchCriteria-1" transform="translate(131.1171875, 140)"><g class="basic label-container"><path d="M-123.1171875 -132 L123.1171875 -132 L123.1171875 132 L-123.1171875 132" stroke="none" stroke-width="0" fill="#ECECFF" style=""></path><path d="M-123.1171875 -132 C-57.446903895331005 -132, 8.22337970933799 -132, 123.1171875 -132 M-123.1171875 -132 C-73.2506073004827 -132, -23.384027100965383 -132, 123.1171875 -132 M123.1171875 -132 C123.1171875 -38.80145614259342, 123.1171875 54.39708771481315, 123.1171875 132 M123.1171875 -132 C123.1171875 -30.18944115736707, 123.1171875 71.62111768526586, 123.1171875 132 M123.1171875 132 C66.4135827208693 132, 9.709977941738586 132, -123.1171875 132 M123.1171875 132 C44.22113533917587 132, -34.67491682164825 132, -123.1171875 132 M-123.1171875 132 C-123.1171875 29.688293521739084, -123.1171875 -72.62341295652183, -123.1171875 -132 M-123.1171875 132 C-123.1171875 35.00770863720223, -123.1171875 -61.984582725595544, -123.1171875 -132" stroke="#9370DB" stroke-width="1.3" fill="none" stroke-dasharray="0 0" style=""></path></g><g class="annotation-group text" transform="translate(-32.3046875, -108)"><g class="label" style="" transform="translate(0,-12)"><foreignObject width="64.609375" height="24"><div xmlns="http://www.w3.org/1999/xhtml" style="display: table-cell; white-space: nowrap; line-height: 1.5; max-width: 115px; text-align: center;"><span class="nodeLabel markdown-node-label" style=""><p>«record»</p></span></div></foreignObject></g></g><g class="label-group text" transform="translate(-84.3125, -84)"><g class="label" style="font-weight: bolder" transform="translate(0,-12)"><foreignObject width="168.625" height="24"><div xmlns="http://www.w3.org/1999/xhtml" style="display: table-cell; white-space: nowrap; line-height: 1.5; max-width: 215px; text-align: center;"><span class="nodeLabel markdown-node-label" style=""><p>AuditLogSearchCriteria</p></span></div></foreignObject></g></g><g class="members-group text" transform="translate(-111.1171875, -36)"><g class="label" style="" transform="translate(0,-12)"><foreignObject width="99.828125" height="24"><div xmlns="http://www.w3.org/1999/xhtml" style="display: table-cell; white-space: nowrap; line-height: 1.5; max-width: 157px; text-align: center;"><span class="nodeLabel markdown-node-label" style=""><p>+String action</p></span></div></foreignObject></g><g class="label" style="" transform="translate(0,12)"><foreignObject width="130.15625" height="24"><div xmlns="http://www.w3.org/1999/xhtml" style="display: table-cell; white-space: nowrap; line-height: 1.5; max-width: 188px; text-align: center;"><span class="nodeLabel markdown-node-label" style=""><p>+String entityType</p></span></div></foreignObject></g><g class="label" style="" transform="translate(0,36)"><foreignObject width="91.875" height="24"><div xmlns="http://www.w3.org/1999/xhtml" style="display: table-cell; white-space: nowrap; line-height: 1.5; max-width: 150px; text-align: center;"><span class="nodeLabel markdown-node-label" style=""><p>+String actor</p></span></div></foreignObject></g><g class="label" style="" transform="translate(0,60)"><foreignObject width="97.4375" height="24"><div xmlns="http://www.w3.org/1999/xhtml" style="display: table-cell; white-space: nowrap; line-height: 1.5; max-width: 155px; text-align: center;"><span class="nodeLabel markdown-node-label" style=""><p>+Instant from</p></span></div></foreignObject></g><g class="label" style="" transform="translate(0,84)"><foreignObject width="78.203125" height="24"><div xmlns="http://www.w3.org/1999/xhtml" style="display: table-cell; white-space: nowrap; line-height: 1.5; max-width: 136px; text-align: center;"><span class="nodeLabel markdown-node-label" style=""><p>+Instant to</p></span></div></foreignObject></g><g class="label" style="" transform="translate(0,108)"><foreignObject width="137.921875" height="24"><div xmlns="http://www.w3.org/1999/xhtml" style="display: table-cell; white-space: nowrap; line-height: 1.5; max-width: 195px; text-align: center;"><span class="nodeLabel markdown-node-label" style=""><p>+String searchTerm</p></span></div></foreignObject></g></g><g class="methods-group text" transform="translate(-111.1171875, 132)"></g><g class="divider" style=""><path d="M-123.1171875 -60 C-51.69044150840084 -60, 19.736304483198325 -60, 123.1171875 -60 M-123.1171875 -60 C-28.657339149462445 -60, 65.80250920107511 -60, 123.1171875 -60" stroke="#9370DB" stroke-width="1.3" fill="none" stroke-dasharray="0 0" style=""></path></g><g class="divider" style=""><path d="M-123.1171875 108 C-27.764904563895357 108, 67.58737837220929 108, 123.1171875 108 M-123.1171875 108 C-52.96059657969731 108, 17.19599434060538 108, 123.1171875 108" stroke="#9370DB" stroke-width="1.3" fill="none" stroke-dasharray="0 0" style=""></path></g></g><g class="node default" id="classId-AuditLogQueryService-2" transform="translate(657.0390625, 729)"><g class="basic label-container"><path d="M-322.109375 -111 L322.109375 -111 L322.109375 111 L-322.109375 111" stroke="none" stroke-width="0" fill="#ECECFF" style=""></path><path d="M-322.109375 -111 C-86.00719673029957 -111, 150.09498153940086 -111, 322.109375 -111 M-322.109375 -111 C-127.89709519046977 -111, 66.31518461906046 -111, 322.109375 -111 M322.109375 -111 C322.109375 -53.009968799581536, 322.109375 4.980062400836928, 322.109375 111 M322.109375 -111 C322.109375 -35.86068435496868, 322.109375 39.278631290062634, 322.109375 111 M322.109375 111 C113.92058091336042 111, -94.26821317327915 111, -322.109375 111 M322.109375 111 C113.5504170598692 111, -95.00854088026159 111, -322.109375 111 M-322.109375 111 C-322.109375 35.68802605368013, -322.109375 -39.623947892639734, -322.109375 -111 M-322.109375 111 C-322.109375 36.02220335126236, -322.109375 -38.955593297475275, -322.109375 -111" stroke="#9370DB" stroke-width="1.3" fill="none" stroke-dasharray="0 0" style=""></path></g><g class="annotation-group text" transform="translate(0, -87)"></g><g class="label-group text" transform="translate(-80.9375, -87)"><g class="label" style="font-weight: bolder" transform="translate(0,-12)"><foreignObject width="161.875" height="24"><div xmlns="http://www.w3.org/1999/xhtml" style="display: table-cell; white-space: nowrap; line-height: 1.5; max-width: 209px; text-align: center;"><span class="nodeLabel markdown-node-label" style=""><p>AuditLogQueryService</p></span></div></foreignObject></g></g><g class="members-group text" transform="translate(-310.109375, -39)"></g><g class="methods-group text" transform="translate(-310.109375, -9)"><g class="label" style="" transform="translate(0,-12)"><foreignObject width="364.875" height="24"><div xmlns="http://www.w3.org/1999/xhtml" style="display: table-cell; white-space: nowrap; line-height: 1.5; max-width: 462px; text-align: center;"><span class="nodeLabel markdown-node-label" style=""><p>+findAll(TenantId, Pageable) : Page&lt;AuditLogEntry&gt;</p></span></div></foreignObject></g><g class="label" style="" transform="translate(0,12)"><foreignObject width="539.28125" height="24"><div xmlns="http://www.w3.org/1999/xhtml" style="display: table-cell; white-space: nowrap; line-height: 1.5; max-width: 636px; text-align: center;"><span class="nodeLabel markdown-node-label" style=""><p>+search(TenantId, AuditLogSearchCriteria, Pageable) : Page&lt;AuditLogEntry&gt;</p></span></div></foreignObject></g><g class="label" style="" transform="translate(0,36)"><foreignObject width="310.15625" height="24"><div xmlns="http://www.w3.org/1999/xhtml" style="display: table-cell; white-space: nowrap; line-height: 1.5; max-width: 407px; text-align: center;"><span class="nodeLabel markdown-node-label" style=""><p>+getDistinctActions(TenantId) : List&lt;String&gt;</p></span></div></foreignObject></g><g class="label" style="" transform="translate(0,60)"><foreignObject width="339.6875" height="24"><div xmlns="http://www.w3.org/1999/xhtml" style="display: table-cell; white-space: nowrap; line-height: 1.5; max-width: 437px; text-align: center;"><span class="nodeLabel markdown-node-label" style=""><p>+getDistinctEntityTypes(TenantId) : List&lt;String&gt;</p></span></div></foreignObject></g><g class="label" style="" transform="translate(0,84)"><foreignObject width="301.953125" height="24"><div xmlns="http://www.w3.org/1999/xhtml" style="display: table-cell; white-space: nowrap; line-height: 1.5; max-width: 399px; text-align: center;"><span class="nodeLabel markdown-node-label" style=""><p>+getDistinctActors(TenantId) : List&lt;String&gt;</p></span></div></foreignObject></g></g><g class="divider" style=""><path d="M-322.109375 -63 C-158.92959923479887 -63, 4.250176530402257 -63, 322.109375 -63 M-322.109375 -63 C-171.5602965978919 -63, -21.011218195783783 -63, 322.109375 -63" stroke="#9370DB" stroke-width="1.3" fill="none" stroke-dasharray="0 0" style=""></path></g><g class="divider" style=""><path d="M-322.109375 -39 C-191.0280746196114 -39, -59.946774239222805 -39, 322.109375 -39 M-322.109375 -39 C-129.0810029475547 -39, 63.94736910489058 -39, 322.109375 -39" stroke="#9370DB" stroke-width="1.3" fill="none" stroke-dasharray="0 0" style=""></path></g></g><g class="node default" id="classId-AuditLogAdminController-3" transform="translate(657.0390625, 140)"><g class="basic label-container"><path d="M-352.8046875 -63 L352.8046875 -63 L352.8046875 63 L-352.8046875 63" stroke="none" stroke-width="0" fill="#ECECFF" style=""></path><path d="M-352.8046875 -63 C-193.66030840505883 -63, -34.515929310117656 -63, 352.8046875 -63 M-352.8046875 -63 C-204.62420611408263 -63, -56.44372472816525 -63, 352.8046875 -63 M352.8046875 -63 C352.8046875 -14.254506501619034, 352.8046875 34.49098699676193, 352.8046875 63 M352.8046875 -63 C352.8046875 -18.276254379248343, 352.8046875 26.447491241503315, 352.8046875 63 M352.8046875 63 C158.3541076948699 63, -36.09647211026021 63, -352.8046875 63 M352.8046875 63 C101.2325482930789 63, -150.3395909138422 63, -352.8046875 63 M-352.8046875 63 C-352.8046875 19.393501107934426, -352.8046875 -24.212997784131147, -352.8046875 -63 M-352.8046875 63 C-352.8046875 23.242941217445804, -352.8046875 -16.514117565108393, -352.8046875 -63" stroke="#9370DB" stroke-width="1.3" fill="none" stroke-dasharray="0 0" style=""></path></g><g class="annotation-group text" transform="translate(0, -39)"></g><g class="label-group text" transform="translate(-92.375, -39)"><g class="label" style="font-weight: bolder" transform="translate(0,-12)"><foreignObject width="184.75" height="24"><div xmlns="http://www.w3.org/1999/xhtml" style="display: table-cell; white-space: nowrap; line-height: 1.5; max-width: 233px; text-align: center;"><span class="nodeLabel markdown-node-label" style=""><p>AuditLogAdminController</p></span></div></foreignObject></g></g><g class="members-group text" transform="translate(-340.8046875, 9)"></g><g class="methods-group text" transform="translate(-340.8046875, 39)"><g class="label" style="" transform="translate(0,-12)"><foreignObject width="589.234375" height="24"><div xmlns="http://www.w3.org/1999/xhtml" style="display: table-cell; white-space: nowrap; line-height: 1.5; max-width: 647px; text-align: center;"><span class="nodeLabel markdown-node-label" style=""><p>+listAuditLogs(UUID, String, String, String, String, String, String, int, Model) : String</p></span></div></foreignObject></g></g><g class="divider" style=""><path d="M-352.8046875 -15 C-85.024000307785 -15, 182.75668688443 -15, 352.8046875 -15 M-352.8046875 -15 C-192.15211778804095 -15, -31.499548076081908 -15, 352.8046875 -15" stroke="#9370DB" stroke-width="1.3" fill="none" stroke-dasharray="0 0" style=""></path></g><g class="divider" style=""><path d="M-352.8046875 9 C-117.8862266526472 9, 117.03223419470561 9, 352.8046875 9 M-352.8046875 9 C-190.48442265850483 9, -28.164157817009652 9, 352.8046875 9" stroke="#9370DB" stroke-width="1.3" fill="none" stroke-dasharray="0 0" style=""></path></g></g><g class="node default" id="classId-AuditLogRepository-4" transform="translate(657.0390625, 932)"><g class="basic label-container"><path d="M-84.1953125 -42 L84.1953125 -42 L84.1953125 42 L-84.1953125 42" stroke="none" stroke-width="0" fill="#ECECFF" style=""></path><path d="M-84.1953125 -42 C-25.709531759333558 -42, 32.776248981332884 -42, 84.1953125 -42 M-84.1953125 -42 C-17.039194743285535 -42, 50.11692301342893 -42, 84.1953125 -42 M84.1953125 -42 C84.1953125 -22.500135682653333, 84.1953125 -3.0002713653066664, 84.1953125 42 M84.1953125 -42 C84.1953125 -20.187595622789928, 84.1953125 1.624808754420144, 84.1953125 42 M84.1953125 42 C36.23465451766606 42, -11.726003464667883 42, -84.1953125 42 M84.1953125 42 C28.862837995622506 42, -26.469636508754988 42, -84.1953125 42 M-84.1953125 42 C-84.1953125 16.347068802892313, -84.1953125 -9.305862394215374, -84.1953125 -42 M-84.1953125 42 C-84.1953125 16.545425299336063, -84.1953125 -8.909149401327873, -84.1953125 -42" stroke="#9370DB" stroke-width="1.3" fill="none" stroke-dasharray="0 0" style=""></path></g><g class="annotation-group text" transform="translate(0, -18)"></g><g class="label-group text" transform="translate(-72.1953125, -18)"><g class="label" style="font-weight: bolder" transform="translate(0,-12)"><foreignObject width="144.390625" height="24"><div xmlns="http://www.w3.org/1999/xhtml" style="display: table-cell; white-space: nowrap; line-height: 1.5; max-width: 192px; text-align: center;"><span class="nodeLabel markdown-node-label" style=""><p>AuditLogRepository</p></span></div></foreignObject></g></g><g class="members-group text" transform="translate(-72.1953125, 30)"></g><g class="methods-group text" transform="translate(-72.1953125, 60)"></g><g class="divider" style=""><path d="M-84.1953125 6 C-49.54241799078315 6, -14.8895234815663 6, 84.1953125 6 M-84.1953125 6 C-38.49486786056192 6, 7.205576778876164 6, 84.1953125 6" stroke="#9370DB" stroke-width="1.3" fill="none" stroke-dasharray="0 0" style=""></path></g><g class="divider" style=""><path d="M-84.1953125 24 C-23.95436646449933 24, 36.28657957100134 24, 84.1953125 24 M-84.1953125 24 C-46.626678235523684 24, -9.058043971047368 24, 84.1953125 24" stroke="#9370DB" stroke-width="1.3" fill="none" stroke-dasharray="0 0" style=""></path></g></g></g></g></g></svg>