<svg id="container" width="1297.7421875" xmlns="http://www.w3.org/2000/svg" class="classDiagram" height="722" viewBox="0 0 1297.7421875 722" role="graphics-document document" aria-roledescription="class"><style>#container{font-family:"trebuchet ms",verdana,arial,sans-serif;font-size:16px;fill:#333;}@keyframes edge-animation-frame{from{stroke-dashoffset:0;}}@keyframes dash{to{stroke-dashoffset:0;}}#container .edge-animation-slow{stroke-dasharray:9,5!important;stroke-dashoffset:900;animation:dash 50s linear infinite;stroke-linecap:round;}#container .edge-animation-fast{stroke-dasharray:9,5!important;stroke-dashoffset:900;animation:dash 20s linear infinite;stroke-linecap:round;}#container .error-icon{fill:#552222;}#container .error-text{fill:#552222;stroke:#552222;}#container .edge-thickness-normal{stroke-width:1px;}#container .edge-thickness-thick{stroke-width:3.5px;}#container .edge-pattern-solid{stroke-dasharray:0;}#container .edge-thickness-invisible{stroke-width:0;fill:none;}#container .edge-pattern-dashed{stroke-dasharray:3;}#container .edge-pattern-dotted{stroke-dasharray:2;}#container .marker{fill:#333333;stroke:#333333;}#container .marker.cross{stroke:#333333;}#container svg{font-family:"trebuchet ms",verdana,arial,sans-serif;font-size:16px;}#container p{margin:0;}#container g.classGroup text{fill:#9370DB;stroke:none;font-family:"trebuchet ms",verdana,arial,sans-serif;font-size:10px;}#container g.classGroup text .title{font-weight:bolder;}#container .nodeLabel,#container .edgeLabel{color:#131300;}#container .edgeLabel .label rect{fill:#ECECFF;}#container .label text{fill:#131300;}#container .labelBkg{background:#ECECFF;}#container .edgeLabel .label span{background:#ECECFF;}#container .classTitle{font-weight:bolder;}#container .node rect,#container .node circle,#container .node ellipse,#container .node polygon,#container .node path{fill:#ECECFF;stroke:#9370DB;stroke-width:1px;}#container .divider{stroke:#9370DB;stroke-width:1;}#container g.clickable{cursor:pointer;}#container g.classGroup rect{fill:#ECECFF;stroke:#9370DB;}#container g.classGroup line{stroke:#9370DB;stroke-width:1;}#container .classLabel .box{stroke:none;stroke-width:0;fill:#ECECFF;opacity:0.5;}#container .classLabel .label{fill:#9370DB;font-size:10px;}#container .relation{stroke:#333333;stroke-width:1;fill:none;}#container .dashed-line{stroke-dasharray:3;}#container .dotted-line{stroke-dasharray:1 2;}#container #compositionStart,#container .composition{fill:#333333!important;stroke:#333333!important;stroke-width:1;}#container #compositionEnd,#container .composition{fill:#333333!important;stroke:#333333!important;stroke-width:1;}#container #dependencyStart,#container .dependency{fill:#333333!important;stroke:#333333!important;stroke-width:1;}#container #dependencyStart,#container .dependency{fill:#333333!important;stroke:#333333!important;stroke-width:1;}#container #extensionStart,#container .extension{fill:transparent!important;stroke:#333333!important;stroke-width:1;}#container #extensionEnd,#container .extension{fill:transparent!important;stroke:#333333!important;stroke-width:1;}#container #aggregationStart,#container .aggregation{fill:transparent!important;stroke:#333333!important;stroke-width:1;}#container #aggregationEnd,#container .aggregation{fill:transparent!important;stroke:#333333!important;stroke-width:1;}#container #lollipopStart,#container .lollipop{fill:#ECECFF!important;stroke:#333333!important;stroke-width:1;}#container #lollipopEnd,#container .lollipop{fill:#ECECFF!important;stroke:#333333!important;stroke-width:1;}#container .edgeTerminals{font-size:11px;line-height:initial;}#container .classTitleText{text-anchor:middle;font-size:18px;fill:#333;}#container .label-icon{display:inline-block;height:1em;overflow:visible;vertical-align:-0.125em;}#container .node .label-icon path{fill:currentColor;stroke:revert;stroke-width:revert;}#container :root{--mermaid-font-family:"trebuchet ms",verdana,arial,sans-serif;}</style><g><defs><marker id="container_class-aggregationStart" class="marker aggregation class" refX="18" refY="7" markerWidth="190" markerHeight="240" orient="auto"><path d="M 18,7 L9,13 L1,7 L9,1 Z"></path></marker></defs><defs><marker id="container_class-aggregationEnd" class="marker aggregation class" refX="1" refY="7" markerWidth="20" markerHeight="28" orient="auto"><path d="M 18,7 L9,13 L1,7 L9,1 Z"></path></marker></defs><defs><marker id="container_class-extensionStart" class="marker extension class" refX="18" refY="7" markerWidth="190" markerHeight="240" orient="auto"><path d="M 1,7 L18,13 V 1 Z"></path></marker></defs><defs><marker id="container_class-extensionEnd" class="marker extension class" refX="1" refY="7" markerWidth="20" markerHeight="28" orient="auto"><path d="M 1,1 V 13 L18,7 Z"></path></marker></defs><defs><marker id="container_class-compositionStart" class="marker composition class" refX="18" refY="7" markerWidth="190" markerHeight="240" orient="auto"><path d="M 18,7 L9,13 L1,7 L9,1 Z"></path></marker></defs><defs><marker id="container_class-compositionEnd" class="marker composition class" refX="1" refY="7" markerWidth="20" markerHeight="28" orient="auto"><path d="M 18,7 L9,13 L1,7 L9,1 Z"></path></marker></defs><defs><marker id="container_class-dependencyStart" class="marker dependency class" refX="6" refY="7" markerWidth="190" markerHeight="240" orient="auto"><path d="M 5,7 L9,13 L1,7 L9,1 Z"></path></marker></defs><defs><marker id="container_class-dependencyEnd" class="marker dependency class" refX="13" refY="7" markerWidth="20" markerHeight="28" orient="auto"><path d="M 18,7 L9,13 L14,7 L9,1 Z"></path></marker></defs><defs><marker id="container_class-lollipopStart" class="marker lollipop class" refX="13" refY="7" markerWidth="190" markerHeight="240" orient="auto"><circle stroke="black" fill="transparent" cx="7" cy="7" r="6"></circle></marker></defs><defs><marker id="container_class-lollipopEnd" class="marker lollipop class" refX="1" refY="7" markerWidth="190" markerHeight="240" orient="auto"><circle stroke="black" fill="transparent" cx="7" cy="7" r="6"></circle></marker></defs><g class="root"><g class="clusters"></g><g class="edgePaths"><path d="M1129.89,176L1141.831,180.167C1153.773,184.333,1177.656,192.667,1189.598,203.625C1201.539,214.583,1201.539,228.167,1201.539,234.958L1201.539,241.75" id="id_SpringDataFeedEntryRepository_FeedEntryRepository_1" class="edge-thickness-normal edge-pattern-dashed relation" style=";;;" data-edge="true" data-et="edge" data-id="id_SpringDataFeedEntryRepository_FeedEntryRepository_1" data-points="W3sieCI6MTEyOS44ODk4MzY1ODI1NjksInkiOjE3Nn0seyJ4IjoxMjAxLjUzOTA2MjUsInkiOjIwMX0seyJ4IjoxMjAxLjUzOTA2MjUsInkiOjI1OX1d" marker-end="url(#container_class-extensionEnd)"></path><path d="M578.395,153.288L538.076,161.24C497.757,169.192,417.118,185.096,376.799,196.215C336.48,207.333,336.48,213.667,336.48,216.833L336.48,220" id="id_SpringDataFeedEntryRepository_JpaFeedEntryRepository_2" class="edge-thickness-normal edge-pattern-solid relation" style=";;;" data-edge="true" data-et="edge" data-id="id_SpringDataFeedEntryRepository_JpaFeedEntryRepository_2" data-points="W3sieCI6NTc4LjM5NDUzMTI1LCJ5IjoxNTMuMjg4NDcyODIwMDU2MX0seyJ4IjozMzYuNDgwNDY4NzUsInkiOjIwMX0seyJ4IjozMzYuNDgwNDY4NzUsInkiOjIyNn1d" marker-end="url(#container_class-dependencyEnd)"></path><path d="M889.148,176L889.148,180.167C889.148,184.333,889.148,192.667,889.148,200C889.148,207.333,889.148,213.667,889.148,216.833L889.148,220" id="id_SpringDataFeedEntryRepository_FeedEntryMapper_3" class="edge-thickness-normal edge-pattern-solid relation" style=";;;" data-edge="true" data-et="edge" data-id="id_SpringDataFeedEntryRepository_FeedEntryMapper_3" data-points="W3sieCI6ODg5LjE0ODQzNzUsInkiOjE3Nn0seyJ4Ijo4ODkuMTQ4NDM3NSwieSI6MjAxfSx7IngiOjg4OS4xNDg0Mzc1LCJ5IjoyMjZ9XQ==" marker-end="url(#container_class-dependencyEnd)"></path><path d="M889.148,376L889.148,380.167C889.148,384.333,889.148,392.667,889.148,400C889.148,407.333,889.148,413.667,889.148,416.833L889.148,420" id="id_FeedEntryMapper_FeedEntryJpaEntity_4" class="edge-thickness-normal edge-pattern-solid relation" style=";;;" data-edge="true" data-et="edge" data-id="id_FeedEntryMapper_FeedEntryJpaEntity_4" data-points="W3sieCI6ODg5LjE0ODQzNzUsInkiOjM3Nn0seyJ4Ijo4ODkuMTQ4NDM3NSwieSI6NDAxfSx7IngiOjg4OS4xNDg0Mzc1LCJ5Ijo0MjZ9XQ==" marker-end="url(#container_class-dependencyEnd)"></path></g><g class="edgeLabels"><g class="edgeLabel"><g class="label" data-id="id_SpringDataFeedEntryRepository_FeedEntryRepository_1" transform="translate(0, 0)"><foreignObject width="0" height="0"><div xmlns="http://www.w3.org/1999/xhtml" class="labelBkg" style="display: table-cell; white-space: nowrap; line-height: 1.5; max-width: 200px; text-align: center;"><span class="edgeLabel"></span></div></foreignObject></g></g><g class="edgeLabel"><g class="label" data-id="id_SpringDataFeedEntryRepository_JpaFeedEntryRepository_2" transform="translate(0, 0)"><foreignObject width="0" height="0"><div xmlns="http://www.w3.org/1999/xhtml" class="labelBkg" style="display: table-cell; white-space: nowrap; line-height: 1.5; max-width: 200px; text-align: center;"><span class="edgeLabel"></span></div></foreignObject></g></g><g class="edgeLabel"><g class="label" data-id="id_SpringDataFeedEntryRepository_FeedEntryMapper_3" transform="translate(0, 0)"><foreignObject width="0" height="0"><div xmlns="http://www.w3.org/1999/xhtml" class="labelBkg" style="display: table-cell; white-space: nowrap; line-height: 1.5; max-width: 200px; text-align: center;"><span class="edgeLabel"></span></div></foreignObject></g></g><g class="edgeLabel"><g class="label" data-id="id_FeedEntryMapper_FeedEntryJpaEntity_4" transform="translate(0, 0)"><foreignObject width="0" height="0"><div xmlns="http://www.w3.org/1999/xhtml" class="labelBkg" style="display: table-cell; white-space: nowrap; line-height: 1.5; max-width: 200px; text-align: center;"><span class="edgeLabel"></span></div></foreignObject></g></g></g><g class="nodes"><g class="node default" id="classId-SpringDataFeedEntryRepository-0" transform="translate(889.1484375, 92)"><g class="basic label-container"><path d="M-310.75390625 -84 L310.75390625 -84 L310.75390625 84 L-310.75390625 84" stroke="none" stroke-width="0" fill="#ECECFF" style=""></path><path d="M-310.75390625 -84 C-87.55722857945511 -84, 135.63944909108977 -84, 310.75390625 -84 M-310.75390625 -84 C-162.1986444632756 -84, -13.643382676551198 -84, 310.75390625 -84 M310.75390625 -84 C310.75390625 -25.56200199406704, 310.75390625 32.87599601186592, 310.75390625 84 M310.75390625 -84 C310.75390625 -50.254656752979585, 310.75390625 -16.50931350595917, 310.75390625 84 M310.75390625 84 C145.67540233970016 84, -19.403101570599688 84, -310.75390625 84 M310.75390625 84 C161.13424363698482 84, 11.51458102396964 84, -310.75390625 84 M-310.75390625 84 C-310.75390625 29.973573042393014, -310.75390625 -24.052853915213973, -310.75390625 -84 M-310.75390625 84 C-310.75390625 26.691780883603876, -310.75390625 -30.616438232792248, -310.75390625 -84" stroke="#9370DB" stroke-width="1.3" fill="none" stroke-dasharray="0 0" style=""></path></g><g class="annotation-group text" transform="translate(0, -60)"></g><g class="label-group text" transform="translate(-116.9296875, -60)"><g class="label" style="font-weight: bolder" transform="translate(0,-12)"><foreignObject width="233.859375" height="24"><div xmlns="http://www.w3.org/1999/xhtml" style="display: table-cell; white-space: nowrap; line-height: 1.5; max-width: 280px; text-align: center;"><span class="nodeLabel markdown-node-label" style=""><p>SpringDataFeedEntryRepository</p></span></div></foreignObject></g></g><g class="members-group text" transform="translate(-298.75390625, -12)"><g class="label" style="" transform="translate(0,-12)"><foreignObject width="283.75" height="24"><div xmlns="http://www.w3.org/1999/xhtml" style="display: table-cell; white-space: nowrap; line-height: 1.5; max-width: 341px; text-align: center;"><span class="nodeLabel markdown-node-label" style=""><p>-JpaFeedEntryRepository jpaRepository</p></span></div></foreignObject></g></g><g class="methods-group text" transform="translate(-298.75390625, 36)"><g class="label" style="" transform="translate(0,-12)"><foreignObject width="204.703125" height="24"><div xmlns="http://www.w3.org/1999/xhtml" style="display: table-cell; white-space: nowrap; line-height: 1.5; max-width: 262px; text-align: center;"><span class="nodeLabel markdown-node-label" style=""><p>+save(feedEntry) : FeedEntry</p></span></div></foreignObject></g><g class="label" style="" transform="translate(0,12)"><foreignObject width="480.578125" height="24"><div xmlns="http://www.w3.org/1999/xhtml" style="display: table-cell; white-space: nowrap; line-height: 1.5; max-width: 578px; text-align: center;"><span class="nodeLabel markdown-node-label" style=""><p>+findByTenantIdAndPostId(tenantId, postId) : Optional&lt;FeedEntry&gt;</p></span></div></foreignObject></g></g><g class="divider" style=""><path d="M-310.75390625 -36 C-68.64101786653922 -36, 173.47187051692157 -36, 310.75390625 -36 M-310.75390625 -36 C-88.76767668499426 -36, 133.2185528800115 -36, 310.75390625 -36" stroke="#9370DB" stroke-width="1.3" fill="none" stroke-dasharray="0 0" style=""></path></g><g class="divider" style=""><path d="M-310.75390625 12 C-120.37534851936516 12, 70.00320921126968 12, 310.75390625 12 M-310.75390625 12 C-79.52574052105828 12, 151.70242520788344 12, 310.75390625 12" stroke="#9370DB" stroke-width="1.3" fill="none" stroke-dasharray="0 0" style=""></path></g></g><g class="node default" id="classId-JpaFeedEntryRepository-1" transform="translate(336.48046875, 301)"><g class="basic label-container"><path d="M-328.48046875 -75 L328.48046875 -75 L328.48046875 75 L-328.48046875 75" stroke="none" stroke-width="0" fill="#ECECFF" style=""></path><path d="M-328.48046875 -75 C-75.44420912710055 -75, 177.5920504957989 -75, 328.48046875 -75 M-328.48046875 -75 C-196.3353265492096 -75, -64.19018434841922 -75, 328.48046875 -75 M328.48046875 -75 C328.48046875 -34.60224951898409, 328.48046875 5.795500962031824, 328.48046875 75 M328.48046875 -75 C328.48046875 -26.431894357843213, 328.48046875 22.136211284313575, 328.48046875 75 M328.48046875 75 C81.80860609834119 75, -164.86325655331763 75, -328.48046875 75 M328.48046875 75 C103.87768853581645 75, -120.72509167836711 75, -328.48046875 75 M-328.48046875 75 C-328.48046875 18.87722584420596, -328.48046875 -37.24554831158808, -328.48046875 -75 M-328.48046875 75 C-328.48046875 37.32868769746036, -328.48046875 -0.34262460507927983, -328.48046875 -75" stroke="#9370DB" stroke-width="1.3" fill="none" stroke-dasharray="0 0" style=""></path></g><g class="annotation-group text" transform="translate(-41.015625, -51)"><g class="label" style="" transform="translate(0,-12)"><foreignObject width="82.03125" height="24"><div xmlns="http://www.w3.org/1999/xhtml" style="display: table-cell; white-space: nowrap; line-height: 1.5; max-width: 132px; text-align: center;"><span class="nodeLabel markdown-node-label" style=""><p>«interface»</p></span></div></foreignObject></g></g><g class="label-group text" transform="translate(-87.8203125, -27)"><g class="label" style="font-weight: bolder" transform="translate(0,-12)"><foreignObject width="175.640625" height="24"><div xmlns="http://www.w3.org/1999/xhtml" style="display: table-cell; white-space: nowrap; line-height: 1.5; max-width: 223px; text-align: center;"><span class="nodeLabel markdown-node-label" style=""><p>JpaFeedEntryRepository</p></span></div></foreignObject></g></g><g class="members-group text" transform="translate(-316.48046875, 21)"></g><g class="methods-group text" transform="translate(-316.48046875, 51)"><g class="label" style="" transform="translate(0,-12)"><foreignObject width="545.140625" height="24"><div xmlns="http://www.w3.org/1999/xhtml" style="display: table-cell; white-space: nowrap; line-height: 1.5; max-width: 642px; text-align: center;"><span class="nodeLabel markdown-node-label" style=""><p>+findByTenantIdAndPostId(tenantId, postId) : Optional&lt;FeedEntryJpaEntity&gt;</p></span></div></foreignObject></g></g><g class="divider" style=""><path d="M-328.48046875 -3 C-192.28964612628826 -3, -56.09882350257652 -3, 328.48046875 -3 M-328.48046875 -3 C-146.19878261495055 -3, 36.08290352009891 -3, 328.48046875 -3" stroke="#9370DB" stroke-width="1.3" fill="none" stroke-dasharray="0 0" style=""></path></g><g class="divider" style=""><path d="M-328.48046875 21 C-189.1672887835204 21, -49.85410881704081 21, 328.48046875 21 M-328.48046875 21 C-184.05017709039058 21, -39.61988543078115 21, 328.48046875 21" stroke="#9370DB" stroke-width="1.3" fill="none" stroke-dasharray="0 0" style=""></path></g></g><g class="node default" id="classId-FeedEntryMapper-2" transform="translate(889.1484375, 301)"><g class="basic label-container"><path d="M-174.1875 -75 L174.1875 -75 L174.1875 75 L-174.1875 75" stroke="none" stroke-width="0" fill="#ECECFF" style=""></path><path d="M-174.1875 -75 C-59.496459720053124 -75, 55.19458055989375 -75, 174.1875 -75 M-174.1875 -75 C-75.92297085048526 -75, 22.341558299029487 -75, 174.1875 -75 M174.1875 -75 C174.1875 -18.503443288732413, 174.1875 37.993113422535174, 174.1875 75 M174.1875 -75 C174.1875 -29.156575461271913, 174.1875 16.686849077456174, 174.1875 75 M174.1875 75 C44.49494350825316 75, -85.19761298349368 75, -174.1875 75 M174.1875 75 C94.8902519906513 75, 15.593003981302587 75, -174.1875 75 M-174.1875 75 C-174.1875 16.322258715887138, -174.1875 -42.355482568225725, -174.1875 -75 M-174.1875 75 C-174.1875 31.21079336605716, -174.1875 -12.57841326788568, -174.1875 -75" stroke="#9370DB" stroke-width="1.3" fill="none" stroke-dasharray="0 0" style=""></path></g><g class="annotation-group text" transform="translate(0, -51)"></g><g class="label-group text" transform="translate(-64.28125, -51)"><g class="label" style="font-weight: bolder" transform="translate(0,-12)"><foreignObject width="128.5625" height="24"><div xmlns="http://www.w3.org/1999/xhtml" style="display: table-cell; white-space: nowrap; line-height: 1.5; max-width: 178px; text-align: center;"><span class="nodeLabel markdown-node-label" style=""><p>FeedEntryMapper</p></span></div></foreignObject></g></g><g class="members-group text" transform="translate(-162.1875, -3)"></g><g class="methods-group text" transform="translate(-162.1875, 27)"><g class="label" style="" transform="translate(0,-12)"><foreignObject width="260.09375" height="24"><div xmlns="http://www.w3.org/1999/xhtml" style="display: table-cell; white-space: nowrap; line-height: 1.5; max-width: 318px; text-align: center;"><span class="nodeLabel markdown-node-label" style=""><p>+toJpa(domain) : FeedEntryJpaEntity</p></span></div></foreignObject></g><g class="label" style="" transform="translate(0,12)"><foreignObject width="196.4375" height="24"><div xmlns="http://www.w3.org/1999/xhtml" style="display: table-cell; white-space: nowrap; line-height: 1.5; max-width: 254px; text-align: center;"><span class="nodeLabel markdown-node-label" style=""><p>+toDomain(jpa) : FeedEntry</p></span></div></foreignObject></g></g><g class="divider" style=""><path d="M-174.1875 -27 C-83.75806829823195 -27, 6.671363403536105 -27, 174.1875 -27 M-174.1875 -27 C-56.25523946141146 -27, 61.67702107717707 -27, 174.1875 -27" stroke="#9370DB" stroke-width="1.3" fill="none" stroke-dasharray="0 0" style=""></path></g><g class="divider" style=""><path d="M-174.1875 -3 C-77.08801089527702 -3, 20.011478209445954 -3, 174.1875 -3 M-174.1875 -3 C-90.8947144765007 -3, -7.601928953001391 -3, 174.1875 -3" stroke="#9370DB" stroke-width="1.3" fill="none" stroke-dasharray="0 0" style=""></path></g></g><g class="node default" id="classId-FeedEntryJpaEntity-3" transform="translate(889.1484375, 570)"><g class="basic label-container"><path d="M-121.36328125 -144 L121.36328125 -144 L121.36328125 144 L-121.36328125 144" stroke="none" stroke-width="0" fill="#ECECFF" style=""></path><path d="M-121.36328125 -144 C-44.42052785225057 -144, 32.522225545498856 -144, 121.36328125 -144 M-121.36328125 -144 C-29.152070756785477 -144, 63.059139736429046 -144, 121.36328125 -144 M121.36328125 -144 C121.36328125 -33.68298016985159, 121.36328125 76.63403966029682, 121.36328125 144 M121.36328125 -144 C121.36328125 -57.377827985831814, 121.36328125 29.24434402833637, 121.36328125 144 M121.36328125 144 C34.53201799646834 144, -52.29924525706332 144, -121.36328125 144 M121.36328125 144 C40.994908770343585 144, -39.37346370931283 144, -121.36328125 144 M-121.36328125 144 C-121.36328125 61.26135430463438, -121.36328125 -21.47729139073124, -121.36328125 -144 M-121.36328125 144 C-121.36328125 78.55945610712706, -121.36328125 13.118912214254124, -121.36328125 -144" stroke="#9370DB" stroke-width="1.3" fill="none" stroke-dasharray="0 0" style=""></path></g><g class="annotation-group text" transform="translate(0, -120)"></g><g class="label-group text" transform="translate(-69.3359375, -120)"><g class="label" style="font-weight: bolder" transform="translate(0,-12)"><foreignObject width="138.671875" height="24"><div xmlns="http://www.w3.org/1999/xhtml" style="display: table-cell; white-space: nowrap; line-height: 1.5; max-width: 187px; text-align: center;"><span class="nodeLabel markdown-node-label" style=""><p>FeedEntryJpaEntity</p></span></div></foreignObject></g></g><g class="members-group text" transform="translate(-109.36328125, -72)"><g class="label" style="" transform="translate(0,-12)"><foreignObject width="60.984375" height="24"><div xmlns="http://www.w3.org/1999/xhtml" style="display: table-cell; white-space: nowrap; line-height: 1.5; max-width: 118px; text-align: center;"><span class="nodeLabel markdown-node-label" style=""><p>-UUID id</p></span></div></foreignObject></g><g class="label" style="" transform="translate(0,12)"><foreignObject width="108.6875" height="24"><div xmlns="http://www.w3.org/1999/xhtml" style="display: table-cell; white-space: nowrap; line-height: 1.5; max-width: 166px; text-align: center;"><span class="nodeLabel markdown-node-label" style=""><p>-UUID tenantId</p></span></div></foreignObject></g><g class="label" style="" transform="translate(0,36)"><foreignObject width="93.28125" height="24"><div xmlns="http://www.w3.org/1999/xhtml" style="display: table-cell; white-space: nowrap; line-height: 1.5; max-width: 151px; text-align: center;"><span class="nodeLabel markdown-node-label" style=""><p>-UUID postId</p></span></div></foreignObject></g><g class="label" style="" transform="translate(0,60)"><foreignObject width="82.171875" height="24"><div xmlns="http://www.w3.org/1999/xhtml" style="display: table-cell; white-space: nowrap; line-height: 1.5; max-width: 140px; text-align: center;"><span class="nodeLabel markdown-node-label" style=""><p>-String title</p></span></div></foreignObject></g><g class="label" style="" transform="translate(0,84)"><foreignObject width="82.734375" height="24"><div xmlns="http://www.w3.org/1999/xhtml" style="display: table-cell; white-space: nowrap; line-height: 1.5; max-width: 141px; text-align: center;"><span class="nodeLabel markdown-node-label" style=""><p>-String slug</p></span></div></foreignObject></g><g class="label" style="" transform="translate(0,108)"><foreignObject width="96.25" height="24"><div xmlns="http://www.w3.org/1999/xhtml" style="display: table-cell; white-space: nowrap; line-height: 1.5; max-width: 154px; text-align: center;"><span class="nodeLabel markdown-node-label" style=""><p>-String locale</p></span></div></foreignObject></g><g class="label" style="" transform="translate(0,132)"><foreignObject width="149.390625" height="24"><div xmlns="http://www.w3.org/1999/xhtml" style="display: table-cell; white-space: nowrap; line-height: 1.5; max-width: 207px; text-align: center;"><span class="nodeLabel markdown-node-label" style=""><p>-Instant publishedAt</p></span></div></foreignObject></g><g class="label" style="" transform="translate(0,156)"><foreignObject width="137.640625" height="24"><div xmlns="http://www.w3.org/1999/xhtml" style="display: table-cell; white-space: nowrap; line-height: 1.5; max-width: 195px; text-align: center;"><span class="nodeLabel markdown-node-label" style=""><p>-Instant updatedAt</p></span></div></foreignObject></g></g><g class="methods-group text" transform="translate(-109.36328125, 144)"></g><g class="divider" style=""><path d="M-121.36328125 -96 C-63.708436613254285 -96, -6.053591976508571 -96, 121.36328125 -96 M-121.36328125 -96 C-47.49181573191703 -96, 26.379649786165942 -96, 121.36328125 -96" stroke="#9370DB" stroke-width="1.3" fill="none" stroke-dasharray="0 0" style=""></path></g><g class="divider" style=""><path d="M-121.36328125 120 C-67.81704925256052 120, -14.270817255121045 120, 121.36328125 120 M-121.36328125 120 C-38.867238651499704 120, 43.62880394700059 120, 121.36328125 120" stroke="#9370DB" stroke-width="1.3" fill="none" stroke-dasharray="0 0" style=""></path></g></g><g class="node default" id="classId-FeedEntryRepository-4" transform="translate(1201.5390625, 301)"><g class="basic label-container"><path d="M-88.203125 -42 L88.203125 -42 L88.203125 42 L-88.203125 42" stroke="none" stroke-width="0" fill="#ECECFF" style=""></path><path d="M-88.203125 -42 C-35.805045168723574 -42, 16.593034662552853 -42, 88.203125 -42 M-88.203125 -42 C-47.65283540337683 -42, -7.102545806753653 -42, 88.203125 -42 M88.203125 -42 C88.203125 -9.717062773401636, 88.203125 22.565874453196727, 88.203125 42 M88.203125 -42 C88.203125 -23.70490624091365, 88.203125 -5.409812481827302, 88.203125 42 M88.203125 42 C33.745488908239714 42, -20.71214718352057 42, -88.203125 42 M88.203125 42 C23.111276787936376 42, -41.98057142412725 42, -88.203125 42 M-88.203125 42 C-88.203125 18.338017243056157, -88.203125 -5.323965513887686, -88.203125 -42 M-88.203125 42 C-88.203125 24.029605922778117, -88.203125 6.059211845556234, -88.203125 -42" stroke="#9370DB" stroke-width="1.3" fill="none" stroke-dasharray="0 0" style=""></path></g><g class="annotation-group text" transform="translate(0, -18)"></g><g class="label-group text" transform="translate(-76.203125, -18)"><g class="label" style="font-weight: bolder" transform="translate(0,-12)"><foreignObject width="152.40625" height="24"><div xmlns="http://www.w3.org/1999/xhtml" style="display: table-cell; white-space: nowrap; line-height: 1.5; max-width: 200px; text-align: center;"><span class="nodeLabel markdown-node-label" style=""><p>FeedEntryRepository</p></span></div></foreignObject></g></g><g class="members-group text" transform="translate(-76.203125, 30)"></g><g class="methods-group text" transform="translate(-76.203125, 60)"></g><g class="divider" style=""><path d="M-88.203125 6 C-41.989589239316444 6, 4.223946521367111 6, 88.203125 6 M-88.203125 6 C-22.8260794466685 6, 42.550966106663 6, 88.203125 6" stroke="#9370DB" stroke-width="1.3" fill="none" stroke-dasharray="0 0" style=""></path></g><g class="divider" style=""><path d="M-88.203125 24 C-48.607347057068736 24, -9.011569114137473 24, 88.203125 24 M-88.203125 24 C-32.716439878272155 24, 22.77024524345569 24, 88.203125 24" stroke="#9370DB" stroke-width="1.3" fill="none" stroke-dasharray="0 0" style=""></path></g></g></g></g></g></svg>