<svg id="container" width="1100.62109375" xmlns="http://www.w3.org/2000/svg" class="erDiagram" height="758.25" viewBox="0 0 1100.62109375 758.25" role="graphics-document document" aria-roledescription="er"><style>#container{font-family:"trebuchet ms",verdana,arial,sans-serif;font-size:16px;fill:#333;}@keyframes edge-animation-frame{from{stroke-dashoffset:0;}}@keyframes dash{to{stroke-dashoffset:0;}}#container .edge-animation-slow{stroke-dasharray:9,5!important;stroke-dashoffset:900;animation:dash 50s linear infinite;stroke-linecap:round;}#container .edge-animation-fast{stroke-dasharray:9,5!important;stroke-dashoffset:900;animation:dash 20s linear infinite;stroke-linecap:round;}#container .error-icon{fill:#552222;}#container .error-text{fill:#552222;stroke:#552222;}#container .edge-thickness-normal{stroke-width:1px;}#container .edge-thickness-thick{stroke-width:3.5px;}#container .edge-pattern-solid{stroke-dasharray:0;}#container .edge-thickness-invisible{stroke-width:0;fill:none;}#container .edge-pattern-dashed{stroke-dasharray:3;}#container .edge-pattern-dotted{stroke-dasharray:2;}#container .marker{fill:#333333;stroke:#333333;}#container .marker.cross{stroke:#333333;}#container svg{font-family:"trebuchet ms",verdana,arial,sans-serif;font-size:16px;}#container p{margin:0;}#container .entityBox{fill:#ECECFF;stroke:#9370DB;}#container .relationshipLabelBox{fill:hsl(80, 100%, 96.2745098039%);opacity:0.7;background-color:hsl(80, 100%, 96.2745098039%);}#container .relationshipLabelBox rect{opacity:0.5;}#container .labelBkg{background-color:rgba(248.6666666666, 255, 235.9999999999, 0.5);}#container .edgeLabel .label{fill:#9370DB;font-size:14px;}#container .label{font-family:"trebuchet ms",verdana,arial,sans-serif;color:#333;}#container .edge-pattern-dashed{stroke-dasharray:8,8;}#container .node rect,#container .node circle,#container .node ellipse,#container .node polygon{fill:#ECECFF;stroke:#9370DB;stroke-width:1px;}#container .relationshipLine{stroke:#333333;stroke-width:1;fill:none;}#container .marker{fill:none!important;stroke:#333333!important;stroke-width:1;}#container :root{--mermaid-font-family:"trebuchet ms",verdana,arial,sans-serif;}</style><g><defs><marker id="container_er-onlyOneStart" class="marker onlyOne er" refX="0" refY="9" markerWidth="18" markerHeight="18" orient="auto"><path d="M9,0 L9,18 M15,0 L15,18"></path></marker></defs><defs><marker id="container_er-onlyOneEnd" class="marker onlyOne er" refX="18" refY="9" markerWidth="18" markerHeight="18" orient="auto"><path d="M3,0 L3,18 M9,0 L9,18"></path></marker></defs><defs><marker id="container_er-zeroOrOneStart" class="marker zeroOrOne er" refX="0" refY="9" markerWidth="30" markerHeight="18" orient="auto"><circle fill="white" cx="21" cy="9" r="6"></circle><path d="M9,0 L9,18"></path></marker></defs><defs><marker id="container_er-zeroOrOneEnd" class="marker zeroOrOne er" refX="30" refY="9" markerWidth="30" markerHeight="18" orient="auto"><circle fill="white" cx="9" cy="9" r="6"></circle><path d="M21,0 L21,18"></path></marker></defs><defs><marker id="container_er-oneOrMoreStart" class="marker oneOrMore er" refX="18" refY="18" markerWidth="45" markerHeight="36" orient="auto"><path d="M0,18 Q 18,0 36,18 Q 18,36 0,18 M42,9 L42,27"></path></marker></defs><defs><marker id="container_er-oneOrMoreEnd" class="marker oneOrMore er" refX="27" refY="18" markerWidth="45" markerHeight="36" orient="auto"><path d="M3,9 L3,27 M9,18 Q27,0 45,18 Q27,36 9,18"></path></marker></defs><defs><marker id="container_er-zeroOrMoreStart" class="marker zeroOrMore er" refX="18" refY="18" markerWidth="57" markerHeight="36" orient="auto"><circle fill="white" cx="48" cy="18" r="6"></circle><path d="M0,18 Q18,0 36,18 Q18,36 0,18"></path></marker></defs><defs><marker id="container_er-zeroOrMoreEnd" class="marker zeroOrMore er" refX="39" refY="18" markerWidth="57" markerHeight="36" orient="auto"><circle fill="white" cx="9" cy="18" r="6"></circle><path d="M21,18 Q39,0 57,18 Q39,36 21,18"></path></marker></defs><g class="root"><g class="clusters"></g><g class="edgePaths"><path d="M187.539,452.647L178.789,465.331C170.039,478.015,152.539,503.382,143.789,528.045C135.039,552.708,135.039,576.667,135.039,588.646L135.039,600.625" id="id_entity-user_profiles-0_entity-user_global_roles-1_0" class="edge-thickness-normal edge-pattern-solid relationshipLine" style="undefined;;;undefined" data-edge="true" data-et="edge" data-id="id_entity-user_profiles-0_entity-user_global_roles-1_0" data-points="W3sieCI6MTg3LjUzOTA2MjUsInkiOjQ1Mi42NDY3NTI3MDYwNzgyNX0seyJ4IjoxMzUuMDM5MDYyNSwieSI6NTI4Ljc1fSx7IngiOjEzNS4wMzkwNjI1LCJ5Ijo2MDAuNjI1fV0=" marker-start="url(#container_er-onlyOneStart)" marker-end="url(#container_er-zeroOrMoreEnd)"></path><path d="M476.617,452.647L485.367,465.331C494.117,478.015,511.617,503.382,520.367,524.483C529.117,545.583,529.117,562.417,529.117,570.833L529.117,579.25" id="id_entity-user_profiles-0_entity-user_tenant_memberships-2_1" class="edge-thickness-normal edge-pattern-solid relationshipLine" style="undefined;;;undefined" data-edge="true" data-et="edge" data-id="id_entity-user_profiles-0_entity-user_tenant_memberships-2_1" data-points="W3sieCI6NDc2LjYxNzE4NzUsInkiOjQ1Mi42NDY3NTI3MDYwNzgyNX0seyJ4Ijo1MjkuMTE3MTg3NSwieSI6NTI4Ljc1fSx7IngiOjUyOS4xMTcxODc1LCJ5Ijo1NzkuMjV9XQ==" marker-start="url(#container_er-onlyOneStart)" marker-end="url(#container_er-zeroOrMoreEnd)"></path><path d="M946.754,328.625L946.754,361.979C946.754,395.333,946.754,462.042,946.754,507.375C946.754,552.708,946.754,576.667,946.754,588.646L946.754,600.625" id="id_entity-tenant_settings-3_entity-tenant_auto_approve_domains-4_2" class="edge-thickness-normal edge-pattern-solid relationshipLine" style="undefined;;;undefined" data-edge="true" data-et="edge" data-id="id_entity-tenant_settings-3_entity-tenant_auto_approve_domains-4_2" data-points="W3sieCI6OTQ2Ljc1MzkwNjI1LCJ5IjozMjguNjI1fSx7IngiOjk0Ni43NTM5MDYyNSwieSI6NTI4Ljc1fSx7IngiOjk0Ni43NTM5MDYyNSwieSI6NjAwLjYyNX1d" marker-start="url(#container_er-onlyOneStart)" marker-end="url(#container_er-zeroOrMoreEnd)"></path></g><g class="edgeLabels"><g class="edgeLabel" transform="translate(135.0390625, 528.75)"><g class="label" data-id="id_entity-user_profiles-0_entity-user_global_roles-1_0" transform="translate(-11.109375, -10.5)"><foreignObject width="22.21875" height="21"><div xmlns="http://www.w3.org/1999/xhtml" class="labelBkg" style="display: table-cell; white-space: nowrap; line-height: 1.5; max-width: 200px; text-align: center;"><span class="edgeLabel"><p>has</p></span></div></foreignObject></g></g><g class="edgeLabel" transform="translate(529.1171875, 528.75)"><g class="label" data-id="id_entity-user_profiles-0_entity-user_tenant_memberships-2_1" transform="translate(-11.109375, -10.5)"><foreignObject width="22.21875" height="21"><div xmlns="http://www.w3.org/1999/xhtml" class="labelBkg" style="display: table-cell; white-space: nowrap; line-height: 1.5; max-width: 200px; text-align: center;"><span class="edgeLabel"><p>has</p></span></div></foreignObject></g></g><g class="edgeLabel" transform="translate(946.75390625, 528.75)"><g class="label" data-id="id_entity-tenant_settings-3_entity-tenant_auto_approve_domains-4_2" transform="translate(-11.109375, -10.5)"><foreignObject width="22.21875" height="21"><div xmlns="http://www.w3.org/1999/xhtml" class="labelBkg" style="display: table-cell; white-space: nowrap; line-height: 1.5; max-width: 200px; text-align: center;"><span class="edgeLabel"><p>has</p></span></div></foreignObject></g></g></g><g class="nodes"><g class="node default" id="entity-user_profiles-0" transform="translate(332.078125, 243.125)"><g style=""><path d="M-144.5390625 -235.125 L144.5390625 -235.125 L144.5390625 235.125 L-144.5390625 235.125" stroke="none" stroke-width="0" fill="#ECECFF"></path><path d="M-144.5390625 -235.125 C-84.4015047563042 -235.125, -24.263947012608412 -235.125, 144.5390625 -235.125 M-144.5390625 -235.125 C-32.58821979966858 -235.125, 79.36262290066284 -235.125, 144.5390625 -235.125 M144.5390625 -235.125 C144.5390625 -96.16031239626264, 144.5390625 42.80437520747472, 144.5390625 235.125 M144.5390625 -235.125 C144.5390625 -118.2816905170238, 144.5390625 -1.4383810340476089, 144.5390625 235.125 M144.5390625 235.125 C56.71761810539435 235.125, -31.103826289211298 235.125, -144.5390625 235.125 M144.5390625 235.125 C39.97023373222588 235.125, -64.59859503554824 235.125, -144.5390625 235.125 M-144.5390625 235.125 C-144.5390625 99.64801844959106, -144.5390625 -35.82896310081787, -144.5390625 -235.125 M-144.5390625 235.125 C-144.5390625 119.74255659436508, -144.5390625 4.360113188730168, -144.5390625 -235.125" stroke="#9370DB" stroke-width="1.3" fill="none" stroke-dasharray="0 0"></path></g><g style="" class="row-rect-odd"><path d="M-144.5390625 -192.375 L144.5390625 -192.375 L144.5390625 -149.625 L-144.5390625 -149.625" stroke="none" stroke-width="0" fill="hsl(240, 100%, 100%)"></path><path d="M-144.5390625 -192.375 C-71.84817319346018 -192.375, 0.8427161130796321 -192.375, 144.5390625 -192.375 M-144.5390625 -192.375 C-83.45683517011915 -192.375, -22.374607840238312 -192.375, 144.5390625 -192.375 M144.5390625 -192.375 C144.5390625 -177.53842932624363, 144.5390625 -162.7018586524873, 144.5390625 -149.625 M144.5390625 -192.375 C144.5390625 -175.34686843291675, 144.5390625 -158.31873686583353, 144.5390625 -149.625 M144.5390625 -149.625 C73.34241057473774 -149.625, 2.145758649475482 -149.625, -144.5390625 -149.625 M144.5390625 -149.625 C67.56093812462221 -149.625, -9.417186250755577 -149.625, -144.5390625 -149.625 M-144.5390625 -149.625 C-144.5390625 -158.53461878949744, -144.5390625 -167.44423757899486, -144.5390625 -192.375 M-144.5390625 -149.625 C-144.5390625 -158.52483310931163, -144.5390625 -167.42466621862326, -144.5390625 -192.375" stroke="#9370DB" stroke-width="1.3" fill="none" stroke-dasharray="0 0"></path></g><g style="" class="row-rect-even"><path d="M-144.5390625 -149.625 L144.5390625 -149.625 L144.5390625 -106.875 L-144.5390625 -106.875" stroke="none" stroke-width="0" fill="hsl(240, 100%, 97.2745098039%)"></path><path d="M-144.5390625 -149.625 C-35.339722862319974 -149.625, 73.85961677536005 -149.625, 144.5390625 -149.625 M-144.5390625 -149.625 C-51.51749045341644 -149.625, 41.504081593167115 -149.625, 144.5390625 -149.625 M144.5390625 -149.625 C144.5390625 -135.43103660485636, 144.5390625 -121.23707320971269, 144.5390625 -106.875 M144.5390625 -149.625 C144.5390625 -137.5023225032142, 144.5390625 -125.37964500642842, 144.5390625 -106.875 M144.5390625 -106.875 C77.1877447089272 -106.875, 9.836426917854396 -106.875, -144.5390625 -106.875 M144.5390625 -106.875 C33.925753852805585 -106.875, -76.68755479438883 -106.875, -144.5390625 -106.875 M-144.5390625 -106.875 C-144.5390625 -119.43055496289062, -144.5390625 -131.98610992578125, -144.5390625 -149.625 M-144.5390625 -106.875 C-144.5390625 -122.83654637906973, -144.5390625 -138.79809275813946, -144.5390625 -149.625" stroke="#9370DB" stroke-width="1.3" fill="none" stroke-dasharray="0 0"></path></g><g style="" class="row-rect-odd"><path d="M-144.5390625 -106.875 L144.5390625 -106.875 L144.5390625 -64.125 L-144.5390625 -64.125" stroke="none" stroke-width="0" fill="hsl(240, 100%, 100%)"></path><path d="M-144.5390625 -106.875 C-70.26035348024615 -106.875, 4.018355539507695 -106.875, 144.5390625 -106.875 M-144.5390625 -106.875 C-43.44744645670829 -106.875, 57.644169586583416 -106.875, 144.5390625 -106.875 M144.5390625 -106.875 C144.5390625 -91.49360982052258, 144.5390625 -76.11221964104517, 144.5390625 -64.125 M144.5390625 -106.875 C144.5390625 -93.2897816477014, 144.5390625 -79.7045632954028, 144.5390625 -64.125 M144.5390625 -64.125 C31.580764841772492 -64.125, -81.37753281645502 -64.125, -144.5390625 -64.125 M144.5390625 -64.125 C60.147990439253036 -64.125, -24.24308162149393 -64.125, -144.5390625 -64.125 M-144.5390625 -64.125 C-144.5390625 -76.66659516753175, -144.5390625 -89.2081903350635, -144.5390625 -106.875 M-144.5390625 -64.125 C-144.5390625 -77.27496425942124, -144.5390625 -90.42492851884246, -144.5390625 -106.875" stroke="#9370DB" stroke-width="1.3" fill="none" stroke-dasharray="0 0"></path></g><g style="" class="row-rect-even"><path d="M-144.5390625 -64.125 L144.5390625 -64.125 L144.5390625 -21.375 L-144.5390625 -21.375" stroke="none" stroke-width="0" fill="hsl(240, 100%, 97.2745098039%)"></path><path d="M-144.5390625 -64.125 C-80.75188868988499 -64.125, -16.964714879769986 -64.125, 144.5390625 -64.125 M-144.5390625 -64.125 C-34.884493675378366 -64.125, 74.77007514924327 -64.125, 144.5390625 -64.125 M144.5390625 -64.125 C144.5390625 -51.428386546154016, 144.5390625 -38.731773092308025, 144.5390625 -21.375 M144.5390625 -64.125 C144.5390625 -51.39649116421461, 144.5390625 -38.66798232842922, 144.5390625 -21.375 M144.5390625 -21.375 C48.619010283392754 -21.375, -47.30104193321449 -21.375, -144.5390625 -21.375 M144.5390625 -21.375 C77.59184208947079 -21.375, 10.644621678941576 -21.375, -144.5390625 -21.375 M-144.5390625 -21.375 C-144.5390625 -31.451800202034434, -144.5390625 -41.52860040406887, -144.5390625 -64.125 M-144.5390625 -21.375 C-144.5390625 -38.325941192696455, -144.5390625 -55.27688238539291, -144.5390625 -64.125" stroke="#9370DB" stroke-width="1.3" fill="none" stroke-dasharray="0 0"></path></g><g style="" class="row-rect-odd"><path d="M-144.5390625 -21.375 L144.5390625 -21.375 L144.5390625 21.375 L-144.5390625 21.375" stroke="none" stroke-width="0" fill="hsl(240, 100%, 100%)"></path><path d="M-144.5390625 -21.375 C-70.33557940474823 -21.375, 3.867903690503539 -21.375, 144.5390625 -21.375 M-144.5390625 -21.375 C-45.078184214835545 -21.375, 54.38269407032891 -21.375, 144.5390625 -21.375 M144.5390625 -21.375 C144.5390625 -5.819132504516986, 144.5390625 9.736734990966028, 144.5390625 21.375 M144.5390625 -21.375 C144.5390625 -9.76944165090816, 144.5390625 1.8361166981836803, 144.5390625 21.375 M144.5390625 21.375 C71.38060428542515 21.375, -1.7778539291496998 21.375, -144.5390625 21.375 M144.5390625 21.375 C60.00685472487727 21.375, -24.525353050245457 21.375, -144.5390625 21.375 M-144.5390625 21.375 C-144.5390625 11.965862273038287, -144.5390625 2.5567245460765733, -144.5390625 -21.375 M-144.5390625 21.375 C-144.5390625 11.489284093564109, -144.5390625 1.603568187128218, -144.5390625 -21.375" stroke="#9370DB" stroke-width="1.3" fill="none" stroke-dasharray="0 0"></path></g><g style="" class="row-rect-even"><path d="M-144.5390625 21.375 L144.5390625 21.375 L144.5390625 64.125 L-144.5390625 64.125" stroke="none" stroke-width="0" fill="hsl(240, 100%, 97.2745098039%)"></path><path d="M-144.5390625 21.375 C-54.40959805700069 21.375, 35.719866385998614 21.375, 144.5390625 21.375 M-144.5390625 21.375 C-29.842425181506997 21.375, 84.854212136986 21.375, 144.5390625 21.375 M144.5390625 21.375 C144.5390625 30.638382985089486, 144.5390625 39.90176597017897, 144.5390625 64.125 M144.5390625 21.375 C144.5390625 30.55486672587969, 144.5390625 39.73473345175938, 144.5390625 64.125 M144.5390625 64.125 C38.41682737941163 64.125, -67.70540774117674 64.125, -144.5390625 64.125 M144.5390625 64.125 C64.74327133853183 64.125, -15.052519822936347 64.125, -144.5390625 64.125 M-144.5390625 64.125 C-144.5390625 49.550066128632274, -144.5390625 34.97513225726455, -144.5390625 21.375 M-144.5390625 64.125 C-144.5390625 50.976924689958885, -144.5390625 37.82884937991777, -144.5390625 21.375" stroke="#9370DB" stroke-width="1.3" fill="none" stroke-dasharray="0 0"></path></g><g style="" class="row-rect-odd"><path d="M-144.5390625 64.125 L144.5390625 64.125 L144.5390625 106.875 L-144.5390625 106.875" stroke="none" stroke-width="0" fill="hsl(240, 100%, 100%)"></path><path d="M-144.5390625 64.125 C-35.358815305647425 64.125, 73.82143188870515 64.125, 144.5390625 64.125 M-144.5390625 64.125 C-38.0179891655678 64.125, 68.5030841688644 64.125, 144.5390625 64.125 M144.5390625 64.125 C144.5390625 77.96531716899023, 144.5390625 91.80563433798044, 144.5390625 106.875 M144.5390625 64.125 C144.5390625 73.27807233406924, 144.5390625 82.43114466813846, 144.5390625 106.875 M144.5390625 106.875 C72.96028986690347 106.875, 1.3815172338069317 106.875, -144.5390625 106.875 M144.5390625 106.875 C42.43844850336434 106.875, -59.66216549327132 106.875, -144.5390625 106.875 M-144.5390625 106.875 C-144.5390625 90.37017355074542, -144.5390625 73.86534710149085, -144.5390625 64.125 M-144.5390625 106.875 C-144.5390625 91.64710551621853, -144.5390625 76.41921103243706, -144.5390625 64.125" stroke="#9370DB" stroke-width="1.3" fill="none" stroke-dasharray="0 0"></path></g><g style="" class="row-rect-even"><path d="M-144.5390625 106.875 L144.5390625 106.875 L144.5390625 149.625 L-144.5390625 149.625" stroke="none" stroke-width="0" fill="hsl(240, 100%, 97.2745098039%)"></path><path d="M-144.5390625 106.875 C-73.21282343089669 106.875, -1.886584361793382 106.875, 144.5390625 106.875 M-144.5390625 106.875 C-42.56801950654483 106.875, 59.40302348691034 106.875, 144.5390625 106.875 M144.5390625 106.875 C144.5390625 120.33070170534491, 144.5390625 133.78640341068981, 144.5390625 149.625 M144.5390625 106.875 C144.5390625 117.7334148562013, 144.5390625 128.5918297124026, 144.5390625 149.625 M144.5390625 149.625 C29.680852604611687 149.625, -85.17735729077663 149.625, -144.5390625 149.625 M144.5390625 149.625 C32.447447641799855 149.625, -79.64416721640029 149.625, -144.5390625 149.625 M-144.5390625 149.625 C-144.5390625 132.6211613967015, -144.5390625 115.61732279340299, -144.5390625 106.875 M-144.5390625 149.625 C-144.5390625 136.07744114858713, -144.5390625 122.52988229717423, -144.5390625 106.875" stroke="#9370DB" stroke-width="1.3" fill="none" stroke-dasharray="0 0"></path></g><g style="" class="row-rect-odd"><path d="M-144.5390625 149.625 L144.5390625 149.625 L144.5390625 192.375 L-144.5390625 192.375" stroke="none" stroke-width="0" fill="hsl(240, 100%, 100%)"></path><path d="M-144.5390625 149.625 C-45.837035879943684 149.625, 52.86499074011263 149.625, 144.5390625 149.625 M-144.5390625 149.625 C-39.01269926789681 149.625, 66.51366396420639 149.625, 144.5390625 149.625 M144.5390625 149.625 C144.5390625 158.5969032938024, 144.5390625 167.56880658760477, 144.5390625 192.375 M144.5390625 149.625 C144.5390625 165.97590075142057, 144.5390625 182.32680150284116, 144.5390625 192.375 M144.5390625 192.375 C29.60514531869501 192.375, -85.32877186260998 192.375, -144.5390625 192.375 M144.5390625 192.375 C84.2094735297357 192.375, 23.879884559471407 192.375, -144.5390625 192.375 M-144.5390625 192.375 C-144.5390625 178.528472369205, -144.5390625 164.68194473840998, -144.5390625 149.625 M-144.5390625 192.375 C-144.5390625 177.67017099461458, -144.5390625 162.96534198922916, -144.5390625 149.625" stroke="#9370DB" stroke-width="1.3" fill="none" stroke-dasharray="0 0"></path></g><g style="" class="row-rect-even"><path d="M-144.5390625 192.375 L144.5390625 192.375 L144.5390625 235.125 L-144.5390625 235.125" stroke="none" stroke-width="0" fill="hsl(240, 100%, 97.2745098039%)"></path><path d="M-144.5390625 192.375 C-84.06172001992186 192.375, -23.58437753984373 192.375, 144.5390625 192.375 M-144.5390625 192.375 C-39.54822937822546 192.375, 65.44260374354909 192.375, 144.5390625 192.375 M144.5390625 192.375 C144.5390625 208.99255015636083, 144.5390625 225.61010031272167, 144.5390625 235.125 M144.5390625 192.375 C144.5390625 208.47120407475978, 144.5390625 224.56740814951954, 144.5390625 235.125 M144.5390625 235.125 C29.19781344679042 235.125, -86.14343560641916 235.125, -144.5390625 235.125 M144.5390625 235.125 C45.42714320652392 235.125, -53.684776086952155 235.125, -144.5390625 235.125 M-144.5390625 235.125 C-144.5390625 218.29304306054206, -144.5390625 201.46108612108412, -144.5390625 192.375 M-144.5390625 235.125 C-144.5390625 225.90423682059946, -144.5390625 216.68347364119893, -144.5390625 192.375" stroke="#9370DB" stroke-width="1.3" fill="none" stroke-dasharray="0 0"></path></g><g class="label name" transform="translate(-46.6328125, -225.75)" style=""><foreignObject width="93.265625" height="24"><div xmlns="http://www.w3.org/1999/xhtml" style="display: table-cell; white-space: nowrap; line-height: 1.5; max-width: 193px; text-align: start;"><span class="nodeLabel"><p>user_profiles</p></span></div></foreignObject></g><g class="label attribute-type" transform="translate(-132.0390625, -183)" style=""><foreignObject width="32.71875" height="24"><div xmlns="http://www.w3.org/1999/xhtml" style="display: table-cell; white-space: nowrap; line-height: 1.5; max-width: 133px; text-align: start;"><span class="nodeLabel"><p>uuid</p></span></div></foreignObject></g><g class="label attribute-name" transform="translate(-29.2578125, -183)" style=""><foreignObject width="14.09375" height="24"><div xmlns="http://www.w3.org/1999/xhtml" style="display: table-cell; white-space: nowrap; line-height: 1.5; max-width: 114px; text-align: start;"><span class="nodeLabel"><p>id</p></span></div></foreignObject></g><g class="label attribute-keys" transform="translate(112.0078125, -183)" style=""><foreignObject width="18.734375" height="24"><div xmlns="http://www.w3.org/1999/xhtml" style="display: table-cell; white-space: nowrap; line-height: 1.5; max-width: 119px; text-align: start;"><span class="nodeLabel"><p>PK</p></span></div></foreignObject></g><g class="label attribute-comment" transform="translate(157.0390625, -183)" style=""><foreignObject width="0" height="0"><div xmlns="http://www.w3.org/1999/xhtml" style="display: table-cell; white-space: nowrap; line-height: 1.5; max-width: 100px; text-align: start;"><span class="nodeLabel"></span></div></foreignObject></g><g class="label attribute-type" transform="translate(-132.0390625, -140.25)" style=""><foreignObject width="53.921875" height="24"><div xmlns="http://www.w3.org/1999/xhtml" style="display: table-cell; white-space: nowrap; line-height: 1.5; max-width: 155px; text-align: start;"><span class="nodeLabel"><p>varchar</p></span></div></foreignObject></g><g class="label attribute-name" transform="translate(-29.2578125, -140.25)" style=""><foreignObject width="92.3125" height="24"><div xmlns="http://www.w3.org/1999/xhtml" style="display: table-cell; white-space: nowrap; line-height: 1.5; max-width: 193px; text-align: start;"><span class="nodeLabel"><p>oidc_subject</p></span></div></foreignObject></g><g class="label attribute-keys" transform="translate(112.0078125, -140.25)" style=""><foreignObject width="20.03125" height="24"><div xmlns="http://www.w3.org/1999/xhtml" style="display: table-cell; white-space: nowrap; line-height: 1.5; max-width: 121px; text-align: start;"><span class="nodeLabel"><p>UK</p></span></div></foreignObject></g><g class="label attribute-comment" transform="translate(157.0390625, -140.25)" style=""><foreignObject width="0" height="0"><div xmlns="http://www.w3.org/1999/xhtml" style="display: table-cell; white-space: nowrap; line-height: 1.5; max-width: 100px; text-align: start;"><span class="nodeLabel"></span></div></foreignObject></g><g class="label attribute-type" transform="translate(-132.0390625, -97.5)" style=""><foreignObject width="53.921875" height="24"><div xmlns="http://www.w3.org/1999/xhtml" style="display: table-cell; white-space: nowrap; line-height: 1.5; max-width: 155px; text-align: start;"><span class="nodeLabel"><p>varchar</p></span></div></foreignObject></g><g class="label attribute-name" transform="translate(-29.2578125, -97.5)" style=""><foreignObject width="72.203125" height="24"><div xmlns="http://www.w3.org/1999/xhtml" style="display: table-cell; white-space: nowrap; line-height: 1.5; max-width: 172px; text-align: start;"><span class="nodeLabel"><p>username</p></span></div></foreignObject></g><g class="label attribute-keys" transform="translate(112.0078125, -97.5)" style=""><foreignObject width="20.03125" height="24"><div xmlns="http://www.w3.org/1999/xhtml" style="display: table-cell; white-space: nowrap; line-height: 1.5; max-width: 121px; text-align: start;"><span class="nodeLabel"><p>UK</p></span></div></foreignObject></g><g class="label attribute-comment" transform="translate(157.0390625, -97.5)" style=""><foreignObject width="0" height="0"><div xmlns="http://www.w3.org/1999/xhtml" style="display: table-cell; white-space: nowrap; line-height: 1.5; max-width: 100px; text-align: start;"><span class="nodeLabel"></span></div></foreignObject></g><g class="label attribute-type" transform="translate(-132.0390625, -54.75)" style=""><foreignObject width="53.921875" height="24"><div xmlns="http://www.w3.org/1999/xhtml" style="display: table-cell; white-space: nowrap; line-height: 1.5; max-width: 155px; text-align: start;"><span class="nodeLabel"><p>varchar</p></span></div></foreignObject></g><g class="label attribute-name" transform="translate(-29.2578125, -54.75)" style=""><foreignObject width="111.734375" height="24"><div xmlns="http://www.w3.org/1999/xhtml" style="display: table-cell; white-space: nowrap; line-height: 1.5; max-width: 212px; text-align: start;"><span class="nodeLabel"><p>password_hash</p></span></div></foreignObject></g><g class="label attribute-keys" transform="translate(112.0078125, -54.75)" style=""><foreignObject width="0" height="0"><div xmlns="http://www.w3.org/1999/xhtml" style="display: table-cell; white-space: nowrap; line-height: 1.5; max-width: 100px; text-align: start;"><span class="nodeLabel"></span></div></foreignObject></g><g class="label attribute-comment" transform="translate(157.0390625, -54.75)" style=""><foreignObject width="0" height="0"><div xmlns="http://www.w3.org/1999/xhtml" style="display: table-cell; white-space: nowrap; line-height: 1.5; max-width: 100px; text-align: start;"><span class="nodeLabel"></span></div></foreignObject></g><g class="label attribute-type" transform="translate(-132.0390625, -12)" style=""><foreignObject width="53.921875" height="24"><div xmlns="http://www.w3.org/1999/xhtml" style="display: table-cell; white-space: nowrap; line-height: 1.5; max-width: 155px; text-align: start;"><span class="nodeLabel"><p>varchar</p></span></div></foreignObject></g><g class="label attribute-name" transform="translate(-29.2578125, -12)" style=""><foreignObject width="89.375" height="24"><div xmlns="http://www.w3.org/1999/xhtml" style="display: table-cell; white-space: nowrap; line-height: 1.5; max-width: 189px; text-align: start;"><span class="nodeLabel"><p>auth_source</p></span></div></foreignObject></g><g class="label attribute-keys" transform="translate(112.0078125, -12)" style=""><foreignObject width="0" height="0"><div xmlns="http://www.w3.org/1999/xhtml" style="display: table-cell; white-space: nowrap; line-height: 1.5; max-width: 100px; text-align: start;"><span class="nodeLabel"></span></div></foreignObject></g><g class="label attribute-comment" transform="translate(157.0390625, -12)" style=""><foreignObject width="0" height="0"><div xmlns="http://www.w3.org/1999/xhtml" style="display: table-cell; white-space: nowrap; line-height: 1.5; max-width: 100px; text-align: start;"><span class="nodeLabel"></span></div></foreignObject></g><g class="label attribute-type" transform="translate(-132.0390625, 30.75)" style=""><foreignObject width="53.921875" height="24"><div xmlns="http://www.w3.org/1999/xhtml" style="display: table-cell; white-space: nowrap; line-height: 1.5; max-width: 155px; text-align: start;"><span class="nodeLabel"><p>varchar</p></span></div></foreignObject></g><g class="label attribute-name" transform="translate(-29.2578125, 30.75)" style=""><foreignObject width="40.34375" height="24"><div xmlns="http://www.w3.org/1999/xhtml" style="display: table-cell; white-space: nowrap; line-height: 1.5; max-width: 141px; text-align: start;"><span class="nodeLabel"><p>email</p></span></div></foreignObject></g><g class="label attribute-keys" transform="translate(112.0078125, 30.75)" style=""><foreignObject width="0" height="0"><div xmlns="http://www.w3.org/1999/xhtml" style="display: table-cell; white-space: nowrap; line-height: 1.5; max-width: 100px; text-align: start;"><span class="nodeLabel"></span></div></foreignObject></g><g class="label attribute-comment" transform="translate(157.0390625, 30.75)" style=""><foreignObject width="0" height="0"><div xmlns="http://www.w3.org/1999/xhtml" style="display: table-cell; white-space: nowrap; line-height: 1.5; max-width: 100px; text-align: start;"><span class="nodeLabel"></span></div></foreignObject></g><g class="label attribute-type" transform="translate(-132.0390625, 73.5)" style=""><foreignObject width="53.921875" height="24"><div xmlns="http://www.w3.org/1999/xhtml" style="display: table-cell; white-space: nowrap; line-height: 1.5; max-width: 155px; text-align: start;"><span class="nodeLabel"><p>varchar</p></span></div></foreignObject></g><g class="label attribute-name" transform="translate(-29.2578125, 73.5)" style=""><foreignObject width="100.359375" height="24"><div xmlns="http://www.w3.org/1999/xhtml" style="display: table-cell; white-space: nowrap; line-height: 1.5; max-width: 200px; text-align: start;"><span class="nodeLabel"><p>display_name</p></span></div></foreignObject></g><g class="label attribute-keys" transform="translate(112.0078125, 73.5)" style=""><foreignObject width="0" height="0"><div xmlns="http://www.w3.org/1999/xhtml" style="display: table-cell; white-space: nowrap; line-height: 1.5; max-width: 100px; text-align: start;"><span class="nodeLabel"></span></div></foreignObject></g><g class="label attribute-comment" transform="translate(157.0390625, 73.5)" style=""><foreignObject width="0" height="0"><div xmlns="http://www.w3.org/1999/xhtml" style="display: table-cell; white-space: nowrap; line-height: 1.5; max-width: 100px; text-align: start;"><span class="nodeLabel"></span></div></foreignObject></g><g class="label attribute-type" transform="translate(-132.0390625, 116.25)" style=""><foreignObject width="53.921875" height="24"><div xmlns="http://www.w3.org/1999/xhtml" style="display: table-cell; white-space: nowrap; line-height: 1.5; max-width: 155px; text-align: start;"><span class="nodeLabel"><p>varchar</p></span></div></foreignObject></g><g class="label attribute-name" transform="translate(-29.2578125, 116.25)" style=""><foreignObject width="116.265625" height="24"><div xmlns="http://www.w3.org/1999/xhtml" style="display: table-cell; white-space: nowrap; line-height: 1.5; max-width: 216px; text-align: start;"><span class="nodeLabel"><p>approval_status</p></span></div></foreignObject></g><g class="label attribute-keys" transform="translate(112.0078125, 116.25)" style=""><foreignObject width="0" height="0"><div xmlns="http://www.w3.org/1999/xhtml" style="display: table-cell; white-space: nowrap; line-height: 1.5; max-width: 100px; text-align: start;"><span class="nodeLabel"></span></div></foreignObject></g><g class="label attribute-comment" transform="translate(157.0390625, 116.25)" style=""><foreignObject width="0" height="0"><div xmlns="http://www.w3.org/1999/xhtml" style="display: table-cell; white-space: nowrap; line-height: 1.5; max-width: 100px; text-align: start;"><span class="nodeLabel"></span></div></foreignObject></g><g class="label attribute-type" transform="translate(-132.0390625, 159)" style=""><foreignObject width="77.78125" height="24"><div xmlns="http://www.w3.org/1999/xhtml" style="display: table-cell; white-space: nowrap; line-height: 1.5; max-width: 178px; text-align: start;"><span class="nodeLabel"><p>timestamp</p></span></div></foreignObject></g><g class="label attribute-name" transform="translate(-29.2578125, 159)" style=""><foreignObject width="76.921875" height="24"><div xmlns="http://www.w3.org/1999/xhtml" style="display: table-cell; white-space: nowrap; line-height: 1.5; max-width: 177px; text-align: start;"><span class="nodeLabel"><p>created_at</p></span></div></foreignObject></g><g class="label attribute-keys" transform="translate(112.0078125, 159)" style=""><foreignObject width="0" height="0"><div xmlns="http://www.w3.org/1999/xhtml" style="display: table-cell; white-space: nowrap; line-height: 1.5; max-width: 100px; text-align: start;"><span class="nodeLabel"></span></div></foreignObject></g><g class="label attribute-comment" transform="translate(157.0390625, 159)" style=""><foreignObject width="0" height="0"><div xmlns="http://www.w3.org/1999/xhtml" style="display: table-cell; white-space: nowrap; line-height: 1.5; max-width: 100px; text-align: start;"><span class="nodeLabel"></span></div></foreignObject></g><g class="label attribute-type" transform="translate(-132.0390625, 201.75)" style=""><foreignObject width="77.78125" height="24"><div xmlns="http://www.w3.org/1999/xhtml" style="display: table-cell; white-space: nowrap; line-height: 1.5; max-width: 178px; text-align: start;"><span class="nodeLabel"><p>timestamp</p></span></div></foreignObject></g><g class="label attribute-name" transform="translate(-29.2578125, 201.75)" style=""><foreignObject width="93.203125" height="24"><div xmlns="http://www.w3.org/1999/xhtml" style="display: table-cell; white-space: nowrap; line-height: 1.5; max-width: 193px; text-align: start;"><span class="nodeLabel"><p>last_login_at</p></span></div></foreignObject></g><g class="label attribute-keys" transform="translate(112.0078125, 201.75)" style=""><foreignObject width="0" height="0"><div xmlns="http://www.w3.org/1999/xhtml" style="display: table-cell; white-space: nowrap; line-height: 1.5; max-width: 100px; text-align: start;"><span class="nodeLabel"></span></div></foreignObject></g><g class="label attribute-comment" transform="translate(157.0390625, 201.75)" style=""><foreignObject width="0" height="0"><div xmlns="http://www.w3.org/1999/xhtml" style="display: table-cell; white-space: nowrap; line-height: 1.5; max-width: 100px; text-align: start;"><span class="nodeLabel"></span></div></foreignObject></g><g class="divider"><path d="M-144.5390625 -192.375 C-44.565664414771106 -192.375, 55.40773367045779 -192.375, 144.5390625 -192.375 M-144.5390625 -192.375 C-80.20033939653231 -192.375, -15.861616293064628 -192.375, 144.5390625 -192.375" stroke="#9370DB" stroke-width="1.3" fill="none" stroke-dasharray="0 0"></path></g><g class="divider"><path d="M-41.7578125 -192.375 C-41.7578125 -81.8944436292024, -41.7578125 28.5861127415952, -41.7578125 235.125 M-41.7578125 -192.375 C-41.7578125 -36.925234625593646, -41.7578125 118.52453074881271, -41.7578125 235.125" stroke="#9370DB" stroke-width="1.3" fill="none" stroke-dasharray="0 0"></path></g><g class="divider"><path d="M99.5078125 -192.375 C99.5078125 -80.61534783570706, 99.5078125 31.14430432858589, 99.5078125 235.125 M99.5078125 -192.375 C99.5078125 -26.039567017094413, 99.5078125 140.29586596581117, 99.5078125 235.125" stroke="#9370DB" stroke-width="1.3" fill="none" stroke-dasharray="0 0"></path></g><g class="divider"><path d="M-144.5390625 -192.375 C-81.83506646799245 -192.375, -19.131070435984896 -192.375, 144.5390625 -192.375 M-144.5390625 -192.375 C-59.329180582583916 -192.375, 25.880701334832168 -192.375, 144.5390625 -192.375" stroke="#9370DB" stroke-width="1.3" fill="none" stroke-dasharray="0 0"></path></g></g><g class="node default" id="entity-user_global_roles-1" transform="translate(135.0390625, 664.75)"><g style=""><path d="M-127.0390625 -64.125 L127.0390625 -64.125 L127.0390625 64.125 L-127.0390625 64.125" stroke="none" stroke-width="0" fill="#ECECFF"></path><path d="M-127.0390625 -64.125 C-40.83707448999016 -64.125, 45.364913520019684 -64.125, 127.0390625 -64.125 M-127.0390625 -64.125 C-62.46253978843066 -64.125, 2.1139829231386784 -64.125, 127.0390625 -64.125 M127.0390625 -64.125 C127.0390625 -34.49387303845333, 127.0390625 -4.862746076906653, 127.0390625 64.125 M127.0390625 -64.125 C127.0390625 -29.57349362865591, 127.0390625 4.978012742688179, 127.0390625 64.125 M127.0390625 64.125 C37.88577991007344 64.125, -51.26750267985312 64.125, -127.0390625 64.125 M127.0390625 64.125 C67.10708927074658 64.125, 7.175116041493169 64.125, -127.0390625 64.125 M-127.0390625 64.125 C-127.0390625 12.958354443428341, -127.0390625 -38.20829111314332, -127.0390625 -64.125 M-127.0390625 64.125 C-127.0390625 29.389322964354243, -127.0390625 -5.346354071291515, -127.0390625 -64.125" stroke="#9370DB" stroke-width="1.3" fill="none" stroke-dasharray="0 0"></path></g><g style="" class="row-rect-odd"><path d="M-127.0390625 -21.375 L127.0390625 -21.375 L127.0390625 21.375 L-127.0390625 21.375" stroke="none" stroke-width="0" fill="hsl(240, 100%, 100%)"></path><path d="M-127.0390625 -21.375 C-28.459837924889655 -21.375, 70.11938665022069 -21.375, 127.0390625 -21.375 M-127.0390625 -21.375 C-38.93003612366506 -21.375, 49.17899025266988 -21.375, 127.0390625 -21.375 M127.0390625 -21.375 C127.0390625 -8.832818783022567, 127.0390625 3.7093624339548654, 127.0390625 21.375 M127.0390625 -21.375 C127.0390625 -9.626606232172024, 127.0390625 2.121787535655951, 127.0390625 21.375 M127.0390625 21.375 C43.31670167739442 21.375, -40.40565914521116 21.375, -127.0390625 21.375 M127.0390625 21.375 C40.19885751361855 21.375, -46.6413474727629 21.375, -127.0390625 21.375 M-127.0390625 21.375 C-127.0390625 8.904303589221145, -127.0390625 -3.5663928215577094, -127.0390625 -21.375 M-127.0390625 21.375 C-127.0390625 10.06324896266172, -127.0390625 -1.2485020746765585, -127.0390625 -21.375" stroke="#9370DB" stroke-width="1.3" fill="none" stroke-dasharray="0 0"></path></g><g style="" class="row-rect-even"><path d="M-127.0390625 21.375 L127.0390625 21.375 L127.0390625 64.125 L-127.0390625 64.125" stroke="none" stroke-width="0" fill="hsl(240, 100%, 97.2745098039%)"></path><path d="M-127.0390625 21.375 C-53.371152021597354 21.375, 20.296758456805293 21.375, 127.0390625 21.375 M-127.0390625 21.375 C-59.05903562288292 21.375, 8.920991254234167 21.375, 127.0390625 21.375 M127.0390625 21.375 C127.0390625 32.590263672053176, 127.0390625 43.80552734410635, 127.0390625 64.125 M127.0390625 21.375 C127.0390625 32.78031609496196, 127.0390625 44.18563218992392, 127.0390625 64.125 M127.0390625 64.125 C62.36199905625702 64.125, -2.315064387485961 64.125, -127.0390625 64.125 M127.0390625 64.125 C28.412952030478664 64.125, -70.21315843904267 64.125, -127.0390625 64.125 M-127.0390625 64.125 C-127.0390625 47.844278434390475, -127.0390625 31.56355686878095, -127.0390625 21.375 M-127.0390625 64.125 C-127.0390625 53.59761175880101, -127.0390625 43.07022351760202, -127.0390625 21.375" stroke="#9370DB" stroke-width="1.3" fill="none" stroke-dasharray="0 0"></path></g><g class="label name" transform="translate(-63.9375, -54.75)" style=""><foreignObject width="127.875" height="24"><div xmlns="http://www.w3.org/1999/xhtml" style="display: table-cell; white-space: nowrap; line-height: 1.5; max-width: 228px; text-align: start;"><span class="nodeLabel"><p>user_global_roles</p></span></div></foreignObject></g><g class="label attribute-type" transform="translate(-114.5390625, -12)" style=""><foreignObject width="32.71875" height="24"><div xmlns="http://www.w3.org/1999/xhtml" style="display: table-cell; white-space: nowrap; line-height: 1.5; max-width: 133px; text-align: start;"><span class="nodeLabel"><p>uuid</p></span></div></foreignObject></g><g class="label attribute-name" transform="translate(-35.6171875, -12)" style=""><foreignObject width="107.875" height="24"><div xmlns="http://www.w3.org/1999/xhtml" style="display: table-cell; white-space: nowrap; line-height: 1.5; max-width: 208px; text-align: start;"><span class="nodeLabel"><p>user_profile_id</p></span></div></foreignObject></g><g class="label attribute-keys" transform="translate(97.2578125, -12)" style=""><foreignObject width="17.28125" height="24"><div xmlns="http://www.w3.org/1999/xhtml" style="display: table-cell; white-space: nowrap; line-height: 1.5; max-width: 118px; text-align: start;"><span class="nodeLabel"><p>FK</p></span></div></foreignObject></g><g class="label attribute-comment" transform="translate(139.5390625, -12)" style=""><foreignObject width="0" height="0"><div xmlns="http://www.w3.org/1999/xhtml" style="display: table-cell; white-space: nowrap; line-height: 1.5; max-width: 100px; text-align: start;"><span class="nodeLabel"></span></div></foreignObject></g><g class="label attribute-type" transform="translate(-114.5390625, 30.75)" style=""><foreignObject width="53.921875" height="24"><div xmlns="http://www.w3.org/1999/xhtml" style="display: table-cell; white-space: nowrap; line-height: 1.5; max-width: 155px; text-align: start;"><span class="nodeLabel"><p>varchar</p></span></div></foreignObject></g><g class="label attribute-name" transform="translate(-35.6171875, 30.75)" style=""><foreignObject width="28.375" height="24"><div xmlns="http://www.w3.org/1999/xhtml" style="display: table-cell; white-space: nowrap; line-height: 1.5; max-width: 128px; text-align: start;"><span class="nodeLabel"><p>role</p></span></div></foreignObject></g><g class="label attribute-keys" transform="translate(97.2578125, 30.75)" style=""><foreignObject width="0" height="0"><div xmlns="http://www.w3.org/1999/xhtml" style="display: table-cell; white-space: nowrap; line-height: 1.5; max-width: 100px; text-align: start;"><span class="nodeLabel"></span></div></foreignObject></g><g class="label attribute-comment" transform="translate(139.5390625, 30.75)" style=""><foreignObject width="0" height="0"><div xmlns="http://www.w3.org/1999/xhtml" style="display: table-cell; white-space: nowrap; line-height: 1.5; max-width: 100px; text-align: start;"><span class="nodeLabel"></span></div></foreignObject></g><g class="divider"><path d="M-127.0390625 -21.375 C-68.63875184193559 -21.375, -10.238441183871174 -21.375, 127.0390625 -21.375 M-127.0390625 -21.375 C-45.08346051969943 -21.375, 36.87214146060114 -21.375, 127.0390625 -21.375" stroke="#9370DB" stroke-width="1.3" fill="none" stroke-dasharray="0 0"></path></g><g class="divider"><path d="M-48.1171875 -21.375 C-48.1171875 10.331934791315035, -48.1171875 42.03886958263007, -48.1171875 64.125 M-48.1171875 -21.375 C-48.1171875 7.958239519438958, -48.1171875 37.29147903887792, -48.1171875 64.125" stroke="#9370DB" stroke-width="1.3" fill="none" stroke-dasharray="0 0"></path></g><g class="divider"><path d="M84.7578125 -21.375 C84.7578125 2.6083429457885607, 84.7578125 26.59168589157712, 84.7578125 64.125 M84.7578125 -21.375 C84.7578125 5.566333769359595, 84.7578125 32.50766753871919, 84.7578125 64.125" stroke="#9370DB" stroke-width="1.3" fill="none" stroke-dasharray="0 0"></path></g><g class="divider"><path d="M-127.0390625 -21.375 C-56.37047014718483 -21.375, 14.298122205630335 -21.375, 127.0390625 -21.375 M-127.0390625 -21.375 C-47.08730756168467 -21.375, 32.864447376630665 -21.375, 127.0390625 -21.375" stroke="#9370DB" stroke-width="1.3" fill="none" stroke-dasharray="0 0"></path></g></g><g class="node default" id="entity-user_tenant_memberships-2" transform="translate(529.1171875, 664.75)"><g style=""><path d="M-127.0390625 -85.5 L127.0390625 -85.5 L127.0390625 85.5 L-127.0390625 85.5" stroke="none" stroke-width="0" fill="#ECECFF"></path><path d="M-127.0390625 -85.5 C-61.24187312298285 -85.5, 4.555316254034295 -85.5, 127.0390625 -85.5 M-127.0390625 -85.5 C-44.433000950674256 -85.5, 38.17306059865149 -85.5, 127.0390625 -85.5 M127.0390625 -85.5 C127.0390625 -31.625910604956324, 127.0390625 22.24817879008735, 127.0390625 85.5 M127.0390625 -85.5 C127.0390625 -28.300142818238513, 127.0390625 28.899714363522975, 127.0390625 85.5 M127.0390625 85.5 C41.111084429148136 85.5, -44.81689364170373 85.5, -127.0390625 85.5 M127.0390625 85.5 C74.45896601688948 85.5, 21.878869533778953 85.5, -127.0390625 85.5 M-127.0390625 85.5 C-127.0390625 41.00685067538001, -127.0390625 -3.486298649239984, -127.0390625 -85.5 M-127.0390625 85.5 C-127.0390625 25.90466638304934, -127.0390625 -33.69066723390132, -127.0390625 -85.5" stroke="#9370DB" stroke-width="1.3" fill="none" stroke-dasharray="0 0"></path></g><g style="" class="row-rect-odd"><path d="M-127.0390625 -42.75 L127.0390625 -42.75 L127.0390625 0 L-127.0390625 0" stroke="none" stroke-width="0" fill="hsl(240, 100%, 100%)"></path><path d="M-127.0390625 -42.75 C-57.14908039731614 -42.75, 12.740901705367719 -42.75, 127.0390625 -42.75 M-127.0390625 -42.75 C-75.71987934434225 -42.75, -24.400696188684492 -42.75, 127.0390625 -42.75 M127.0390625 -42.75 C127.0390625 -30.380342596244308, 127.0390625 -18.010685192488616, 127.0390625 0 M127.0390625 -42.75 C127.0390625 -29.38206830459706, 127.0390625 -16.014136609194118, 127.0390625 0 M127.0390625 0 C35.96689118253322 0, -55.105280134933565 0, -127.0390625 0 M127.0390625 0 C70.86896360323391 0, 14.69886470646783 0, -127.0390625 0 M-127.0390625 0 C-127.0390625 -9.46580253566292, -127.0390625 -18.93160507132584, -127.0390625 -42.75 M-127.0390625 0 C-127.0390625 -11.289648831872372, -127.0390625 -22.579297663744743, -127.0390625 -42.75" stroke="#9370DB" stroke-width="1.3" fill="none" stroke-dasharray="0 0"></path></g><g style="" class="row-rect-even"><path d="M-127.0390625 0 L127.0390625 0 L127.0390625 42.75 L-127.0390625 42.75" stroke="none" stroke-width="0" fill="hsl(240, 100%, 97.2745098039%)"></path><path d="M-127.0390625 0 C-48.42877779168195 0, 30.181506916636096 0, 127.0390625 0 M-127.0390625 0 C-27.073626938413142 0, 72.89180862317372 0, 127.0390625 0 M127.0390625 0 C127.0390625 11.10802764924778, 127.0390625 22.21605529849556, 127.0390625 42.75 M127.0390625 0 C127.0390625 14.574603534696701, 127.0390625 29.149207069393402, 127.0390625 42.75 M127.0390625 42.75 C63.342728598211686 42.75, -0.35360530357662867 42.75, -127.0390625 42.75 M127.0390625 42.75 C46.17340997847177 42.75, -34.692242543056466 42.75, -127.0390625 42.75 M-127.0390625 42.75 C-127.0390625 33.79614557009325, -127.0390625 24.842291140186504, -127.0390625 0 M-127.0390625 42.75 C-127.0390625 31.895678067192513, -127.0390625 21.041356134385026, -127.0390625 0" stroke="#9370DB" stroke-width="1.3" fill="none" stroke-dasharray="0 0"></path></g><g style="" class="row-rect-odd"><path d="M-127.0390625 42.75 L127.0390625 42.75 L127.0390625 85.5 L-127.0390625 85.5" stroke="none" stroke-width="0" fill="hsl(240, 100%, 100%)"></path><path d="M-127.0390625 42.75 C-70.33957943678467 42.75, -13.640096373569335 42.75, 127.0390625 42.75 M-127.0390625 42.75 C-50.28730620627877 42.75, 26.464450087442458 42.75, 127.0390625 42.75 M127.0390625 42.75 C127.0390625 57.916681670952386, 127.0390625 73.08336334190477, 127.0390625 85.5 M127.0390625 42.75 C127.0390625 53.14072343993078, 127.0390625 63.53144687986156, 127.0390625 85.5 M127.0390625 85.5 C33.88040876767292 85.5, -59.278244964654164 85.5, -127.0390625 85.5 M127.0390625 85.5 C53.71735849301568 85.5, -19.60434551396864 85.5, -127.0390625 85.5 M-127.0390625 85.5 C-127.0390625 71.45729782659156, -127.0390625 57.41459565318311, -127.0390625 42.75 M-127.0390625 85.5 C-127.0390625 74.14336352263386, -127.0390625 62.78672704526773, -127.0390625 42.75" stroke="#9370DB" stroke-width="1.3" fill="none" stroke-dasharray="0 0"></path></g><g class="label name" transform="translate(-96.4296875, -76.125)" style=""><foreignObject width="192.859375" height="24"><div xmlns="http://www.w3.org/1999/xhtml" style="display: table-cell; white-space: nowrap; line-height: 1.5; max-width: 293px; text-align: start;"><span class="nodeLabel"><p>user_tenant_memberships</p></span></div></foreignObject></g><g class="label attribute-type" transform="translate(-114.5390625, -33.375)" style=""><foreignObject width="32.71875" height="24"><div xmlns="http://www.w3.org/1999/xhtml" style="display: table-cell; white-space: nowrap; line-height: 1.5; max-width: 133px; text-align: start;"><span class="nodeLabel"><p>uuid</p></span></div></foreignObject></g><g class="label attribute-name" transform="translate(-35.6171875, -33.375)" style=""><foreignObject width="107.875" height="24"><div xmlns="http://www.w3.org/1999/xhtml" style="display: table-cell; white-space: nowrap; line-height: 1.5; max-width: 208px; text-align: start;"><span class="nodeLabel"><p>user_profile_id</p></span></div></foreignObject></g><g class="label attribute-keys" transform="translate(97.2578125, -33.375)" style=""><foreignObject width="17.28125" height="24"><div xmlns="http://www.w3.org/1999/xhtml" style="display: table-cell; white-space: nowrap; line-height: 1.5; max-width: 118px; text-align: start;"><span class="nodeLabel"><p>FK</p></span></div></foreignObject></g><g class="label attribute-comment" transform="translate(139.5390625, -33.375)" style=""><foreignObject width="0" height="0"><div xmlns="http://www.w3.org/1999/xhtml" style="display: table-cell; white-space: nowrap; line-height: 1.5; max-width: 100px; text-align: start;"><span class="nodeLabel"></span></div></foreignObject></g><g class="label attribute-type" transform="translate(-114.5390625, 9.375)" style=""><foreignObject width="32.71875" height="24"><div xmlns="http://www.w3.org/1999/xhtml" style="display: table-cell; white-space: nowrap; line-height: 1.5; max-width: 133px; text-align: start;"><span class="nodeLabel"><p>uuid</p></span></div></foreignObject></g><g class="label attribute-name" transform="translate(-35.6171875, 9.375)" style=""><foreignObject width="69.890625" height="24"><div xmlns="http://www.w3.org/1999/xhtml" style="display: table-cell; white-space: nowrap; line-height: 1.5; max-width: 170px; text-align: start;"><span class="nodeLabel"><p>tenant_id</p></span></div></foreignObject></g><g class="label attribute-keys" transform="translate(97.2578125, 9.375)" style=""><foreignObject width="0" height="0"><div xmlns="http://www.w3.org/1999/xhtml" style="display: table-cell; white-space: nowrap; line-height: 1.5; max-width: 100px; text-align: start;"><span class="nodeLabel"></span></div></foreignObject></g><g class="label attribute-comment" transform="translate(139.5390625, 9.375)" style=""><foreignObject width="0" height="0"><div xmlns="http://www.w3.org/1999/xhtml" style="display: table-cell; white-space: nowrap; line-height: 1.5; max-width: 100px; text-align: start;"><span class="nodeLabel"></span></div></foreignObject></g><g class="label attribute-type" transform="translate(-114.5390625, 52.125)" style=""><foreignObject width="53.921875" height="24"><div xmlns="http://www.w3.org/1999/xhtml" style="display: table-cell; white-space: nowrap; line-height: 1.5; max-width: 155px; text-align: start;"><span class="nodeLabel"><p>varchar</p></span></div></foreignObject></g><g class="label attribute-name" transform="translate(-35.6171875, 52.125)" style=""><foreignObject width="28.375" height="24"><div xmlns="http://www.w3.org/1999/xhtml" style="display: table-cell; white-space: nowrap; line-height: 1.5; max-width: 128px; text-align: start;"><span class="nodeLabel"><p>role</p></span></div></foreignObject></g><g class="label attribute-keys" transform="translate(97.2578125, 52.125)" style=""><foreignObject width="0" height="0"><div xmlns="http://www.w3.org/1999/xhtml" style="display: table-cell; white-space: nowrap; line-height: 1.5; max-width: 100px; text-align: start;"><span class="nodeLabel"></span></div></foreignObject></g><g class="label attribute-comment" transform="translate(139.5390625, 52.125)" style=""><foreignObject width="0" height="0"><div xmlns="http://www.w3.org/1999/xhtml" style="display: table-cell; white-space: nowrap; line-height: 1.5; max-width: 100px; text-align: start;"><span class="nodeLabel"></span></div></foreignObject></g><g class="divider"><path d="M-127.0390625 -42.75 C-33.44615961413581 -42.75, 60.14674327172838 -42.75, 127.0390625 -42.75 M-127.0390625 -42.75 C-74.13431580951672 -42.75, -21.229569119033442 -42.75, 127.0390625 -42.75" stroke="#9370DB" stroke-width="1.3" fill="none" stroke-dasharray="0 0"></path></g><g class="divider"><path d="M-48.1171875 -42.75 C-48.1171875 -16.09020893680749, -48.1171875 10.569582126385022, -48.1171875 85.5 M-48.1171875 -42.75 C-48.1171875 -3.123816819625951, -48.1171875 36.5023663607481, -48.1171875 85.5" stroke="#9370DB" stroke-width="1.3" fill="none" stroke-dasharray="0 0"></path></g><g class="divider"><path d="M84.7578125 -42.75 C84.7578125 0.6035116040268562, 84.7578125 43.95702320805371, 84.7578125 85.5 M84.7578125 -42.75 C84.7578125 -11.645197996282572, 84.7578125 19.459604007434855, 84.7578125 85.5" stroke="#9370DB" stroke-width="1.3" fill="none" stroke-dasharray="0 0"></path></g><g class="divider"><path d="M-127.0390625 -42.75 C-38.15227193592666 -42.75, 50.734518628146674 -42.75, 127.0390625 -42.75 M-127.0390625 -42.75 C-45.325251498336954 -42.75, 36.38855950332609 -42.75, 127.0390625 -42.75" stroke="#9370DB" stroke-width="1.3" fill="none" stroke-dasharray="0 0"></path></g></g><g class="node default" id="entity-tenant_settings-3" transform="translate(946.75390625, 243.125)"><g style=""><path d="M-145.8671875 -85.5 L145.8671875 -85.5 L145.8671875 85.5 L-145.8671875 85.5" stroke="none" stroke-width="0" fill="#ECECFF"></path><path d="M-145.8671875 -85.5 C-31.025700125390628 -85.5, 83.81578724921874 -85.5, 145.8671875 -85.5 M-145.8671875 -85.5 C-79.01430157996127 -85.5, -12.16141565992254 -85.5, 145.8671875 -85.5 M145.8671875 -85.5 C145.8671875 -36.23363828819952, 145.8671875 13.032723423600956, 145.8671875 85.5 M145.8671875 -85.5 C145.8671875 -44.222304655875845, 145.8671875 -2.944609311751691, 145.8671875 85.5 M145.8671875 85.5 C77.63423924924037 85.5, 9.401290998480732 85.5, -145.8671875 85.5 M145.8671875 85.5 C43.407930186660465 85.5, -59.05132712667907 85.5, -145.8671875 85.5 M-145.8671875 85.5 C-145.8671875 28.44624202745033, -145.8671875 -28.607515945099337, -145.8671875 -85.5 M-145.8671875 85.5 C-145.8671875 27.526854699715912, -145.8671875 -30.446290600568176, -145.8671875 -85.5" stroke="#9370DB" stroke-width="1.3" fill="none" stroke-dasharray="0 0"></path></g><g style="" class="row-rect-odd"><path d="M-145.8671875 -42.75 L145.8671875 -42.75 L145.8671875 0 L-145.8671875 0" stroke="none" stroke-width="0" fill="hsl(240, 100%, 100%)"></path><path d="M-145.8671875 -42.75 C-48.97149846808436 -42.75, 47.924190563831274 -42.75, 145.8671875 -42.75 M-145.8671875 -42.75 C-67.12116429300741 -42.75, 11.624858913985179 -42.75, 145.8671875 -42.75 M145.8671875 -42.75 C145.8671875 -26.7945588076687, 145.8671875 -10.839117615337404, 145.8671875 0 M145.8671875 -42.75 C145.8671875 -30.10895546837735, 145.8671875 -17.4679109367547, 145.8671875 0 M145.8671875 0 C48.37714661167102 0, -49.112894276657954 0, -145.8671875 0 M145.8671875 0 C45.4099759543426 0, -55.0472355913148 0, -145.8671875 0 M-145.8671875 0 C-145.8671875 -16.997189280590206, -145.8671875 -33.99437856118041, -145.8671875 -42.75 M-145.8671875 0 C-145.8671875 -11.588758210372996, -145.8671875 -23.17751642074599, -145.8671875 -42.75" stroke="#9370DB" stroke-width="1.3" fill="none" stroke-dasharray="0 0"></path></g><g style="" class="row-rect-even"><path d="M-145.8671875 0 L145.8671875 0 L145.8671875 42.75 L-145.8671875 42.75" stroke="none" stroke-width="0" fill="hsl(240, 100%, 97.2745098039%)"></path><path d="M-145.8671875 0 C-45.890216915284455 0, 54.08675366943109 0, 145.8671875 0 M-145.8671875 0 C-39.651643089189804 0, 66.56390132162039 0, 145.8671875 0 M145.8671875 0 C145.8671875 10.733609173425107, 145.8671875 21.467218346850213, 145.8671875 42.75 M145.8671875 0 C145.8671875 13.39730730900253, 145.8671875 26.79461461800506, 145.8671875 42.75 M145.8671875 42.75 C39.10894498498669 42.75, -67.64929753002662 42.75, -145.8671875 42.75 M145.8671875 42.75 C68.86178877479031 42.75, -8.143609950419375 42.75, -145.8671875 42.75 M-145.8671875 42.75 C-145.8671875 33.87422621890449, -145.8671875 24.99845243780898, -145.8671875 0 M-145.8671875 42.75 C-145.8671875 27.20571139296311, -145.8671875 11.661422785926217, -145.8671875 0" stroke="#9370DB" stroke-width="1.3" fill="none" stroke-dasharray="0 0"></path></g><g style="" class="row-rect-odd"><path d="M-145.8671875 42.75 L145.8671875 42.75 L145.8671875 85.5 L-145.8671875 85.5" stroke="none" stroke-width="0" fill="hsl(240, 100%, 100%)"></path><path d="M-145.8671875 42.75 C-49.91346361659187 42.75, 46.04026026681626 42.75, 145.8671875 42.75 M-145.8671875 42.75 C-53.905961350542654 42.75, 38.05526479891469 42.75, 145.8671875 42.75 M145.8671875 42.75 C145.8671875 53.23559584944777, 145.8671875 63.72119169889554, 145.8671875 85.5 M145.8671875 42.75 C145.8671875 59.407944596062826, 145.8671875 76.06588919212565, 145.8671875 85.5 M145.8671875 85.5 C65.3764806159911 85.5, -15.114226268017802 85.5, -145.8671875 85.5 M145.8671875 85.5 C48.21544225753624 85.5, -49.43630298492752 85.5, -145.8671875 85.5 M-145.8671875 85.5 C-145.8671875 71.15659045505566, -145.8671875 56.81318091011134, -145.8671875 42.75 M-145.8671875 85.5 C-145.8671875 71.67858576515901, -145.8671875 57.85717153031803, -145.8671875 42.75" stroke="#9370DB" stroke-width="1.3" fill="none" stroke-dasharray="0 0"></path></g><g class="label name" transform="translate(-56.5625, -76.125)" style=""><foreignObject width="113.125" height="24"><div xmlns="http://www.w3.org/1999/xhtml" style="display: table-cell; white-space: nowrap; line-height: 1.5; max-width: 213px; text-align: start;"><span class="nodeLabel"><p>tenant_settings</p></span></div></foreignObject></g><g class="label attribute-type" transform="translate(-133.3671875, -33.375)" style=""><foreignObject width="32.71875" height="24"><div xmlns="http://www.w3.org/1999/xhtml" style="display: table-cell; white-space: nowrap; line-height: 1.5; max-width: 133px; text-align: start;"><span class="nodeLabel"><p>uuid</p></span></div></foreignObject></g><g class="label attribute-name" transform="translate(-48.9140625, -33.375)" style=""><foreignObject width="69.890625" height="24"><div xmlns="http://www.w3.org/1999/xhtml" style="display: table-cell; white-space: nowrap; line-height: 1.5; max-width: 170px; text-align: start;"><span class="nodeLabel"><p>tenant_id</p></span></div></foreignObject></g><g class="label attribute-keys" transform="translate(114.6328125, -33.375)" style=""><foreignObject width="18.734375" height="24"><div xmlns="http://www.w3.org/1999/xhtml" style="display: table-cell; white-space: nowrap; line-height: 1.5; max-width: 119px; text-align: start;"><span class="nodeLabel"><p>PK</p></span></div></foreignObject></g><g class="label attribute-comment" transform="translate(158.3671875, -33.375)" style=""><foreignObject width="0" height="0"><div xmlns="http://www.w3.org/1999/xhtml" style="display: table-cell; white-space: nowrap; line-height: 1.5; max-width: 100px; text-align: start;"><span class="nodeLabel"></span></div></foreignObject></g><g class="label attribute-type" transform="translate(-133.3671875, 9.375)" style=""><foreignObject width="53.921875" height="24"><div xmlns="http://www.w3.org/1999/xhtml" style="display: table-cell; white-space: nowrap; line-height: 1.5; max-width: 155px; text-align: start;"><span class="nodeLabel"><p>varchar</p></span></div></foreignObject></g><g class="label attribute-name" transform="translate(-48.9140625, 9.375)" style=""><foreignObject width="85.828125" height="24"><div xmlns="http://www.w3.org/1999/xhtml" style="display: table-cell; white-space: nowrap; line-height: 1.5; max-width: 186px; text-align: start;"><span class="nodeLabel"><p>login_mode</p></span></div></foreignObject></g><g class="label attribute-keys" transform="translate(114.6328125, 9.375)" style=""><foreignObject width="0" height="0"><div xmlns="http://www.w3.org/1999/xhtml" style="display: table-cell; white-space: nowrap; line-height: 1.5; max-width: 100px; text-align: start;"><span class="nodeLabel"></span></div></foreignObject></g><g class="label attribute-comment" transform="translate(158.3671875, 9.375)" style=""><foreignObject width="0" height="0"><div xmlns="http://www.w3.org/1999/xhtml" style="display: table-cell; white-space: nowrap; line-height: 1.5; max-width: 100px; text-align: start;"><span class="nodeLabel"></span></div></foreignObject></g><g class="label attribute-type" transform="translate(-133.3671875, 52.125)" style=""><foreignObject width="59.453125" height="24"><div xmlns="http://www.w3.org/1999/xhtml" style="display: table-cell; white-space: nowrap; line-height: 1.5; max-width: 159px; text-align: start;"><span class="nodeLabel"><p>boolean</p></span></div></foreignObject></g><g class="label attribute-name" transform="translate(-48.9140625, 52.125)" style=""><foreignObject width="138.546875" height="24"><div xmlns="http://www.w3.org/1999/xhtml" style="display: table-cell; white-space: nowrap; line-height: 1.5; max-width: 239px; text-align: start;"><span class="nodeLabel"><p>auto_approve_oidc</p></span></div></foreignObject></g><g class="label attribute-keys" transform="translate(114.6328125, 52.125)" style=""><foreignObject width="0" height="0"><div xmlns="http://www.w3.org/1999/xhtml" style="display: table-cell; white-space: nowrap; line-height: 1.5; max-width: 100px; text-align: start;"><span class="nodeLabel"></span></div></foreignObject></g><g class="label attribute-comment" transform="translate(158.3671875, 52.125)" style=""><foreignObject width="0" height="0"><div xmlns="http://www.w3.org/1999/xhtml" style="display: table-cell; white-space: nowrap; line-height: 1.5; max-width: 100px; text-align: start;"><span class="nodeLabel"></span></div></foreignObject></g><g class="divider"><path d="M-145.8671875 -42.75 C-45.79639845037518 -42.75, 54.27439059924964 -42.75, 145.8671875 -42.75 M-145.8671875 -42.75 C-80.19604052828053 -42.75, -14.524893556561068 -42.75, 145.8671875 -42.75" stroke="#9370DB" stroke-width="1.3" fill="none" stroke-dasharray="0 0"></path></g><g class="divider"><path d="M-61.4140625 -42.75 C-61.4140625 5.6155704659890375, -61.4140625 53.981140931978075, -61.4140625 85.5 M-61.4140625 -42.75 C-61.4140625 -14.10781128464036, -61.4140625 14.534377430719282, -61.4140625 85.5" stroke="#9370DB" stroke-width="1.3" fill="none" stroke-dasharray="0 0"></path></g><g class="divider"><path d="M102.1328125 -42.75 C102.1328125 -16.086842967480468, 102.1328125 10.576314065039064, 102.1328125 85.5 M102.1328125 -42.75 C102.1328125 -16.899709772987045, 102.1328125 8.95058045402591, 102.1328125 85.5" stroke="#9370DB" stroke-width="1.3" fill="none" stroke-dasharray="0 0"></path></g><g class="divider"><path d="M-145.8671875 -42.75 C-71.88190820430347 -42.75, 2.1033710913930577 -42.75, 145.8671875 -42.75 M-145.8671875 -42.75 C-62.5296028665651 -42.75, 20.8079817668698 -42.75, 145.8671875 -42.75" stroke="#9370DB" stroke-width="1.3" fill="none" stroke-dasharray="0 0"></path></g></g><g class="node default" id="entity-tenant_auto_approve_domains-4" transform="translate(946.75390625, 664.75)"><g style=""><path d="M-137.828125 -64.125 L137.828125 -64.125 L137.828125 64.125 L-137.828125 64.125" stroke="none" stroke-width="0" fill="#ECECFF"></path><path d="M-137.828125 -64.125 C-80.0666147097919 -64.125, -22.3051044195838 -64.125, 137.828125 -64.125 M-137.828125 -64.125 C-30.149317525400505 -64.125, 77.52948994919899 -64.125, 137.828125 -64.125 M137.828125 -64.125 C137.828125 -22.118876271587972, 137.828125 19.887247456824056, 137.828125 64.125 M137.828125 -64.125 C137.828125 -36.93760944666222, 137.828125 -9.750218893324444, 137.828125 64.125 M137.828125 64.125 C43.735947130457376 64.125, -50.35623073908525 64.125, -137.828125 64.125 M137.828125 64.125 C46.77038364043193 64.125, -44.28735771913614 64.125, -137.828125 64.125 M-137.828125 64.125 C-137.828125 29.748491914956354, -137.828125 -4.628016170087292, -137.828125 -64.125 M-137.828125 64.125 C-137.828125 14.77314543174785, -137.828125 -34.5787091365043, -137.828125 -64.125" stroke="#9370DB" stroke-width="1.3" fill="none" stroke-dasharray="0 0"></path></g><g style="" class="row-rect-odd"><path d="M-137.828125 -21.375 L137.828125 -21.375 L137.828125 21.375 L-137.828125 21.375" stroke="none" stroke-width="0" fill="hsl(240, 100%, 100%)"></path><path d="M-137.828125 -21.375 C-56.93634396125792 -21.375, 23.955437077484163 -21.375, 137.828125 -21.375 M-137.828125 -21.375 C-76.58150164374877 -21.375, -15.334878287497531 -21.375, 137.828125 -21.375 M137.828125 -21.375 C137.828125 -9.772955256121936, 137.828125 1.8290894877561286, 137.828125 21.375 M137.828125 -21.375 C137.828125 -5.599814170515408, 137.828125 10.175371658969183, 137.828125 21.375 M137.828125 21.375 C81.35839145100937 21.375, 24.88865790201872 21.375, -137.828125 21.375 M137.828125 21.375 C30.42762856962034 21.375, -76.97286786075932 21.375, -137.828125 21.375 M-137.828125 21.375 C-137.828125 10.940259368861007, -137.828125 0.5055187377220136, -137.828125 -21.375 M-137.828125 21.375 C-137.828125 4.4142776977262095, -137.828125 -12.546444604547581, -137.828125 -21.375" stroke="#9370DB" stroke-width="1.3" fill="none" stroke-dasharray="0 0"></path></g><g style="" class="row-rect-even"><path d="M-137.828125 21.375 L137.828125 21.375 L137.828125 64.125 L-137.828125 64.125" stroke="none" stroke-width="0" fill="hsl(240, 100%, 97.2745098039%)"></path><path d="M-137.828125 21.375 C-75.46648684879108 21.375, -13.10484869758217 21.375, 137.828125 21.375 M-137.828125 21.375 C-71.01513265485549 21.375, -4.202140309710984 21.375, 137.828125 21.375 M137.828125 21.375 C137.828125 34.199143171137976, 137.828125 47.02328634227595, 137.828125 64.125 M137.828125 21.375 C137.828125 32.54831465836805, 137.828125 43.7216293167361, 137.828125 64.125 M137.828125 64.125 C44.524365749661015 64.125, -48.77939350067797 64.125, -137.828125 64.125 M137.828125 64.125 C76.26785503366015 64.125, 14.70758506732031 64.125, -137.828125 64.125 M-137.828125 64.125 C-137.828125 53.112296868573054, -137.828125 42.09959373714611, -137.828125 21.375 M-137.828125 64.125 C-137.828125 54.31456529647911, -137.828125 44.50413059295822, -137.828125 21.375" stroke="#9370DB" stroke-width="1.3" fill="none" stroke-dasharray="0 0"></path></g><g class="label name" transform="translate(-112.828125, -54.75)" style=""><foreignObject width="225.65625" height="24"><div xmlns="http://www.w3.org/1999/xhtml" style="display: table-cell; white-space: nowrap; line-height: 1.5; max-width: 326px; text-align: start;"><span class="nodeLabel"><p>tenant_auto_approve_domains</p></span></div></foreignObject></g><g class="label attribute-type" transform="translate(-125.328125, -12)" style=""><foreignObject width="32.71875" height="24"><div xmlns="http://www.w3.org/1999/xhtml" style="display: table-cell; white-space: nowrap; line-height: 1.5; max-width: 133px; text-align: start;"><span class="nodeLabel"><p>uuid</p></span></div></foreignObject></g><g class="label attribute-name" transform="translate(-37.77604166666667, -12)" style=""><foreignObject width="69.890625" height="24"><div xmlns="http://www.w3.org/1999/xhtml" style="display: table-cell; white-space: nowrap; line-height: 1.5; max-width: 170px; text-align: start;"><span class="nodeLabel"><p>tenant_id</p></span></div></foreignObject></g><g class="label attribute-keys" transform="translate(99.41666666666669, -12)" style=""><foreignObject width="17.28125" height="24"><div xmlns="http://www.w3.org/1999/xhtml" style="display: table-cell; white-space: nowrap; line-height: 1.5; max-width: 118px; text-align: start;"><span class="nodeLabel"><p>FK</p></span></div></foreignObject></g><g class="label attribute-comment" transform="translate(150.328125, -12)" style=""><foreignObject width="0" height="0"><div xmlns="http://www.w3.org/1999/xhtml" style="display: table-cell; white-space: nowrap; line-height: 1.5; max-width: 100px; text-align: start;"><span class="nodeLabel"></span></div></foreignObject></g><g class="label attribute-type" transform="translate(-125.328125, 30.75)" style=""><foreignObject width="53.921875" height="24"><div xmlns="http://www.w3.org/1999/xhtml" style="display: table-cell; white-space: nowrap; line-height: 1.5; max-width: 155px; text-align: start;"><span class="nodeLabel"><p>varchar</p></span></div></foreignObject></g><g class="label attribute-name" transform="translate(-37.77604166666667, 30.75)" style=""><foreignObject width="103.5625" height="24"><div xmlns="http://www.w3.org/1999/xhtml" style="display: table-cell; white-space: nowrap; line-height: 1.5; max-width: 204px; text-align: start;"><span class="nodeLabel"><p>email_domain</p></span></div></foreignObject></g><g class="label attribute-keys" transform="translate(99.41666666666669, 30.75)" style=""><foreignObject width="0" height="0"><div xmlns="http://www.w3.org/1999/xhtml" style="display: table-cell; white-space: nowrap; line-height: 1.5; max-width: 100px; text-align: start;"><span class="nodeLabel"></span></div></foreignObject></g><g class="label attribute-comment" transform="translate(150.328125, 30.75)" style=""><foreignObject width="0" height="0"><div xmlns="http://www.w3.org/1999/xhtml" style="display: table-cell; white-space: nowrap; line-height: 1.5; max-width: 100px; text-align: start;"><span class="nodeLabel"></span></div></foreignObject></g><g class="divider"><path d="M-137.828125 -21.375 C-73.24603897459546 -21.375, -8.663952949190929 -21.375, 137.828125 -21.375 M-137.828125 -21.375 C-75.96152515464607 -21.375, -14.094925309292137 -21.375, 137.828125 -21.375" stroke="#9370DB" stroke-width="1.3" fill="none" stroke-dasharray="0 0"></path></g><g class="divider"><path d="M-50.27604166666667 -21.375 C-50.27604166666667 5.673233525409241, -50.27604166666667 32.72146705081848, -50.27604166666667 64.125 M-50.27604166666667 -21.375 C-50.27604166666667 -2.2630928823360357, -50.27604166666667 16.84881423532793, -50.27604166666667 64.125" stroke="#9370DB" stroke-width="1.3" fill="none" stroke-dasharray="0 0"></path></g><g class="divider"><path d="M86.91666666666669 -21.375 C86.91666666666669 5.4897251807649035, 86.91666666666669 32.35445036152981, 86.91666666666669 64.125 M86.91666666666669 -21.375 C86.91666666666669 -2.8566021827135515, 86.91666666666669 15.661795634572897, 86.91666666666669 64.125" stroke="#9370DB" stroke-width="1.3" fill="none" stroke-dasharray="0 0"></path></g><g class="divider"><path d="M-137.828125 -21.375 C-73.59331541008692 -21.375, -9.358505820173832 -21.375, 137.828125 -21.375 M-137.828125 -21.375 C-79.61858758453045 -21.375, -21.409050169060876 -21.375, 137.828125 -21.375" stroke="#9370DB" stroke-width="1.3" fill="none" stroke-dasharray="0 0"></path></g></g></g></g></g></svg>