<svg id="container" width="2238.4765625" xmlns="http://www.w3.org/2000/svg" class="classDiagram" height="528" viewBox="0 0 2238.4765625 528" role="graphics-document document" aria-roledescription="class"><style>#container{font-family:"trebuchet ms",verdana,arial,sans-serif;font-size:16px;fill:#333;}@keyframes edge-animation-frame{from{stroke-dashoffset:0;}}@keyframes dash{to{stroke-dashoffset:0;}}#container .edge-animation-slow{stroke-dasharray:9,5!important;stroke-dashoffset:900;animation:dash 50s linear infinite;stroke-linecap:round;}#container .edge-animation-fast{stroke-dasharray:9,5!important;stroke-dashoffset:900;animation:dash 20s linear infinite;stroke-linecap:round;}#container .error-icon{fill:#552222;}#container .error-text{fill:#552222;stroke:#552222;}#container .edge-thickness-normal{stroke-width:1px;}#container .edge-thickness-thick{stroke-width:3.5px;}#container .edge-pattern-solid{stroke-dasharray:0;}#container .edge-thickness-invisible{stroke-width:0;fill:none;}#container .edge-pattern-dashed{stroke-dasharray:3;}#container .edge-pattern-dotted{stroke-dasharray:2;}#container .marker{fill:#333333;stroke:#333333;}#container .marker.cross{stroke:#333333;}#container svg{font-family:"trebuchet ms",verdana,arial,sans-serif;font-size:16px;}#container p{margin:0;}#container g.classGroup text{fill:#9370DB;stroke:none;font-family:"trebuchet ms",verdana,arial,sans-serif;font-size:10px;}#container g.classGroup text .title{font-weight:bolder;}#container .nodeLabel,#container .edgeLabel{color:#131300;}#container .edgeLabel .label rect{fill:#ECECFF;}#container .label text{fill:#131300;}#container .labelBkg{background:#ECECFF;}#container .edgeLabel .label span{background:#ECECFF;}#container .classTitle{font-weight:bolder;}#container .node rect,#container .node circle,#container .node ellipse,#container .node polygon,#container .node path{fill:#ECECFF;stroke:#9370DB;stroke-width:1px;}#container .divider{stroke:#9370DB;stroke-width:1;}#container g.clickable{cursor:pointer;}#container g.classGroup rect{fill:#ECECFF;stroke:#9370DB;}#container g.classGroup line{stroke:#9370DB;stroke-width:1;}#container .classLabel .box{stroke:none;stroke-width:0;fill:#ECECFF;opacity:0.5;}#container .classLabel .label{fill:#9370DB;font-size:10px;}#container .relation{stroke:#333333;stroke-width:1;fill:none;}#container .dashed-line{stroke-dasharray:3;}#container .dotted-line{stroke-dasharray:1 2;}#container #compositionStart,#container .composition{fill:#333333!important;stroke:#333333!important;stroke-width:1;}#container #compositionEnd,#container .composition{fill:#333333!important;stroke:#333333!important;stroke-width:1;}#container #dependencyStart,#container .dependency{fill:#333333!important;stroke:#333333!important;stroke-width:1;}#container #dependencyStart,#container .dependency{fill:#333333!important;stroke:#333333!important;stroke-width:1;}#container #extensionStart,#container .extension{fill:transparent!important;stroke:#333333!important;stroke-width:1;}#container #extensionEnd,#container .extension{fill:transparent!important;stroke:#333333!important;stroke-width:1;}#container #aggregationStart,#container .aggregation{fill:transparent!important;stroke:#333333!important;stroke-width:1;}#container #aggregationEnd,#container .aggregation{fill:transparent!important;stroke:#333333!important;stroke-width:1;}#container #lollipopStart,#container .lollipop{fill:#ECECFF!important;stroke:#333333!important;stroke-width:1;}#container #lollipopEnd,#container .lollipop{fill:#ECECFF!important;stroke:#333333!important;stroke-width:1;}#container .edgeTerminals{font-size:11px;line-height:initial;}#container .classTitleText{text-anchor:middle;font-size:18px;fill:#333;}#container .label-icon{display:inline-block;height:1em;overflow:visible;vertical-align:-0.125em;}#container .node .label-icon path{fill:currentColor;stroke:revert;stroke-width:revert;}#container :root{--mermaid-font-family:"trebuchet ms",verdana,arial,sans-serif;}</style><g><defs><marker id="container_class-aggregationStart" class="marker aggregation class" refX="18" refY="7" markerWidth="190" markerHeight="240" orient="auto"><path d="M 18,7 L9,13 L1,7 L9,1 Z"></path></marker></defs><defs><marker id="container_class-aggregationEnd" class="marker aggregation class" refX="1" refY="7" markerWidth="20" markerHeight="28" orient="auto"><path d="M 18,7 L9,13 L1,7 L9,1 Z"></path></marker></defs><defs><marker id="container_class-extensionStart" class="marker extension class" refX="18" refY="7" markerWidth="190" markerHeight="240" orient="auto"><path d="M 1,7 L18,13 V 1 Z"></path></marker></defs><defs><marker id="container_class-extensionEnd" class="marker extension class" refX="1" refY="7" markerWidth="20" markerHeight="28" orient="auto"><path d="M 1,1 V 13 L18,7 Z"></path></marker></defs><defs><marker id="container_class-compositionStart" class="marker composition class" refX="18" refY="7" markerWidth="190" markerHeight="240" orient="auto"><path d="M 18,7 L9,13 L1,7 L9,1 Z"></path></marker></defs><defs><marker id="container_class-compositionEnd" class="marker composition class" refX="1" refY="7" markerWidth="20" markerHeight="28" orient="auto"><path d="M 18,7 L9,13 L1,7 L9,1 Z"></path></marker></defs><defs><marker id="container_class-dependencyStart" class="marker dependency class" refX="6" refY="7" markerWidth="190" markerHeight="240" orient="auto"><path d="M 5,7 L9,13 L1,7 L9,1 Z"></path></marker></defs><defs><marker id="container_class-dependencyEnd" class="marker dependency class" refX="13" refY="7" markerWidth="20" markerHeight="28" orient="auto"><path d="M 18,7 L9,13 L14,7 L9,1 Z"></path></marker></defs><defs><marker id="container_class-lollipopStart" class="marker lollipop class" refX="13" refY="7" markerWidth="190" markerHeight="240" orient="auto"><circle stroke="black" fill="transparent" cx="7" cy="7" r="6"></circle></marker></defs><defs><marker id="container_class-lollipopEnd" class="marker lollipop class" refX="1" refY="7" markerWidth="190" markerHeight="240" orient="auto"><circle stroke="black" fill="transparent" cx="7" cy="7" r="6"></circle></marker></defs><g class="root"><g class="clusters"></g><g class="edgePaths"><path d="M919.005,169.229L793.492,190.524C667.978,211.819,416.952,254.41,291.439,279.871C165.926,305.333,165.926,313.667,165.926,317.833L165.926,322" id="id_BasePage_LandingPage_1" class="edge-thickness-normal edge-pattern-solid relation" style=";;;" data-edge="true" data-et="edge" data-id="id_BasePage_LandingPage_1" data-points="W3sieCI6OTM2LjAxMTcxODc1LCJ5IjoxNjYuMzQzMTgwMzc5MDc4OX0seyJ4IjoxNjUuOTI1NzgxMjUsInkiOjI5N30seyJ4IjoxNjUuOTI1NzgxMjUsInkiOjMyMn1d" marker-start="url(#container_class-extensionStart)"></path><path d="M919.404,188.246L854.832,206.372C790.26,224.497,661.116,260.749,596.544,283.041C531.973,305.333,531.973,313.667,531.973,317.833L531.973,322" id="id_BasePage_PostListPage_2" class="edge-thickness-normal edge-pattern-solid relation" style=";;;" data-edge="true" data-et="edge" data-id="id_BasePage_PostListPage_2" data-points="W3sieCI6OTM2LjAxMTcxODc1LCJ5IjoxODMuNTgzOTQyMTE1NjI5MDR9LHsieCI6NTMxLjk3MjY1NjI1LCJ5IjoyOTd9LHsieCI6NTMxLjk3MjY1NjI1LCJ5IjozMjJ9XQ==" marker-start="url(#container_class-extensionStart)"></path><path d="M922.769,280.661L919.507,283.384C916.244,286.107,909.72,291.554,906.458,300.443C903.195,309.333,903.195,321.667,903.195,327.833L903.195,334" id="id_BasePage_PostDetailPage_3" class="edge-thickness-normal edge-pattern-solid relation" style=";;;" data-edge="true" data-et="edge" data-id="id_BasePage_PostDetailPage_3" data-points="W3sieCI6OTM2LjAxMTcxODc1LCJ5IjoyNjkuNjA2NzYyMzQxODk3fSx7IngiOjkwMy4xOTUzMTI1LCJ5IjoyOTd9LHsieCI6OTAzLjE5NTMxMjUsInkiOjMzNH1d" marker-start="url(#container_class-extensionStart)"></path><path d="M1259.786,280.661L1263.048,283.384C1266.31,286.107,1272.835,291.554,1276.097,298.443C1279.359,305.333,1279.359,313.667,1279.359,317.833L1279.359,322" id="id_BasePage_PostFormPage_4" class="edge-thickness-normal edge-pattern-solid relation" style=";;;" data-edge="true" data-et="edge" data-id="id_BasePage_PostFormPage_4" data-points="W3sieCI6MTI0Ni41NDI5Njg3NSwieSI6MjY5LjYwNjc2MjM0MTg5N30seyJ4IjoxMjc5LjM1OTM3NSwieSI6Mjk3fSx7IngiOjEyNzkuMzU5Mzc1LCJ5IjozMjJ9XQ==" marker-start="url(#container_class-extensionStart)"></path><path d="M1263.125,189.248L1325.791,207.207C1388.457,225.165,1513.789,261.083,1576.455,283.208C1639.121,305.333,1639.121,313.667,1639.121,317.833L1639.121,322" id="id_BasePage_LoginPage_5" class="edge-thickness-normal edge-pattern-solid relation" style=";;;" data-edge="true" data-et="edge" data-id="id_BasePage_LoginPage_5" data-points="W3sieCI6MTI0Ni41NDI5Njg3NSwieSI6MTg0LjQ5NTcyMTg2NDEyNjR9LHsieCI6MTYzOS4xMjEwOTM3NSwieSI6Mjk3fSx7IngiOjE2MzkuMTIxMDkzNzUsInkiOjMyMn1d" marker-start="url(#container_class-extensionStart)"></path><path d="M1263.558,168.717L1391.823,190.098C1520.088,211.478,1776.618,254.239,1904.883,279.786C2033.148,305.333,2033.148,313.667,2033.148,317.833L2033.148,322" id="id_BasePage_RegisterPage_6" class="edge-thickness-normal edge-pattern-solid relation" style=";;;" data-edge="true" data-et="edge" data-id="id_BasePage_RegisterPage_6" data-points="W3sieCI6MTI0Ni41NDI5Njg3NSwieSI6MTY1Ljg4MTE0NTgyNDI2MTA0fSx7IngiOjIwMzMuMTQ4NDM3NSwieSI6Mjk3fSx7IngiOjIwMzMuMTQ4NDM3NSwieSI6MzIyfV0=" marker-start="url(#container_class-extensionStart)"></path></g><g class="edgeLabels"><g class="edgeLabel"><g class="label" data-id="id_BasePage_LandingPage_1" transform="translate(0, 0)"><foreignObject width="0" height="0"><div xmlns="http://www.w3.org/1999/xhtml" class="labelBkg" style="display: table-cell; white-space: nowrap; line-height: 1.5; max-width: 200px; text-align: center;"><span class="edgeLabel"></span></div></foreignObject></g></g><g class="edgeLabel"><g class="label" data-id="id_BasePage_PostListPage_2" transform="translate(0, 0)"><foreignObject width="0" height="0"><div xmlns="http://www.w3.org/1999/xhtml" class="labelBkg" style="display: table-cell; white-space: nowrap; line-height: 1.5; max-width: 200px; text-align: center;"><span class="edgeLabel"></span></div></foreignObject></g></g><g class="edgeLabel"><g class="label" data-id="id_BasePage_PostDetailPage_3" transform="translate(0, 0)"><foreignObject width="0" height="0"><div xmlns="http://www.w3.org/1999/xhtml" class="labelBkg" style="display: table-cell; white-space: nowrap; line-height: 1.5; max-width: 200px; text-align: center;"><span class="edgeLabel"></span></div></foreignObject></g></g><g class="edgeLabel"><g class="label" data-id="id_BasePage_PostFormPage_4" transform="translate(0, 0)"><foreignObject width="0" height="0"><div xmlns="http://www.w3.org/1999/xhtml" class="labelBkg" style="display: table-cell; white-space: nowrap; line-height: 1.5; max-width: 200px; text-align: center;"><span class="edgeLabel"></span></div></foreignObject></g></g><g class="edgeLabel"><g class="label" data-id="id_BasePage_LoginPage_5" transform="translate(0, 0)"><foreignObject width="0" height="0"><div xmlns="http://www.w3.org/1999/xhtml" class="labelBkg" style="display: table-cell; white-space: nowrap; line-height: 1.5; max-width: 200px; text-align: center;"><span class="edgeLabel"></span></div></foreignObject></g></g><g class="edgeLabel"><g class="label" data-id="id_BasePage_RegisterPage_6" transform="translate(0, 0)"><foreignObject width="0" height="0"><div xmlns="http://www.w3.org/1999/xhtml" class="labelBkg" style="display: table-cell; white-space: nowrap; line-height: 1.5; max-width: 200px; text-align: center;"><span class="edgeLabel"></span></div></foreignObject></g></g></g><g class="nodes"><g class="node default" id="classId-BasePage-0" transform="translate(1091.27734375, 140)"><g class="basic label-container"><path d="M-155.265625 -132 L155.265625 -132 L155.265625 132 L-155.265625 132" stroke="none" stroke-width="0" fill="#ECECFF" style=""></path><path d="M-155.265625 -132 C-82.18397543829074 -132, -9.102325876581489 -132, 155.265625 -132 M-155.265625 -132 C-72.76297678974869 -132, 9.739671420502617 -132, 155.265625 -132 M155.265625 -132 C155.265625 -57.644291983491115, 155.265625 16.71141603301777, 155.265625 132 M155.265625 -132 C155.265625 -50.82302954547133, 155.265625 30.353940909057343, 155.265625 132 M155.265625 132 C70.37877262864966 132, -14.508079742700687 132, -155.265625 132 M155.265625 132 C32.03378687011238 132, -91.19805125977524 132, -155.265625 132 M-155.265625 132 C-155.265625 58.2062330077503, -155.265625 -15.587533984499402, -155.265625 -132 M-155.265625 132 C-155.265625 29.00622240458307, -155.265625 -73.98755519083386, -155.265625 -132" stroke="#9370DB" stroke-width="1.3" fill="none" stroke-dasharray="0 0" style=""></path></g><g class="annotation-group text" transform="translate(0, -108)"></g><g class="label-group text" transform="translate(-34.859375, -108)"><g class="label" style="font-weight: bolder" transform="translate(0,-12)"><foreignObject width="69.71875" height="24"><div xmlns="http://www.w3.org/1999/xhtml" style="display: table-cell; white-space: nowrap; line-height: 1.5; max-width: 118px; text-align: center;"><span class="nodeLabel markdown-node-label" style=""><p>BasePage</p></span></div></foreignObject></g></g><g class="members-group text" transform="translate(-143.265625, -60)"><g class="label" style="" transform="translate(0,-12)"><foreignObject width="130.46875" height="24"><div xmlns="http://www.w3.org/1999/xhtml" style="display: table-cell; white-space: nowrap; line-height: 1.5; max-width: 190px; text-align: center;"><span class="nodeLabel markdown-node-label" style=""><p>#WebDriver driver</p></span></div></foreignObject></g><g class="label" style="" transform="translate(0,12)"><foreignObject width="149.515625" height="24"><div xmlns="http://www.w3.org/1999/xhtml" style="display: table-cell; white-space: nowrap; line-height: 1.5; max-width: 208px; text-align: center;"><span class="nodeLabel markdown-node-label" style=""><p>#WebDriverWait wait</p></span></div></foreignObject></g></g><g class="methods-group text" transform="translate(-143.265625, 12)"><g class="label" style="" transform="translate(0,-12)"><foreignObject width="127.84375" height="24"><div xmlns="http://www.w3.org/1999/xhtml" style="display: table-cell; white-space: nowrap; line-height: 1.5; max-width: 186px; text-align: center;"><span class="nodeLabel markdown-node-label" style=""><p>+getTitle() : String</p></span></div></foreignObject></g><g class="label" style="" transform="translate(0,12)"><foreignObject width="171.3125" height="24"><div xmlns="http://www.w3.org/1999/xhtml" style="display: table-cell; white-space: nowrap; line-height: 1.5; max-width: 229px; text-align: center;"><span class="nodeLabel markdown-node-label" style=""><p>+getCurrentUrl() : String</p></span></div></foreignObject></g><g class="label" style="" transform="translate(0,36)"><foreignObject width="251.671875" height="24"><div xmlns="http://www.w3.org/1999/xhtml" style="display: table-cell; white-space: nowrap; line-height: 1.5; max-width: 310px; text-align: center;"><span class="nodeLabel markdown-node-label" style=""><p>#waitForElement(By) : WebElement</p></span></div></foreignObject></g><g class="label" style="" transform="translate(0,60)"><foreignObject width="112.265625" height="24"><div xmlns="http://www.w3.org/1999/xhtml" style="display: table-cell; white-space: nowrap; line-height: 1.5; max-width: 171px; text-align: center;"><span class="nodeLabel markdown-node-label" style=""><p>#click(By) : void</p></span></div></foreignObject></g><g class="label" style="" transform="translate(0,84)"><foreignObject width="161.921875" height="24"><div xmlns="http://www.w3.org/1999/xhtml" style="display: table-cell; white-space: nowrap; line-height: 1.5; max-width: 220px; text-align: center;"><span class="nodeLabel markdown-node-label" style=""><p>#type(By, String) : void</p></span></div></foreignObject></g></g><g class="divider" style=""><path d="M-155.265625 -84 C-61.66797988447449 -84, 31.92966523105102 -84, 155.265625 -84 M-155.265625 -84 C-49.62313248288082 -84, 56.01936003423836 -84, 155.265625 -84" stroke="#9370DB" stroke-width="1.3" fill="none" stroke-dasharray="0 0" style=""></path></g><g class="divider" style=""><path d="M-155.265625 -12 C-76.65762759917997 -12, 1.9503698016400506 -12, 155.265625 -12 M-155.265625 -12 C-79.46059455768975 -12, -3.655564115379491 -12, 155.265625 -12" stroke="#9370DB" stroke-width="1.3" fill="none" stroke-dasharray="0 0" style=""></path></g></g><g class="node default" id="classId-LandingPage-1" transform="translate(165.92578125, 421)"><g class="basic label-container"><path d="M-157.92578125 -99 L157.92578125 -99 L157.92578125 99 L-157.92578125 99" stroke="none" stroke-width="0" fill="#ECECFF" style=""></path><path d="M-157.92578125 -99 C-76.41992667056 -99, 5.085927908879995 -99, 157.92578125 -99 M-157.92578125 -99 C-58.972369381643475 -99, 39.98104248671305 -99, 157.92578125 -99 M157.92578125 -99 C157.92578125 -40.00390680161949, 157.92578125 18.992186396761014, 157.92578125 99 M157.92578125 -99 C157.92578125 -50.50947352133781, 157.92578125 -2.01894704267562, 157.92578125 99 M157.92578125 99 C90.63904398257075 99, 23.35230671514151 99, -157.92578125 99 M157.92578125 99 C60.78117524847306 99, -36.363430753053876 99, -157.92578125 99 M-157.92578125 99 C-157.92578125 32.66045251341744, -157.92578125 -33.67909497316512, -157.92578125 -99 M-157.92578125 99 C-157.92578125 20.799437091943048, -157.92578125 -57.401125816113904, -157.92578125 -99" stroke="#9370DB" stroke-width="1.3" fill="none" stroke-dasharray="0 0" style=""></path></g><g class="annotation-group text" transform="translate(0, -75)"></g><g class="label-group text" transform="translate(-46.4453125, -75)"><g class="label" style="font-weight: bolder" transform="translate(0,-12)"><foreignObject width="92.890625" height="24"><div xmlns="http://www.w3.org/1999/xhtml" style="display: table-cell; white-space: nowrap; line-height: 1.5; max-width: 141px; text-align: center;"><span class="nodeLabel markdown-node-label" style=""><p>LandingPage</p></span></div></foreignObject></g></g><g class="members-group text" transform="translate(-145.92578125, -27)"></g><g class="methods-group text" transform="translate(-145.92578125, 3)"><g class="label" style="" transform="translate(0,-12)"><foreignObject width="159.03125" height="24"><div xmlns="http://www.w3.org/1999/xhtml" style="display: table-cell; white-space: nowrap; line-height: 1.5; max-width: 216px; text-align: center;"><span class="nodeLabel markdown-node-label" style=""><p>+open() : LandingPage</p></span></div></foreignObject></g><g class="label" style="" transform="translate(0,12)"><foreignObject width="240.359375" height="24"><div xmlns="http://www.w3.org/1999/xhtml" style="display: table-cell; white-space: nowrap; line-height: 1.5; max-width: 338px; text-align: center;"><span class="nodeLabel markdown-node-label" style=""><p>+getFeaturedPosts() : List&lt;String&gt;</p></span></div></foreignObject></g><g class="label" style="" transform="translate(0,36)"><foreignObject width="226.09375" height="24"><div xmlns="http://www.w3.org/1999/xhtml" style="display: table-cell; white-space: nowrap; line-height: 1.5; max-width: 323px; text-align: center;"><span class="nodeLabel markdown-node-label" style=""><p>+getRecentPosts() : List&lt;String&gt;</p></span></div></foreignObject></g><g class="label" style="" transform="translate(0,60)"><foreignObject width="245.40625" height="24"><div xmlns="http://www.w3.org/1999/xhtml" style="display: table-cell; white-space: nowrap; line-height: 1.5; max-width: 303px; text-align: center;"><span class="nodeLabel markdown-node-label" style=""><p>+clickPost(String) : PostDetailPage</p></span></div></foreignObject></g></g><g class="divider" style=""><path d="M-157.92578125 -51 C-47.822468091032576 -51, 62.28084506793485 -51, 157.92578125 -51 M-157.92578125 -51 C-33.12820286743994 -51, 91.66937551512012 -51, 157.92578125 -51" stroke="#9370DB" stroke-width="1.3" fill="none" stroke-dasharray="0 0" style=""></path></g><g class="divider" style=""><path d="M-157.92578125 -27 C-57.010970937076664 -27, 43.90383937584667 -27, 157.92578125 -27 M-157.92578125 -27 C-58.19724549200315 -27, 41.531290265993704 -27, 157.92578125 -27" stroke="#9370DB" stroke-width="1.3" fill="none" stroke-dasharray="0 0" style=""></path></g></g><g class="node default" id="classId-PostListPage-2" transform="translate(531.97265625, 421)"><g class="basic label-container"><path d="M-158.12109375 -99 L158.12109375 -99 L158.12109375 99 L-158.12109375 99" stroke="none" stroke-width="0" fill="#ECECFF" style=""></path><path d="M-158.12109375 -99 C-92.18141993022051 -99, -26.241746110441028 -99, 158.12109375 -99 M-158.12109375 -99 C-53.77011323728395 -99, 50.5808672754321 -99, 158.12109375 -99 M158.12109375 -99 C158.12109375 -31.717493136339158, 158.12109375 35.565013727321684, 158.12109375 99 M158.12109375 -99 C158.12109375 -57.21441185415482, 158.12109375 -15.428823708309636, 158.12109375 99 M158.12109375 99 C42.63531634562581 99, -72.85046105874838 99, -158.12109375 99 M158.12109375 99 C84.05178064048984 99, 9.982467530979676 99, -158.12109375 99 M-158.12109375 99 C-158.12109375 23.941915543515705, -158.12109375 -51.11616891296859, -158.12109375 -99 M-158.12109375 99 C-158.12109375 20.79171589021685, -158.12109375 -57.4165682195663, -158.12109375 -99" stroke="#9370DB" stroke-width="1.3" fill="none" stroke-dasharray="0 0" style=""></path></g><g class="annotation-group text" transform="translate(0, -75)"></g><g class="label-group text" transform="translate(-46.8359375, -75)"><g class="label" style="font-weight: bolder" transform="translate(0,-12)"><foreignObject width="93.671875" height="24"><div xmlns="http://www.w3.org/1999/xhtml" style="display: table-cell; white-space: nowrap; line-height: 1.5; max-width: 141px; text-align: center;"><span class="nodeLabel markdown-node-label" style=""><p>PostListPage</p></span></div></foreignObject></g></g><g class="members-group text" transform="translate(-146.12109375, -27)"></g><g class="methods-group text" transform="translate(-146.12109375, 3)"><g class="label" style="" transform="translate(0,-12)"><foreignObject width="158.5" height="24"><div xmlns="http://www.w3.org/1999/xhtml" style="display: table-cell; white-space: nowrap; line-height: 1.5; max-width: 216px; text-align: center;"><span class="nodeLabel markdown-node-label" style=""><p>+open() : PostListPage</p></span></div></foreignObject></g><g class="label" style="" transform="translate(0,12)"><foreignObject width="211.890625" height="24"><div xmlns="http://www.w3.org/1999/xhtml" style="display: table-cell; white-space: nowrap; line-height: 1.5; max-width: 269px; text-align: center;"><span class="nodeLabel markdown-node-label" style=""><p>+search(String) : PostListPage</p></span></div></foreignObject></g><g class="label" style="" transform="translate(0,36)"><foreignObject width="208.453125" height="24"><div xmlns="http://www.w3.org/1999/xhtml" style="display: table-cell; white-space: nowrap; line-height: 1.5; max-width: 306px; text-align: center;"><span class="nodeLabel markdown-node-label" style=""><p>+getPostTitles() : List&lt;String&gt;</p></span></div></foreignObject></g><g class="label" style="" transform="translate(0,60)"><foreignObject width="245.40625" height="24"><div xmlns="http://www.w3.org/1999/xhtml" style="display: table-cell; white-space: nowrap; line-height: 1.5; max-width: 303px; text-align: center;"><span class="nodeLabel markdown-node-label" style=""><p>+clickPost(String) : PostDetailPage</p></span></div></foreignObject></g></g><g class="divider" style=""><path d="M-158.12109375 -51 C-92.64111431400993 -51, -27.16113487801985 -51, 158.12109375 -51 M-158.12109375 -51 C-92.71012456396298 -51, -27.299155377925956 -51, 158.12109375 -51" stroke="#9370DB" stroke-width="1.3" fill="none" stroke-dasharray="0 0" style=""></path></g><g class="divider" style=""><path d="M-158.12109375 -27 C-91.01915326813176 -27, -23.91721278626352 -27, 158.12109375 -27 M-158.12109375 -27 C-72.14336388083984 -27, 13.834365988320315 -27, 158.12109375 -27" stroke="#9370DB" stroke-width="1.3" fill="none" stroke-dasharray="0 0" style=""></path></g></g><g class="node default" id="classId-PostDetailPage-3" transform="translate(903.1953125, 421)"><g class="basic label-container"><path d="M-163.1015625 -87 L163.1015625 -87 L163.1015625 87 L-163.1015625 87" stroke="none" stroke-width="0" fill="#ECECFF" style=""></path><path d="M-163.1015625 -87 C-63.03349801928562 -87, 37.03456646142877 -87, 163.1015625 -87 M-163.1015625 -87 C-43.57523793558029 -87, 75.95108662883942 -87, 163.1015625 -87 M163.1015625 -87 C163.1015625 -49.42287901709176, 163.1015625 -11.845758034183518, 163.1015625 87 M163.1015625 -87 C163.1015625 -44.61639409292869, 163.1015625 -2.2327881858573733, 163.1015625 87 M163.1015625 87 C97.54802175054942 87, 31.994481001098848 87, -163.1015625 87 M163.1015625 87 C57.00342374637182 87, -49.094715007256355 87, -163.1015625 87 M-163.1015625 87 C-163.1015625 22.73215259927842, -163.1015625 -41.53569480144316, -163.1015625 -87 M-163.1015625 87 C-163.1015625 18.506133331712434, -163.1015625 -49.98773333657513, -163.1015625 -87" stroke="#9370DB" stroke-width="1.3" fill="none" stroke-dasharray="0 0" style=""></path></g><g class="annotation-group text" transform="translate(0, -63)"></g><g class="label-group text" transform="translate(-55.15625, -63)"><g class="label" style="font-weight: bolder" transform="translate(0,-12)"><foreignObject width="110.3125" height="24"><div xmlns="http://www.w3.org/1999/xhtml" style="display: table-cell; white-space: nowrap; line-height: 1.5; max-width: 158px; text-align: center;"><span class="nodeLabel markdown-node-label" style=""><p>PostDetailPage</p></span></div></foreignObject></g></g><g class="members-group text" transform="translate(-151.1015625, -15)"></g><g class="methods-group text" transform="translate(-151.1015625, 15)"><g class="label" style="" transform="translate(0,-12)"><foreignObject width="127.84375" height="24"><div xmlns="http://www.w3.org/1999/xhtml" style="display: table-cell; white-space: nowrap; line-height: 1.5; max-width: 186px; text-align: center;"><span class="nodeLabel markdown-node-label" style=""><p>+getTitle() : String</p></span></div></foreignObject></g><g class="label" style="" transform="translate(0,12)"><foreignObject width="152.890625" height="24"><div xmlns="http://www.w3.org/1999/xhtml" style="display: table-cell; white-space: nowrap; line-height: 1.5; max-width: 211px; text-align: center;"><span class="nodeLabel markdown-node-label" style=""><p>+getContent() : String</p></span></div></foreignObject></g><g class="label" style="" transform="translate(0,36)"><foreignObject width="247.046875" height="24"><div xmlns="http://www.w3.org/1999/xhtml" style="display: table-cell; white-space: nowrap; line-height: 1.5; max-width: 304px; text-align: center;"><span class="nodeLabel markdown-node-label" style=""><p>+isMarkdownRendered() : boolean</p></span></div></foreignObject></g></g><g class="divider" style=""><path d="M-163.1015625 -39 C-73.61318410036962 -39, 15.875194299260755 -39, 163.1015625 -39 M-163.1015625 -39 C-65.47907314618557 -39, 32.14341620762886 -39, 163.1015625 -39" stroke="#9370DB" stroke-width="1.3" fill="none" stroke-dasharray="0 0" style=""></path></g><g class="divider" style=""><path d="M-163.1015625 -15 C-69.70725407692137 -15, 23.687054346157254 -15, 163.1015625 -15 M-163.1015625 -15 C-80.84184764097469 -15, 1.4178672180506169 -15, 163.1015625 -15" stroke="#9370DB" stroke-width="1.3" fill="none" stroke-dasharray="0 0" style=""></path></g></g><g class="node default" id="classId-PostFormPage-4" transform="translate(1279.359375, 421)"><g class="basic label-container"><path d="M-163.0625 -99 L163.0625 -99 L163.0625 99 L-163.0625 99" stroke="none" stroke-width="0" fill="#ECECFF" style=""></path><path d="M-163.0625 -99 C-60.5943174978174 -99, 41.8738650043652 -99, 163.0625 -99 M-163.0625 -99 C-66.11704062877286 -99, 30.82841874245429 -99, 163.0625 -99 M163.0625 -99 C163.0625 -37.59660669836546, 163.0625 23.806786603269074, 163.0625 99 M163.0625 -99 C163.0625 -47.496641049454375, 163.0625 4.00671790109125, 163.0625 99 M163.0625 99 C61.87729297949572 99, -39.30791404100856 99, -163.0625 99 M163.0625 99 C50.51671872002599 99, -62.02906255994802 99, -163.0625 99 M-163.0625 99 C-163.0625 47.023115723078966, -163.0625 -4.9537685538420675, -163.0625 -99 M-163.0625 99 C-163.0625 43.971497113497996, -163.0625 -11.057005773004008, -163.0625 -99" stroke="#9370DB" stroke-width="1.3" fill="none" stroke-dasharray="0 0" style=""></path></g><g class="annotation-group text" transform="translate(0, -75)"></g><g class="label-group text" transform="translate(-51.78125, -75)"><g class="label" style="font-weight: bolder" transform="translate(0,-12)"><foreignObject width="103.5625" height="24"><div xmlns="http://www.w3.org/1999/xhtml" style="display: table-cell; white-space: nowrap; line-height: 1.5; max-width: 152px; text-align: center;"><span class="nodeLabel markdown-node-label" style=""><p>PostFormPage</p></span></div></foreignObject></g></g><g class="members-group text" transform="translate(-151.0625, -27)"></g><g class="methods-group text" transform="translate(-151.0625, 3)"><g class="label" style="" transform="translate(0,-12)"><foreignObject width="169.296875" height="24"><div xmlns="http://www.w3.org/1999/xhtml" style="display: table-cell; white-space: nowrap; line-height: 1.5; max-width: 227px; text-align: center;"><span class="nodeLabel markdown-node-label" style=""><p>+open() : PostFormPage</p></span></div></foreignObject></g><g class="label" style="" transform="translate(0,12)"><foreignObject width="225.296875" height="24"><div xmlns="http://www.w3.org/1999/xhtml" style="display: table-cell; white-space: nowrap; line-height: 1.5; max-width: 283px; text-align: center;"><span class="nodeLabel markdown-node-label" style=""><p>+fillTitle(String) : PostFormPage</p></span></div></foreignObject></g><g class="label" style="" transform="translate(0,36)"><foreignObject width="250.34375" height="24"><div xmlns="http://www.w3.org/1999/xhtml" style="display: table-cell; white-space: nowrap; line-height: 1.5; max-width: 308px; text-align: center;"><span class="nodeLabel markdown-node-label" style=""><p>+fillContent(String) : PostFormPage</p></span></div></foreignObject></g><g class="label" style="" transform="translate(0,60)"><foreignObject width="188.71875" height="24"><div xmlns="http://www.w3.org/1999/xhtml" style="display: table-cell; white-space: nowrap; line-height: 1.5; max-width: 246px; text-align: center;"><span class="nodeLabel markdown-node-label" style=""><p>+submit() : PostDetailPage</p></span></div></foreignObject></g></g><g class="divider" style=""><path d="M-163.0625 -51 C-48.51862033024635 -51, 66.0252593395073 -51, 163.0625 -51 M-163.0625 -51 C-70.18769385639 -51, 22.687112287220003 -51, 163.0625 -51" stroke="#9370DB" stroke-width="1.3" fill="none" stroke-dasharray="0 0" style=""></path></g><g class="divider" style=""><path d="M-163.0625 -27 C-69.21255805875457 -27, 24.637383882490866 -27, 163.0625 -27 M-163.0625 -27 C-64.58995464582667 -27, 33.88259070834667 -27, 163.0625 -27" stroke="#9370DB" stroke-width="1.3" fill="none" stroke-dasharray="0 0" style=""></path></g></g><g class="node default" id="classId-LoginPage-5" transform="translate(1639.12109375, 421)"><g class="basic label-container"><path d="M-146.69921875 -99 L146.69921875 -99 L146.69921875 99 L-146.69921875 99" stroke="none" stroke-width="0" fill="#ECECFF" style=""></path><path d="M-146.69921875 -99 C-67.99486219308403 -99, 10.709494363831936 -99, 146.69921875 -99 M-146.69921875 -99 C-61.45020544872024 -99, 23.79880785255952 -99, 146.69921875 -99 M146.69921875 -99 C146.69921875 -37.54984635782447, 146.69921875 23.900307284351058, 146.69921875 99 M146.69921875 -99 C146.69921875 -31.03422264131079, 146.69921875 36.93155471737842, 146.69921875 99 M146.69921875 99 C58.57798525399126 99, -29.543248242017484 99, -146.69921875 99 M146.69921875 99 C82.58623491433768 99, 18.47325107867536 99, -146.69921875 99 M-146.69921875 99 C-146.69921875 43.6911502622887, -146.69921875 -11.617699475422597, -146.69921875 -99 M-146.69921875 99 C-146.69921875 40.175317698893046, -146.69921875 -18.649364602213907, -146.69921875 -99" stroke="#9370DB" stroke-width="1.3" fill="none" stroke-dasharray="0 0" style=""></path></g><g class="annotation-group text" transform="translate(0, -75)"></g><g class="label-group text" transform="translate(-37.1953125, -75)"><g class="label" style="font-weight: bolder" transform="translate(0,-12)"><foreignObject width="74.390625" height="24"><div xmlns="http://www.w3.org/1999/xhtml" style="display: table-cell; white-space: nowrap; line-height: 1.5; max-width: 123px; text-align: center;"><span class="nodeLabel markdown-node-label" style=""><p>LoginPage</p></span></div></foreignObject></g></g><g class="members-group text" transform="translate(-134.69921875, -27)"></g><g class="methods-group text" transform="translate(-134.69921875, 3)"><g class="label" style="" transform="translate(0,-12)"><foreignObject width="140.484375" height="24"><div xmlns="http://www.w3.org/1999/xhtml" style="display: table-cell; white-space: nowrap; line-height: 1.5; max-width: 198px; text-align: center;"><span class="nodeLabel markdown-node-label" style=""><p>+open() : LoginPage</p></span></div></foreignObject></g><g class="label" style="" transform="translate(0,12)"><foreignObject width="191.90625" height="24"><div xmlns="http://www.w3.org/1999/xhtml" style="display: table-cell; white-space: nowrap; line-height: 1.5; max-width: 249px; text-align: center;"><span class="nodeLabel markdown-node-label" style=""><p>+login(String, String) : void</p></span></div></foreignObject></g><g class="label" style="" transform="translate(0,36)"><foreignObject width="193.03125" height="24"><div xmlns="http://www.w3.org/1999/xhtml" style="display: table-cell; white-space: nowrap; line-height: 1.5; max-width: 251px; text-align: center;"><span class="nodeLabel markdown-node-label" style=""><p>+getErrorMessage() : String</p></span></div></foreignObject></g><g class="label" style="" transform="translate(0,60)"><foreignObject width="232.203125" height="24"><div xmlns="http://www.w3.org/1999/xhtml" style="display: table-cell; white-space: nowrap; line-height: 1.5; max-width: 290px; text-align: center;"><span class="nodeLabel markdown-node-label" style=""><p>+isOidcButtonVisible() : boolean</p></span></div></foreignObject></g></g><g class="divider" style=""><path d="M-146.69921875 -51 C-29.65330232863019 -51, 87.39261409273962 -51, 146.69921875 -51 M-146.69921875 -51 C-76.574463218499 -51, -6.449707686998011 -51, 146.69921875 -51" stroke="#9370DB" stroke-width="1.3" fill="none" stroke-dasharray="0 0" style=""></path></g><g class="divider" style=""><path d="M-146.69921875 -27 C-49.32215253089403 -27, 48.05491368821194 -27, 146.69921875 -27 M-146.69921875 -27 C-49.04676176828879 -27, 48.60569521342242 -27, 146.69921875 -27" stroke="#9370DB" stroke-width="1.3" fill="none" stroke-dasharray="0 0" style=""></path></g></g><g class="node default" id="classId-RegisterPage-6" transform="translate(2033.1484375, 421)"><g class="basic label-container"><path d="M-197.328125 -99 L197.328125 -99 L197.328125 99 L-197.328125 99" stroke="none" stroke-width="0" fill="#ECECFF" style=""></path><path d="M-197.328125 -99 C-41.85226387432445 -99, 113.6235972513511 -99, 197.328125 -99 M-197.328125 -99 C-114.69298418323538 -99, -32.05784336647076 -99, 197.328125 -99 M197.328125 -99 C197.328125 -23.39206887174538, 197.328125 52.21586225650924, 197.328125 99 M197.328125 -99 C197.328125 -24.043220941327647, 197.328125 50.91355811734471, 197.328125 99 M197.328125 99 C94.89309201108463 99, -7.541940977830734 99, -197.328125 99 M197.328125 99 C79.84633605440798 99, -37.63545289118403 99, -197.328125 99 M-197.328125 99 C-197.328125 56.92095470215525, -197.328125 14.841909404310499, -197.328125 -99 M-197.328125 99 C-197.328125 37.48536577816402, -197.328125 -24.029268443671967, -197.328125 -99" stroke="#9370DB" stroke-width="1.3" fill="none" stroke-dasharray="0 0" style=""></path></g><g class="annotation-group text" transform="translate(0, -75)"></g><g class="label-group text" transform="translate(-47.671875, -75)"><g class="label" style="font-weight: bolder" transform="translate(0,-12)"><foreignObject width="95.34375" height="24"><div xmlns="http://www.w3.org/1999/xhtml" style="display: table-cell; white-space: nowrap; line-height: 1.5; max-width: 143px; text-align: center;"><span class="nodeLabel markdown-node-label" style=""><p>RegisterPage</p></span></div></foreignObject></g></g><g class="members-group text" transform="translate(-185.328125, -27)"></g><g class="methods-group text" transform="translate(-185.328125, 3)"><g class="label" style="" transform="translate(0,-12)"><foreignObject width="160.265625" height="24"><div xmlns="http://www.w3.org/1999/xhtml" style="display: table-cell; white-space: nowrap; line-height: 1.5; max-width: 218px; text-align: center;"><span class="nodeLabel markdown-node-label" style=""><p>+open() : RegisterPage</p></span></div></foreignObject></g><g class="label" style="" transform="translate(0,12)"><foreignObject width="322.984375" height="24"><div xmlns="http://www.w3.org/1999/xhtml" style="display: table-cell; white-space: nowrap; line-height: 1.5; max-width: 380px; text-align: center;"><span class="nodeLabel markdown-node-label" style=""><p>+fillForm(String, String, String) : RegisterPage</p></span></div></foreignObject></g><g class="label" style="" transform="translate(0,36)"><foreignObject width="112.203125" height="24"><div xmlns="http://www.w3.org/1999/xhtml" style="display: table-cell; white-space: nowrap; line-height: 1.5; max-width: 170px; text-align: center;"><span class="nodeLabel markdown-node-label" style=""><p>+submit() : void</p></span></div></foreignObject></g><g class="label" style="" transform="translate(0,60)"><foreignObject width="254.15625" height="24"><div xmlns="http://www.w3.org/1999/xhtml" style="display: table-cell; white-space: nowrap; line-height: 1.5; max-width: 351px; text-align: center;"><span class="nodeLabel markdown-node-label" style=""><p>+getValidationErrors() : List&lt;String&gt;</p></span></div></foreignObject></g></g><g class="divider" style=""><path d="M-197.328125 -51 C-113.65623874517253 -51, -29.98435249034506 -51, 197.328125 -51 M-197.328125 -51 C-94.41995059360623 -51, 8.488223812787538 -51, 197.328125 -51" stroke="#9370DB" stroke-width="1.3" fill="none" stroke-dasharray="0 0" style=""></path></g><g class="divider" style=""><path d="M-197.328125 -27 C-52.41508938513334 -27, 92.49794622973332 -27, 197.328125 -27 M-197.328125 -27 C-49.817368996598816 -27, 97.69338700680237 -27, 197.328125 -27" stroke="#9370DB" stroke-width="1.3" fill="none" stroke-dasharray="0 0" style=""></path></g></g></g></g></g></svg>