<svg id="container" width="1392.193359375" xmlns="http://www.w3.org/2000/svg" class="classDiagram" height="648" viewBox="0 0 1392.193359375 648" role="graphics-document document" aria-roledescription="class"><style>#container{font-family:"trebuchet ms",verdana,arial,sans-serif;font-size:16px;fill:#333;}@keyframes edge-animation-frame{from{stroke-dashoffset:0;}}@keyframes dash{to{stroke-dashoffset:0;}}#container .edge-animation-slow{stroke-dasharray:9,5!important;stroke-dashoffset:900;animation:dash 50s linear infinite;stroke-linecap:round;}#container .edge-animation-fast{stroke-dasharray:9,5!important;stroke-dashoffset:900;animation:dash 20s linear infinite;stroke-linecap:round;}#container .error-icon{fill:#552222;}#container .error-text{fill:#552222;stroke:#552222;}#container .edge-thickness-normal{stroke-width:1px;}#container .edge-thickness-thick{stroke-width:3.5px;}#container .edge-pattern-solid{stroke-dasharray:0;}#container .edge-thickness-invisible{stroke-width:0;fill:none;}#container .edge-pattern-dashed{stroke-dasharray:3;}#container .edge-pattern-dotted{stroke-dasharray:2;}#container .marker{fill:#333333;stroke:#333333;}#container .marker.cross{stroke:#333333;}#container svg{font-family:"trebuchet ms",verdana,arial,sans-serif;font-size:16px;}#container p{margin:0;}#container g.classGroup text{fill:#9370DB;stroke:none;font-family:"trebuchet ms",verdana,arial,sans-serif;font-size:10px;}#container g.classGroup text .title{font-weight:bolder;}#container .nodeLabel,#container .edgeLabel{color:#131300;}#container .edgeLabel .label rect{fill:#ECECFF;}#container .label text{fill:#131300;}#container .labelBkg{background:#ECECFF;}#container .edgeLabel .label span{background:#ECECFF;}#container .classTitle{font-weight:bolder;}#container .node rect,#container .node circle,#container .node ellipse,#container .node polygon,#container .node path{fill:#ECECFF;stroke:#9370DB;stroke-width:1px;}#container .divider{stroke:#9370DB;stroke-width:1;}#container g.clickable{cursor:pointer;}#container g.classGroup rect{fill:#ECECFF;stroke:#9370DB;}#container g.classGroup line{stroke:#9370DB;stroke-width:1;}#container .classLabel .box{stroke:none;stroke-width:0;fill:#ECECFF;opacity:0.5;}#container .classLabel .label{fill:#9370DB;font-size:10px;}#container .relation{stroke:#333333;stroke-width:1;fill:none;}#container .dashed-line{stroke-dasharray:3;}#container .dotted-line{stroke-dasharray:1 2;}#container #compositionStart,#container .composition{fill:#333333!important;stroke:#333333!important;stroke-width:1;}#container #compositionEnd,#container .composition{fill:#333333!important;stroke:#333333!important;stroke-width:1;}#container #dependencyStart,#container .dependency{fill:#333333!important;stroke:#333333!important;stroke-width:1;}#container #dependencyStart,#container .dependency{fill:#333333!important;stroke:#333333!important;stroke-width:1;}#container #extensionStart,#container .extension{fill:transparent!important;stroke:#333333!important;stroke-width:1;}#container #extensionEnd,#container .extension{fill:transparent!important;stroke:#333333!important;stroke-width:1;}#container #aggregationStart,#container .aggregation{fill:transparent!important;stroke:#333333!important;stroke-width:1;}#container #aggregationEnd,#container .aggregation{fill:transparent!important;stroke:#333333!important;stroke-width:1;}#container #lollipopStart,#container .lollipop{fill:#ECECFF!important;stroke:#333333!important;stroke-width:1;}#container #lollipopEnd,#container .lollipop{fill:#ECECFF!important;stroke:#333333!important;stroke-width:1;}#container .edgeTerminals{font-size:11px;line-height:initial;}#container .classTitleText{text-anchor:middle;font-size:18px;fill:#333;}#container .label-icon{display:inline-block;height:1em;overflow:visible;vertical-align:-0.125em;}#container .node .label-icon path{fill:currentColor;stroke:revert;stroke-width:revert;}#container :root{--mermaid-font-family:"trebuchet ms",verdana,arial,sans-serif;}</style><g><defs><marker id="container_class-aggregationStart" class="marker aggregation class" refX="18" refY="7" markerWidth="190" markerHeight="240" orient="auto"><path d="M 18,7 L9,13 L1,7 L9,1 Z"></path></marker></defs><defs><marker id="container_class-aggregationEnd" class="marker aggregation class" refX="1" refY="7" markerWidth="20" markerHeight="28" orient="auto"><path d="M 18,7 L9,13 L1,7 L9,1 Z"></path></marker></defs><defs><marker id="container_class-extensionStart" class="marker extension class" refX="18" refY="7" markerWidth="190" markerHeight="240" orient="auto"><path d="M 1,7 L18,13 V 1 Z"></path></marker></defs><defs><marker id="container_class-extensionEnd" class="marker extension class" refX="1" refY="7" markerWidth="20" markerHeight="28" orient="auto"><path d="M 1,1 V 13 L18,7 Z"></path></marker></defs><defs><marker id="container_class-compositionStart" class="marker composition class" refX="18" refY="7" markerWidth="190" markerHeight="240" orient="auto"><path d="M 18,7 L9,13 L1,7 L9,1 Z"></path></marker></defs><defs><marker id="container_class-compositionEnd" class="marker composition class" refX="1" refY="7" markerWidth="20" markerHeight="28" orient="auto"><path d="M 18,7 L9,13 L1,7 L9,1 Z"></path></marker></defs><defs><marker id="container_class-dependencyStart" class="marker dependency class" refX="6" refY="7" markerWidth="190" markerHeight="240" orient="auto"><path d="M 5,7 L9,13 L1,7 L9,1 Z"></path></marker></defs><defs><marker id="container_class-dependencyEnd" class="marker dependency class" refX="13" refY="7" markerWidth="20" markerHeight="28" orient="auto"><path d="M 18,7 L9,13 L14,7 L9,1 Z"></path></marker></defs><defs><marker id="container_class-lollipopStart" class="marker lollipop class" refX="13" refY="7" markerWidth="190" markerHeight="240" orient="auto"><circle stroke="black" fill="transparent" cx="7" cy="7" r="6"></circle></marker></defs><defs><marker id="container_class-lollipopEnd" class="marker lollipop class" refX="1" refY="7" markerWidth="190" markerHeight="240" orient="auto"><circle stroke="black" fill="transparent" cx="7" cy="7" r="6"></circle></marker></defs><g class="root"><g class="clusters"></g><g class="edgePaths"><path d="M669.369,200L652.08,208.167C634.791,216.333,600.213,232.667,582.924,242.125C565.635,251.583,565.635,254.167,565.635,255.458L565.635,256.75" id="id_UserProfileService_UserProfileUseCase_1" class="edge-thickness-normal edge-pattern-dashed relation" style=";;;" data-edge="true" data-et="edge" data-id="id_UserProfileService_UserProfileUseCase_1" data-points="W3sieCI6NjY5LjM2OTAzNzgyODk0NzQsInkiOjIwMH0seyJ4Ijo1NjUuNjM0NzY1NjI1LCJ5IjoyNDl9LHsieCI6NTY1LjYzNDc2NTYyNSwieSI6Mjc0fV0=" marker-end="url(#container_class-extensionEnd)"></path><path d="M1025.029,200L1042.318,208.167C1059.607,216.333,1094.186,232.667,1111.475,258C1128.764,283.333,1128.764,317.667,1128.764,334.833L1128.764,352" id="id_UserProfileService_UserProfileRepository_2" class="edge-thickness-normal edge-pattern-solid relation" style=";;;" data-edge="true" data-et="edge" data-id="id_UserProfileService_UserProfileRepository_2" data-points="W3sieCI6MTAyNS4wMjkzOTk2NzEwNTI3LCJ5IjoyMDB9LHsieCI6MTEyOC43NjM2NzE4NzUsInkiOjI0OX0seyJ4IjoxMTI4Ljc2MzY3MTg3NSwieSI6MzU4fV0=" marker-end="url(#container_class-dependencyEnd)"></path></g><g class="edgeLabels"><g class="edgeLabel"><g class="label" data-id="id_UserProfileService_UserProfileUseCase_1" transform="translate(0, 0)"><foreignObject width="0" height="0"><div xmlns="http://www.w3.org/1999/xhtml" class="labelBkg" style="display: table-cell; white-space: nowrap; line-height: 1.5; max-width: 200px; text-align: center;"><span class="edgeLabel"></span></div></foreignObject></g></g><g class="edgeLabel"><g class="label" data-id="id_UserProfileService_UserProfileRepository_2" transform="translate(0, 0)"><foreignObject width="0" height="0"><div xmlns="http://www.w3.org/1999/xhtml" class="labelBkg" style="display: table-cell; white-space: nowrap; line-height: 1.5; max-width: 200px; text-align: center;"><span class="edgeLabel"></span></div></foreignObject></g></g></g><g class="nodes"><g class="node default" id="classId-UserProfileUseCase-0" transform="translate(565.634765625, 457)"><g class="basic label-container"><path d="M-257.69921875 -183 L257.69921875 -183 L257.69921875 183 L-257.69921875 183" stroke="none" stroke-width="0" fill="#ECECFF" style=""></path><path d="M-257.69921875 -183 C-77.00130581158763 -183, 103.69660712682474 -183, 257.69921875 -183 M-257.69921875 -183 C-134.06806774699947 -183, -10.436916743998978 -183, 257.69921875 -183 M257.69921875 -183 C257.69921875 -102.80732592812282, 257.69921875 -22.614651856245644, 257.69921875 183 M257.69921875 -183 C257.69921875 -99.52155900292566, 257.69921875 -16.043118005851312, 257.69921875 183 M257.69921875 183 C68.2519755072642 183, -121.19526773547159 183, -257.69921875 183 M257.69921875 183 C136.33878393840766 183, 14.978349126815317 183, -257.69921875 183 M-257.69921875 183 C-257.69921875 53.00771400508438, -257.69921875 -76.98457198983124, -257.69921875 -183 M-257.69921875 183 C-257.69921875 77.81217633772087, -257.69921875 -27.37564732455826, -257.69921875 -183" stroke="#9370DB" stroke-width="1.3" fill="none" stroke-dasharray="0 0" style=""></path></g><g class="annotation-group text" transform="translate(-41.015625, -159)"><g class="label" style="" transform="translate(0,-12)"><foreignObject width="82.03125" height="24"><div xmlns="http://www.w3.org/1999/xhtml" style="display: table-cell; white-space: nowrap; line-height: 1.5; max-width: 132px; text-align: center;"><span class="nodeLabel markdown-node-label" style=""><p>«interface»</p></span></div></foreignObject></g></g><g class="label-group text" transform="translate(-71.0390625, -135)"><g class="label" style="font-weight: bolder" transform="translate(0,-12)"><foreignObject width="142.078125" height="24"><div xmlns="http://www.w3.org/1999/xhtml" style="display: table-cell; white-space: nowrap; line-height: 1.5; max-width: 190px; text-align: center;"><span class="nodeLabel markdown-node-label" style=""><p>UserProfileUseCase</p></span></div></foreignObject></g></g><g class="members-group text" transform="translate(-245.69921875, -87)"></g><g class="methods-group text" transform="translate(-245.69921875, -57)"><g class="label" style="" transform="translate(0,-12)"><foreignObject width="282.796875" height="24"><div xmlns="http://www.w3.org/1999/xhtml" style="display: table-cell; white-space: nowrap; line-height: 1.5; max-width: 340px; text-align: center;"><span class="nodeLabel markdown-node-label" style=""><p>+syncFromOidc(command) : UserProfile</p></span></div></foreignObject></g><g class="label" style="" transform="translate(0,12)"><foreignObject width="307.125" height="24"><div xmlns="http://www.w3.org/1999/xhtml" style="display: table-cell; white-space: nowrap; line-height: 1.5; max-width: 364px; text-align: center;"><span class="nodeLabel markdown-node-label" style=""><p>+syncFromInternal(command) : UserProfile</p></span></div></foreignObject></g><g class="label" style="" transform="translate(0,36)"><foreignObject width="327.796875" height="24"><div xmlns="http://www.w3.org/1999/xhtml" style="display: table-cell; white-space: nowrap; line-height: 1.5; max-width: 385px; text-align: center;"><span class="nodeLabel markdown-node-label" style=""><p>+findByOidcSubject(oidcSubject) : UserProfile</p></span></div></foreignObject></g><g class="label" style="" transform="translate(0,60)"><foreignObject width="301.1875" height="24"><div xmlns="http://www.w3.org/1999/xhtml" style="display: table-cell; white-space: nowrap; line-height: 1.5; max-width: 359px; text-align: center;"><span class="nodeLabel markdown-node-label" style=""><p>+findByUsername(username) : UserProfile</p></span></div></foreignObject></g><g class="label" style="" transform="translate(0,84)"><foreignObject width="239" height="24"><div xmlns="http://www.w3.org/1999/xhtml" style="display: table-cell; white-space: nowrap; line-height: 1.5; max-width: 296px; text-align: center;"><span class="nodeLabel markdown-node-label" style=""><p>+approveUser(oidcSubject) : void</p></span></div></foreignObject></g><g class="label" style="" transform="translate(0,108)"><foreignObject width="221.0625" height="24"><div xmlns="http://www.w3.org/1999/xhtml" style="display: table-cell; white-space: nowrap; line-height: 1.5; max-width: 278px; text-align: center;"><span class="nodeLabel markdown-node-label" style=""><p>+rejectUser(oidcSubject) : void</p></span></div></foreignObject></g><g class="label" style="" transform="translate(0,132)"><foreignObject width="307.6875" height="24"><div xmlns="http://www.w3.org/1999/xhtml" style="display: table-cell; white-space: nowrap; line-height: 1.5; max-width: 365px; text-align: center;"><span class="nodeLabel markdown-node-label" style=""><p>+assignGlobalRole(oidcSubject, role) : void</p></span></div></foreignObject></g><g class="label" style="" transform="translate(0,156)"><foreignObject width="316.328125" height="24"><div xmlns="http://www.w3.org/1999/xhtml" style="display: table-cell; white-space: nowrap; line-height: 1.5; max-width: 374px; text-align: center;"><span class="nodeLabel markdown-node-label" style=""><p>+removeGlobalRole(oidcSubject, role) : void</p></span></div></foreignObject></g><g class="label" style="" transform="translate(0,180)"><foreignObject width="420.359375" height="24"><div xmlns="http://www.w3.org/1999/xhtml" style="display: table-cell; white-space: nowrap; line-height: 1.5; max-width: 478px; text-align: center;"><span class="nodeLabel markdown-node-label" style=""><p>+addTenantMembership(oidcSubject, tenantId, role) : void</p></span></div></foreignObject></g><g class="label" style="" transform="translate(0,204)"><foreignObject width="410.25" height="24"><div xmlns="http://www.w3.org/1999/xhtml" style="display: table-cell; white-space: nowrap; line-height: 1.5; max-width: 468px; text-align: center;"><span class="nodeLabel markdown-node-label" style=""><p>+removeTenantMembership(oidcSubject, tenantId) : void</p></span></div></foreignObject></g></g><g class="divider" style=""><path d="M-257.69921875 -111 C-122.7508684244489 -111, 12.197481901102208 -111, 257.69921875 -111 M-257.69921875 -111 C-102.21836839257122 -111, 53.26248196485756 -111, 257.69921875 -111" stroke="#9370DB" stroke-width="1.3" fill="none" stroke-dasharray="0 0" style=""></path></g><g class="divider" style=""><path d="M-257.69921875 -87 C-124.1486640901986 -87, 9.401890569602813 -87, 257.69921875 -87 M-257.69921875 -87 C-106.89004799768352 -87, 43.91912275463295 -87, 257.69921875 -87" stroke="#9370DB" stroke-width="1.3" fill="none" stroke-dasharray="0 0" style=""></path></g></g><g class="node default" id="classId-SyncUserCommand-1" transform="translate(140.76953125, 116)"><g class="basic label-container"><path d="M-132.76953125 -108 L132.76953125 -108 L132.76953125 108 L-132.76953125 108" stroke="none" stroke-width="0" fill="#ECECFF" style=""></path><path d="M-132.76953125 -108 C-38.906691427380224 -108, 54.95614839523955 -108, 132.76953125 -108 M-132.76953125 -108 C-28.687608860001617 -108, 75.39431352999677 -108, 132.76953125 -108 M132.76953125 -108 C132.76953125 -41.647150233470214, 132.76953125 24.705699533059573, 132.76953125 108 M132.76953125 -108 C132.76953125 -21.957768968611518, 132.76953125 64.08446206277696, 132.76953125 108 M132.76953125 108 C28.714516700635272 108, -75.34049784872946 108, -132.76953125 108 M132.76953125 108 C53.76660442572239 108, -25.236322398555217 108, -132.76953125 108 M-132.76953125 108 C-132.76953125 22.35608736670723, -132.76953125 -63.28782526658554, -132.76953125 -108 M-132.76953125 108 C-132.76953125 46.80184025349972, -132.76953125 -14.396319493000561, -132.76953125 -108" stroke="#9370DB" stroke-width="1.3" fill="none" stroke-dasharray="0 0" style=""></path></g><g class="annotation-group text" transform="translate(-32.3046875, -84)"><g class="label" style="" transform="translate(0,-12)"><foreignObject width="64.609375" height="24"><div xmlns="http://www.w3.org/1999/xhtml" style="display: table-cell; white-space: nowrap; line-height: 1.5; max-width: 115px; text-align: center;"><span class="nodeLabel markdown-node-label" style=""><p>«record»</p></span></div></foreignObject></g></g><g class="label-group text" transform="translate(-70.1796875, -60)"><g class="label" style="font-weight: bolder" transform="translate(0,-12)"><foreignObject width="140.359375" height="24"><div xmlns="http://www.w3.org/1999/xhtml" style="display: table-cell; white-space: nowrap; line-height: 1.5; max-width: 189px; text-align: center;"><span class="nodeLabel markdown-node-label" style=""><p>SyncUserCommand</p></span></div></foreignObject></g></g><g class="members-group text" transform="translate(-120.76953125, -12)"><g class="label" style="" transform="translate(0,-12)"><foreignObject width="132.359375" height="24"><div xmlns="http://www.w3.org/1999/xhtml" style="display: table-cell; white-space: nowrap; line-height: 1.5; max-width: 183px; text-align: center;"><span class="nodeLabel markdown-node-label" style=""><p>String oidcSubject</p></span></div></foreignObject></g><g class="label" style="" transform="translate(0,12)"><foreignObject width="87.46875" height="24"><div xmlns="http://www.w3.org/1999/xhtml" style="display: table-cell; white-space: nowrap; line-height: 1.5; max-width: 138px; text-align: center;"><span class="nodeLabel markdown-node-label" style=""><p>String email</p></span></div></foreignObject></g><g class="label" style="" transform="translate(0,36)"><foreignObject width="141.1875" height="24"><div xmlns="http://www.w3.org/1999/xhtml" style="display: table-cell; white-space: nowrap; line-height: 1.5; max-width: 191px; text-align: center;"><span class="nodeLabel markdown-node-label" style=""><p>String displayName</p></span></div></foreignObject></g><g class="label" style="" transform="translate(0,60)"><foreignObject width="171.359375" height="24"><div xmlns="http://www.w3.org/1999/xhtml" style="display: table-cell; white-space: nowrap; line-height: 1.5; max-width: 261px; text-align: center;"><span class="nodeLabel markdown-node-label" style=""><p>List&lt;String&gt; oidcGroups</p></span></div></foreignObject></g></g><g class="methods-group text" transform="translate(-120.76953125, 108)"></g><g class="divider" style=""><path d="M-132.76953125 -36 C-69.79562213225924 -36, -6.8217130145184655 -36, 132.76953125 -36 M-132.76953125 -36 C-35.371071340462365 -36, 62.02738856907527 -36, 132.76953125 -36" stroke="#9370DB" stroke-width="1.3" fill="none" stroke-dasharray="0 0" style=""></path></g><g class="divider" style=""><path d="M-132.76953125 84 C-64.05994470344393 84, 4.649641843112136 84, 132.76953125 84 M-132.76953125 84 C-43.56286348172807 84, 45.643804286543855 84, 132.76953125 84" stroke="#9370DB" stroke-width="1.3" fill="none" stroke-dasharray="0 0" style=""></path></g></g><g class="node default" id="classId-SyncInternalUserCommand-2" transform="translate(455.63671875, 116)"><g class="basic label-container"><path d="M-132.09765625 -96 L132.09765625 -96 L132.09765625 96 L-132.09765625 96" stroke="none" stroke-width="0" fill="#ECECFF" style=""></path><path d="M-132.09765625 -96 C-32.30431481607185 -96, 67.4890266178563 -96, 132.09765625 -96 M-132.09765625 -96 C-27.965636635475306 -96, 76.16638297904939 -96, 132.09765625 -96 M132.09765625 -96 C132.09765625 -44.66917356171713, 132.09765625 6.661652876565739, 132.09765625 96 M132.09765625 -96 C132.09765625 -41.107920608384966, 132.09765625 13.784158783230069, 132.09765625 96 M132.09765625 96 C65.91868016873681 96, -0.26029591252637374 96, -132.09765625 96 M132.09765625 96 C62.46511679508066 96, -7.167422659838678 96, -132.09765625 96 M-132.09765625 96 C-132.09765625 42.426418622417934, -132.09765625 -11.147162755164132, -132.09765625 -96 M-132.09765625 96 C-132.09765625 25.109666040086907, -132.09765625 -45.780667919826186, -132.09765625 -96" stroke="#9370DB" stroke-width="1.3" fill="none" stroke-dasharray="0 0" style=""></path></g><g class="annotation-group text" transform="translate(-32.3046875, -72)"><g class="label" style="" transform="translate(0,-12)"><foreignObject width="64.609375" height="24"><div xmlns="http://www.w3.org/1999/xhtml" style="display: table-cell; white-space: nowrap; line-height: 1.5; max-width: 115px; text-align: center;"><span class="nodeLabel markdown-node-label" style=""><p>«record»</p></span></div></foreignObject></g></g><g class="label-group text" transform="translate(-99.0078125, -48)"><g class="label" style="font-weight: bolder" transform="translate(0,-12)"><foreignObject width="198.015625" height="24"><div xmlns="http://www.w3.org/1999/xhtml" style="display: table-cell; white-space: nowrap; line-height: 1.5; max-width: 247px; text-align: center;"><span class="nodeLabel markdown-node-label" style=""><p>SyncInternalUserCommand</p></span></div></foreignObject></g></g><g class="members-group text" transform="translate(-120.09765625, 0)"><g class="label" style="" transform="translate(0,-12)"><foreignObject width="119.3125" height="24"><div xmlns="http://www.w3.org/1999/xhtml" style="display: table-cell; white-space: nowrap; line-height: 1.5; max-width: 169px; text-align: center;"><span class="nodeLabel markdown-node-label" style=""><p>String username</p></span></div></foreignObject></g><g class="label" style="" transform="translate(0,12)"><foreignObject width="87.46875" height="24"><div xmlns="http://www.w3.org/1999/xhtml" style="display: table-cell; white-space: nowrap; line-height: 1.5; max-width: 138px; text-align: center;"><span class="nodeLabel markdown-node-label" style=""><p>String email</p></span></div></foreignObject></g><g class="label" style="" transform="translate(0,36)"><foreignObject width="141.1875" height="24"><div xmlns="http://www.w3.org/1999/xhtml" style="display: table-cell; white-space: nowrap; line-height: 1.5; max-width: 191px; text-align: center;"><span class="nodeLabel markdown-node-label" style=""><p>String displayName</p></span></div></foreignObject></g></g><g class="methods-group text" transform="translate(-120.09765625, 96)"></g><g class="divider" style=""><path d="M-132.09765625 -24 C-58.105178341845004 -24, 15.887299566309991 -24, 132.09765625 -24 M-132.09765625 -24 C-29.290534219922932 -24, 73.51658781015414 -24, 132.09765625 -24" stroke="#9370DB" stroke-width="1.3" fill="none" stroke-dasharray="0 0" style=""></path></g><g class="divider" style=""><path d="M-132.09765625 72 C-62.53614834521353 72, 7.025359559572934 72, 132.09765625 72 M-132.09765625 72 C-72.00896148512527 72, -11.920266720250524 72, 132.09765625 72" stroke="#9370DB" stroke-width="1.3" fill="none" stroke-dasharray="0 0" style=""></path></g></g><g class="node default" id="classId-UserProfileRepository-3" transform="translate(1128.763671875, 457)"><g class="basic label-container"><path d="M-255.4296875 -99 L255.4296875 -99 L255.4296875 99 L-255.4296875 99" stroke="none" stroke-width="0" fill="#ECECFF" style=""></path><path d="M-255.4296875 -99 C-83.88091631425212 -99, 87.66785487149576 -99, 255.4296875 -99 M-255.4296875 -99 C-111.58666956488929 -99, 32.25634837022142 -99, 255.4296875 -99 M255.4296875 -99 C255.4296875 -26.299545506671052, 255.4296875 46.400908986657896, 255.4296875 99 M255.4296875 -99 C255.4296875 -57.026804720732294, 255.4296875 -15.053609441464587, 255.4296875 99 M255.4296875 99 C139.99209364079786 99, 24.554499781595695 99, -255.4296875 99 M255.4296875 99 C78.44664054239908 99, -98.53640641520184 99, -255.4296875 99 M-255.4296875 99 C-255.4296875 39.23173932259859, -255.4296875 -20.536521354802815, -255.4296875 -99 M-255.4296875 99 C-255.4296875 25.50723390295616, -255.4296875 -47.98553219408768, -255.4296875 -99" stroke="#9370DB" stroke-width="1.3" fill="none" stroke-dasharray="0 0" style=""></path></g><g class="annotation-group text" transform="translate(-41.015625, -75)"><g class="label" style="" transform="translate(0,-12)"><foreignObject width="82.03125" height="24"><div xmlns="http://www.w3.org/1999/xhtml" style="display: table-cell; white-space: nowrap; line-height: 1.5; max-width: 132px; text-align: center;"><span class="nodeLabel markdown-node-label" style=""><p>«interface»</p></span></div></foreignObject></g></g><g class="label-group text" transform="translate(-80.25, -51)"><g class="label" style="font-weight: bolder" transform="translate(0,-12)"><foreignObject width="160.5" height="24"><div xmlns="http://www.w3.org/1999/xhtml" style="display: table-cell; white-space: nowrap; line-height: 1.5; max-width: 207px; text-align: center;"><span class="nodeLabel markdown-node-label" style=""><p>UserProfileRepository</p></span></div></foreignObject></g></g><g class="members-group text" transform="translate(-243.4296875, -3)"></g><g class="methods-group text" transform="translate(-243.4296875, 27)"><g class="label" style="" transform="translate(0,-12)"><foreignObject width="220.625" height="24"><div xmlns="http://www.w3.org/1999/xhtml" style="display: table-cell; white-space: nowrap; line-height: 1.5; max-width: 278px; text-align: center;"><span class="nodeLabel markdown-node-label" style=""><p>+save(userProfile) : UserProfile</p></span></div></foreignObject></g><g class="label" style="" transform="translate(0,12)"><foreignObject width="406.609375" height="24"><div xmlns="http://www.w3.org/1999/xhtml" style="display: table-cell; white-space: nowrap; line-height: 1.5; max-width: 504px; text-align: center;"><span class="nodeLabel markdown-node-label" style=""><p>+findByOidcSubject(oidcSubject) : Optional&lt;UserProfile&gt;</p></span></div></foreignObject></g><g class="label" style="" transform="translate(0,36)"><foreignObject width="321.484375" height="24"><div xmlns="http://www.w3.org/1999/xhtml" style="display: table-cell; white-space: nowrap; line-height: 1.5; max-width: 379px; text-align: center;"><span class="nodeLabel markdown-node-label" style=""><p>+existsByOidcSubject(oidcSubject) : boolean</p></span></div></foreignObject></g></g><g class="divider" style=""><path d="M-255.4296875 -27 C-145.2357829894168 -27, -35.04187847883364 -27, 255.4296875 -27 M-255.4296875 -27 C-96.10221076098563 -27, 63.225265978028744 -27, 255.4296875 -27" stroke="#9370DB" stroke-width="1.3" fill="none" stroke-dasharray="0 0" style=""></path></g><g class="divider" style=""><path d="M-255.4296875 -3 C-118.40874874750651 -3, 18.612190004986985 -3, 255.4296875 -3 M-255.4296875 -3 C-92.87386988405723 -3, 69.68194773188554 -3, 255.4296875 -3" stroke="#9370DB" stroke-width="1.3" fill="none" stroke-dasharray="0 0" style=""></path></g></g><g class="node default" id="classId-UserProfileService-4" transform="translate(847.19921875, 116)"><g class="basic label-container"><path d="M-209.46484375 -84 L209.46484375 -84 L209.46484375 84 L-209.46484375 84" stroke="none" stroke-width="0" fill="#ECECFF" style=""></path><path d="M-209.46484375 -84 C-67.21367678746228 -84, 75.03749017507545 -84, 209.46484375 -84 M-209.46484375 -84 C-86.82390694353475 -84, 35.8170298629305 -84, 209.46484375 -84 M209.46484375 -84 C209.46484375 -22.102182975008432, 209.46484375 39.795634049983136, 209.46484375 84 M209.46484375 -84 C209.46484375 -39.90209794387512, 209.46484375 4.1958041122497605, 209.46484375 84 M209.46484375 84 C64.38103223089149 84, -80.70277928821702 84, -209.46484375 84 M209.46484375 84 C102.62570333472912 84, -4.213437080541752 84, -209.46484375 84 M-209.46484375 84 C-209.46484375 22.839196141777236, -209.46484375 -38.32160771644553, -209.46484375 -84 M-209.46484375 84 C-209.46484375 37.45581990726185, -209.46484375 -9.088360185476304, -209.46484375 -84" stroke="#9370DB" stroke-width="1.3" fill="none" stroke-dasharray="0 0" style=""></path></g><g class="annotation-group text" transform="translate(0, -60)"></g><g class="label-group text" transform="translate(-67.1328125, -60)"><g class="label" style="font-weight: bolder" transform="translate(0,-12)"><foreignObject width="134.265625" height="24"><div xmlns="http://www.w3.org/1999/xhtml" style="display: table-cell; white-space: nowrap; line-height: 1.5; max-width: 181px; text-align: center;"><span class="nodeLabel markdown-node-label" style=""><p>UserProfileService</p></span></div></foreignObject></g></g><g class="members-group text" transform="translate(-197.46484375, -12)"><g class="label" style="" transform="translate(0,-12)"><foreignObject width="242.21875" height="24"><div xmlns="http://www.w3.org/1999/xhtml" style="display: table-cell; white-space: nowrap; line-height: 1.5; max-width: 300px; text-align: center;"><span class="nodeLabel markdown-node-label" style=""><p>-UserProfileRepository repository</p></span></div></foreignObject></g></g><g class="methods-group text" transform="translate(-197.46484375, 36)"><g class="label" style="" transform="translate(0,-12)"><foreignObject width="282.796875" height="24"><div xmlns="http://www.w3.org/1999/xhtml" style="display: table-cell; white-space: nowrap; line-height: 1.5; max-width: 340px; text-align: center;"><span class="nodeLabel markdown-node-label" style=""><p>+syncFromOidc(command) : UserProfile</p></span></div></foreignObject></g><g class="label" style="" transform="translate(0,12)"><foreignObject width="327.796875" height="24"><div xmlns="http://www.w3.org/1999/xhtml" style="display: table-cell; white-space: nowrap; line-height: 1.5; max-width: 385px; text-align: center;"><span class="nodeLabel markdown-node-label" style=""><p>+findByOidcSubject(oidcSubject) : UserProfile</p></span></div></foreignObject></g></g><g class="divider" style=""><path d="M-209.46484375 -36 C-46.60929371607804 -36, 116.24625631784392 -36, 209.46484375 -36 M-209.46484375 -36 C-47.78373001942009 -36, 113.89738371115982 -36, 209.46484375 -36" stroke="#9370DB" stroke-width="1.3" fill="none" stroke-dasharray="0 0" style=""></path></g><g class="divider" style=""><path d="M-209.46484375 12 C-71.63250785215146 12, 66.19982804569707 12, 209.46484375 12 M-209.46484375 12 C-103.4477838589152 12, 2.569276032169597 12, 209.46484375 12" stroke="#9370DB" stroke-width="1.3" fill="none" stroke-dasharray="0 0" style=""></path></g></g></g></g></g></svg>